<?xml version="1.0" standalone="no"?>
<!DOCTYPE svg PUBLIC "-//W3C//DTD SVG 1.1//EN" "http://www.w3.org/Graphics/SVG/1.1/DTD/svg11.dtd" >
<svg xmlns="http://www.w3.org/2000/svg" xmlns:xlink="http://www.w3.org/1999/xlink" version="1.1">
<metadata>
Created by FontForge 20190801 at Thu Jan 14 21:35:19 2016
 By www-data
Copyright (C) 2016 Hoefler &#38; Co. http://www.typography.com
</metadata>
<defs>
<font id="OperatorMonoMediumItalic" horiz-adv-x="550" >
  <font-face 
    font-family="OperatorMonoMediumItalic"
    font-weight="350"
    font-style="italic"
    font-stretch="normal"
    units-per-em="1000"
    panose-1="2 0 0 9 0 0 0 0 0 0"
    ascent="800"
    descent="-200"
    x-height="497"
    cap-height="620"
    bbox="-75 -364 743 1137"
    underline-thickness="89"
    underline-position="-139"
    slope="-11"
    unicode-range="U+0020-E10D"
  />
<missing-glyph 
d="M8 -200l-15 1000h540l15 -1000h-540zM70 750l199 -390l188 390h-387zM480 676l-179 -376l191 -376zM60 -76l180 376l-192 376zM271 240l-187 -390h387z" />
    <glyph glyph-name=".notdef" 
d="M8 -200l-15 1000h540l15 -1000h-540zM70 750l199 -390l188 390h-387zM480 676l-179 -376l191 -376zM60 -76l180 376l-192 376zM271 240l-187 -390h387z" />
    <glyph glyph-name=".null" horiz-adv-x="0" 
 />
    <glyph glyph-name="nonmarkingreturn" horiz-adv-x="333" 
 />
    <glyph glyph-name="space" unicode=" " 
 />
    <glyph glyph-name="exclam" unicode="!" 
d="M307 245h-72q5 25 26.5 218t25.5 214h140q-5 -19 -59.5 -212.5t-60.5 -219.5zM286 0h-135l26 131h135z" />
    <glyph glyph-name="quotedbl" unicode="&#x22;" 
d="M432 379h-77l49 294h124l-5 -41zM217 379h-77l49 294h125l-6 -41z" />
    <glyph glyph-name="numbersign" unicode="#" 
d="M218 244l107 18l25 120l-107 -18zM164 -9l-76 -9l33 155l-93 -16l19 94l95 16l25 120l-92 -16l18 94l95 16l35 165l75 10l-35 -162l107 18l34 158l76 10l-33 -155l94 16l-19 -93l-95 -16l-26 -121l94 16l-19 -93l-95 -16l-36 -168l-75 -9l35 164l-107 -19z" />
    <glyph glyph-name="dollar" unicode="$" 
d="M212 461q0 -28 65 -82l38 124q-103 3 -103 -42zM367 161q0 28 -67 84l-38 -128q105 -1 105 44zM220 -75h-96l32 108q-55 4 -124 18l21 97q83 -20 142 -27l50 167q-63 49 -98.5 90.5t-35.5 83.5q0 53 54 90t165 37l31 105h97l-36 -111q59 -8 100 -17l-19 -96
q-63 17 -123 26l-49 -160q42 -35 66.5 -57.5t47 -57t22.5 -64.5q0 -52 -53.5 -88.5t-165.5 -39.5z" />
    <glyph glyph-name="percent" unicode="%" 
d="M219 632q32 0 53 -27t21 -73q0 -65 -35.5 -113.5t-78.5 -48.5q-32 0 -53 26.5t-21 73.5q0 65 35 113.5t79 48.5zM557 580l-457 -590l-57 49l457 591zM383 -14q-32 0 -53 26.5t-21 71.5q0 65 35 115t78 50q33 0 53.5 -26t20.5 -72q0 -65 -35 -115t-78 -50z" />
    <glyph glyph-name="ampersand" unicode="&#x26;" 
d="M437 -20q-50 56 -92 115q-110 -104 -208 -104q-59 0 -91 34.5t-32 93.5q0 146 194 302q-1 10 -1 28q0 82 41.5 136.5t90.5 54.5q33 0 53.5 -17t20.5 -47q0 -36 -26 -82t-73 -90q15 -76 58 -154q40 59 77 132l88 -31q-61 -104 -118 -174q44 -63 107 -132zM170 86
q57 0 131 75q-54 90 -75 168q-108 -106 -108 -184q0 -59 52 -59z" />
    <glyph glyph-name="quotesingle" unicode="'" 
d="M324 379h-79l50 294h130l-4 -41z" />
    <glyph glyph-name="parenleft" unicode="(" 
d="M474 719l58 -71q-177 -119 -248.5 -220.5t-71.5 -212.5q0 -165 178 -361l-83 -60q-199 228 -199 420q0 128 85 248t281 257z" />
    <glyph glyph-name="parenright" unicode=")" 
d="M67 -210l-58 71q177 118 248 219.5t71 213.5q0 167 -178 361l84 60q199 -230 199 -420q0 -128 -85.5 -248t-280.5 -257z" />
    <glyph glyph-name="asterisk" unicode="*" 
d="M358 232l-73 135l-135 -74l-43 54l105 110l-115 107l40 58l137 -67l65 141l69 -19l-19 -153l153 -18l3 -68l-153 -30l31 -150z" />
    <glyph glyph-name="plus" unicode="+" 
d="M496 252h-171l-35 -179h-97l35 179h-173l19 91h171l35 179h97l-35 -179h173z" />
    <glyph glyph-name="comma" unicode="," 
d="M109 -136q50 63 66 126t10 152l137 4q-1 -91 -42.5 -163t-126.5 -143z" />
    <glyph glyph-name="hyphen" unicode="-" 
d="M441 344l-17 -93h-302l18 93h301z" />
    <glyph glyph-name="period" unicode="." 
d="M297 0h-139l26 141h139z" />
    <glyph glyph-name="slash" unicode="/" 
d="M533 726l89 -36l-598 -878l-96 28z" />
    <glyph glyph-name="zero" unicode="0" 
d="M53 219q0 109 37.5 203.5t104.5 152t147 57.5q82 0 130.5 -59.5t48.5 -170.5q0 -167 -84 -290.5t-205 -123.5q-83 0 -131 59.5t-48 171.5zM323 544q-59 0 -104 -75.5t-57 -178.5l253 132q-11 122 -92 122zM251 76q60 0 105 76.5t57 181.5l-254 -131q9 -127 92 -127z" />
    <glyph glyph-name="one" unicode="1" 
d="M444 0h-398l18 90h158l73 377l-149 -3l13 77l153 17l15 75l105 9l-107 -551h144z" />
    <glyph glyph-name="two" unicode="2" 
d="M440 0h-401v83q191 127 272.5 202t81.5 147q0 123 -258 84l15 100q170 27 261 -14.5t91 -141.5q0 -63 -39 -124.5t-102.5 -115t-173.5 -127.5h271z" />
    <glyph glyph-name="three" unicode="3" 
d="M474 177q0 -38 -23 -72.5t-70.5 -63t-133.5 -40.5t-198 -1l13 101q121 -17 190 -8.5t94.5 26t25.5 44.5q0 75 -226 134l6 48l250 182h-258l18 93h367l-11 -90l-247 -181q203 -59 203 -172z" />
    <glyph glyph-name="four" unicode="4" 
d="M481 122h-59l-24 -122h-98l24 122h-283l4 70q110 192 183 435l113 -6q-45 -135 -89 -227t-103 -180h193l39 197l99 8l-40 -205h67z" />
    <glyph glyph-name="five" unicode="5" 
d="M476 204q0 -43 -24 -82t-72.5 -70.5t-134.5 -46t-197 -5.5l12 101q120 -14 190 -1t97.5 35t27.5 53q0 87 -255 130l69 302h344l-27 -93h-241l-32 -141q243 -52 243 -182z" />
    <glyph glyph-name="six" unicode="6" 
d="M253 -12q-87 0 -139 54.5t-52 157.5q0 138 98 257t304 181l24 -93q-246 -67 -308 -226q72 56 144 60t117 -40.5t45 -122.5q0 -100 -67.5 -164t-165.5 -64zM273 73q52 0 83.5 36.5t31.5 90.5q0 79 -67 98.5t-156 -45.5q-2 -22 -2 -31q0 -78 31 -113.5t79 -35.5z" />
    <glyph glyph-name="seven" unicode="7" 
d="M197 -6l-108 11q145 272 337 514v5h-298l21 96h412l-19 -88q-192 -247 -345 -538z" />
    <glyph glyph-name="eight" unicode="8" 
d="M458 154q0 -69 -65 -117.5t-163 -48.5q-85 0 -136 38t-51 99q0 48 35 93.5t131 108.5q-82 78 -82 143q0 79 92.5 126.5t250.5 29.5l-30 -102q-80 19 -127.5 15.5t-66.5 -17t-19 -37.5q0 -39 69 -104q85 50 205 113l32 -62q-134 -73 -184 -102q51 -49 80 -90.5t29 -85.5z
M253 72q46 0 77 21.5t31 53.5q0 28 -24.5 57.5t-73.5 72.5q-70 -46 -94 -75t-24 -55q0 -35 31 -55t77 -20z" />
    <glyph glyph-name="nine" unicode="9" 
d="M110 -17l-24 93q249 66 309 228q-72 -57 -144 -62t-117.5 40t-45.5 123q0 100 68 164t165 64q87 0 139 -54.5t52 -157.5q0 -66 -22 -128t-68 -120.5t-126 -108t-186 -81.5zM186 421q0 -79 67.5 -98.5t156.5 45.5q2 20 2 30q0 79 -31 114.5t-79 35.5q-52 0 -84 -36.5
t-32 -90.5z" />
    <glyph glyph-name="colon" unicode=":" 
d="M360 321h-138l26 141h139zM294 0h-139l28 141h138z" />
    <glyph glyph-name="semicolon" unicode=";" 
d="M360 321h-138l26 141h139zM111 -136q50 63 66.5 125t12.5 151l137 2q-4 -88 -45.5 -159.5t-127.5 -142.5z" />
    <glyph glyph-name="less" unicode="&#x3c;" 
d="M471 611l45 -84l-328 -217l-2 -10l249 -250l-74 -72l-280 291l16 91z" />
    <glyph glyph-name="equal" unicode="=" 
d="M522 456l-18 -91h-412l19 91h411zM480 236l-19 -91h-412l19 91h412z" />
    <glyph glyph-name="greater" unicode="&#x3e;" 
d="M102 -22l-45 85l328 216l2 11l-250 249l74 72l281 -291l-17 -91z" />
    <glyph glyph-name="question" unicode="?" 
d="M135 572l24 107q184 -19 272 -62t88 -116q0 -64 -70.5 -129.5t-228.5 -143.5l-34 57q117 61 163.5 100t46.5 77q0 46 -61.5 70t-199.5 40zM242 0h-134l26 129h134z" />
    <glyph glyph-name="at" unicode="@" 
d="M415 -145q-378 -70 -378 278q0 139 49 266t136 206.5t188 79.5q95 0 132 -67t11 -193l-38 -187q-14 -72 -29 -173l-90 1l6 52q-64 -61 -113 -61q-34 0 -54 31.5t-20 93.5q0 115 59 207.5t154 92.5q19 0 40 -3q17 125 -74 125q-65 0 -127.5 -64.5t-101.5 -173t-39 -225.5
q0 -133 69.5 -183.5t232.5 -19.5zM338 146q33 0 72 33l41 211q-31 12 -56 12q-31 0 -60 -66.5t-29 -129.5q0 -60 32 -60z" />
    <glyph glyph-name="A" unicode="A" 
d="M368 -4q-6 116 -9 175h-186l-72 -171h-112q130 298 287 621h153q32 -341 49 -617zM330 526q-6 -15 -51.5 -116.5t-69.5 -155.5h146q-5 97 -17 272h-8z" />
    <glyph glyph-name="B" unicode="B" 
d="M493 192q0 -46 -24.5 -85t-78.5 -70t-140.5 -40t-210.5 4l119 615q185 28 276 -10t91 -119q0 -53 -37 -96.5t-104 -69.5q51 -14 80 -48.5t29 -80.5zM417 463q0 42 -42.5 62.5t-121.5 11.5l-38 -198q100 6 151 41t51 83zM386 187q0 48 -45.5 72t-137.5 16l-37 -187
q105 -14 162.5 15.5t57.5 83.5z" />
    <glyph glyph-name="C" unicode="C" 
d="M376 633q86 0 120 -58.5t29 -181.5l-105 -2q2 79 -11.5 111.5t-55.5 32.5q-51 0 -94.5 -45t-66.5 -111.5t-23 -135.5q0 -114 72.5 -144.5t226.5 21.5l-11 -99q-192 -64 -295.5 -9t-103.5 214q0 161 94 284t224 123z" />
    <glyph glyph-name="D" unicode="D" 
d="M528 387q0 -88 -28.5 -163t-85.5 -132t-155 -82.5t-225 -8.5l119 616q375 61 375 -230zM417 376q0 174 -170 158l-86 -447q82 -5 141.5 35t87 106t27.5 148z" />
    <glyph glyph-name="E" unicode="E" 
d="M450 93l-25 -93h-377l120 620h380l-18 -93h-269l-34 -175h228l-16 -81h-228l-35 -178h274z" />
    <glyph glyph-name="F" unicode="F" 
d="M447 255h-235l-50 -255h-111l120 620h390l-17 -95h-280l-36 -184h236z" />
    <glyph glyph-name="G" unicode="G" 
d="M412 -107l-101 -2l25 109q-132 -31 -205.5 28t-73.5 191q0 107 41.5 202.5t114 153.5t155.5 58q85 0 120 -58t28 -182l-104 -2q2 77 -11.5 110t-53.5 33q-75 0 -126.5 -93.5t-51.5 -205.5q0 -195 189 -138l33 146l104 3z" />
    <glyph glyph-name="H" unicode="H" 
d="M328 0l52 270h-186l-52 -270h-113l120 620h113l-51 -264h186l51 264h112l-120 -620h-112z" />
    <glyph glyph-name="I" unicode="I" 
d="M295 88h144l-21 -88h-390l17 88h139l86 444h-141l17 88h390l-16 -88h-139z" />
    <glyph glyph-name="J" unicode="J" 
d="M364 52q-66 -66 -334 -63l17 101q127 -2 170.5 2.5t60.5 21.5q12 12 21 43t28 124l49 251h-196l18 88h307l-64 -327q-25 -130 -40 -174.5t-37 -66.5z" />
    <glyph glyph-name="K" unicode="K" 
d="M373 -7l-152 317l252 310h119l-252 -311l150 -302zM157 620h110l-120 -620h-111z" />
    <glyph glyph-name="L" unicode="L" 
d="M449 0h-396l120 620h112l-101 -525h284z" />
    <glyph glyph-name="M" unicode="M" 
d="M257 623l27 -366h2l168 363h118l-119 -620h-105l86 425h-4l-141 -302h-61l-22 302h-3l-76 -425h-102l119 617z" />
    <glyph glyph-name="N" unicode="N" 
d="M345 0l-127 425h-5l-79 -425h-104l120 618l107 4l118 -422h5l78 420h104l-120 -620h-97z" />
    <glyph glyph-name="O" unicode="O" 
d="M346 632q87 0 139 -58.5t52 -176.5q0 -164 -84.5 -287t-210.5 -123q-87 0 -138.5 58.5t-51.5 176.5q0 106 37 199.5t105.5 152t151.5 58.5zM255 83q71 0 118.5 95t47.5 215q0 72 -23.5 108t-64.5 36q-47 0 -85.5 -46.5t-59 -117t-20.5 -146.5q0 -144 87 -144z" />
    <glyph glyph-name="P" unicode="P" 
d="M152 0h-110l119 617q195 28 289.5 -19.5t94.5 -145.5q0 -108 -94.5 -178.5t-262.5 -88.5zM437 434q0 55 -47 82t-135 15l-48 -248q108 -6 169 36.5t61 114.5z" />
    <glyph glyph-name="Q" unicode="Q" 
d="M409 -147l-297 128l27 81q127 48 205.5 148t78.5 208q0 121 -98 121q-86 0 -127.5 -107t-5.5 -269l-96 -35q-36 94 -30.5 184.5t37.5 162t95.5 115.5t142.5 44q96 0 146.5 -57.5t50.5 -154.5q0 -119 -80 -225.5t-205 -169.5l201 -85z" />
    <glyph glyph-name="R" unicode="R" 
d="M372 -8l-133 287v1q94 43 134.5 84t40.5 89q0 46 -42 67t-123 11l-102 -531h-110l119 617q194 27 281.5 -14.5t87.5 -127.5q0 -122 -162 -211l129 -256z" />
    <glyph glyph-name="S" unicode="S" 
d="M522 455l-97 -19q-12 55 -37.5 79t-69.5 24q-41 0 -68 -24t-27 -59q0 -28 25.5 -57.5t61.5 -55.5t72.5 -53.5t62 -63.5t25.5 -74q0 -41 -24.5 -74.5t-78 -58.5t-137.5 -27t-203 20l22 108q66 -18 119 -26t87.5 -6.5t57.5 9.5t32.5 20.5t9.5 28.5q0 21 -18 43t-45 41
t-59 43.5t-59 48t-45 55.5t-18 66q0 77 65 133t164 56q80 0 123.5 -44.5t58.5 -132.5z" />
    <glyph glyph-name="T" unicode="T" 
d="M385 525l-102 -525h-112l101 525h-178l19 95h469l-19 -95h-178z" />
    <glyph glyph-name="U" unicode="U" 
d="M182 230q-29 -148 74 -148q90 0 114 123l80 415h111l-80 -413q-44 -221 -239 -221q-103 0 -149 61t-21 189l75 384h110z" />
    <glyph glyph-name="V" unicode="V" 
d="M304 0h-155q-35 328 -49 616l111 8q7 -206 31 -523h9q155 335 233 519h112q-136 -309 -292 -620z" />
    <glyph glyph-name="W" unicode="W" 
d="M311 0l-17 296l-132 -296h-107q7 214 67 620h110q-68 -445 -70 -470h4l126 284h62l15 -284h4q10 31 111 470h108q-97 -397 -171 -620h-110z" />
    <glyph glyph-name="X" unicode="X" 
d="M361 -3l-89 237l-165 -234h-120l239 317l-120 300l115 6l90 -238l165 235h121l-241 -318l120 -299z" />
    <glyph glyph-name="Y" unicode="Y" 
d="M285 0h-111l40 207l-118 411l115 4l80 -311l193 309h119l-279 -420z" />
    <glyph glyph-name="Z" unicode="Z" 
d="M442 0h-425l17 94l381 431l-293 -2l19 97h414l-15 -94l-377 -431l297 2z" />
    <glyph glyph-name="bracketleft" unicode="[" 
d="M55 -179l171 876h317l-17 -86h-211l-136 -705h211l-17 -85h-318z" />
    <glyph glyph-name="backslash" unicode="\" 
d="M184 727l271 -891l-90 -29l-270 892z" />
    <glyph glyph-name="bracketright" unicode="]" 
d="M491 698l-171 -876h-317l17 85h211l136 705h-211l17 86h318z" />
    <glyph glyph-name="asciicircum" unicode="^" 
d="M423 148l-131 213l-181 -214l-67 57l255 296l21 3l189 -300z" />
    <glyph glyph-name="underscore" unicode="_" 
d="M471 -51l-16 -82h-492l15 82h493z" />
    <glyph glyph-name="grave" unicode="`" 
d="M410 599l-24 -44q-53 21 -126.5 61.5t-124.5 76.5l66 85q107 -107 209 -179z" />
    <glyph glyph-name="a" unicode="a" 
d="M202 89q53 0 130 72q23 108 47 241q-48 16 -85 16q-58 0 -102 -78.5t-44 -170.5q0 -41 15 -60.5t39 -19.5zM516 41q-75 -45 -119.5 -51t-60 20t-11.5 80q-106 -102 -180 -102q-47 0 -76 39.5t-29 115.5q0 94 37 176.5t109.5 135.5t163.5 53q73 0 149 -22l-68 -352
q-9 -43 2.5 -49.5t72.5 10.5z" />
    <glyph glyph-name="b" unicode="b" 
d="M200 -12q-69 0 -157 28l132 681l107 8l-56 -287q99 94 173 94q49 0 79.5 -43.5t30.5 -124.5q0 -142 -86.5 -249t-222.5 -107zM254 79q59 0 104 75t45 163q0 48 -17 72t-43 24q-53 0 -132 -75l-47 -243q51 -16 90 -16z" />
    <glyph glyph-name="c" unicode="c" 
d="M500 328l-98 -1q0 50 -15.5 71t-52.5 21q-69 0 -118.5 -65.5t-49.5 -153.5t62 -110t226 14l10 -56q-137 -64 -227 -58.5t-134 55.5t-44 134q0 133 91 232.5t214 99.5q75 0 108.5 -43.5t27.5 -139.5z" />
    <glyph glyph-name="d" unicode="d" 
d="M206 89q54 0 126 70l48 247q-49 16 -86 16q-58 0 -102.5 -75.5t-44.5 -162.5q0 -47 16.5 -71t42.5 -24zM521 43q-77 -44 -123 -50.5t-61.5 17.5t-11.5 77q-101 -99 -175 -99q-48 0 -78.5 43t-30.5 123q0 91 36.5 171.5t108 133t160.5 52.5q29 0 54 -4l37 190l107 8
l-112 -572q-8 -44 4 -50.5t76 12.5z" />
    <glyph glyph-name="e" unicode="e" 
d="M480 58q-102 -52 -185 -64.5t-135 9.5t-79.5 67t-27.5 108q0 80 40 156.5t111.5 127t154.5 50.5q68 0 107 -33.5t39 -91.5q0 -86 -89.5 -138t-259.5 -64q2 -83 70.5 -99.5t241.5 27.5zM331 424q-63 0 -109.5 -53t-60.5 -127q243 19 243 120q0 27 -20 43.5t-53 16.5z" />
    <glyph glyph-name="f" unicode="f" 
d="M411 14q0 -83 -55.5 -137.5t-130.5 -54.5q-71 0 -113.5 60t-42.5 176q0 86 24 184l-43 16l16 67h52q57 161 156 270.5t197 109.5q58 0 81.5 -38.5t4 -102.5t-79.5 -133l-46 19q29 39 38 72t-2 52t-38 19q-55 0 -112.5 -76.5t-96.5 -191.5l281 1l-16 -87l-208 5
q134 -111 134 -230zM264 -94q34 0 55 24.5t21 64.5q0 115 -150 221q-16 -82 -16 -152q0 -158 90 -158z" />
    <glyph glyph-name="g" unicode="g" 
d="M220 124q58 0 116 72q10 99 48 200q-50 27 -90 27q-58 0 -99 -67.5t-41 -144.5q0 -44 18 -65.5t48 -21.5zM428 -69q-59 -117 -391 -102l11 103q132 -8 201.5 -2t85.5 23q9 9 9.5 29t-4 67.5t-5.5 69.5q-86 -91 -168 -91q-53 0 -86 39t-33 114q0 128 82 228.5t204 100.5
q50 0 97 -21q17 25 32 25q21 0 45 -12t24 -25q0 -33 -30.5 -111.5t-72.5 -154.5q-1 -10 -1 -28q0 -45 6 -102.5t6 -91t-12 -58.5z" />
    <glyph glyph-name="h" unicode="h" 
d="M518 41q-64 -39 -109.5 -48.5t-66.5 7.5t-21 55t30 152.5t30 151.5q0 50 -43 50q-55 0 -135 -82l-63 -327h-105l135 697l107 8l-57 -294q98 100 186 100q89 0 89 -98q0 -55 -31 -173.5t-31 -138.5q0 -12 5 -16.5t21 -2.5t48 13z" />
    <glyph glyph-name="i" unicode="i" 
d="M391 579l-114 -5l32 136l124 6zM483 49q-98 -42 -166.5 -54.5t-104 3t-46.5 52.5t7 96l71 261l-167 -14l-7 56l208 49h91l-87 -333q-6 -24 -7.5 -38t3.5 -25t17 -15t36 -4t57.5 5.5t84.5 16.5z" />
    <glyph glyph-name="j" unicode="j" 
d="M456 579l-115 -5l34 139l123 6zM-7 -173l9 103q142 -4 179.5 -1.5t51.5 16.5q13 13 15 60.5t13.5 160t43.5 243.5l-187 -12l-8 55l224 47l99 -1q-39 -132 -58.5 -251.5t-21.5 -181t-11 -110.5t-33 -73q-31 -31 -95 -42t-221 -13z" />
    <glyph glyph-name="k" unicode="k" 
d="M381 -7l-157 203q187 107 187 180q0 37 -42 37q-65 0 -162 -100l-61 -313h-105l135 697l107 8l-59 -304q108 110 207 110q45 0 70.5 -24t25.5 -64q0 -106 -183 -221l158 -195z" />
    <glyph glyph-name="l" unicode="l" 
d="M475 63q-142 -83 -233.5 -71t-116.5 116q-40 -23 -48 -29l-26 44q2 1 12 8t27 18t27 17q-1 9 -1 27q0 99 29 195t74.5 165t103 111.5t113.5 42.5q48 0 75 -29.5t27 -82.5q0 -95 -78.5 -206t-232.5 -223q11 -76 68 -86t163 37zM397 602q-57 0 -112.5 -109.5t-60.5 -257.5
q108 91 161.5 173t53.5 141q0 26 -11.5 39.5t-30.5 13.5z" />
    <glyph glyph-name="m" unicode="m" 
d="M523 20q-54 -23 -87.5 -28t-49 6.5t-15.5 40.5q0 32 31.5 170.5t31.5 167.5t-21 29q-27 0 -66 -36l-72 -370h-77l66 337q8 33 4.5 51t-21.5 18q-30 0 -67 -37q-9 -49 -26.5 -138.5t-29 -151t-15.5 -79.5h-101q69 354 92 494l96 6q0 -3 -1.5 -12t-3 -22t-2.5 -23
q60 66 112 66q55 0 54 -75q71 75 130 75t59 -69q0 -49 -35.5 -193t-35.5 -164t40 -8z" />
    <glyph glyph-name="n" unicode="n" 
d="M518 41q-64 -39 -109.5 -48.5t-66.5 7.5t-21 55t30 152.5t30 151.5q0 50 -43 50q-53 0 -132 -77q-6 -31 -34.5 -172.5t-31.5 -159.5h-105q68 351 89 495l105 6q0 -3 -2.5 -18t-5.5 -36t-5 -38q100 102 190 102q89 0 89 -98q0 -55 -31 -173.5t-31 -138.5q0 -12 5 -16.5
t21 -2.5t48 13z" />
    <glyph glyph-name="o" unicode="o" 
d="M46 192q0 131 77.5 225.5t192.5 94.5q87 0 138 -54.5t51 -150.5q0 -132 -77.5 -226t-192.5 -94q-88 0 -138.5 54t-50.5 151zM397 293q0 62 -25.5 96t-70.5 34q-63 0 -105 -65t-42 -152q0 -62 25.5 -96t70.5 -34q63 0 105 65t42 152z" />
    <glyph glyph-name="p" unicode="p" 
d="M253 77q58 0 103 75.5t45 162.5q0 47 -16.5 71t-42.5 24t-63 -21t-70 -53q-12 -69 -46 -242q51 -17 90 -17zM112 -168l-105 -8q106 557 122 671l104 6q-4 -24 -14 -91q104 100 179 100q48 0 79 -42.5t31 -122.5q0 -91 -37 -172t-108.5 -133t-161.5 -52q-30 0 -58 4
q-8 -43 -19 -98t-12 -62z" />
    <glyph glyph-name="q" unicode="q" 
d="M510 -127q-134 -66 -180.5 -51.5t-29.5 107.5l28 147q-95 -88 -169 -88q-51 0 -83.5 43t-32.5 124q0 143 88 249.5t229 106.5q69 0 151 -29l-103 -524q-7 -37 6.5 -42.5t85.5 11.5zM212 88q53 0 131 69l47 249q-58 16 -92 16q-61 0 -105 -75t-44 -164q0 -47 17.5 -71
t45.5 -24z" />
    <glyph glyph-name="r" unicode="r" 
d="M507 32q-216 -96 -229 29q-9 95 90 320q-68 -19 -127 -22q-58 -105 -166 -213l-39 40q95 111 130 178q-58 13 -58 56q0 39 38 75.5t82 36.5q24 0 37.5 -14.5t13.5 -40.5q0 -14 -3 -29q103 17 181 56l51 -25q-121 -292 -120 -363q1 -44 44 -43q22 1 68 14z" />
    <glyph glyph-name="s" unicode="s" 
d="M474 144q0 -34 -17.5 -61t-56.5 -49.5t-111.5 -33.5t-173.5 -8l2 97q97 -8 152.5 -3t76.5 17.5t21 34.5q0 20 -15.5 44.5t-48 61t-46.5 56.5q-76 -56 -166 -103l-24 49q113 74 156 113q-12 27 -12 55q0 49 39.5 84.5t87.5 35.5q36 0 52.5 -19.5t5 -57.5t-54.5 -84
q13 -23 49.5 -67.5t60 -85t23.5 -76.5z" />
    <glyph glyph-name="t" unicode="t" 
d="M464 52q-75 -39 -136 -55t-99 -9t-62.5 30.5t-28 63.5t5.5 89l54 241h-92l21 83h60l86 139l81 6l-32 -145h180l-16 -83h-183l-52 -235q-12 -48 -0.5 -72.5t60 -24.5t146.5 26z" />
    <glyph glyph-name="u" unicode="u" 
d="M522 41q-113 -64 -156.5 -49.5t-34.5 97.5q-91 -102 -172 -102q-58 0 -81.5 47t-3.5 137l36 167l-49 32l84 126l105 7l-69 -318q-21 -96 36 -96t129 86l63 323h104l-71 -364q-9 -43 2 -50t68 11z" />
    <glyph glyph-name="v" unicode="v" 
d="M254 109q65 119 200 389h110q-134 -263 -272 -502h-131q-50 277 -76 498l107 8q19 -174 54 -393h8z" />
    <glyph glyph-name="w" unicode="w" 
d="M309 0l-32 236l-123 -236h-100q7 201 50 497h106q-17 -93 -60 -370h3l121 240h65l28 -241h5q60 271 80 371h111q-53 -205 -153 -497h-101z" />
    <glyph glyph-name="x" unicode="x" 
d="M346 -2l-89 190l-155 -188h-114l218 249l-122 246l118 5l90 -190l155 188h114l-218 -249l122 -246z" />
    <glyph glyph-name="y" unicode="y" 
d="M429 -68q-60 -117 -382 -102l15 103q239 -18 278 19q6 6 9 16t3.5 29.5t0 33.5t-2.5 45.5t-3 47.5q-96 -92 -189 -92q-186 0 -14 464l104 4q-33 -92 -51.5 -160t-24 -108t-1 -64.5t15.5 -32.5t28 -8q57 0 132 72q4 107 42.5 208t67.5 101q25 0 49.5 -9.5t24.5 -23.5
q0 -38 -27 -120.5t-66 -153.5v-6q0 -28 4.5 -92t2 -104t-15.5 -67z" />
    <glyph glyph-name="z" unicode="z" 
d="M430 0h-402l18 90l338 317l-276 -3l25 94h393l-18 -90l-337 -317l285 3z" />
    <glyph glyph-name="braceleft" unicode="{" 
d="M357 -211q-144 64 -202 108.5t-58 93.5q0 30 18.5 57.5t41 43.5t41 35.5t18.5 35.5q0 49 -124 67l16 76q150 8 150 57q0 16 -32 67t-32 86q0 133 338 213l20 -89q-135 -25 -195.5 -52t-60.5 -62q0 -18 30.5 -69.5t30.5 -77.5q0 -34 -31 -64.5t-95 -46.5q89 -30 89 -88
q0 -25 -18 -49t-39 -40.5t-39 -38t-18 -41.5q0 -33 46 -65.5t150 -76.5z" />
    <glyph glyph-name="bar" unicode="|" 
d="M311 710l102 3l-175 -895h-101z" />
    <glyph glyph-name="braceright" unicode="}" 
d="M15 -211l-19 90q134 25 195 52t61 61q0 19 -30.5 70t-30.5 77q0 34 31 65t95 46q-90 31 -90 89q0 25 18 49t39 40.5t39 38t18 41.5q0 32 -45.5 64.5t-149.5 77.5l44 80q144 -64 202 -108.5t58 -93.5q0 -30 -18.5 -57.5t-41 -43.5t-41 -35.5t-18.5 -35.5q0 -49 124 -67
l-16 -76q-150 -8 -150 -57q0 -16 32 -67t32 -86q0 -132 -338 -214z" />
    <glyph glyph-name="asciitilde" unicode="~" 
d="M374 191q-36 0 -72.5 32.5t-65.5 64.5t-47 32q-36 0 -92 -124l-66 29q84 194 176 194q27 0 55.5 -20t48 -44.5t40.5 -44.5t36 -20q35 0 93 124l66 -29q-43 -98 -84 -146t-88 -48z" />
    <glyph glyph-name="uni00A0" unicode="&#xa0;" 
 />
    <glyph glyph-name="exclamdown" unicode="&#xa1;" 
d="M278 620h135l-26 -131h-135zM257 375h73q-6 -26 -28 -219.5t-25 -212.5h-140q5 19 59.5 212.5t60.5 219.5z" />
    <glyph glyph-name="cent" unicode="&#xa2;" 
d="M169 261q0 -72 84 -106l50 225q-134 -22 -134 -119zM426 26q-65 3 -119 12l-25 -122h-96l34 145q-152 55 -152 181q0 81 60 148t187 90l28 140h95l-29 -131q53 2 97 -2l-19 -103q-60 4 -105 3l-56 -253q55 -10 117 -13z" />
    <glyph glyph-name="sterling" unicode="&#xa3;" 
d="M500 137q-16 -45 -31 -73t-37.5 -45t-42.5 -23t-58.5 -2t-71.5 12t-95 26q-45 -45 -104 -45t-70 40q-11 38 25 70q38 33 101 31q12 48 24 122h-77l16 79h71q14 103 43 160q30 61 86 103t123 42q73 0 106 -49.5t31 -148.5l-101 -6q0 105 -60 105q-58 0 -95 -74
q-21 -43 -32 -132h175l-15 -79h-170q-9 -82 -28 -136q104 -28 154.5 -22t87.5 67z" />
    <glyph glyph-name="yen" unicode="&#xa5;" 
d="M467 122h-164l-23 -122h-105l24 122h-166l15 79h167l6 27l-16 49h-142l15 78h103l-82 263l108 4l87 -302l190 300h112l-183 -265h100l-15 -78h-138l-39 -56l-4 -20h166z" />
    <glyph glyph-name="section" unicode="&#xa7;" 
d="M160 254q0 -34 109 -87q6 -3 9 -5q118 27 118 70q0 11 -6 20.5t-21.5 20.5t-26.5 17.5t-36.5 20t-36.5 19.5q-46 -10 -77.5 -30t-31.5 -46zM424 23q0 -46 -40.5 -80t-130.5 -49.5t-234 13.5l24 99q60 -15 107.5 -22.5t77.5 -8t49.5 5t27.5 14.5t8 21q0 19 -26 37
t-63.5 35t-75 36.5t-63.5 48.5t-26 63q0 48 42 82t109 50q-57 47 -57 100q0 63 61 112.5t150 50.5q71 0 107.5 -39t48.5 -119l-93 -19q-9 47 -29.5 68.5t-56.5 21.5q-35 0 -57 -18.5t-22 -44.5q0 -24 24.5 -46t59 -41t69 -39.5t59 -48.5t24.5 -59q0 -80 -152 -121
q78 -48 78 -103z" />
    <glyph glyph-name="dieresis" unicode="&#xa8;" 
d="M439 577l-113 -1l33 134l123 3zM220 575l-114 -1l33 135l123 1z" />
    <glyph glyph-name="copyright" unicode="&#xa9;" 
d="M319 613q93 0 150 -64t57 -179q0 -158 -75 -260.5t-197 -102.5q-94 0 -153.5 65t-59.5 181q0 155 80.5 257.5t197.5 102.5zM311 556q-87 0 -147 -84t-60 -209q0 -96 44.5 -147.5t114.5 -51.5q90 0 145 84t55 211q0 97 -42 147t-110 50zM315 473q79 0 73 -117l-59 -1
q2 50 -26 50q-26 0 -44.5 -38t-18.5 -86q0 -47 26.5 -60.5t90.5 4.5l-11 -63q-85 -30 -130.5 1t-45.5 105q0 82 42.5 143.5t102.5 61.5z" />
    <glyph glyph-name="ordfeminine" unicode="&#xaa;" 
d="M247 322q38 0 94 54q14 71 34 172q-37 10 -57 10q-48 0 -83.5 -52.5t-35.5 -116.5q0 -32 13.5 -49.5t34.5 -17.5zM486 279q-87 -42 -122 -31.5t-32 65.5q-77 -68 -132 -68q-40 0 -65 31t-25 88q0 105 67 184t172 79q59 0 126 -16l-51 -259q-6 -32 2.5 -38t52.5 3zM86 180
h369l-14 -71h-368z" />
    <glyph glyph-name="guillemotleft" unicode="&#xab;" 
d="M161 -13l-128 209l22 109l203 210l67 -67l-206 -202l130 -203zM404 -13l-127 213l24 108l204 205l66 -69l-207 -197l127 -206z" />
    <glyph glyph-name="registered" unicode="&#xae;" 
d="M325 679q103 0 163 -59.5t60 -161.5q0 -120 -70.5 -195.5t-182.5 -75.5q-102 0 -162.5 60t-60.5 162q0 120 71 195t182 75zM323 626q-85 0 -139.5 -57t-54.5 -153q0 -83 46 -129.5t123 -46.5q85 0 139 57t54 154q0 83 -45.5 129t-122.5 46zM341 320l-47 85l-15 -2
l-15 -80h-60l44 224q85 11 125 -5.5t40 -51.5q0 -44 -63 -72l54 -91z" />
    <glyph glyph-name="macron" unicode="&#xaf;" 
d="M464 689l-17 -89h-346l18 89h345z" />
    <glyph glyph-name="degree" unicode="&#xb0;" 
d="M336 681q74 0 121 -47.5t47 -125.5q0 -90 -61 -148.5t-143 -58.5q-73 0 -120 47.5t-47 125.5q0 90 60.5 148.5t142.5 58.5zM311 382q46 0 76.5 33t30.5 85q0 44 -25.5 72.5t-66.5 28.5q-46 0 -76.5 -33t-30.5 -86q0 -44 25.5 -72t66.5 -28z" />
    <glyph glyph-name="plusminus" unicode="&#xb1;" 
d="M450 49h-426l18 90h163l31 157h-165l18 90h164l34 173h98l-34 -173h165l-18 -90h-164l-31 -157h164z" />
    <glyph glyph-name="two.sup" unicode="&#xb2;" 
d="M431 328h-293v65q131 76 187.5 120.5t56.5 85.5q0 72 -182 48l11 74q128 19 195.5 -8.5t67.5 -92.5q0 -55 -50.5 -105t-160.5 -115h183z" />
    <glyph glyph-name="three.sup" unicode="&#xb3;" 
d="M452 444q0 -58 -76 -95t-232 -22l10 75q213 -23 213 36q0 44 -158 74l5 35l170 105h-179l14 71h268l-9 -70l-164 -104q138 -33 138 -105z" />
    <glyph glyph-name="acute" unicode="&#xb4;" 
d="M148 606q50 29 116.5 77.5t110.5 90.5l70 -84q-50 -35 -130 -71.5t-147 -59.5z" />
    <glyph glyph-name="mu" unicode="&#xb5;" 
d="M112 -168l-106 -8l130 670l107 8l-63 -321q-18 -92 37 -92q57 0 129 86l63 323h104l-71 -364q-9 -43 2 -50t68 11l10 -54q-114 -64 -157 -49t-34 98q-79 -99 -151 -99q-24 0 -41 7z" />
    <glyph glyph-name="paragraph" unicode="&#xb6;" 
d="M384 176l68 346q-42 4 -76 3l-66 -338q28 -8 74 -11zM168 342q0 -86 79 -130l59 303q-70 -19 -104 -65.5t-34 -107.5zM254 -106l-89 -10l46 234q-143 59 -143 204q0 144 130 229t362 72l-138 -706l-91 -10l35 179q-35 1 -73 8z" />
    <glyph glyph-name="periodcentered" unicode="&#xb7;" 
d="M343 233h-150l27 139h150z" />
    <glyph glyph-name="cedilla" unicode="&#xb8;" 
d="M160 -152l-55 18q64 155 155 155q57 0 91.5 -50.5t28.5 -145.5l-93 -2q7 122 -40 122q-39 0 -87 -97z" />
    <glyph glyph-name="one.sup" unicode="&#xb9;" 
d="M440 328h-304l14 70h117l40 200l-114 -3l11 64l118 13l12 59l84 7l-68 -339h107z" />
    <glyph glyph-name="ordmasculine" unicode="&#xba;" 
d="M494 473q0 -92 -62.5 -160t-153.5 -68q-70 0 -111 41.5t-41 113.5q0 92 63 160t154 68q69 0 110 -41.5t41 -113.5zM215 409q0 -44 20 -69.5t55 -25.5q50 0 83 44.5t33 105.5q0 45 -20.5 70t-55.5 25q-50 0 -82.5 -44.5t-32.5 -105.5zM91 180h338l-14 -71h-337z" />
    <glyph glyph-name="guillemotright" unicode="&#xbb;" 
d="M314 -12l-68 66l206 202l-130 203l88 57l129 -210l-23 -108zM66 -11l-66 69l207 196l-126 207l87 55l127 -213l-25 -109z" />
    <glyph glyph-name="onequarter" unicode="&#xbc;" 
d="M460 425h-304l14 70h117l40 200l-114 -3l11 64l118 13l12 59l84 7l-68 -339h107zM57 271l14 68h436l-14 -68h-436zM371 -136h-44l-15 -74h-77l14 74h-199l6 58q73 126 117 268l90 -4q-49 -143 -123 -252h123l23 118l79 6l-25 -124h51z" />
    <glyph glyph-name="onehalf" unicode="&#xbd;" 
d="M460 425h-304l14 70h117l40 200l-114 -3l11 64l118 13l12 59l84 7l-68 -339h107zM57 271l14 68h436l-14 -68h-436zM339 -210h-293v65q131 76 187.5 120.5t56.5 85.5q0 72 -182 48l11 74q128 19 195.5 -8.5t67.5 -92.5q0 -55 -50.5 -105t-160.5 -115h183z" />
    <glyph glyph-name="threequarters" unicode="&#xbe;" 
d="M472 541q0 -58 -76 -95t-232 -22l10 75q213 -23 213 36q0 44 -158 74l5 35l170 105h-179l14 71h268l-9 -70l-164 -104q138 -33 138 -105zM57 271l14 68h436l-14 -68h-436zM371 -136h-44l-15 -74h-77l14 74h-199l6 58q73 126 117 268l90 -4q-49 -143 -123 -252h123l23 118
l79 6l-25 -124h51z" />
    <glyph glyph-name="questiondown" unicode="&#xbf;" 
d="M332 620h134l-27 -129h-133zM438 48l-24 -107q-183 19 -271 62t-88 116q0 64 70.5 129.5t228.5 143.5l34 -57q-118 -61 -164.5 -100t-46.5 -77q0 -46 61.5 -70t199.5 -40z" />
    <glyph glyph-name="Agrave" unicode="&#xc0;" 
d="M512 722l-24 -44q-53 21 -126.5 61.5t-124.5 76.5l66 85q107 -107 209 -179zM368 -4q-6 116 -9 175h-186l-72 -171h-112q130 298 287 621h153q32 -341 49 -617zM330 526q-6 -15 -51.5 -116.5t-69.5 -155.5h146q-5 97 -17 272h-8z" />
    <glyph glyph-name="Aacute" unicode="&#xc1;" 
d="M234 729q50 29 116.5 77.5t110.5 90.5l70 -84q-50 -35 -130 -71.5t-147 -59.5zM368 -4q-6 116 -9 175h-186l-72 -171h-112q130 298 287 621h153q32 -341 49 -617zM330 526q-6 -15 -51.5 -116.5t-69.5 -155.5h146q-5 97 -17 272h-8z" />
    <glyph glyph-name="Acircumflex" unicode="&#xc2;" 
d="M488 680l-98 106l-150 -102l-48 55l214 146h6l149 -149zM368 -4q-6 116 -9 175h-186l-72 -171h-112q130 298 287 621h153q32 -341 49 -617zM330 526q-6 -15 -51.5 -116.5t-69.5 -155.5h146q-5 97 -17 272h-8z" />
    <glyph glyph-name="Atilde" unicode="&#xc3;" 
d="M463 773q27 0 84 86l52 -30q-82 -138 -157 -138q-28 0 -54.5 23.5t-47 46.5t-34.5 23q-28 0 -83 -85l-53 30q80 136 157 136q28 0 54 -23t46.5 -46t35.5 -23zM368 -4q-6 116 -9 175h-186l-72 -171h-112q130 298 287 621h153q32 -341 49 -617zM330 526
q-6 -15 -51.5 -116.5t-69.5 -155.5h146q-5 97 -17 272h-8z" />
    <glyph glyph-name="Adieresis" unicode="&#xc4;" 
d="M527 700l-113 -1l33 134l123 3zM308 698l-114 -1l33 135l123 1zM368 -4q-6 116 -9 175h-186l-72 -171h-112q130 298 287 621h153q32 -341 49 -617zM330 526q-6 -15 -51.5 -116.5t-69.5 -155.5h146q-5 97 -17 272h-8z" />
    <glyph glyph-name="Aring" unicode="&#xc5;" 
d="M394 888q55 0 89.5 -28.5t34.5 -70.5q0 -47 -41 -81t-102 -34q-56 0 -90.5 29t-34.5 71q0 47 41 80.5t103 33.5zM368 -4q-6 116 -9 175h-186l-72 -171h-112q130 298 287 621h153q32 -341 49 -617zM330 526q-6 -15 -51.5 -116.5t-69.5 -155.5h146q-5 97 -17 272h-8z" />
    <glyph glyph-name="AE" unicode="&#xc6;" 
d="M325 529q-22 -47 -65.5 -141t-65.5 -141h86l55 282h-10zM232 0l33 167h-108q-12 -25 -25 -53t-29 -61.5t-25 -52.5h-108q122 247 310 620h322l-18 -91h-155l-35 -179h126l-15 -76h-126l-36 -183h160l-23 -91h-248z" />
    <glyph glyph-name="Ccedilla" unicode="&#xc7;" 
d="M367 -186l-93 -2q7 122 -40 122q-39 0 -87 -97l-55 18q46 111 105 143q-139 41 -139 228q0 161 94 284t224 123q86 0 120 -58.5t29 -181.5l-105 -2q2 79 -11.5 111.5t-55.5 32.5q-51 0 -94.5 -45t-66.5 -111.5t-23 -135.5q0 -114 72.5 -144.5t226.5 21.5l-11 -99
q-80 -27 -145 -33q62 -49 55 -174z" />
    <glyph glyph-name="Egrave" unicode="&#xc8;" 
d="M519 721l-24 -44q-53 21 -126.5 61.5t-124.5 76.5l66 85q107 -107 209 -179zM450 93l-25 -93h-377l120 620h380l-18 -93h-269l-34 -175h228l-16 -81h-228l-35 -178h274z" />
    <glyph glyph-name="Eacute" unicode="&#xc9;" 
d="M241 728q50 29 116.5 77.5t110.5 90.5l70 -84q-50 -35 -130 -71.5t-147 -59.5zM450 93l-25 -93h-377l120 620h380l-18 -93h-269l-34 -175h228l-16 -81h-228l-35 -178h274z" />
    <glyph glyph-name="Ecircumflex" unicode="&#xca;" 
d="M494 679l-98 106l-150 -102l-48 55l214 146h6l149 -149zM450 93l-25 -93h-377l120 620h380l-18 -93h-269l-34 -175h228l-16 -81h-228l-35 -178h274z" />
    <glyph glyph-name="Edieresis" unicode="&#xcb;" 
d="M533 699l-113 -1l33 134l123 3zM314 697l-114 -1l33 135l123 1zM450 93l-25 -93h-377l120 620h380l-18 -93h-269l-34 -175h228l-16 -81h-228l-35 -178h274z" />
    <glyph glyph-name="Igrave" unicode="&#xcc;" 
d="M503 721l-24 -44q-53 21 -126.5 61.5t-124.5 76.5l66 85q107 -107 209 -179zM295 88h144l-21 -88h-390l17 88h139l86 444h-141l17 88h390l-16 -88h-139z" />
    <glyph glyph-name="Iacute" unicode="&#xcd;" 
d="M225 728q50 29 116.5 77.5t110.5 90.5l70 -84q-50 -35 -130 -71.5t-147 -59.5zM295 88h144l-21 -88h-390l17 88h139l86 444h-141l17 88h390l-16 -88h-139z" />
    <glyph glyph-name="Icircumflex" unicode="&#xce;" 
d="M478 679l-98 106l-150 -102l-48 55l214 146h6l149 -149zM295 88h144l-21 -88h-390l17 88h139l86 444h-141l17 88h390l-16 -88h-139z" />
    <glyph glyph-name="Idieresis" unicode="&#xcf;" 
d="M518 699l-113 -1l33 134l123 3zM299 697l-114 -1l33 135l123 1zM295 88h144l-21 -88h-390l17 88h139l86 444h-141l17 88h390l-16 -88h-139z" />
    <glyph glyph-name="Eth" unicode="&#xd0;" 
d="M528 387q0 -88 -28.5 -163t-85.5 -132t-155 -82.5t-225 -8.5l53 274h-63l15 77h63l51 265q375 61 375 -230zM304 275h-107l-36 -188q82 -5 141.5 35t87 106t27.5 148q0 174 -170 158l-35 -182h112z" />
    <glyph glyph-name="Ntilde" unicode="&#xd1;" 
d="M466 774q27 0 84 86l52 -30q-82 -138 -157 -138q-22 0 -44 14.5t-35.5 32t-29 32t-27.5 14.5q-28 0 -83 -85l-53 30q80 136 157 136q28 0 54 -23t46.5 -46t35.5 -23zM345 0l-127 425h-5l-79 -425h-104l120 618l107 4l118 -422h5l78 420h104l-120 -620h-97z" />
    <glyph glyph-name="Ograve" unicode="&#xd2;" 
d="M516 735l-24 -44q-53 21 -126.5 61.5t-124.5 76.5l66 85q107 -107 209 -179zM346 632q87 0 139 -58.5t52 -176.5q0 -164 -84.5 -287t-210.5 -123q-87 0 -138.5 58.5t-51.5 176.5q0 106 37 199.5t105.5 152t151.5 58.5zM255 83q71 0 118.5 95t47.5 215q0 72 -23.5 108
t-64.5 36q-47 0 -85.5 -46.5t-59 -117t-20.5 -146.5q0 -144 87 -144z" />
    <glyph glyph-name="Oacute" unicode="&#xd3;" 
d="M238 742q50 29 116.5 77.5t110.5 90.5l70 -84q-50 -35 -130 -71.5t-147 -59.5zM346 632q87 0 139 -58.5t52 -176.5q0 -164 -84.5 -287t-210.5 -123q-87 0 -138.5 58.5t-51.5 176.5q0 106 37 199.5t105.5 152t151.5 58.5zM255 83q71 0 118.5 95t47.5 215q0 72 -23.5 108
t-64.5 36q-47 0 -85.5 -46.5t-59 -117t-20.5 -146.5q0 -144 87 -144z" />
    <glyph glyph-name="Ocircumflex" unicode="&#xd4;" 
d="M491 693l-98 106l-150 -102l-48 55l214 146h6l149 -149zM346 632q87 0 139 -58.5t52 -176.5q0 -164 -84.5 -287t-210.5 -123q-87 0 -138.5 58.5t-51.5 176.5q0 106 37 199.5t105.5 152t151.5 58.5zM255 83q71 0 118.5 95t47.5 215q0 72 -23.5 108t-64.5 36
q-47 0 -85.5 -46.5t-59 -117t-20.5 -146.5q0 -144 87 -144z" />
    <glyph glyph-name="Otilde" unicode="&#xd5;" 
d="M466 786q27 0 84 86l52 -30q-82 -138 -157 -138q-22 0 -44 14.5t-35.5 32t-29 32t-27.5 14.5q-28 0 -83 -85l-53 30q80 136 157 136q28 0 54 -23t46.5 -46t35.5 -23zM346 632q87 0 139 -58.5t52 -176.5q0 -164 -84.5 -287t-210.5 -123q-87 0 -138.5 58.5t-51.5 176.5
q0 106 37 199.5t105.5 152t151.5 58.5zM255 83q71 0 118.5 95t47.5 215q0 72 -23.5 108t-64.5 36q-47 0 -85.5 -46.5t-59 -117t-20.5 -146.5q0 -144 87 -144z" />
    <glyph glyph-name="Odieresis" unicode="&#xd6;" 
d="M530 713l-113 -1l33 134l123 3zM311 711l-114 -1l33 135l123 1zM346 632q87 0 139 -58.5t52 -176.5q0 -164 -84.5 -287t-210.5 -123q-87 0 -138.5 58.5t-51.5 176.5q0 106 37 199.5t105.5 152t151.5 58.5zM255 83q71 0 118.5 95t47.5 215q0 72 -23.5 108t-64.5 36
q-47 0 -85.5 -46.5t-59 -117t-20.5 -146.5q0 -144 87 -144z" />
    <glyph glyph-name="multiply" unicode="&#xd7;" 
d="M391 84l-116 144l-165 -138l-60 73l167 138l-117 145l78 65l116 -145l166 137l58 -73l-165 -137l116 -145z" />
    <glyph glyph-name="Oslash" unicode="&#xd8;" 
d="M169 230q0 -16 2 -38l225 310q-23 38 -67 38q-70 0 -115 -93.5t-45 -216.5zM260 80q69 0 114.5 93.5t45.5 216.5q0 18 -2 42l-227 -311q22 -41 69 -41zM246 -14q-69 0 -115 37l-49 -67l-63 41l63 87q-28 59 -28 147q0 163 83 283t206 120q67 0 114 -36l48 66l63 -41
l-63 -86q29 -58 29 -148q0 -163 -82.5 -283t-205.5 -120z" />
    <glyph glyph-name="Ugrave" unicode="&#xd9;" 
d="M513 721l-24 -44q-53 21 -126.5 61.5t-124.5 76.5l66 85q107 -107 209 -179zM182 230q-29 -148 74 -148q90 0 114 123l80 415h111l-80 -413q-44 -221 -239 -221q-103 0 -149 61t-21 189l75 384h110z" />
    <glyph glyph-name="Uacute" unicode="&#xda;" 
d="M235 728q50 29 116.5 77.5t110.5 90.5l70 -84q-50 -35 -130 -71.5t-147 -59.5zM182 230q-29 -148 74 -148q90 0 114 123l80 415h111l-80 -413q-44 -221 -239 -221q-103 0 -149 61t-21 189l75 384h110z" />
    <glyph glyph-name="Ucircumflex" unicode="&#xdb;" 
d="M488 679l-98 106l-150 -102l-48 55l214 146h6l149 -149zM182 230q-29 -148 74 -148q90 0 114 123l80 415h111l-80 -413q-44 -221 -239 -221q-103 0 -149 61t-21 189l75 384h110z" />
    <glyph glyph-name="Udieresis" unicode="&#xdc;" 
d="M527 699l-113 -1l33 134l123 3zM308 697l-114 -1l33 135l123 1zM182 230q-29 -148 74 -148q90 0 114 123l80 415h111l-80 -413q-44 -221 -239 -221q-103 0 -149 61t-21 189l75 384h110z" />
    <glyph glyph-name="Yacute" unicode="&#xdd;" 
d="M230 730q50 29 116.5 77.5t110.5 90.5l70 -84q-50 -35 -130 -71.5t-147 -59.5zM285 0h-111l40 207l-118 411l115 4l80 -311l193 309h119l-279 -420z" />
    <glyph glyph-name="Thorn" unicode="&#xde;" 
d="M152 0h-110l121 620h111l-17 -86q137 2 203.5 -45.5t66.5 -128.5q0 -108 -94 -178.5t-263 -89.5zM418 341q0 56 -46 83t-134 15l-49 -249q108 -5 168.5 37.5t60.5 113.5z" />
    <glyph glyph-name="germandbls" unicode="&#xdf;" 
d="M213 -8l11 97q92 -9 132 2t40 44q0 67 -137 187q83 88 116 137.5t33 92.5q0 29 -15.5 47t-44.5 18q-86 0 -116 -154l-90 -463h-107l89 457q23 115 90 181.5t163 66.5q69 0 105 -36.5t36 -90.5q0 -55 -34 -110t-101 -123q122 -110 122 -198q0 -73 -70 -117t-222 -38z" />
    <glyph glyph-name="agrave" unicode="&#xe0;" 
d="M508 609l-24 -44q-53 21 -126.5 61.5t-124.5 76.5l66 85q107 -107 209 -179zM202 89q53 0 130 72q23 108 47 241q-48 16 -85 16q-58 0 -102 -78.5t-44 -170.5q0 -41 15 -60.5t39 -19.5zM516 41q-75 -45 -119.5 -51t-60 20t-11.5 80q-106 -102 -180 -102q-47 0 -76 39.5
t-29 115.5q0 94 37 176.5t109.5 135.5t163.5 53q73 0 149 -22l-68 -352q-9 -43 2.5 -49.5t72.5 10.5z" />
    <glyph glyph-name="aacute" unicode="&#xe1;" 
d="M230 616q50 29 116.5 77.5t110.5 90.5l70 -84q-50 -35 -130 -71.5t-147 -59.5zM202 89q53 0 130 72q23 108 47 241q-48 16 -85 16q-58 0 -102 -78.5t-44 -170.5q0 -41 15 -60.5t39 -19.5zM516 41q-75 -45 -119.5 -51t-60 20t-11.5 80q-106 -102 -180 -102q-47 0 -76 39.5
t-29 115.5q0 94 37 176.5t109.5 135.5t163.5 53q73 0 149 -22l-68 -352q-9 -43 2.5 -49.5t72.5 10.5z" />
    <glyph glyph-name="acircumflex" unicode="&#xe2;" 
d="M483 567l-98 106l-150 -102l-48 55l214 146h6l149 -149zM202 89q53 0 130 72q23 108 47 241q-48 16 -85 16q-58 0 -102 -78.5t-44 -170.5q0 -41 15 -60.5t39 -19.5zM516 41q-75 -45 -119.5 -51t-60 20t-11.5 80q-106 -102 -180 -102q-47 0 -76 39.5t-29 115.5
q0 94 37 176.5t109.5 135.5t163.5 53q73 0 149 -22l-68 -352q-9 -43 2.5 -49.5t72.5 10.5z" />
    <glyph glyph-name="atilde" unicode="&#xe3;" 
d="M458 660q27 0 84 86l52 -30q-82 -138 -157 -138q-22 0 -44 14.5t-35.5 32t-29 32t-27.5 14.5q-28 0 -83 -85l-53 30q80 136 157 136q28 0 54 -23t46.5 -46t35.5 -23zM202 89q53 0 130 72q23 108 47 241q-48 16 -85 16q-58 0 -102 -78.5t-44 -170.5q0 -41 15 -60.5
t39 -19.5zM516 41q-75 -45 -119.5 -51t-60 20t-11.5 80q-106 -102 -180 -102q-47 0 -76 39.5t-29 115.5q0 94 37 176.5t109.5 135.5t163.5 53q73 0 149 -22l-68 -352q-9 -43 2.5 -49.5t72.5 10.5z" />
    <glyph glyph-name="adieresis" unicode="&#xe4;" 
d="M522 587l-113 -1l33 134l123 3zM303 585l-114 -1l33 135l123 1zM202 89q53 0 130 72q23 108 47 241q-48 16 -85 16q-58 0 -102 -78.5t-44 -170.5q0 -41 15 -60.5t39 -19.5zM516 41q-75 -45 -119.5 -51t-60 20t-11.5 80q-106 -102 -180 -102q-47 0 -76 39.5t-29 115.5
q0 94 37 176.5t109.5 135.5t163.5 53q73 0 149 -22l-68 -352q-9 -43 2.5 -49.5t72.5 10.5z" />
    <glyph glyph-name="aring" unicode="&#xe5;" 
d="M390 775q55 0 89.5 -28.5t34.5 -70.5q0 -47 -41 -81t-102 -34q-56 0 -90.5 29t-34.5 71q0 47 41 80.5t103 33.5zM202 89q53 0 130 72q23 108 47 241q-48 16 -85 16q-58 0 -102 -78.5t-44 -170.5q0 -41 15 -60.5t39 -19.5zM516 41q-75 -45 -119.5 -51t-60 20t-11.5 80
q-106 -102 -180 -102q-47 0 -76 39.5t-29 115.5q0 94 37 176.5t109.5 135.5t163.5 53q73 0 149 -22l-68 -352q-9 -43 2.5 -49.5t72.5 10.5z" />
    <glyph glyph-name="ae" unicode="&#xe6;" 
d="M522 60q-60 -39 -109.5 -55t-83 -10.5t-55.5 26t-33 54.5q-72 -81 -138 -81q-82 0 -82 132q0 93 31 179.5t86.5 142.5t121.5 56q58 0 110 -30q45 34 96 34q47 0 74 -29.5t27 -77.5q0 -77 -59 -135.5t-175 -75.5q-1 -9 -1 -25q0 -66 38 -78.5t142 26.5zM438 421
q-31 0 -58 -50.5t-40 -122.5q64 14 96 55t32 79q0 39 -30 39zM162 89q30 0 70 54v2q0 146 70 255q-29 20 -59 20q-45 0 -79 -83t-34 -177q0 -71 32 -71z" />
    <glyph glyph-name="ccedilla" unicode="&#xe7;" 
d="M360 -186l-93 -2q7 122 -40 122q-39 0 -87 -97l-55 18q44 108 102 141q-63 15 -95.5 64t-32.5 119q0 133 91 232.5t214 99.5q75 0 108.5 -43.5t27.5 -139.5l-98 -1q0 50 -15.5 71t-52.5 21q-69 0 -118.5 -65.5t-49.5 -153.5t62 -110t226 14l10 -56q-95 -44 -166 -54
q71 -46 62 -180z" />
    <glyph glyph-name="egrave" unicode="&#xe8;" 
d="M499 613l-24 -44q-53 21 -126.5 61.5t-124.5 76.5l66 85q107 -107 209 -179zM480 58q-102 -52 -185 -64.5t-135 9.5t-79.5 67t-27.5 108q0 80 40 156.5t111.5 127t154.5 50.5q68 0 107 -33.5t39 -91.5q0 -86 -89.5 -138t-259.5 -64q2 -83 70.5 -99.5t241.5 27.5zM331 424
q-63 0 -109.5 -53t-60.5 -127q243 19 243 120q0 27 -20 43.5t-53 16.5z" />
    <glyph glyph-name="eacute" unicode="&#xe9;" 
d="M221 620q50 29 116.5 77.5t110.5 90.5l70 -84q-50 -35 -130 -71.5t-147 -59.5zM480 58q-102 -52 -185 -64.5t-135 9.5t-79.5 67t-27.5 108q0 80 40 156.5t111.5 127t154.5 50.5q68 0 107 -33.5t39 -91.5q0 -86 -89.5 -138t-259.5 -64q2 -83 70.5 -99.5t241.5 27.5z
M331 424q-63 0 -109.5 -53t-60.5 -127q243 19 243 120q0 27 -20 43.5t-53 16.5z" />
    <glyph glyph-name="ecircumflex" unicode="&#xea;" 
d="M474 571l-98 106l-150 -102l-48 55l214 146h6l149 -149zM480 58q-102 -52 -185 -64.5t-135 9.5t-79.5 67t-27.5 108q0 80 40 156.5t111.5 127t154.5 50.5q68 0 107 -33.5t39 -91.5q0 -86 -89.5 -138t-259.5 -64q2 -83 70.5 -99.5t241.5 27.5zM331 424q-63 0 -109.5 -53
t-60.5 -127q243 19 243 120q0 27 -20 43.5t-53 16.5z" />
    <glyph glyph-name="edieresis" unicode="&#xeb;" 
d="M513 591l-113 -1l33 134l123 3zM294 589l-114 -1l33 135l123 1zM480 58q-102 -52 -185 -64.5t-135 9.5t-79.5 67t-27.5 108q0 80 40 156.5t111.5 127t154.5 50.5q68 0 107 -33.5t39 -91.5q0 -86 -89.5 -138t-259.5 -64q2 -83 70.5 -99.5t241.5 27.5zM331 424
q-63 0 -109.5 -53t-60.5 -127q243 19 243 120q0 27 -20 43.5t-53 16.5z" />
    <glyph glyph-name="igrave" unicode="&#xec;" 
d="M480 599l-24 -44q-53 21 -126.5 61.5t-124.5 76.5l66 85q107 -107 209 -179zM483 49q-98 -42 -166.5 -54.5t-104 3t-46.5 52.5t7 96l71 261l-167 -14l-7 56l208 49h91l-87 -333q-6 -24 -7.5 -38t3.5 -25t17 -15t36 -4t57.5 5.5t84.5 16.5z" />
    <glyph glyph-name="iacute" unicode="&#xed;" 
d="M202 606q50 29 116.5 77.5t110.5 90.5l70 -84q-50 -35 -130 -71.5t-147 -59.5zM483 49q-98 -42 -166.5 -54.5t-104 3t-46.5 52.5t7 96l71 261l-167 -14l-7 56l208 49h91l-87 -333q-6 -24 -7.5 -38t3.5 -25t17 -15t36 -4t57.5 5.5t84.5 16.5z" />
    <glyph glyph-name="icircumflex" unicode="&#xee;" 
d="M455 557l-98 106l-150 -102l-48 55l214 146h6l149 -149zM483 49q-98 -42 -166.5 -54.5t-104 3t-46.5 52.5t7 96l71 261l-167 -14l-7 56l208 49h91l-87 -333q-6 -24 -7.5 -38t3.5 -25t17 -15t36 -4t57.5 5.5t84.5 16.5z" />
    <glyph glyph-name="idieresis" unicode="&#xef;" 
d="M495 577l-113 -1l33 134l123 3zM276 575l-114 -1l33 135l123 1zM483 49q-98 -42 -166.5 -54.5t-104 3t-46.5 52.5t7 96l71 261l-167 -14l-7 56l208 49h91l-87 -333q-6 -24 -7.5 -38t3.5 -25t17 -15t36 -4t57.5 5.5t84.5 16.5z" />
    <glyph glyph-name="eth" unicode="&#xf0;" 
d="M237 -13q-87 0 -138.5 53.5t-51.5 140.5q0 114 79 197t193 83q27 0 51 -4q-17 39 -47 81l-140 -40l-18 62l113 32q-30 31 -73 68l84 54q56 -48 94 -93l113 32l15 -62l-87 -25q81 -118 81 -252q0 -145 -75.5 -236t-192.5 -91zM257 73q65 0 104 65t39 164q0 26 -3 51
q-58 24 -105 24q-58 0 -97.5 -53t-39.5 -123q0 -59 27.5 -93.5t74.5 -34.5z" />
    <glyph glyph-name="ntilde" unicode="&#xf1;" 
d="M433 663q27 0 84 86l52 -30q-82 -138 -157 -138q-28 0 -54.5 23.5t-47 46.5t-34.5 23q-28 0 -83 -85l-53 30q80 136 157 136q28 0 54 -23t46.5 -46t35.5 -23zM518 41q-64 -39 -109.5 -48.5t-66.5 7.5t-21 55t30 152.5t30 151.5q0 50 -43 50q-53 0 -132 -77
q-6 -31 -34.5 -172.5t-31.5 -159.5h-105q68 351 89 495l105 6q0 -3 -2.5 -18t-5.5 -36t-5 -38q100 102 190 102q89 0 89 -98q0 -55 -31 -173.5t-31 -138.5q0 -12 5 -16.5t21 -2.5t48 13z" />
    <glyph glyph-name="ograve" unicode="&#xf2;" 
d="M485 613l-24 -44q-53 21 -126.5 61.5t-124.5 76.5l66 85q107 -107 209 -179zM46 192q0 131 77.5 225.5t192.5 94.5q87 0 138 -54.5t51 -150.5q0 -132 -77.5 -226t-192.5 -94q-88 0 -138.5 54t-50.5 151zM397 293q0 62 -25.5 96t-70.5 34q-63 0 -105 -65t-42 -152
q0 -62 25.5 -96t70.5 -34q63 0 105 65t42 152z" />
    <glyph glyph-name="oacute" unicode="&#xf3;" 
d="M207 620q50 29 116.5 77.5t110.5 90.5l70 -84q-50 -35 -130 -71.5t-147 -59.5zM46 192q0 131 77.5 225.5t192.5 94.5q87 0 138 -54.5t51 -150.5q0 -132 -77.5 -226t-192.5 -94q-88 0 -138.5 54t-50.5 151zM397 293q0 62 -25.5 96t-70.5 34q-63 0 -105 -65t-42 -152
q0 -62 25.5 -96t70.5 -34q63 0 105 65t42 152z" />
    <glyph glyph-name="ocircumflex" unicode="&#xf4;" 
d="M461 571l-98 106l-150 -102l-48 55l214 146h6l149 -149zM46 192q0 131 77.5 225.5t192.5 94.5q87 0 138 -54.5t51 -150.5q0 -132 -77.5 -226t-192.5 -94q-88 0 -138.5 54t-50.5 151zM397 293q0 62 -25.5 96t-70.5 34q-63 0 -105 -65t-42 -152q0 -62 25.5 -96t70.5 -34
q63 0 105 65t42 152z" />
    <glyph glyph-name="otilde" unicode="&#xf5;" 
d="M436 664q27 0 84 86l52 -30q-82 -138 -157 -138q-22 0 -44 14.5t-35.5 32t-29 32t-27.5 14.5q-28 0 -83 -85l-53 30q80 136 157 136q28 0 54 -23t46.5 -46t35.5 -23zM46 192q0 131 77.5 225.5t192.5 94.5q87 0 138 -54.5t51 -150.5q0 -132 -77.5 -226t-192.5 -94
q-88 0 -138.5 54t-50.5 151zM397 293q0 62 -25.5 96t-70.5 34q-63 0 -105 -65t-42 -152q0 -62 25.5 -96t70.5 -34q63 0 105 65t42 152z" />
    <glyph glyph-name="odieresis" unicode="&#xf6;" 
d="M500 591l-113 -1l33 134l123 3zM281 589l-114 -1l33 135l123 1zM46 192q0 131 77.5 225.5t192.5 94.5q87 0 138 -54.5t51 -150.5q0 -132 -77.5 -226t-192.5 -94q-88 0 -138.5 54t-50.5 151zM397 293q0 62 -25.5 96t-70.5 34q-63 0 -105 -65t-42 -152q0 -62 25.5 -96
t70.5 -34q63 0 105 65t42 152z" />
    <glyph glyph-name="divide" unicode="&#xf7;" 
d="M366 423h-115l23 111h115zM515 343l-19 -91h-441l18 91h442zM296 62h-114l23 110h114z" />
    <glyph glyph-name="oslash" unicode="&#xf8;" 
d="M153 205q0 -27 4 -46l211 236q-24 30 -67 30q-64 0 -106 -66t-42 -154zM250 74q64 0 106 65.5t42 154.5q0 25 -4 41l-209 -234q24 -27 65 -27zM235 -13q-68 0 -116 34l-55 -60l-57 43l65 72q-26 47 -26 116q0 131 77.5 225.5t192.5 94.5q70 0 118 -37l54 61l59 -43
l-66 -74q24 -50 24 -112q0 -132 -77.5 -226t-192.5 -94z" />
    <glyph glyph-name="ugrave" unicode="&#xf9;" 
d="M498 604l-24 -44q-53 21 -126.5 61.5t-124.5 76.5l66 85q107 -107 209 -179zM522 41q-113 -64 -156.5 -49.5t-34.5 97.5q-91 -102 -172 -102q-58 0 -81.5 47t-3.5 137l36 167l-49 32l84 126l105 7l-69 -318q-21 -96 36 -96t129 86l63 323h104l-71 -364q-9 -43 2 -50
t68 11z" />
    <glyph glyph-name="uacute" unicode="&#xfa;" 
d="M220 611q50 29 116.5 77.5t110.5 90.5l70 -84q-50 -35 -130 -71.5t-147 -59.5zM522 41q-113 -64 -156.5 -49.5t-34.5 97.5q-91 -102 -172 -102q-58 0 -81.5 47t-3.5 137l36 167l-49 32l84 126l105 7l-69 -318q-21 -96 36 -96t129 86l63 323h104l-71 -364q-9 -43 2 -50
t68 11z" />
    <glyph glyph-name="ucircumflex" unicode="&#xfb;" 
d="M474 562l-98 106l-150 -102l-48 55l214 146h6l149 -149zM522 41q-113 -64 -156.5 -49.5t-34.5 97.5q-91 -102 -172 -102q-58 0 -81.5 47t-3.5 137l36 167l-49 32l84 126l105 7l-69 -318q-21 -96 36 -96t129 86l63 323h104l-71 -364q-9 -43 2 -50t68 11z" />
    <glyph glyph-name="udieresis" unicode="&#xfc;" 
d="M513 582l-113 -1l33 134l123 3zM294 580l-114 -1l33 135l123 1zM522 41q-113 -64 -156.5 -49.5t-34.5 97.5q-91 -102 -172 -102q-58 0 -81.5 47t-3.5 137l36 167l-49 32l84 126l105 7l-69 -318q-21 -96 36 -96t129 86l63 323h104l-71 -364q-9 -43 2 -50t68 11z" />
    <glyph glyph-name="yacute" unicode="&#xfd;" 
d="M214 616q50 29 116.5 77.5t110.5 90.5l70 -84q-50 -35 -130 -71.5t-147 -59.5zM429 -68q-60 -117 -382 -102l15 103q239 -18 278 19q6 6 9 16t3.5 29.5t0 33.5t-2.5 45.5t-3 47.5q-96 -92 -189 -92q-186 0 -14 464l104 4q-33 -92 -51.5 -160t-24 -108t-1 -64.5
t15.5 -32.5t28 -8q57 0 132 72q4 107 42.5 208t67.5 101q25 0 49.5 -9.5t24.5 -23.5q0 -38 -27 -120.5t-66 -153.5v-6q0 -28 4.5 -92t2 -104t-15.5 -67z" />
    <glyph glyph-name="thorn" unicode="&#xfe;" 
d="M253 77q58 0 103 75.5t45 162.5q0 47 -16.5 71t-42.5 24q-55 0 -132 -73l-47 -243q51 -17 90 -17zM112 -168l-105 -8l169 873l106 8l-56 -289q99 94 172 94q48 0 79 -42.5t31 -122.5q0 -91 -37 -172t-108.5 -133t-161.5 -52q-30 0 -58 4z" />
    <glyph glyph-name="ydieresis" unicode="&#xff;" 
d="M507 587l-113 -1l33 134l123 3zM288 585l-114 -1l33 135l123 1zM429 -68q-60 -117 -382 -102l15 103q239 -18 278 19q6 6 9 16t3.5 29.5t0 33.5t-2.5 45.5t-3 47.5q-96 -92 -189 -92q-186 0 -14 464l104 4q-33 -92 -51.5 -160t-24 -108t-1 -64.5t15.5 -32.5t28 -8
q57 0 132 72q4 107 42.5 208t67.5 101q25 0 49.5 -9.5t24.5 -23.5q0 -38 -27 -120.5t-66 -153.5v-6q0 -28 4.5 -92t2 -104t-15.5 -67z" />
    <glyph glyph-name="Amacron" unicode="&#x100;" 
d="M564 812l-17 -89h-346l18 89h345zM368 -4q-6 116 -9 175h-186l-72 -171h-112q130 298 287 621h153q32 -341 49 -617zM330 526q-6 -15 -51.5 -116.5t-69.5 -155.5h146q-5 97 -17 272h-8z" />
    <glyph glyph-name="amacron" unicode="&#x101;" 
d="M559 699l-17 -89h-346l18 89h345zM202 89q53 0 130 72q23 108 47 241q-48 16 -85 16q-58 0 -102 -78.5t-44 -170.5q0 -41 15 -60.5t39 -19.5zM516 41q-75 -45 -119.5 -51t-60 20t-11.5 80q-106 -102 -180 -102q-47 0 -76 39.5t-29 115.5q0 94 37 176.5t109.5 135.5
t163.5 53q73 0 149 -22l-68 -352q-9 -43 2.5 -49.5t72.5 10.5z" />
    <glyph glyph-name="Abreve" unicode="&#x102;" 
d="M530 871l61 -37q-114 -147 -224 -147q-111 0 -168 147l80 43q24 -56 49.5 -81t61.5 -25q33 0 65 24.5t75 75.5zM368 -4q-6 116 -9 175h-186l-72 -171h-112q130 298 287 621h153q32 -341 49 -617zM330 526q-6 -15 -51.5 -116.5t-69.5 -155.5h146q-5 97 -17 272h-8z" />
    <glyph glyph-name="abreve" unicode="&#x103;" 
d="M525 758l61 -37q-114 -147 -224 -147q-111 0 -168 147l80 43q24 -56 49.5 -81t61.5 -25q33 0 65 24.5t75 75.5zM202 89q53 0 130 72q23 108 47 241q-48 16 -85 16q-58 0 -102 -78.5t-44 -170.5q0 -41 15 -60.5t39 -19.5zM516 41q-75 -45 -119.5 -51t-60 20t-11.5 80
q-106 -102 -180 -102q-47 0 -76 39.5t-29 115.5q0 94 37 176.5t109.5 135.5t163.5 53q73 0 149 -22l-68 -352q-9 -43 2.5 -49.5t72.5 10.5z" />
    <glyph glyph-name="Aogonek" unicode="&#x104;" 
d="M446 -168q-76 -37 -133.5 -41.5t-84.5 16.5t-28 56q-1 38 40 78t127 76q-2 26 -4.5 77.5t-3.5 76.5h-186l-72 -171h-112q130 298 287 621h153q32 -341 49 -617q-93 -25 -136.5 -54t-43.5 -56q0 -16 13 -24.5t44.5 -6.5t78.5 18zM330 526q-6 -15 -51.5 -116.5
t-69.5 -155.5h146q-5 97 -17 272h-8z" />
    <glyph glyph-name="aogonek" unicode="&#x105;" 
d="M465 -169q-57 -28 -105 -37t-77.5 -1t-45.5 26t-16 43q0 75 130 148q-31 17 -26 80q-106 -102 -180 -102q-47 0 -76 39.5t-29 115.5q0 94 37 176.5t109.5 135.5t163.5 53q73 0 149 -22l-68 -352q-9 -43 2.5 -49.5t72.5 10.5l10 -54q-197 -80 -197 -146q0 -17 13 -25.5
t44.5 -6t79.5 18.5zM202 89q53 0 130 72q23 108 47 241q-48 16 -85 16q-58 0 -102 -78.5t-44 -170.5q0 -41 15 -60.5t39 -19.5z" />
    <glyph glyph-name="Cacute" unicode="&#x106;" 
d="M245 741q50 29 116.5 77.5t110.5 90.5l70 -84q-50 -35 -130 -71.5t-147 -59.5zM376 633q86 0 120 -58.5t29 -181.5l-105 -2q2 79 -11.5 111.5t-55.5 32.5q-51 0 -94.5 -45t-66.5 -111.5t-23 -135.5q0 -114 72.5 -144.5t226.5 21.5l-11 -99q-192 -64 -295.5 -9t-103.5 214
q0 161 94 284t224 123z" />
    <glyph glyph-name="cacute" unicode="&#x107;" 
d="M218 619q50 29 116.5 77.5t110.5 90.5l70 -84q-50 -35 -130 -71.5t-147 -59.5zM500 328l-98 -1q0 50 -15.5 71t-52.5 21q-69 0 -118.5 -65.5t-49.5 -153.5t62 -110t226 14l10 -56q-137 -64 -227 -58.5t-134 55.5t-44 134q0 133 91 232.5t214 99.5q75 0 108.5 -43.5
t27.5 -139.5z" />
    <glyph glyph-name="Cdotaccent" unicode="&#x10a;" 
d="M429 711l-116 -1l33 135l126 1zM376 633q86 0 120 -58.5t29 -181.5l-105 -2q2 79 -11.5 111.5t-55.5 32.5q-51 0 -94.5 -45t-66.5 -111.5t-23 -135.5q0 -114 72.5 -144.5t226.5 21.5l-11 -99q-192 -64 -295.5 -9t-103.5 214q0 161 94 284t224 123z" />
    <glyph glyph-name="cdotaccent" unicode="&#x10b;" 
d="M403 589l-116 -1l33 135l126 1zM500 328l-98 -1q0 50 -15.5 71t-52.5 21q-69 0 -118.5 -65.5t-49.5 -153.5t62 -110t226 14l10 -56q-137 -64 -227 -58.5t-134 55.5t-44 134q0 133 91 232.5t214 99.5q75 0 108.5 -43.5t27.5 -139.5z" />
    <glyph glyph-name="Ccaron" unicode="&#x10c;" 
d="M375 689h-7l-149 149l73 56l98 -105l150 101l48 -54zM376 633q86 0 120 -58.5t29 -181.5l-105 -2q2 79 -11.5 111.5t-55.5 32.5q-51 0 -94.5 -45t-66.5 -111.5t-23 -135.5q0 -114 72.5 -144.5t226.5 21.5l-11 -99q-192 -64 -295.5 -9t-103.5 214q0 161 94 284t224 123z
" />
    <glyph glyph-name="ccaron" unicode="&#x10d;" 
d="M349 567h-7l-149 149l73 56l98 -105l150 101l48 -54zM500 328l-98 -1q0 50 -15.5 71t-52.5 21q-69 0 -118.5 -65.5t-49.5 -153.5t62 -110t226 14l10 -56q-137 -64 -227 -58.5t-134 55.5t-44 134q0 133 91 232.5t214 99.5q75 0 108.5 -43.5t27.5 -139.5z" />
    <glyph glyph-name="Dcaron" unicode="&#x10e;" 
d="M363 683h-7l-149 149l73 56l98 -105l150 101l48 -54zM528 387q0 -88 -28.5 -163t-85.5 -132t-155 -82.5t-225 -8.5l119 616q375 61 375 -230zM417 376q0 174 -170 158l-86 -447q82 -5 141.5 35t87 106t27.5 148z" />
    <glyph glyph-name="dcaron" unicode="&#x10f;" 
d="M625 800l118 4q-15 -138 -116 -257l-46 18q47 103 44 235zM206 89q54 0 126 70l48 247q-49 16 -86 16q-58 0 -102.5 -75.5t-44.5 -162.5q0 -47 16.5 -71t42.5 -24zM521 43q-77 -44 -123 -50.5t-61.5 17.5t-11.5 77q-101 -99 -175 -99q-48 0 -78.5 43t-30.5 123
q0 91 36.5 171.5t108 133t160.5 52.5q29 0 54 -4l37 190l107 8l-112 -572q-8 -44 4 -50.5t76 12.5z" />
    <glyph glyph-name="Dcroat" unicode="&#x110;" 
d="M528 387q0 -88 -28.5 -163t-85.5 -132t-155 -82.5t-225 -8.5l53 274h-63l15 77h63l51 265q375 61 375 -230zM304 275h-107l-36 -188q82 -5 141.5 35t87 106t27.5 148q0 174 -170 158l-35 -182h112z" />
    <glyph glyph-name="dcroat" unicode="&#x111;" 
d="M206 89q54 0 126 70l48 247q-49 16 -86 16q-58 0 -102.5 -75.5t-44.5 -162.5q0 -47 16.5 -71t42.5 -24zM521 43q-77 -44 -123 -50.5t-61.5 17.5t-11.5 77q-101 -99 -175 -99q-48 0 -78.5 43t-30.5 123q0 91 36.5 171.5t108 133t160.5 52.5q29 0 54 -4l13 64h-128l13 68
h128l11 58l107 8l-13 -66h63l-13 -69h-63l-86 -437q-8 -44 4 -50.5t76 12.5z" />
    <glyph glyph-name="Emacron" unicode="&#x112;" 
d="M570 811l-17 -89h-346l18 89h345zM450 93l-25 -93h-377l120 620h380l-18 -93h-269l-34 -175h228l-16 -81h-228l-35 -178h274z" />
    <glyph glyph-name="emacron" unicode="&#x113;" 
d="M550 703l-17 -89h-346l18 89h345zM480 58q-102 -52 -185 -64.5t-135 9.5t-79.5 67t-27.5 108q0 80 40 156.5t111.5 127t154.5 50.5q68 0 107 -33.5t39 -91.5q0 -86 -89.5 -138t-259.5 -64q2 -83 70.5 -99.5t241.5 27.5zM331 424q-63 0 -109.5 -53t-60.5 -127
q243 19 243 120q0 27 -20 43.5t-53 16.5z" />
    <glyph glyph-name="Ebreve" unicode="&#x114;" 
d="M536 870l61 -37q-114 -147 -224 -147q-111 0 -168 147l80 43q24 -56 49.5 -81t61.5 -25q33 0 65 24.5t75 75.5zM450 93l-25 -93h-377l120 620h380l-18 -93h-269l-34 -175h228l-16 -81h-228l-35 -178h274z" />
    <glyph glyph-name="ebreve" unicode="&#x115;" 
d="M516 762l61 -37q-114 -147 -224 -147q-111 0 -168 147l80 43q24 -56 49.5 -81t61.5 -25q33 0 65 24.5t75 75.5zM480 58q-102 -52 -185 -64.5t-135 9.5t-79.5 67t-27.5 108q0 80 40 156.5t111.5 127t154.5 50.5q68 0 107 -33.5t39 -91.5q0 -86 -89.5 -138t-259.5 -64
q2 -83 70.5 -99.5t241.5 27.5zM331 424q-63 0 -109.5 -53t-60.5 -127q243 19 243 120q0 27 -20 43.5t-53 16.5z" />
    <glyph glyph-name="Edotaccent" unicode="&#x116;" 
d="M425 698l-116 -1l33 135l126 1zM450 93l-25 -93h-377l120 620h380l-18 -93h-269l-34 -175h228l-16 -81h-228l-35 -178h274z" />
    <glyph glyph-name="edotaccent" unicode="&#x117;" 
d="M405 590l-116 -1l33 135l126 1zM480 58q-102 -52 -185 -64.5t-135 9.5t-79.5 67t-27.5 108q0 80 40 156.5t111.5 127t154.5 50.5q68 0 107 -33.5t39 -91.5q0 -86 -89.5 -138t-259.5 -64q2 -83 70.5 -99.5t241.5 27.5zM331 424q-63 0 -109.5 -53t-60.5 -127
q243 19 243 120q0 27 -20 43.5t-53 16.5z" />
    <glyph glyph-name="Eogonek" unicode="&#x118;" 
d="M393 -169q-57 -28 -105 -37.5t-78 -1.5t-46 26t-16 44q0 75 136 138h-236l120 620h380l-18 -93h-269l-34 -175h228l-16 -81h-228l-35 -178h274l-25 -93q-92 -25 -136 -52.5t-44 -53.5q0 -16 13.5 -25t45 -7t78.5 18z" />
    <glyph glyph-name="eogonek" unicode="&#x119;" 
d="M418 -168q-58 -28 -106 -37.5t-78 -1.5t-46 26t-16 44q0 66 103 128q-106 -12 -164 41t-58 146q0 80 40 156.5t111.5 127t154.5 50.5q68 0 107 -33.5t39 -91.5q0 -86 -89.5 -138t-259.5 -64q2 -83 70.5 -99.5t241.5 27.5l12 -55q-210 -99 -210 -164q0 -16 13.5 -24.5
t45 -6.5t78.5 18zM331 424q-63 0 -109.5 -53t-60.5 -127q243 19 243 120q0 27 -20 43.5t-53 16.5z" />
    <glyph glyph-name="Ecaron" unicode="&#x11a;" 
d="M371 676h-7l-149 149l73 56l98 -105l150 101l48 -54zM450 93l-25 -93h-377l120 620h380l-18 -93h-269l-34 -175h228l-16 -81h-228l-35 -178h274z" />
    <glyph glyph-name="ecaron" unicode="&#x11b;" 
d="M351 568h-7l-149 149l73 56l98 -105l150 101l48 -54zM480 58q-102 -52 -185 -64.5t-135 9.5t-79.5 67t-27.5 108q0 80 40 156.5t111.5 127t154.5 50.5q68 0 107 -33.5t39 -91.5q0 -86 -89.5 -138t-259.5 -64q2 -83 70.5 -99.5t241.5 27.5zM331 424q-63 0 -109.5 -53
t-60.5 -127q243 19 243 120q0 27 -20 43.5t-53 16.5z" />
    <glyph glyph-name="Gbreve" unicode="&#x11e;" 
d="M535 883l61 -37q-114 -147 -224 -147q-111 0 -168 147l80 43q24 -56 49.5 -81t61.5 -25q33 0 65 24.5t75 75.5zM412 -107l-101 -2l25 109q-132 -31 -205.5 28t-73.5 191q0 107 41.5 202.5t114 153.5t155.5 58q85 0 120 -58t28 -182l-104 -2q2 77 -11.5 110t-53.5 33
q-75 0 -126.5 -93.5t-51.5 -205.5q0 -195 189 -138l33 146l104 3z" />
    <glyph glyph-name="gbreve" unicode="&#x11f;" 
d="M519 764l61 -37q-114 -147 -224 -147q-111 0 -168 147l80 43q24 -56 49.5 -81t61.5 -25q33 0 65 24.5t75 75.5zM220 124q58 0 116 72q10 99 48 200q-50 27 -90 27q-58 0 -99 -67.5t-41 -144.5q0 -44 18 -65.5t48 -21.5zM428 -69q-59 -117 -391 -102l11 103
q132 -8 201.5 -2t85.5 23q9 9 9.5 29t-4 67.5t-5.5 69.5q-86 -91 -168 -91q-53 0 -86 39t-33 114q0 128 82 228.5t204 100.5q50 0 97 -21q17 25 32 25q21 0 45 -12t24 -25q0 -33 -30.5 -111.5t-72.5 -154.5q-1 -10 -1 -28q0 -45 6 -102.5t6 -91t-12 -58.5z" />
    <glyph glyph-name="Gdotaccent" unicode="&#x120;" 
d="M424 711l-116 -1l33 135l126 1zM412 -107l-101 -2l25 109q-132 -31 -205.5 28t-73.5 191q0 107 41.5 202.5t114 153.5t155.5 58q85 0 120 -58t28 -182l-104 -2q2 77 -11.5 110t-53.5 33q-75 0 -126.5 -93.5t-51.5 -205.5q0 -195 189 -138l33 146l104 3z" />
    <glyph glyph-name="gdotaccent" unicode="&#x121;" 
d="M407 592l-116 -1l33 135l126 1zM220 124q58 0 116 72q10 99 48 200q-50 27 -90 27q-58 0 -99 -67.5t-41 -144.5q0 -44 18 -65.5t48 -21.5zM428 -69q-59 -117 -391 -102l11 103q132 -8 201.5 -2t85.5 23q9 9 9.5 29t-4 67.5t-5.5 69.5q-86 -91 -168 -91q-53 0 -86 39
t-33 114q0 128 82 228.5t204 100.5q50 0 97 -21q17 25 32 25q21 0 45 -12t24 -25q0 -33 -30.5 -111.5t-72.5 -154.5q-1 -10 -1 -28q0 -45 6 -102.5t6 -91t-12 -58.5z" />
    <glyph glyph-name="Gcommaaccent" unicode="&#x122;" 
d="M412 -107l-101 -2l25 109q-132 -31 -205.5 28t-73.5 191q0 107 41.5 202.5t114 153.5t155.5 58q85 0 120 -58t28 -182l-104 -2q2 77 -11.5 110t-53.5 33q-75 0 -126.5 -93.5t-51.5 -205.5q0 -195 189 -138l33 146l104 3zM104 -345q49 89 35 192l135 2q-15 -126 -126 -213
z" />
    <glyph glyph-name="gcommaaccent" unicode="&#x123;" 
d="M434 778q-47 -87 -35 -192l-135 -2q15 127 127 213zM220 124q58 0 116 72q10 99 48 200q-50 27 -90 27q-58 0 -99 -67.5t-41 -144.5q0 -44 18 -65.5t48 -21.5zM428 -69q-59 -117 -391 -102l11 103q132 -8 201.5 -2t85.5 23q9 9 9.5 29t-4 67.5t-5.5 69.5
q-86 -91 -168 -91q-53 0 -86 39t-33 114q0 128 82 228.5t204 100.5q50 0 97 -21q17 25 32 25q21 0 45 -12t24 -25q0 -33 -30.5 -111.5t-72.5 -154.5q-1 -10 -1 -28q0 -45 6 -102.5t6 -91t-12 -58.5z" />
    <glyph glyph-name="Hbar" unicode="&#x126;" 
d="M394 340l19 100h-186l-19 -100h186zM328 0l49 253h-186l-49 -253h-113l84 436h-64l15 77h64l21 107h113l-21 -110h186l21 110h112l-21 -107h64l-15 -77h-64l-84 -436h-112z" />
    <glyph glyph-name="hbar" unicode="&#x127;" 
d="M518 41q-64 -39 -109.5 -48.5t-66.5 7.5t-21 55t30 151.5t30 150.5q0 50 -43 50q-54 0 -135 -84l-63 -323h-105l110 570h-62l13 69h63l11 58l107 8l-13 -66h129l-14 -68h-128l-32 -164q98 101 187 101t89 -98q0 -55 -31 -172t-31 -137q0 -12 5 -16.5t21 -2.5t48 13z" />
    <glyph glyph-name="Imacron" unicode="&#x12a;" 
d="M554 811l-17 -89h-346l18 89h345zM295 88h144l-21 -88h-390l17 88h139l86 444h-141l17 88h390l-16 -88h-139z" />
    <glyph glyph-name="imacron" unicode="&#x12b;" 
d="M531 689l-17 -89h-346l18 89h345zM483 49q-98 -42 -166.5 -54.5t-104 3t-46.5 52.5t7 96l71 261l-167 -14l-7 56l208 49h91l-87 -333q-6 -24 -7.5 -38t3.5 -25t17 -15t36 -4t57.5 5.5t84.5 16.5z" />
    <glyph glyph-name="Ibreve" unicode="&#x12c;" 
d="M521 870l61 -37q-114 -147 -224 -147q-111 0 -168 147l80 43q24 -56 49.5 -81t61.5 -25q33 0 65 24.5t75 75.5zM295 88h144l-21 -88h-390l17 88h139l86 444h-141l17 88h390l-16 -88h-139z" />
    <glyph glyph-name="ibreve" unicode="&#x12d;" 
d="M498 748l61 -37q-114 -147 -224 -147q-111 0 -168 147l80 43q24 -56 49.5 -81t61.5 -25q33 0 65 24.5t75 75.5zM483 49q-98 -42 -166.5 -54.5t-104 3t-46.5 52.5t7 96l71 261l-167 -14l-7 56l208 49h91l-87 -333q-6 -24 -7.5 -38t3.5 -25t17 -15t36 -4t57.5 5.5
t84.5 16.5z" />
    <glyph glyph-name="Iogonek" unicode="&#x12e;" 
d="M318 -168q-58 -28 -106 -37.5t-78 -1.5t-46 26.5t-16 44.5q0 72 104 136h-148l17 88h139l86 444h-141l17 88h390l-16 -88h-139l-86 -444h144l-21 -88h-131q-117 -50 -117 -106q0 -16 13.5 -24.5t45 -6.5t78.5 18z" />
    <glyph glyph-name="iogonek" unicode="&#x12f;" 
d="M391 579l-114 -5l32 136l124 6zM411 -168q-58 -28 -106 -37.5t-78 -1.5t-46 26t-16 44q0 66 98 126q-133 0 -90 157l71 261l-167 -14l-7 56l208 49h91l-87 -333q-6 -24 -7.5 -38t3.5 -25t17 -15t36 -4t57.5 5.5t84.5 16.5l10 -56q-122 -51 -171 -86.5t-49 -68.5
q0 -16 13 -24.5t44.5 -6.5t78.5 18z" />
    <glyph glyph-name="Idotaccent" unicode="&#x130;" 
d="M409 698l-116 -1l33 135l126 1zM295 88h144l-21 -88h-390l17 88h139l86 444h-141l17 88h390l-16 -88h-139z" />
    <glyph glyph-name="dotlessi" unicode="&#x131;" 
d="M483 49q-98 -42 -166.5 -54.5t-104 3t-46.5 52.5t7 96l71 261l-167 -14l-7 56l208 49h91l-87 -333q-6 -24 -7.5 -38t3.5 -25t17 -15t36 -4t57.5 5.5t84.5 16.5z" />
    <glyph glyph-name="Kcommaaccent" unicode="&#x136;" 
d="M373 -7l-152 317l252 310h119l-252 -311l150 -302zM157 620h110l-120 -620h-111zM145 -268q49 89 35 192l135 2q-15 -126 -126 -213z" />
    <glyph glyph-name="kcommaaccent" unicode="&#x137;" 
d="M381 -7l-157 203q187 107 187 180q0 37 -42 37q-65 0 -162 -100l-61 -313h-105l135 697l107 8l-59 -304q108 110 207 110q45 0 70.5 -24t25.5 -64q0 -106 -183 -221l158 -195zM147 -268q49 89 35 192l135 2q-15 -126 -126 -213z" />
    <glyph glyph-name="Lacute" unicode="&#x139;" 
d="M252 728q50 29 116.5 77.5t110.5 90.5l70 -84q-50 -35 -130 -71.5t-147 -59.5zM449 0h-396l120 620h112l-101 -525h284z" />
    <glyph glyph-name="lacute" unicode="&#x13a;" 
d="M355 808q50 29 116.5 77.5t110.5 90.5l70 -84q-50 -35 -130 -71.5t-147 -59.5zM475 63q-142 -83 -233.5 -71t-116.5 116q-40 -23 -48 -29l-26 44q2 1 12 8t27 18t27 17q-1 9 -1 27q0 99 29 195t74.5 165t103 111.5t113.5 42.5q48 0 75 -29.5t27 -82.5q0 -95 -78.5 -206
t-232.5 -223q11 -76 68 -86t163 37zM397 602q-57 0 -112.5 -109.5t-60.5 -257.5q108 91 161.5 173t53.5 141q0 26 -11.5 39.5t-30.5 13.5z" />
    <glyph glyph-name="Lcommaaccent" unicode="&#x13b;" 
d="M449 0h-396l120 620h112l-101 -525h284zM135 -261q49 89 35 192l135 2q-15 -126 -126 -213z" />
    <glyph glyph-name="lcommaaccent" unicode="&#x13c;" 
d="M475 63q-142 -83 -233.5 -71t-116.5 116q-40 -23 -48 -29l-26 44q2 1 12 8t27 18t27 17q-1 9 -1 27q0 99 29 195t74.5 165t103 111.5t113.5 42.5q48 0 75 -29.5t27 -82.5q0 -95 -78.5 -206t-232.5 -223q11 -76 68 -86t163 37zM397 602q-57 0 -112.5 -109.5t-60.5 -257.5
q108 91 161.5 173t53.5 141q0 26 -11.5 39.5t-30.5 13.5zM143 -270q49 89 35 192l135 2q-15 -126 -126 -213z" />
    <glyph glyph-name="Lcaron" unicode="&#x13d;" 
d="M463 697l118 4q-15 -138 -116 -257l-46 18q47 103 44 235zM449 0h-396l120 620h112l-101 -525h284z" />
    <glyph glyph-name="lcaron" unicode="&#x13e;" 
d="M617 800l118 4q-15 -138 -116 -257l-46 18q47 103 44 235zM475 63q-142 -83 -233.5 -71t-116.5 116q-40 -23 -48 -29l-26 44q2 1 12 8t27 18t27 17q-1 9 -1 27q0 99 29 195t74.5 165t103 111.5t113.5 42.5q48 0 75 -29.5t27 -82.5q0 -95 -78.5 -206t-232.5 -223
q11 -76 68 -86t163 37zM397 602q-57 0 -112.5 -109.5t-60.5 -257.5q108 91 161.5 173t53.5 141q0 26 -11.5 39.5t-30.5 13.5z" />
    <glyph glyph-name="Ldot" unicode="&#x13f;" 
d="M449 0h-396l120 620h112l-101 -525h284zM486 261h-111l32 127h110z" />
    <glyph glyph-name="ldot" unicode="&#x140;" 
d="M475 63q-142 -83 -233.5 -71t-116.5 116q-40 -23 -48 -29l-26 44q2 1 12 8t27 18t27 17q-1 9 -1 27q0 99 29 195t74.5 165t103 111.5t113.5 42.5q48 0 75 -29.5t27 -82.5q0 -95 -78.5 -206t-232.5 -223q11 -76 68 -86t163 37zM397 602q-57 0 -112.5 -109.5t-60.5 -257.5
q108 91 161.5 173t53.5 141q0 26 -11.5 39.5t-30.5 13.5zM593 255h-103l26 127h104z" />
    <glyph glyph-name="Lslash" unicode="&#x141;" 
d="M466 0h-396l54 279l-67 -31l-3 74l86 40l50 258h112l-39 -201l128 59l3 -74l-147 -68l-46 -241h284z" />
    <glyph glyph-name="lslash" unicode="&#x142;" 
d="M121 716q0 62 72 99.5t193 39t279 -37.5l-34 -83q-118 34 -223 42t-160.5 -5t-55.5 -38q0 -18 52 -57l-56 -68q-67 53 -67 108zM475 63q-142 -83 -233.5 -71t-116.5 116q-40 -23 -48 -29l-26 44q2 1 12 8t27 18t27 17q-1 9 -1 27q0 99 29 195t74.5 165t103 111.5
t113.5 42.5q48 0 75 -29.5t27 -82.5q0 -95 -78.5 -206t-232.5 -223q11 -76 68 -86t163 37zM397 602q-57 0 -112.5 -109.5t-60.5 -257.5q108 91 161.5 173t53.5 141q0 26 -11.5 39.5t-30.5 13.5z" />
    <glyph glyph-name="Nacute" unicode="&#x143;" 
d="M237 730q50 29 116.5 77.5t110.5 90.5l70 -84q-50 -35 -130 -71.5t-147 -59.5zM345 0l-127 425h-5l-79 -425h-104l120 618l107 4l118 -422h5l78 420h104l-120 -620h-97z" />
    <glyph glyph-name="nacute" unicode="&#x144;" 
d="M205 619q50 29 116.5 77.5t110.5 90.5l70 -84q-50 -35 -130 -71.5t-147 -59.5zM518 41q-64 -39 -109.5 -48.5t-66.5 7.5t-21 55t30 152.5t30 151.5q0 50 -43 50q-53 0 -132 -77q-6 -31 -34.5 -172.5t-31.5 -159.5h-105q68 351 89 495l105 6q0 -3 -2.5 -18t-5.5 -36
t-5 -38q100 102 190 102q89 0 89 -98q0 -55 -31 -173.5t-31 -138.5q0 -12 5 -16.5t21 -2.5t48 13z" />
    <glyph glyph-name="Ncommaaccent" unicode="&#x145;" 
d="M345 0l-127 425h-5l-79 -425h-104l120 618l107 4l118 -422h5l78 420h104l-120 -620h-97zM120 -261q49 89 35 192l135 2q-15 -126 -126 -213z" />
    <glyph glyph-name="ncommaaccent" unicode="&#x146;" 
d="M518 41q-64 -39 -109.5 -48.5t-66.5 7.5t-21 55t30 152.5t30 151.5q0 50 -43 50q-53 0 -132 -77q-6 -31 -34.5 -172.5t-31.5 -159.5h-105q68 351 89 495l105 6q0 -3 -2.5 -18t-5.5 -36t-5 -38q100 102 190 102q89 0 89 -98q0 -55 -31 -173.5t-31 -138.5q0 -12 5 -16.5
t21 -2.5t48 13zM119 -272q49 89 35 192l135 2q-15 -126 -126 -213z" />
    <glyph glyph-name="Ncaron" unicode="&#x147;" 
d="M368 678h-7l-149 149l73 56l98 -105l150 101l48 -54zM345 0l-127 425h-5l-79 -425h-104l120 618l107 4l118 -422h5l78 420h104l-120 -620h-97z" />
    <glyph glyph-name="ncaron" unicode="&#x148;" 
d="M335 567h-7l-149 149l73 56l98 -105l150 101l48 -54zM518 41q-64 -39 -109.5 -48.5t-66.5 7.5t-21 55t30 152.5t30 151.5q0 50 -43 50q-53 0 -132 -77q-6 -31 -34.5 -172.5t-31.5 -159.5h-105q68 351 89 495l105 6q0 -3 -2.5 -18t-5.5 -36t-5 -38q100 102 190 102
q89 0 89 -98q0 -55 -31 -173.5t-31 -138.5q0 -12 5 -16.5t21 -2.5t48 13z" />
    <glyph glyph-name="Omacron" unicode="&#x14c;" 
d="M567 825l-17 -89h-346l18 89h345zM346 632q87 0 139 -58.5t52 -176.5q0 -164 -84.5 -287t-210.5 -123q-87 0 -138.5 58.5t-51.5 176.5q0 106 37 199.5t105.5 152t151.5 58.5zM255 83q71 0 118.5 95t47.5 215q0 72 -23.5 108t-64.5 36q-47 0 -85.5 -46.5t-59 -117
t-20.5 -146.5q0 -144 87 -144z" />
    <glyph glyph-name="omacron" unicode="&#x14d;" 
d="M537 703l-17 -89h-346l18 89h345zM46 192q0 131 77.5 225.5t192.5 94.5q87 0 138 -54.5t51 -150.5q0 -132 -77.5 -226t-192.5 -94q-88 0 -138.5 54t-50.5 151zM397 293q0 62 -25.5 96t-70.5 34q-63 0 -105 -65t-42 -152q0 -62 25.5 -96t70.5 -34q63 0 105 65t42 152z" />
    <glyph glyph-name="Obreve" unicode="&#x14e;" 
d="M533 884l61 -37q-114 -147 -224 -147q-111 0 -168 147l80 43q24 -56 49.5 -81t61.5 -25q33 0 65 24.5t75 75.5zM346 632q87 0 139 -58.5t52 -176.5q0 -164 -84.5 -287t-210.5 -123q-87 0 -138.5 58.5t-51.5 176.5q0 106 37 199.5t105.5 152t151.5 58.5zM255 83
q71 0 118.5 95t47.5 215q0 72 -23.5 108t-64.5 36q-47 0 -85.5 -46.5t-59 -117t-20.5 -146.5q0 -144 87 -144z" />
    <glyph glyph-name="obreve" unicode="&#x14f;" 
d="M503 762l61 -37q-114 -147 -224 -147q-111 0 -168 147l80 43q24 -56 49.5 -81t61.5 -25q33 0 65 24.5t75 75.5zM46 192q0 131 77.5 225.5t192.5 94.5q87 0 138 -54.5t51 -150.5q0 -132 -77.5 -226t-192.5 -94q-88 0 -138.5 54t-50.5 151zM397 293q0 62 -25.5 96t-70.5 34
q-63 0 -105 -65t-42 -152q0 -62 25.5 -96t70.5 -34q63 0 105 65t42 152z" />
    <glyph glyph-name="Ohungarumlaut" unicode="&#x150;" 
d="M254 698l-46 36q75 91 134 197l99 -54q-87 -102 -187 -179zM468 697l-48 36q71 85 130 190l102 -47q-79 -98 -184 -179zM346 632q87 0 139 -58.5t52 -176.5q0 -164 -84.5 -287t-210.5 -123q-87 0 -138.5 58.5t-51.5 176.5q0 106 37 199.5t105.5 152t151.5 58.5zM255 83
q71 0 118.5 95t47.5 215q0 72 -23.5 108t-64.5 36q-47 0 -85.5 -46.5t-59 -117t-20.5 -146.5q0 -144 87 -144z" />
    <glyph glyph-name="ohungarumlaut" unicode="&#x151;" 
d="M224 576l-46 36q75 91 134 197l99 -54q-87 -102 -187 -179zM438 575l-48 36q71 85 130 190l102 -47q-79 -98 -184 -179zM46 192q0 131 77.5 225.5t192.5 94.5q87 0 138 -54.5t51 -150.5q0 -132 -77.5 -226t-192.5 -94q-88 0 -138.5 54t-50.5 151zM397 293q0 62 -25.5 96
t-70.5 34q-63 0 -105 -65t-42 -152q0 -62 25.5 -96t70.5 -34q63 0 105 65t42 152z" />
    <glyph glyph-name="OE" unicode="&#x152;" 
d="M154 215q0 -124 91 -124l84 438q-46 -2 -82.5 -37t-55 -86.5t-28 -100.5t-9.5 -90zM500 91l-24 -91h-214q-106 0 -162 49t-56 163q0 51 10 103.5t35 108.5t63 98.5t100.5 70t140.5 27.5h205l-17 -91h-156l-35 -179h127l-15 -76h-126l-35 -183h159z" />
    <glyph glyph-name="oe" unicode="&#x153;" 
d="M269 358q0 66 -35 66q-40 0 -74.5 -99t-34.5 -179q0 -72 38 -72q41 0 73.5 101t32.5 183zM445 421q-31 0 -57 -51t-39 -122q61 13 92.5 51.5t31.5 81.5q0 40 -28 40zM526 61q-72 -52 -126.5 -64.5t-85 8.5t-44.5 68q-61 -83 -132 -83q-53 0 -83.5 42.5t-30.5 120.5
q0 84 29 165.5t81.5 135.5t113.5 54q73 0 99 -83q60 83 131 83q43 0 69 -29t26 -81q0 -78 -59 -136t-172 -75q-1 -8 -1 -25q0 -64 37.5 -76t135.5 25z" />
    <glyph glyph-name="Racute" unicode="&#x154;" 
d="M221 735q50 29 116.5 77.5t110.5 90.5l70 -84q-50 -35 -130 -71.5t-147 -59.5zM372 -8l-133 287v1q94 43 134.5 84t40.5 89q0 46 -42 67t-123 11l-102 -531h-110l119 617q194 27 281.5 -14.5t87.5 -127.5q0 -122 -162 -211l129 -256z" />
    <glyph glyph-name="racute" unicode="&#x155;" 
d="M253 625q50 29 116.5 77.5t110.5 90.5l70 -84q-50 -35 -130 -71.5t-147 -59.5zM507 32q-216 -96 -229 29q-9 95 90 320q-68 -19 -127 -22q-58 -105 -166 -213l-39 40q95 111 130 178q-58 13 -58 56q0 39 38 75.5t82 36.5q24 0 37.5 -14.5t13.5 -40.5q0 -14 -3 -29
q103 17 181 56l51 -25q-121 -292 -120 -363q1 -44 44 -43q22 1 68 14z" />
    <glyph glyph-name="Rcommaaccent" unicode="&#x156;" 
d="M372 -8l-133 287v1q94 43 134.5 84t40.5 89q0 46 -42 67t-123 11l-102 -531h-110l119 617q194 27 281.5 -14.5t87.5 -127.5q0 -122 -162 -211l129 -256zM129 -269q49 89 35 192l135 2q-15 -126 -126 -213z" />
    <glyph glyph-name="rcommaaccent" unicode="&#x157;" 
d="M507 32q-216 -96 -229 29q-9 95 90 320q-68 -19 -127 -22q-58 -105 -166 -213l-39 40q95 111 130 178q-58 13 -58 56q0 39 38 75.5t82 36.5q24 0 37.5 -14.5t13.5 -40.5q0 -14 -3 -29q103 17 181 56l51 -25q-121 -292 -120 -363q1 -44 44 -43q22 1 68 14zM98 -255
q49 89 35 192l135 2q-15 -126 -126 -213z" />
    <glyph glyph-name="Rcaron" unicode="&#x158;" 
d="M351 683h-7l-149 149l73 56l98 -105l150 101l48 -54zM372 -8l-133 287v1q94 43 134.5 84t40.5 89q0 46 -42 67t-123 11l-102 -531h-110l119 617q194 27 281.5 -14.5t87.5 -127.5q0 -122 -162 -211l129 -256z" />
    <glyph glyph-name="rcaron" unicode="&#x159;" 
d="M362 573h-7l-149 149l73 56l98 -105l150 101l48 -54zM507 32q-216 -96 -229 29q-9 95 90 320q-68 -19 -127 -22q-58 -105 -166 -213l-39 40q95 111 130 178q-58 13 -58 56q0 39 38 75.5t82 36.5q24 0 37.5 -14.5t13.5 -40.5q0 -14 -3 -29q103 17 181 56l51 -25
q-121 -292 -120 -363q1 -44 44 -43q22 1 68 14z" />
    <glyph glyph-name="Sacute" unicode="&#x15a;" 
d="M245 740q50 29 116.5 77.5t110.5 90.5l70 -84q-50 -35 -130 -71.5t-147 -59.5zM522 455l-97 -19q-12 55 -37.5 79t-69.5 24q-41 0 -68 -24t-27 -59q0 -28 25.5 -57.5t61.5 -55.5t72.5 -53.5t62 -63.5t25.5 -74q0 -41 -24.5 -74.5t-78 -58.5t-137.5 -27t-203 20l22 108
q66 -18 119 -26t87.5 -6.5t57.5 9.5t32.5 20.5t9.5 28.5q0 21 -18 43t-45 41t-59 43.5t-59 48t-45 55.5t-18 66q0 77 65 133t164 56q80 0 123.5 -44.5t58.5 -132.5z" />
    <glyph glyph-name="sacute" unicode="&#x15b;" 
d="M218 642q50 29 116.5 77.5t110.5 90.5l70 -84q-50 -35 -130 -71.5t-147 -59.5zM474 144q0 -34 -17.5 -61t-56.5 -49.5t-111.5 -33.5t-173.5 -8l2 97q97 -8 152.5 -3t76.5 17.5t21 34.5q0 20 -15.5 44.5t-48 61t-46.5 56.5q-76 -56 -166 -103l-24 49q113 74 156 113
q-12 27 -12 55q0 49 39.5 84.5t87.5 35.5q36 0 52.5 -19.5t5 -57.5t-54.5 -84q13 -23 49.5 -67.5t60 -85t23.5 -76.5z" />
    <glyph glyph-name="Scedilla" unicode="&#x15e;" 
d="M245 -188q7 122 -40 122q-39 0 -87 -97l-55 18q43 105 97 138q-63 5 -133 19l22 108q66 -18 119 -26t87.5 -6.5t57.5 9.5t32.5 20.5t9.5 28.5q0 21 -18 43t-45 41t-59 43.5t-59 48t-45 55.5t-18 66q0 77 65 133t164 56q80 0 123.5 -44.5t58.5 -132.5l-97 -19
q-12 55 -37.5 79t-69.5 24q-41 0 -68 -24t-27 -59q0 -28 25.5 -57.5t61.5 -55.5t72.5 -53.5t62 -63.5t25.5 -74q0 -57 -49.5 -101t-147.5 -56q74 -43 65 -181z" />
    <glyph glyph-name="scedilla" unicode="&#x15f;" 
d="M273 -187q7 122 -40 122q-39 0 -87 -97l-55 18q41 99 93 136q-32 -2 -69 0l2 97q97 -8 152.5 -3t76.5 17.5t21 34.5q0 20 -15.5 44.5t-48 61t-46.5 56.5q-76 -56 -166 -103l-24 49q113 74 156 113q-12 27 -12 55q0 49 39.5 84.5t87.5 35.5q36 0 52.5 -19.5t5 -57.5
t-54.5 -84q13 -23 49.5 -67.5t60 -85t23.5 -76.5q0 -114 -181 -143q37 -18 57 -65.5t16 -120.5z" />
    <glyph glyph-name="Scaron" unicode="&#x160;" 
d="M376 688h-7l-149 149l73 56l98 -105l150 101l48 -54zM522 455l-97 -19q-12 55 -37.5 79t-69.5 24q-41 0 -68 -24t-27 -59q0 -28 25.5 -57.5t61.5 -55.5t72.5 -53.5t62 -63.5t25.5 -74q0 -41 -24.5 -74.5t-78 -58.5t-137.5 -27t-203 20l22 108q66 -18 119 -26t87.5 -6.5
t57.5 9.5t32.5 20.5t9.5 28.5q0 21 -18 43t-45 41t-59 43.5t-59 48t-45 55.5t-18 66q0 77 65 133t164 56q80 0 123.5 -44.5t58.5 -132.5z" />
    <glyph glyph-name="scaron" unicode="&#x161;" 
d="M348 590h-7l-149 149l73 56l98 -105l150 101l48 -54zM474 144q0 -34 -17.5 -61t-56.5 -49.5t-111.5 -33.5t-173.5 -8l2 97q97 -8 152.5 -3t76.5 17.5t21 34.5q0 20 -15.5 44.5t-48 61t-46.5 56.5q-76 -56 -166 -103l-24 49q113 74 156 113q-12 27 -12 55q0 49 39.5 84.5
t87.5 35.5q36 0 52.5 -19.5t5 -57.5t-54.5 -84q13 -23 49.5 -67.5t60 -85t23.5 -76.5z" />
    <glyph glyph-name="Tcommaaccent" unicode="&#x162;" 
d="M385 525l-102 -525h-112l101 525h-178l19 95h469l-19 -95h-178zM111 -261q49 89 35 192l135 2q-15 -126 -126 -213z" />
    <glyph glyph-name="tcommaaccent" unicode="&#x163;" 
d="M464 52q-75 -39 -136 -55t-99 -9t-62.5 30.5t-28 63.5t5.5 89l54 241h-92l21 83h60l86 139l81 6l-32 -145h180l-16 -83h-183l-52 -235q-12 -48 -0.5 -72.5t60 -24.5t146.5 26zM121 -274q49 89 35 192l135 2q-15 -126 -126 -213z" />
    <glyph glyph-name="Tcaron" unicode="&#x164;" 
d="M358 676h-7l-149 149l73 56l98 -105l150 101l48 -54zM385 525l-102 -525h-112l101 525h-178l19 95h469l-19 -95h-178z" />
    <glyph glyph-name="tcaron" unicode="&#x165;" 
d="M445 833l118 4q-15 -138 -116 -257l-46 18q47 103 44 235zM464 52q-75 -39 -136 -55t-99 -9t-62.5 30.5t-28 63.5t5.5 89l54 241h-92l21 83h60l86 139l81 6l-32 -145h180l-16 -83h-183l-52 -235q-12 -48 -0.5 -72.5t60 -24.5t146.5 26z" />
    <glyph glyph-name="Umacron" unicode="&#x16a;" 
d="M564 811l-17 -89h-346l18 89h345zM182 230q-29 -148 74 -148q90 0 114 123l80 415h111l-80 -413q-44 -221 -239 -221q-103 0 -149 61t-21 189l75 384h110z" />
    <glyph glyph-name="umacron" unicode="&#x16b;" 
d="M550 694l-17 -89h-346l18 89h345zM522 41q-113 -64 -156.5 -49.5t-34.5 97.5q-91 -102 -172 -102q-58 0 -81.5 47t-3.5 137l36 167l-49 32l84 126l105 7l-69 -318q-21 -96 36 -96t129 86l63 323h104l-71 -364q-9 -43 2 -50t68 11z" />
    <glyph glyph-name="Ubreve" unicode="&#x16c;" 
d="M530 870l61 -37q-114 -147 -224 -147q-111 0 -168 147l80 43q24 -56 49.5 -81t61.5 -25q33 0 65 24.5t75 75.5zM182 230q-29 -148 74 -148q90 0 114 123l80 415h111l-80 -413q-44 -221 -239 -221q-103 0 -149 61t-21 189l75 384h110z" />
    <glyph glyph-name="ubreve" unicode="&#x16d;" 
d="M516 753l61 -37q-114 -147 -224 -147q-111 0 -168 147l80 43q24 -56 49.5 -81t61.5 -25q33 0 65 24.5t75 75.5zM522 41q-113 -64 -156.5 -49.5t-34.5 97.5q-91 -102 -172 -102q-58 0 -81.5 47t-3.5 137l36 167l-49 32l84 126l105 7l-69 -318q-21 -96 36 -96t129 86
l63 323h104l-71 -364q-9 -43 2 -50t68 11z" />
    <glyph glyph-name="Uring" unicode="&#x16e;" 
d="M395 887q55 0 89.5 -28.5t34.5 -70.5q0 -47 -41 -81t-102 -34q-56 0 -90.5 29t-34.5 71q0 47 41 80.5t103 33.5zM182 230q-29 -148 74 -148q90 0 114 123l80 415h111l-80 -413q-44 -221 -239 -221q-103 0 -149 61t-21 189l75 384h110z" />
    <glyph glyph-name="uring" unicode="&#x16f;" 
d="M380 770q55 0 89.5 -28.5t34.5 -70.5q0 -47 -41 -81t-102 -34q-56 0 -90.5 29t-34.5 71q0 47 41 80.5t103 33.5zM522 41q-113 -64 -156.5 -49.5t-34.5 97.5q-91 -102 -172 -102q-58 0 -81.5 47t-3.5 137l36 167l-49 32l84 126l105 7l-69 -318q-21 -96 36 -96t129 86
l63 323h104l-71 -364q-9 -43 2 -50t68 11z" />
    <glyph glyph-name="Uhungarumlaut" unicode="&#x170;" 
d="M251 684l-46 36q75 91 134 197l99 -54q-87 -102 -187 -179zM465 683l-48 36q71 85 130 190l102 -47q-79 -98 -184 -179zM182 230q-29 -148 74 -148q90 0 114 123l80 415h111l-80 -413q-44 -221 -239 -221q-103 0 -149 61t-21 189l75 384h110z" />
    <glyph glyph-name="uhungarumlaut" unicode="&#x171;" 
d="M237 567l-46 36q75 91 134 197l99 -54q-87 -102 -187 -179zM451 566l-48 36q71 85 130 190l102 -47q-79 -98 -184 -179zM522 41q-113 -64 -156.5 -49.5t-34.5 97.5q-91 -102 -172 -102q-58 0 -81.5 47t-3.5 137l36 167l-49 32l84 126l105 7l-69 -318q-21 -96 36 -96
t129 86l63 323h104l-71 -364q-9 -43 2 -50t68 11z" />
    <glyph glyph-name="Uogonek" unicode="&#x172;" 
d="M351 -168q-57 -28 -105 -37.5t-78 -1.5t-46 26t-16 44q0 64 110 124q-190 17 -144 249l75 384h110l-75 -390q-29 -148 74 -148q90 0 114 123l80 415h111l-80 -413q-29 -146 -123 -194q-88 -45 -121.5 -70t-33.5 -49q0 -16 13.5 -24.5t45 -6.5t78.5 18z" />
    <glyph glyph-name="uogonek" unicode="&#x173;" 
d="M479 -168q-58 -28 -106 -37.5t-78 -1.5t-46 26.5t-16 44.5q0 77 128 145q-36 17 -30 81q-94 -103 -172 -103q-58 0 -81.5 47t-3.5 137l36 167l-49 32l84 126l105 7l-69 -318q-21 -96 36 -96t129 86l63 323h104l-71 -364q-9 -43 2 -50t68 11l10 -54q-191 -81 -191 -147
q0 -16 13.5 -24.5t45 -6.5t78.5 18z" />
    <glyph glyph-name="Wcircumflex" unicode="&#x174;" 
d="M490 679l-98 106l-150 -102l-48 55l214 146h6l149 -149zM311 0l-17 296l-132 -296h-107q7 214 67 620h110q-68 -445 -70 -470h4l126 284h62l15 -284h4q10 31 111 470h108q-97 -397 -171 -620h-110z" />
    <glyph glyph-name="wcircumflex" unicode="&#x175;" 
d="M467 556l-98 106l-150 -102l-48 55l214 146h6l149 -149zM309 0l-32 236l-123 -236h-100q7 201 50 497h106q-17 -93 -60 -370h3l121 240h65l28 -241h5q60 271 80 371h111q-53 -205 -153 -497h-101z" />
    <glyph glyph-name="Ycircumflex" unicode="&#x176;" 
d="M484 681l-98 106l-150 -102l-48 55l214 146h6l149 -149zM285 0h-111l40 207l-118 411l115 4l80 -311l193 309h119l-279 -420z" />
    <glyph glyph-name="ycircumflex" unicode="&#x177;" 
d="M467 567l-98 106l-150 -102l-48 55l214 146h6l149 -149zM429 -68q-60 -117 -382 -102l15 103q239 -18 278 19q6 6 9 16t3.5 29.5t0 33.5t-2.5 45.5t-3 47.5q-96 -92 -189 -92q-186 0 -14 464l104 4q-33 -92 -51.5 -160t-24 -108t-1 -64.5t15.5 -32.5t28 -8q57 0 132 72
q4 107 42.5 208t67.5 101q25 0 49.5 -9.5t24.5 -23.5q0 -38 -27 -120.5t-66 -153.5v-6q0 -28 4.5 -92t2 -104t-15.5 -67z" />
    <glyph glyph-name="Ydieresis" unicode="&#x178;" 
d="M523 701l-113 -1l33 134l123 3zM304 699l-114 -1l33 135l123 1zM285 0h-111l40 207l-118 411l115 4l80 -311l193 309h119l-279 -420z" />
    <glyph glyph-name="Zacute" unicode="&#x179;" 
d="M230 728q50 29 116.5 77.5t110.5 90.5l70 -84q-50 -35 -130 -71.5t-147 -59.5zM442 0h-425l17 94l381 431l-293 -2l19 97h414l-15 -94l-377 -431l297 2z" />
    <glyph glyph-name="zacute" unicode="&#x17a;" 
d="M210 606q50 29 116.5 77.5t110.5 90.5l70 -84q-50 -35 -130 -71.5t-147 -59.5zM430 0h-402l18 90l338 317l-276 -3l25 94h393l-18 -90l-337 -317l285 3z" />
    <glyph glyph-name="Zdotaccent" unicode="&#x17b;" 
d="M414 698l-116 -1l33 135l126 1zM442 0h-425l17 94l381 431l-293 -2l19 97h414l-15 -94l-377 -431l297 2z" />
    <glyph glyph-name="zdotaccent" unicode="&#x17c;" 
d="M394 576l-116 -1l33 135l126 1zM430 0h-402l18 90l338 317l-276 -3l25 94h393l-18 -90l-337 -317l285 3z" />
    <glyph glyph-name="Zcaron" unicode="&#x17d;" 
d="M360 676h-7l-149 149l73 56l98 -105l150 101l48 -54zM442 0h-425l17 94l381 431l-293 -2l19 97h414l-15 -94l-377 -431l297 2z" />
    <glyph glyph-name="zcaron" unicode="&#x17e;" 
d="M340 554h-7l-149 149l73 56l98 -105l150 101l48 -54zM430 0h-402l18 90l338 317l-276 -3l25 94h393l-18 -90l-337 -317l285 3z" />
    <glyph glyph-name="Aringacute" unicode="&#x1fa;" 
d="M288 969q50 29 116.5 77.5t110.5 90.5l70 -84q-50 -35 -130 -71.5t-147 -59.5zM394 888q55 0 89.5 -28.5t34.5 -70.5q0 -47 -41 -81t-102 -34q-56 0 -90.5 29t-34.5 71q0 47 41 80.5t103 33.5zM368 -4q-6 116 -9 175h-186l-72 -171h-112q130 298 287 621h153
q32 -341 49 -617zM330 526q-6 -15 -51.5 -116.5t-69.5 -155.5h146q-5 97 -17 272h-8z" />
    <glyph glyph-name="aringacute" unicode="&#x1fb;" 
d="M284 858q50 29 116.5 77.5t110.5 90.5l70 -84q-50 -35 -130 -71.5t-147 -59.5zM390 775q55 0 89.5 -28.5t34.5 -70.5q0 -47 -41 -81t-102 -34q-56 0 -90.5 29t-34.5 71q0 47 41 80.5t103 33.5zM202 89q53 0 130 72q23 108 47 241q-48 16 -85 16q-58 0 -102 -78.5
t-44 -170.5q0 -41 15 -60.5t39 -19.5zM516 41q-75 -45 -119.5 -51t-60 20t-11.5 80q-106 -102 -180 -102q-47 0 -76 39.5t-29 115.5q0 94 37 176.5t109.5 135.5t163.5 53q73 0 149 -22l-68 -352q-9 -43 2.5 -49.5t72.5 10.5z" />
    <glyph glyph-name="AEacute" unicode="&#x1fc;" 
d="M305 728q50 29 116.5 77.5t110.5 90.5l70 -84q-50 -35 -130 -71.5t-147 -59.5zM325 529q-22 -47 -65.5 -141t-65.5 -141h86l55 282h-10zM232 0l33 167h-108q-12 -25 -25 -53t-29 -61.5t-25 -52.5h-108q122 247 310 620h322l-18 -91h-155l-35 -179h126l-15 -76h-126
l-36 -183h160l-23 -91h-248z" />
    <glyph glyph-name="aeacute" unicode="&#x1fd;" 
d="M228 613q50 29 116.5 77.5t110.5 90.5l70 -84q-50 -35 -130 -71.5t-147 -59.5zM522 60q-60 -39 -109.5 -55t-83 -10.5t-55.5 26t-33 54.5q-72 -81 -138 -81q-82 0 -82 132q0 93 31 179.5t86.5 142.5t121.5 56q58 0 110 -30q45 34 96 34q47 0 74 -29.5t27 -77.5
q0 -77 -59 -135.5t-175 -75.5q-1 -9 -1 -25q0 -66 38 -78.5t142 26.5zM438 421q-31 0 -58 -50.5t-40 -122.5q64 14 96 55t32 79q0 39 -30 39zM162 89q30 0 70 54v2q0 146 70 255q-29 20 -59 20q-45 0 -79 -83t-34 -177q0 -71 32 -71z" />
    <glyph glyph-name="Oslashacute" unicode="&#x1fe;" 
d="M238 742q50 29 116.5 77.5t110.5 90.5l70 -84q-50 -35 -130 -71.5t-147 -59.5zM169 230q0 -16 2 -38l225 310q-23 38 -67 38q-70 0 -115 -93.5t-45 -216.5zM260 80q69 0 114.5 93.5t45.5 216.5q0 18 -2 42l-227 -311q22 -41 69 -41zM246 -14q-69 0 -115 37l-49 -67
l-63 41l63 87q-28 59 -28 147q0 163 83 283t206 120q67 0 114 -36l48 66l63 -41l-63 -86q29 -58 29 -148q0 -163 -82.5 -283t-205.5 -120z" />
    <glyph glyph-name="oslashacute" unicode="&#x1ff;" 
d="M207 620q50 29 116.5 77.5t110.5 90.5l70 -84q-50 -35 -130 -71.5t-147 -59.5zM153 205q0 -27 4 -46l211 236q-24 30 -67 30q-64 0 -106 -66t-42 -154zM250 74q64 0 106 65.5t42 154.5q0 25 -4 41l-209 -234q24 -27 65 -27zM235 -13q-68 0 -116 34l-55 -60l-57 43l65 72
q-26 47 -26 116q0 131 77.5 225.5t192.5 94.5q70 0 118 -37l54 61l59 -43l-66 -74q24 -50 24 -112q0 -132 -77.5 -226t-192.5 -94z" />
    <glyph glyph-name="Scommaaccent" unicode="&#x218;" 
d="M522 455l-97 -19q-12 55 -37.5 79t-69.5 24q-41 0 -68 -24t-27 -59q0 -28 25.5 -57.5t61.5 -55.5t72.5 -53.5t62 -63.5t25.5 -74q0 -41 -24.5 -74.5t-78 -58.5t-137.5 -27t-203 20l22 108q66 -18 119 -26t87.5 -6.5t57.5 9.5t32.5 20.5t9.5 28.5q0 21 -18 43t-45 41
t-59 43.5t-59 48t-45 55.5t-18 66q0 77 65 133t164 56q80 0 123.5 -44.5t58.5 -132.5zM109 -270q49 89 35 192l135 2q-15 -126 -126 -213z" />
    <glyph glyph-name="scommaaccent" unicode="&#x219;" 
d="M474 144q0 -34 -17.5 -61t-56.5 -49.5t-111.5 -33.5t-173.5 -8l2 97q97 -8 152.5 -3t76.5 17.5t21 34.5q0 20 -15.5 44.5t-48 61t-46.5 56.5q-76 -56 -166 -103l-24 49q113 74 156 113q-12 27 -12 55q0 49 39.5 84.5t87.5 35.5q36 0 52.5 -19.5t5 -57.5t-54.5 -84
q13 -23 49.5 -67.5t60 -85t23.5 -76.5zM108 -271q49 89 35 192l135 2q-15 -126 -126 -213z" />
    <glyph glyph-name="schwa" unicode="&#x259;" 
d="M190 -13q-67 0 -106.5 33.5t-39.5 91.5q0 86 89.5 137.5t259.5 64.5q-2 83 -70.5 99t-241.5 -28l-12 56q102 52 185.5 64.5t135 -9.5t79.5 -67.5t28 -108.5q0 -124 -91 -228.5t-216 -104.5zM219 75q62 0 108.5 53t60.5 126q-242 -18 -242 -119q0 -27 19.5 -43.5
t53.5 -16.5z" />
    <glyph glyph-name="circumflex" unicode="&#x2c6;" 
d="M394 557l-98 106l-150 -102l-48 55l214 146h6l149 -149z" />
    <glyph glyph-name="caron" unicode="&#x2c7;" 
d="M276 554h-7l-149 149l73 56l98 -105l150 101l48 -54z" />
    <glyph glyph-name="breve" unicode="&#x2d8;" 
d="M431 748l61 -37q-114 -147 -224 -147q-111 0 -168 147l80 43q24 -56 49.5 -81t61.5 -25q33 0 65 24.5t75 75.5z" />
    <glyph glyph-name="dotaccent" unicode="&#x2d9;" 
d="M320 576l-116 -1l33 135l126 1z" />
    <glyph glyph-name="ring" unicode="&#x2da;" 
d="M330 765q55 0 89.5 -28.5t34.5 -70.5q0 -47 -41 -81t-102 -34q-56 0 -90.5 29t-34.5 71q0 47 41 80.5t103 33.5z" />
    <glyph glyph-name="ogonek" unicode="&#x2db;" 
d="M371 43l30 -42q-92 -25 -136 -52.5t-44 -53.5q0 -16 13.5 -25t45 -7t78.5 18l11 -49q-57 -28 -105 -37.5t-78 -1.5t-46 26t-16 44q0 47 60 93.5t187 86.5z" />
    <glyph glyph-name="tilde" unicode="&#x2dc;" 
d="M364 650q27 0 84 86l52 -30q-82 -138 -157 -138q-22 0 -44 14.5t-35.5 32t-29 32t-27.5 14.5q-28 0 -83 -85l-53 30q80 136 157 136q28 0 54 -23t46.5 -46t35.5 -23z" />
    <glyph glyph-name="hungarumlaut" unicode="&#x2dd;" 
d="M177 562l-46 36q75 91 134 197l99 -54q-87 -102 -187 -179zM391 561l-48 36q71 85 130 190l102 -47q-79 -98 -184 -179z" />
    <glyph glyph-name="commaaccent" unicode="&#x326;" 
d="M168 -261q49 89 35 192l135 2q-15 -126 -126 -213z" />
    <glyph glyph-name="Wgrave" unicode="&#x1e80;" 
d="M515 721l-24 -44q-53 21 -126.5 61.5t-124.5 76.5l66 85q107 -107 209 -179zM311 0l-17 296l-132 -296h-107q7 214 67 620h110q-68 -445 -70 -470h4l126 284h62l15 -284h4q10 31 111 470h108q-97 -397 -171 -620h-110z" />
    <glyph glyph-name="wgrave" unicode="&#x1e81;" 
d="M492 598l-24 -44q-53 21 -126.5 61.5t-124.5 76.5l66 85q107 -107 209 -179zM309 0l-32 236l-123 -236h-100q7 201 50 497h106q-17 -93 -60 -370h3l121 240h65l28 -241h5q60 271 80 371h111q-53 -205 -153 -497h-101z" />
    <glyph glyph-name="Wacute" unicode="&#x1e82;" 
d="M237 728q50 29 116.5 77.5t110.5 90.5l70 -84q-50 -35 -130 -71.5t-147 -59.5zM311 0l-17 296l-132 -296h-107q7 214 67 620h110q-68 -445 -70 -470h4l126 284h62l15 -284h4q10 31 111 470h108q-97 -397 -171 -620h-110z" />
    <glyph glyph-name="wacute" unicode="&#x1e83;" 
d="M214 605q50 29 116.5 77.5t110.5 90.5l70 -84q-50 -35 -130 -71.5t-147 -59.5zM309 0l-32 236l-123 -236h-100q7 201 50 497h106q-17 -93 -60 -370h3l121 240h65l28 -241h5q60 271 80 371h111q-53 -205 -153 -497h-101z" />
    <glyph glyph-name="Wdieresis" unicode="&#x1e84;" 
d="M530 699l-113 -1l33 134l123 3zM311 697l-114 -1l33 135l123 1zM311 0l-17 296l-132 -296h-107q7 214 67 620h110q-68 -445 -70 -470h4l126 284h62l15 -284h4q10 31 111 470h108q-97 -397 -171 -620h-110z" />
    <glyph glyph-name="wdieresis" unicode="&#x1e85;" 
d="M506 576l-113 -1l33 134l123 3zM287 574l-114 -1l33 135l123 1zM309 0l-32 236l-123 -236h-100q7 201 50 497h106q-17 -93 -60 -370h3l121 240h65l28 -241h5q60 271 80 371h111q-53 -205 -153 -497h-101z" />
    <glyph glyph-name="Ygrave" unicode="&#x1ef2;" 
d="M508 723l-24 -44q-53 21 -126.5 61.5t-124.5 76.5l66 85q107 -107 209 -179zM285 0h-111l40 207l-118 411l115 4l80 -311l193 309h119l-279 -420z" />
    <glyph glyph-name="ygrave" unicode="&#x1ef3;" 
d="M492 609l-24 -44q-53 21 -126.5 61.5t-124.5 76.5l66 85q107 -107 209 -179zM429 -68q-60 -117 -382 -102l15 103q239 -18 278 19q6 6 9 16t3.5 29.5t0 33.5t-2.5 45.5t-3 47.5q-96 -92 -189 -92q-186 0 -14 464l104 4q-33 -92 -51.5 -160t-24 -108t-1 -64.5t15.5 -32.5
t28 -8q57 0 132 72q4 107 42.5 208t67.5 101q25 0 49.5 -9.5t24.5 -23.5q0 -38 -27 -120.5t-66 -153.5v-6q0 -28 4.5 -92t2 -104t-15.5 -67z" />
    <glyph glyph-name="endash" unicode="&#x2013;" 
d="M497 340l-16 -85h-409l16 85h409z" />
    <glyph glyph-name="emdash" unicode="&#x2014;" 
d="M526 340l-16 -85h-446l16 85h446z" />
    <glyph glyph-name="quoteleft" unicode="&#x2018;" 
d="M437 664q-51 -64 -66.5 -126t-8.5 -151l-138 -3q3 92 44.5 164t125.5 141z" />
    <glyph glyph-name="quoteright" unicode="&#x2019;" 
d="M214 391q51 63 66.5 125.5t8.5 151.5l138 4q-3 -92 -44.5 -164.5t-125.5 -141.5z" />
    <glyph glyph-name="quotesinglbase" unicode="&#x201a;" 
d="M122 -134q51 62 66.5 124.5t8.5 151.5l138 4q-3 -92 -44.5 -164.5t-125.5 -141.5z" />
    <glyph glyph-name="quotedblleft" unicode="&#x201c;" 
d="M555 664q-48 -64 -63.5 -126t-9.5 -149l-135 -4q3 91 43.5 163t121.5 141zM329 664q-51 -64 -67 -126.5t-10 -150.5l-135 -3q3 92 44.5 164t125.5 141z" />
    <glyph glyph-name="quotedblright" unicode="&#x201d;" 
d="M329 391q51 63 67 125.5t10 151.5l135 4q-2 -92 -44 -164.5t-126 -141.5zM103 391q48 63 63.5 125.5t9.5 150.5l135 3q-3 -91 -43.5 -163t-122.5 -141z" />
    <glyph glyph-name="quotedblbase" unicode="&#x201e;" 
d="M234 -134q51 62 67.5 124.5t10.5 151.5l135 4q-3 -92 -44.5 -164.5t-126.5 -141.5zM9 -134q48 63 63.5 125t8.5 150l135 3q-2 -90 -43 -162t-122 -142z" />
    <glyph glyph-name="dagger" unicode="&#x2020;" 
d="M281 133l-74 -27l-14 10l74 349l-150 15l17 85l151 -15l32 149l103 -10l-33 -149l142 -14l-17 -85l-146 14z" />
    <glyph glyph-name="daggerdbl" unicode="&#x2021;" 
d="M270 82l-74 -27l-14 11l43 200l-148 14l17 86l149 -15l24 114l-150 15l17 85l151 -15l32 149l103 -10l-34 -149l143 -14l-17 -85l-147 14l-29 -114l153 -15l-17 -84l-157 15z" />
    <glyph glyph-name="bullet" unicode="&#x2022;" 
d="M416 315q0 -69 -44 -113t-103 -44q-51 0 -86.5 35t-35.5 89q0 68 43.5 112t101.5 44q55 0 89.5 -34.5t34.5 -88.5z" />
    <glyph glyph-name="ellipsis" unicode="&#x2026;" 
d="M476 0h-112l32 146h113zM293 0h-112l32 146h113zM110 0h-112l32 146h113z" />
    <glyph glyph-name="guilsinglleft" unicode="&#x2039;" 
d="M298 -22l-189 222l27 108l270 211l60 -83l-263 -190l173 -195z" />
    <glyph glyph-name="guilsinglright" unicode="&#x203a;" 
d="M139 -19l-61 84l263 189l-172 195l77 73l190 -221l-27 -109z" />
    <glyph glyph-name="fraction" unicode="&#x2044;" 
d="M34 -160l-85 45l575 872l84 -46z" />
    <glyph glyph-name="zero.sup" unicode="&#x2070;" 
d="M147 477q0 103 61 179t147 76q62 0 99 -42t37 -118q0 -102 -61 -178t-146 -76q-62 0 -99.5 42t-37.5 117zM407 566q0 96 -65 96q-47 0 -78.5 -55t-31.5 -124q0 -94 64 -94q48 0 79.5 54.5t31.5 122.5z" />
    <glyph glyph-name="four.sup" unicode="&#x2074;" 
d="M463 402h-44l-15 -74h-77l14 74h-199l6 58q73 126 117 268l90 -4q-49 -143 -123 -252h123l23 118l79 6l-25 -124h51z" />
    <glyph glyph-name="five.sup" unicode="&#x2075;" 
d="M456 458q0 -63 -77 -103t-235 -28l9 75q85 -8 133.5 -0.5t67.5 19.5t19 30q0 49 -183 73l46 199h256l-21 -71h-173l-19 -79q177 -29 177 -115z" />
    <glyph glyph-name="six.sup" unicode="&#x2076;" 
d="M300 318q-65 0 -105.5 36t-40.5 104q0 91 69.5 166.5t217.5 111.5l18 -69q-171 -35 -212 -134q51 34 102.5 35.5t83.5 -27.5t32 -78q0 -64 -47 -104.5t-118 -40.5zM313 382q34 0 53.5 20.5t19.5 50.5q0 46 -44.5 58.5t-105.5 -23.5q-1 -6 -1 -18q0 -45 22.5 -66.5
t55.5 -21.5z" />
    <glyph glyph-name="seven.sup" unicode="&#x2077;" 
d="M265 323l-91 9q99 168 231 316l-1 4h-212l17 72h301l-15 -70q-125 -146 -230 -331z" />
    <glyph glyph-name="eight.sup" unicode="&#x2078;" 
d="M448 429q0 -47 -46.5 -79t-118.5 -32q-64 0 -101 25.5t-37 66.5q0 32 24 60.5t89 66.5q-57 50 -57 89q0 54 68.5 86.5t186.5 15.5l-29 -78q-147 36 -147 -17q0 -21 47 -59q72 35 143 65l25 -46q-74 -32 -122 -55q75 -62 75 -109zM299 382q31 0 51 12.5t20 31.5
q0 11 -10.5 25t-21.5 23.5t-35 27.5q-46 -26 -62 -42.5t-16 -31.5q0 -21 21 -33.5t53 -12.5z" />
    <glyph glyph-name="nine.sup" unicode="&#x2079;" 
d="M196 315l-18 69q170 35 211 133q-50 -34 -101.5 -35t-83.5 28t-32 77q0 64 47 104.5t118 40.5q65 0 105.5 -36t40.5 -104q0 -91 -69.5 -166t-217.5 -111zM251 597q0 -46 44.5 -58t105.5 24q1 6 1 18q0 45 -22.5 66.5t-55.5 21.5q-35 0 -54 -20.5t-19 -51.5z" />
    <glyph glyph-name="zero.inf" unicode="&#x2080;" 
d="M67 -1q0 103 61 179t147 76q62 0 99 -42t37 -118q0 -102 -61 -178t-146 -76q-62 0 -99.5 42t-37.5 117zM327 88q0 96 -65 96q-47 0 -78.5 -55t-31.5 -124q0 -94 64 -94q48 0 79.5 54.5t31.5 122.5z" />
    <glyph glyph-name="one.inf" unicode="&#x2081;" 
d="M360 -150h-304l14 70h117l40 200l-114 -3l11 64l118 13l12 59l84 7l-68 -339h107z" />
    <glyph glyph-name="two.inf" unicode="&#x2082;" 
d="M351 -150h-293v65q131 76 187.5 120.5t56.5 85.5q0 72 -182 48l11 74q128 19 195.5 -8.5t67.5 -92.5q0 -55 -50.5 -105t-160.5 -115h183z" />
    <glyph glyph-name="three.inf" unicode="&#x2083;" 
d="M372 -34q0 -58 -76 -95t-232 -22l10 75q213 -23 213 36q0 44 -158 74l5 35l170 105h-179l14 71h268l-9 -70l-164 -104q138 -33 138 -105z" />
    <glyph glyph-name="four.inf" unicode="&#x2084;" 
d="M383 -76h-44l-15 -74h-77l14 74h-199l6 58q73 126 117 268l90 -4q-49 -143 -123 -252h123l23 118l79 6l-25 -124h51z" />
    <glyph glyph-name="five.inf" unicode="&#x2085;" 
d="M376 -20q0 -63 -77 -103t-235 -28l9 75q85 -8 133.5 -0.5t67.5 19.5t19 30q0 49 -183 73l46 199h256l-21 -71h-173l-19 -79q177 -29 177 -115z" />
    <glyph glyph-name="six.inf" unicode="&#x2086;" 
d="M220 -160q-65 0 -105.5 36t-40.5 104q0 91 69.5 166.5t217.5 111.5l18 -69q-171 -35 -212 -134q51 34 102.5 35.5t83.5 -27.5t32 -78q0 -64 -47 -104.5t-118 -40.5zM233 -96q34 0 53.5 20.5t19.5 50.5q0 46 -44.5 58.5t-105.5 -23.5q-1 -6 -1 -18q0 -45 22.5 -66.5
t55.5 -21.5z" />
    <glyph glyph-name="seven.inf" unicode="&#x2087;" 
d="M185 -155l-91 9q99 168 231 316l-1 4h-212l17 72h301l-15 -70q-125 -146 -230 -331z" />
    <glyph glyph-name="eight.inf" unicode="&#x2088;" 
d="M368 -49q0 -47 -46.5 -79t-118.5 -32q-64 0 -101 25.5t-37 66.5q0 32 24 60.5t89 66.5q-57 50 -57 89q0 54 68.5 86.5t186.5 15.5l-29 -78q-147 36 -147 -17q0 -21 47 -59q72 35 143 65l25 -46q-74 -32 -122 -55q75 -62 75 -109zM219 -96q31 0 51 12.5t20 31.5
q0 11 -10.5 25t-21.5 23.5t-35 27.5q-46 -26 -62 -42.5t-16 -31.5q0 -21 21 -33.5t53 -12.5z" />
    <glyph glyph-name="nine.inf" unicode="&#x2089;" 
d="M116 -163l-18 69q170 35 211 133q-50 -34 -101.5 -35t-83.5 28t-32 77q0 64 47 104.5t118 40.5q65 0 105.5 -36t40.5 -104q0 -91 -69.5 -166t-217.5 -111zM171 119q0 -46 44.5 -58t105.5 24q1 6 1 18q0 45 -22.5 66.5t-55.5 21.5q-35 0 -54 -20.5t-19 -51.5z" />
    <glyph glyph-name="colonmonetary" unicode="&#x20a1;" 
d="M317 138l96 353q-32 -5 -72 -14l-86 -320q22 -9 62 -19zM155 286q0 -62 44 -97l71 263q-115 -52 -115 -166zM254 -74l34 119q-28 7 -59 17l-37 -136h-75l47 165q-106 60 -106 177q0 203 230 284l37 141h75l-32 -118q32 7 66 12l28 106h75l-27 -97q28 2 60 3l-11 -97
q-54 -2 -79 -4l-101 -373q40 -6 82 -12l-39 -91q-38 5 -65 9l-28 -105h-75z" />
    <glyph glyph-name="naira" unicode="&#x20a6;" 
d="M207 452l-41 -217l99 2l-52 215h-6zM363 166h7l40 212l-96 -1zM323 0l-41 167l-130 -2l-31 -165h-84l31 161l-66 -1l17 85l66 1l22 113l-66 -1l16 86h66l34 174l99 4l41 -175l126 1l32 172h81l-33 -172l65 1l-17 -86l-65 -1l-22 -113l66 1l-17 -85l-65 -1l-32 -164h-93z
" />
    <glyph glyph-name="rupee" unicode="&#x20a8;" 
d="M190 -6l-30 237l-13 -3l-46 -228h-81l120 620q207 28 207 -116q0 -62 -30.5 -122t-82.5 -108l42 -268zM528 146q0 -33 -8.5 -58.5t-30.5 -50.5t-69.5 -37t-116.5 -9v92q81 -10 105.5 3t24.5 52q0 14 -3.5 31.5t-7.5 30.5t-11.5 36t-11.5 35q-24 -21 -64 -51l-24 36
q47 42 73 71q-6 25 -6 53q0 63 30.5 107.5t75.5 44.5q20 0 33 -8.5t17.5 -25.5t1 -38.5t-18.5 -50t-40 -59.5q5 -16 20 -59t23 -77.5t8 -67.5z" />
    <glyph glyph-name="Euro" unicode="&#x20ac;" 
d="M482 37q-120 -56 -201 -48.5t-124 57t-51 135.5h-78l16 78h61q5 44 13 78h-61l16 78h70q42 98 114.5 158.5t158.5 60.5q68 0 103 -40t41 -125l-96 -15q-6 47 -21.5 68t-51.5 21q-46 0 -85.5 -37.5t-65.5 -98.5h218l-17 -70h-224q-10 -40 -11 -75h218l-17 -71h-199
q11 -84 71.5 -105t192.5 15z" />
    <glyph glyph-name="peso" unicode="&#x20b1;" 
d="M423 438q-7 52 -53.5 80.5t-126.5 19.5l-20 -100h200zM190 269q86 -7 143.5 19t78.5 75h-204zM562 356h-56q-30 -74 -117 -122t-219 -64l-33 -170h-99l69 356h-69l17 87h68l34 174q177 25 268 -25.5t96 -148.5h58z" />
    <glyph glyph-name="rupeeindia" unicode="&#x20b9;" 
d="M445 43l-86 -60q-114 94 -167.5 127.5t-141.5 58.5l32 80q184 11 228 97h-219l15 76h213q-23 90 -195 107l22 91h406l-23 -93h-195q72 -34 86 -105h85l-14 -76h-77q-20 -50 -76.5 -86t-141.5 -52q50 -17 102 -52.5t147 -112.5z" />
    <glyph glyph-name="ruble" unicode="&#x20bd;" 
d="M451 451q0 49 -42.5 72.5t-126.5 16.5l-38 -200q207 3 207 111zM395 110h-196l-21 -110h-105l21 110h-75l15 81h76l13 68h-22.5h-27h-24.5l16 81h74l54 277q183 23 271.5 -19t88.5 -130q0 -84 -79.5 -138t-244.5 -66l-15 -77h203z" />
    <glyph glyph-name="numero" unicode="&#x2116;" 
d="M514 626q82 0 82 -128q0 -73 -21 -140t-59 -110t-82 -43q-82 0 -82 128q0 113 47.5 203t114.5 90zM180 0l-24 374h-3l-64 -374h-88l121 620h77l25 -339h2l59 339h88l-121 -620h-72zM515 89h-212l15 75h212z" />
    <glyph glyph-name="published" unicode="&#x2117;" 
d="M41 247q0 159 80 262.5t198 103.5q93 0 151 -62.5t58 -172.5q0 -162 -81.5 -266.5t-201.5 -104.5q-91 0 -147.5 64t-56.5 176zM104 258q0 -93 41.5 -143.5t107.5 -50.5q89 0 150.5 87.5t61.5 217.5q0 90 -43 138.5t-111 48.5q-87 0 -147 -85.5t-60 -212.5zM232 153h-65
l59 307q95 15 138.5 -9.5t43.5 -76.5t-42 -86t-117 -45z" />
    <glyph glyph-name="servicemark" unicode="&#x2120;" 
d="M395 345l-16 168h-3l-43 -227h-64l65 333l72 2l20 -183h3l89 182h72l-65 -334h-65l44 227h-2l-82 -168h-25zM281 540l-61 -12q-8 43 -34 43q-13 0 -22 -9.5t-9 -25.5q0 -22 23 -47.5t46 -55t23 -59.5q0 -51 -51.5 -77t-153.5 -2l13 69q122 -43 122 6q0 19 -22.5 42.5
t-45 53t-22.5 62.5q0 43 30.5 72.5t78.5 29.5q71 0 85 -90z" />
    <glyph glyph-name="trademark" unicode="&#x2122;" 
d="M301 620l-11 -57h-67l-54 -276h-63l53 276h-74l12 57h204zM406 621l20 -183h3l89 182h72l-65 -334h-65l44 227h-2l-82 -168h-25l-16 168h-3l-43 -227h-64l65 333z" />
    <glyph glyph-name="Omega" unicode="&#x2126;" 
d="M196 7l-4 -7h-190l17 88h86q-23 111 -23 193q0 156 64.5 254.5t190.5 98.5q87 0 134.5 -53t47.5 -146q0 -146 -122 -347h81l-17 -88h-189l-1 7q139 275 139 411q0 58 -24 89t-68 31q-68 0 -104 -81t-36 -210q0 -135 18 -240z" />
    <glyph glyph-name="onethird" unicode="&#x2153;" 
d="M460 425h-304l14 70h117l40 200l-114 -3l11 64l118 13l12 59l84 7l-68 -339h107zM57 271l14 68h436l-14 -68h-436zM360 -94q0 -58 -76 -95t-232 -22l10 75q213 -23 213 36q0 44 -158 74l5 35l170 105h-179l14 71h268l-9 -70l-164 -104q138 -33 138 -105z" />
    <glyph glyph-name="twothirds" unicode="&#x2154;" 
d="M451 425h-293v65q131 76 187.5 120.5t56.5 85.5q0 72 -182 48l11 74q128 19 195.5 -8.5t67.5 -92.5q0 -55 -50.5 -105t-160.5 -115h183zM57 271l14 68h436l-14 -68h-436zM360 -94q0 -58 -76 -95t-232 -22l10 75q213 -23 213 36q0 44 -158 74l5 35l170 105h-179l14 71h268
l-9 -70l-164 -104q138 -33 138 -105z" />
    <glyph glyph-name="onefifth" unicode="&#x2155;" 
d="M460 425h-304l14 70h117l40 200l-114 -3l11 64l118 13l12 59l84 7l-68 -339h107zM57 271l14 68h436l-14 -68h-436zM364 -80q0 -63 -77 -103t-235 -28l9 75q85 -8 133.5 -0.5t67.5 19.5t19 30q0 49 -183 73l46 199h256l-21 -71h-173l-19 -79q177 -29 177 -115z" />
    <glyph glyph-name="twofifths" unicode="&#x2156;" 
d="M451 425h-293v65q131 76 187.5 120.5t56.5 85.5q0 72 -182 48l11 74q128 19 195.5 -8.5t67.5 -92.5q0 -55 -50.5 -105t-160.5 -115h183zM57 271l14 68h436l-14 -68h-436zM364 -80q0 -63 -77 -103t-235 -28l9 75q85 -8 133.5 -0.5t67.5 19.5t19 30q0 49 -183 73l46 199
h256l-21 -71h-173l-19 -79q177 -29 177 -115z" />
    <glyph glyph-name="threefifths" unicode="&#x2157;" 
d="M472 541q0 -58 -76 -95t-232 -22l10 75q213 -23 213 36q0 44 -158 74l5 35l170 105h-179l14 71h268l-9 -70l-164 -104q138 -33 138 -105zM57 271l14 68h436l-14 -68h-436zM364 -80q0 -63 -77 -103t-235 -28l9 75q85 -8 133.5 -0.5t67.5 19.5t19 30q0 49 -183 73l46 199
h256l-21 -71h-173l-19 -79q177 -29 177 -115z" />
    <glyph glyph-name="fourfifths" unicode="&#x2158;" 
d="M483 499h-44l-15 -74h-77l14 74h-199l6 58q73 126 117 268l90 -4q-49 -143 -123 -252h123l23 118l79 6l-25 -124h51zM57 271l14 68h436l-14 -68h-436zM364 -80q0 -63 -77 -103t-235 -28l9 75q85 -8 133.5 -0.5t67.5 19.5t19 30q0 49 -183 73l46 199h256l-21 -71h-173
l-19 -79q177 -29 177 -115z" />
    <glyph glyph-name="onesixth" unicode="&#x2159;" 
d="M460 425h-304l14 70h117l40 200l-114 -3l11 64l118 13l12 59l84 7l-68 -339h107zM57 271l14 68h436l-14 -68h-436zM208 -220q-65 0 -105.5 36t-40.5 104q0 91 69.5 166.5t217.5 111.5l18 -69q-171 -35 -212 -134q51 34 102.5 35.5t83.5 -27.5t32 -78q0 -64 -47 -104.5
t-118 -40.5zM221 -156q34 0 53.5 20.5t19.5 50.5q0 46 -44.5 58.5t-105.5 -23.5q-1 -6 -1 -18q0 -45 22.5 -66.5t55.5 -21.5z" />
    <glyph glyph-name="fivesixths" unicode="&#x215a;" 
d="M476 555q0 -63 -77 -103t-235 -28l9 75q85 -8 133.5 -0.5t67.5 19.5t19 30q0 49 -183 73l46 199h256l-21 -71h-173l-19 -79q177 -29 177 -115zM57 271l14 68h436l-14 -68h-436zM208 -220q-65 0 -105.5 36t-40.5 104q0 91 69.5 166.5t217.5 111.5l18 -69
q-171 -35 -212 -134q51 34 102.5 35.5t83.5 -27.5t32 -78q0 -64 -47 -104.5t-118 -40.5zM221 -156q34 0 53.5 20.5t19.5 50.5q0 46 -44.5 58.5t-105.5 -23.5q-1 -6 -1 -18q0 -45 22.5 -66.5t55.5 -21.5z" />
    <glyph glyph-name="oneeighth" unicode="&#x215b;" 
d="M460 425h-304l14 70h117l40 200l-114 -3l11 64l118 13l12 59l84 7l-68 -339h107zM57 271l14 68h436l-14 -68h-436zM356 -109q0 -47 -46.5 -79t-118.5 -32q-64 0 -101 25.5t-37 66.5q0 32 24 60.5t89 66.5q-57 50 -57 89q0 54 68.5 86.5t186.5 15.5l-29 -78
q-147 36 -147 -17q0 -21 47 -59q72 35 143 65l25 -46q-74 -32 -122 -55q75 -62 75 -109zM207 -156q31 0 51 12.5t20 31.5q0 11 -10.5 25t-21.5 23.5t-35 27.5q-46 -26 -62 -42.5t-16 -31.5q0 -21 21 -33.5t53 -12.5z" />
    <glyph glyph-name="threeeighths" unicode="&#x215c;" 
d="M472 541q0 -58 -76 -95t-232 -22l10 75q213 -23 213 36q0 44 -158 74l5 35l170 105h-179l14 71h268l-9 -70l-164 -104q138 -33 138 -105zM57 271l14 68h436l-14 -68h-436zM356 -109q0 -47 -46.5 -79t-118.5 -32q-64 0 -101 25.5t-37 66.5q0 32 24 60.5t89 66.5
q-57 50 -57 89q0 54 68.5 86.5t186.5 15.5l-29 -78q-147 36 -147 -17q0 -21 47 -59q72 35 143 65l25 -46q-74 -32 -122 -55q75 -62 75 -109zM207 -156q31 0 51 12.5t20 31.5q0 11 -10.5 25t-21.5 23.5t-35 27.5q-46 -26 -62 -42.5t-16 -31.5q0 -21 21 -33.5t53 -12.5z" />
    <glyph glyph-name="fiveeighths" unicode="&#x215d;" 
d="M476 555q0 -63 -77 -103t-235 -28l9 75q85 -8 133.5 -0.5t67.5 19.5t19 30q0 49 -183 73l46 199h256l-21 -71h-173l-19 -79q177 -29 177 -115zM57 271l14 68h436l-14 -68h-436zM356 -109q0 -47 -46.5 -79t-118.5 -32q-64 0 -101 25.5t-37 66.5q0 32 24 60.5t89 66.5
q-57 50 -57 89q0 54 68.5 86.5t186.5 15.5l-29 -78q-147 36 -147 -17q0 -21 47 -59q72 35 143 65l25 -46q-74 -32 -122 -55q75 -62 75 -109zM207 -156q31 0 51 12.5t20 31.5q0 11 -10.5 25t-21.5 23.5t-35 27.5q-46 -26 -62 -42.5t-16 -31.5q0 -21 21 -33.5t53 -12.5z" />
    <glyph glyph-name="seveneighths" unicode="&#x215e;" 
d="M285 420l-91 9q99 168 231 316l-1 4h-212l17 72h301l-15 -70q-125 -146 -230 -331zM57 271l14 68h436l-14 -68h-436zM356 -109q0 -47 -46.5 -79t-118.5 -32q-64 0 -101 25.5t-37 66.5q0 32 24 60.5t89 66.5q-57 50 -57 89q0 54 68.5 86.5t186.5 15.5l-29 -78
q-147 36 -147 -17q0 -21 47 -59q72 35 143 65l25 -46q-74 -32 -122 -55q75 -62 75 -109zM207 -156q31 0 51 12.5t20 31.5q0 11 -10.5 25t-21.5 23.5t-35 27.5q-46 -26 -62 -42.5t-16 -31.5q0 -21 21 -33.5t53 -12.5z" />
    <glyph glyph-name="minus" unicode="&#x2212;" 
d="M500 343l-19 -91h-411l18 91h412z" />
    <glyph glyph-name="approxequal" unicode="&#x2248;" 
d="M375 315q-34 0 -63.5 24t-52.5 48t-41 24q-17 0 -38 -24t-53 -74l-58 32q46 83 86 121t86 38q27 0 51 -15t38.5 -33t31 -33t30.5 -15q17 0 36.5 22t49.5 70l59 -32q-46 -82 -81.5 -117.5t-80.5 -35.5zM332 95q-27 0 -51.5 15t-39.5 33t-32.5 33t-32.5 15q-17 0 -37 -23.5
t-53 -73.5l-60 31q46 82 86.5 120.5t87.5 38.5q33 0 61.5 -24t50 -48t38.5 -24t36.5 22t49.5 70l59 -32q-47 -82 -82.5 -117.5t-80.5 -35.5z" />
    <glyph glyph-name="notequal" unicode="&#x2260;" 
d="M461 145h-216l-80 -144l-78 25l66 119h-104l19 91h136l72 129h-184l19 91h216l80 144l78 -25l-66 -119h103l-18 -91h-136l-72 -129h184z" />
    <glyph glyph-name="lessequal" unicode="&#x2264;" 
d="M214 367l-2 -7l249 -134l-52 -82l-319 176l17 83l383 205l28 -84zM452 99l-17 -92h-412l18 92h411z" />
    <glyph glyph-name="greaterequal" unicode="&#x2265;" 
d="M384 371l-241 158l57 79l303 -207l-14 -83l-387 -175l-20 87l301 134zM452 99l-17 -92h-412l18 92h411z" />
    <glyph glyph-name="hcoslug" unicode="&#xe10b;" 
d="M500 700v-800h-450v800h450zM200 296q0 22 20 22q22 0 22 -29q0 -17 -14 -37q-28 26 -28 44zM249 232q17 11 31 25q22 -22 -1 -60q-23 28 -30 35zM210 139q-16 0 -27.5 12t-11.5 29q0 18 12 30q28 -26 56 -62q-12 -9 -29 -9zM301 173q15 20 35 32q10 -19 32 -19
q16 0 26.5 11.5t10.5 28.5q0 18 -10.5 28.5t-26.5 10.5q-26 0 -45 -28q-3 28 -37 28q7 10 7 25q0 21 -19.5 38.5t-51.5 17.5q-37 0 -59.5 -19.5t-22.5 -44.5q0 -28 23 -52q-61 -20 -61 -68q0 -30 23.5 -50t57.5 -20q47 0 78 34q33 -34 64 -34q25 0 42 19.5t18 51.5l-5 1
q-14 -22 -32 -22q-20 0 -47 31zM229 68l-9 -1v-7h-5v-5h5v-15q0 -10 9 -10q8 0 11 10l-4 1q-1 -5 -4 -5t-3 4v15h10v5h-10v8zM145 46q0 -16 16 -16t16 16q0 15 -16 15t-16 -15zM167 46q0 -12 -6 -12t-6 12q0 11 6 11t6 -11zM299 45q0 -10 -5 -10q-6 0 -6 10t6 10q5 0 5 -10z
M179 36v-5h16v5h-3v11q0 8 6 8q4 0 4 -6v-13h-3v-5h17v5h-5v14q0 11 -9 11q-6 0 -10 -7v6h-13v-5h4v-19h-4zM108 36v-5h23v5h-7v12h3q4 0 5 -6h5v17h-5q-1 -6 -5 -6h-3v14h8q6 0 9 -10h5v15h-38v-5h6v-31h-6zM241 41v-10h5l1 3q4 -4 10 -4q10 0 10 9q0 6 -9 9t-9 5q0 3 4 3
t8 -5h5v10h-5l-1 -4q-3 4 -8 4q-11 0 -11 -9q0 -7 9 -9.5t9 -5.5t-4 -3t-9 7h-5zM279 69v-39h4l3 6q3 -6 11 -6q12 0 12 16q0 15 -12 15q-7 0 -9 -7v20h-14v-5h5zM318 24q2 2 0.5 4.5t-4.5 2.5q-5 0 -5 -5q0 -7 9 -7q8 0 13 12l10 24h4v5h-13v-5h4l-6 -15l-7 15h4v5h-18v-5
h3q9 -18 12 -25q0 -6 -6 -6zM363 0h-14v-6h5q-2 -4 -5 -7q-2 2 -5 5.5t-4 4.5q8 5 8 10q0 9 -10 9q-13 0 -13 -11q0 -5 5 -10q-10 -3 -10 -11q0 -10 12 -10q8 0 13 5q5 -5 9 -5q7 0 9 9l-3 1q-1 -4 -3 -4q-1 0 -5 4q4 4 7 10h4v6zM235 4v4q0 8 4 8l3 -1q-1 -1 -1 -3
q0 -4 5 -4v-4h-11zM367 -5q0 -21 21 -21q16 0 18 17h-6q-2 -12 -10 -12q-12 0 -12 17t10 17q7 0 11 -12h6v16h-6v-4q-5 5 -12 5q-20 0 -20 -23zM338 -1q-5 5 -5 8q0 4 4 4q5 0 5 -5t-4 -7zM270 -12h19q2 17 -14 17q-15 0 -15 -16q0 -15 16 -15q11 0 13 11h-5q-2 -6 -7 -6
q-7 0 -7 9zM200 -12h19q2 17 -14 17q-15 0 -15 -16q0 -15 16 -15q11 0 13 11h-5q-2 -6 -7 -6q-7 0 -7 9zM156 -10q0 -16 16 -16t16 16q0 15 -16 15t-16 -15zM408 -10q0 -16 16 -16t16 16q0 15 -16 15t-16 -15zM270 -8q0 9 5 9t5 -9h-10zM200 -8q0 9 5 9t5 -9h-10zM178 -10
q0 -12 -6 -12t-6 12q0 11 6 11t6 -11zM430 -10q0 -12 -6 -12t-6 12q0 11 6 11t6 -11zM222 -20v-5h17v5h-4v19h11v-19h-4v-5h17v5h-4v39l-8 -2q-4 2 -8 2q-13 0 -13 -14v-1h-5v-5h5v-19h-4zM291 -20v-5h19v5h-6v12q2 7 5 7v-1q0 -4 5 -4t5 5q0 6 -6 6t-9 -7v6h-13v-5h4v-19
h-4zM108 -20v-5h21v5h-5v14h16v-14h-5v-5h21v5h-6v31h6v5h-21v-5h5v-12h-16v12h5v5h-21v-5h6v-31h-6zM342 -18q-3 -3 -6 -3q-7 0 -7 7q0 4 3 7q2 -2 5.5 -6t4.5 -5zM453 -20q0 6 -6 6t-6 -6t6 -6t6 6z" />
    <glyph glyph-name="check.1" unicode="&#xe10c;" 
d="M586 633q-208 -310 -343 -649l-94 1l-88 363l99 30l53 -255h6q111 319 263 556z" />
    <glyph glyph-name="check.2" unicode="&#xe10d;" 
d="M282 -7l-58 190l-141 -191l-67 30l175 249l-78 226l103 27l49 -164l209 321l98 -48l-272 -367l88 -259z" />
    <glyph glyph-name="NUL" horiz-adv-x="0" 
 />
    <glyph glyph-name="zero.alt" 
d="M53 222q0 107 37.5 201t104.5 151.5t147 57.5q83 0 131 -60t48 -173q0 -107 -37.5 -201.5t-104.5 -152t-147 -57.5q-83 0 -131 60t-48 174zM157 229q0 -75 24.5 -112.5t67.5 -37.5q47 0 86.5 46.5t60.5 118t21 147.5q0 75 -24.5 112.5t-67.5 37.5q-70 0 -119 -97
t-49 -215z" />
    <glyph glyph-name="colon.alt" 
d="M375 399h-138l27 141h138zM310 78h-139l27 141h139z" />
    <glyph glyph-name="guillemotleft.cap" 
d="M173 50l-128 209l22 109l203 210l67 -67l-206 -202l130 -203zM416 50l-127 213l24 108l204 205l66 -69l-207 -197l127 -206z" />
    <glyph glyph-name="guillemotright.cap" 
d="M326 51l-68 66l206 202l-130 203l88 57l129 -210l-23 -108zM78 52l-66 69l207 196l-126 207l87 55l127 -213l-25 -109z" />
    <glyph glyph-name="guilsinglleft.cap" 
d="M310 41l-189 222l27 108l270 211l60 -83l-263 -190l173 -195z" />
    <glyph glyph-name="guilsinglright.cap" 
d="M151 44l-61 84l263 189l-172 195l77 73l190 -221l-27 -109z" />
    <glyph glyph-name="parenleft.cap" 
d="M484 768l58 -71q-177 -119 -248.5 -220.5t-71.5 -212.5q0 -165 178 -361l-83 -60q-199 228 -199 420q0 128 85 248t281 257z" />
    <glyph glyph-name="parenright.cap" 
d="M77 -161l-58 71q177 118 248 219.5t71 213.5q0 167 -178 361l84 60q199 -230 199 -420q0 -128 -85.5 -248t-280.5 -257z" />
    <glyph glyph-name="bracketleft.cap" 
d="M65 -130l171 876h317l-17 -86h-211l-136 -705h211l-17 -85h-318z" />
    <glyph glyph-name="bracketright.cap" 
d="M501 747l-171 -876h-317l17 85h211l136 705h-211l17 86h318z" />
    <glyph glyph-name="braceleft.cap" 
d="M367 -162q-144 64 -202 108.5t-58 93.5q0 30 18.5 57.5t41 43.5t41 35.5t18.5 35.5q0 49 -124 67l16 76q150 8 150 57q0 16 -32 67t-32 86q0 133 338 213l20 -89q-135 -25 -195.5 -52t-60.5 -62q0 -18 30.5 -69.5t30.5 -77.5q0 -34 -31 -64.5t-95 -46.5q89 -30 89 -88
q0 -25 -18 -49t-39 -40.5t-39 -38t-18 -41.5q0 -33 46 -65.5t150 -76.5z" />
    <glyph glyph-name="braceright.cap" 
d="M25 -162l-19 90q134 25 195 52t61 61q0 19 -30.5 70t-30.5 77q0 34 31 65t95 46q-90 31 -90 89q0 25 18 49t39 40.5t39 38t18 41.5q0 32 -45.5 64.5t-149.5 77.5l44 80q144 -64 202 -108.5t58 -93.5q0 -30 -18.5 -57.5t-41 -43.5t-41 -35.5t-18.5 -35.5q0 -49 124 -67
l-16 -76q-150 -8 -150 -57q0 -16 32 -67t32 -86q0 -132 -338 -214z" />
    <glyph glyph-name="registered.alt" 
d="M41 247q0 159 80 262.5t198 103.5q93 0 151 -64.5t58 -173.5q0 -167 -79 -267.5t-204 -100.5q-91 0 -147.5 64t-56.5 176zM104 258q0 -93 41.5 -143.5t107.5 -50.5q94 0 153 82t59 218q0 90 -43 141t-111 51q-87 0 -147 -85.5t-60 -212.5zM309 156l-45 123l-12 -2
l-23 -117h-66l59 301q92 13 136.5 -7.5t44.5 -63.5q0 -55 -79 -98l57 -128z" />
    <glyph glyph-name="asterisk.alt" 
d="M360 537l-52 12l15 151l95 -25zM274 542l-37 -40l-123 88l69 70zM400 458l-17 54l139 62l26 -95zM226 470l17 -54l-139 -62l-26 95zM353 386l37 40l124 -88l-69 -70zM266 391l52 -13l-13 -151l-96 25z" />
    <glyph glyph-name="bullet.alt" 
d="M381 178h-241l49 241h240z" />
    <glyph glyph-name="R_p" 
d="M167 -6l-25 233l-13 -3l-45 -224h-82l121 620q207 28 207 -116q0 -61 -30.5 -121.5t-82.5 -109.5l36 -267zM329 -167l-81 -8q117 610 127 669l75 6l-6 -42q42 52 78 52q49 0 49 -116q0 -85 -22.5 -176.5t-67 -159t-96.5 -67.5q-11 0 -25 3q-2 -9 -15.5 -80t-15.5 -81z
" />
    <glyph glyph-name="f.lig" 
d="M411 29q0 -77 -55.5 -128t-130.5 -51q-71 0 -113 57t-42 168q0 79 22 167l-42 16l16 67h51q57 159 156 269.5t198 110.5q58 0 81.5 -38.5t4 -102.5t-79.5 -133l-46 19q29 39 38 72t-2 52t-38 19q-55 0 -113.5 -77t-97.5 -191l283 1l-16 -87l-206 5q132 -105 132 -215z
M264 -66q34 0 55 21.5t21 57.5q0 105 -151 205q-14 -72 -14 -136q0 -148 89 -148z" />
    <glyph glyph-name="l.ultra" 
d="M463 63q-167 -97 -263 -63t-96 193q0 132 49 253t123 191t148 70q48 0 75 -29.5t27 -82.5q0 -94 -78 -209.5t-229 -236.5q15 -63 71.5 -69.5t156.5 37.5zM386 602q-60 0 -116.5 -116.5t-56.5 -271.5q107 99 160.5 186.5t53.5 148.5q0 26 -11.5 39.5t-29.5 13.5z" />
    <glyph glyph-name="fraction.afrc" 
d="M57 271l14 68h436l-14 -68h-436z" />
    <glyph glyph-name="zero.num" 
d="M167 574q0 103 61 179t147 76q62 0 99 -42t37 -118q0 -102 -61 -178t-146 -76q-62 0 -99.5 42t-37.5 117zM427 663q0 96 -65 96q-47 0 -78.5 -55t-31.5 -124q0 -94 64 -94q48 0 79.5 54.5t31.5 122.5z" />
    <glyph glyph-name="one.num" 
d="M460 425h-304l14 70h117l40 200l-114 -3l11 64l118 13l12 59l84 7l-68 -339h107z" />
    <glyph glyph-name="two.num" 
d="M451 425h-293v65q131 76 187.5 120.5t56.5 85.5q0 72 -182 48l11 74q128 19 195.5 -8.5t67.5 -92.5q0 -55 -50.5 -105t-160.5 -115h183z" />
    <glyph glyph-name="three.num" 
d="M472 541q0 -58 -76 -95t-232 -22l10 75q213 -23 213 36q0 44 -158 74l5 35l170 105h-179l14 71h268l-9 -70l-164 -104q138 -33 138 -105z" />
    <glyph glyph-name="four.num" 
d="M483 499h-44l-15 -74h-77l14 74h-199l6 58q73 126 117 268l90 -4q-49 -143 -123 -252h123l23 118l79 6l-25 -124h51z" />
    <glyph glyph-name="five.num" 
d="M476 555q0 -63 -77 -103t-235 -28l9 75q85 -8 133.5 -0.5t67.5 19.5t19 30q0 49 -183 73l46 199h256l-21 -71h-173l-19 -79q177 -29 177 -115z" />
    <glyph glyph-name="six.num" 
d="M320 415q-65 0 -105.5 36t-40.5 104q0 91 69.5 166.5t217.5 111.5l18 -69q-171 -35 -212 -134q51 34 102.5 35.5t83.5 -27.5t32 -78q0 -64 -47 -104.5t-118 -40.5zM333 479q34 0 53.5 20.5t19.5 50.5q0 46 -44.5 58.5t-105.5 -23.5q-1 -6 -1 -18q0 -45 22.5 -66.5
t55.5 -21.5z" />
    <glyph glyph-name="seven.num" 
d="M285 420l-91 9q99 168 231 316l-1 4h-212l17 72h301l-15 -70q-125 -146 -230 -331z" />
    <glyph glyph-name="eight.num" 
d="M468 526q0 -47 -46.5 -79t-118.5 -32q-64 0 -101 25.5t-37 66.5q0 32 24 60.5t89 66.5q-57 50 -57 89q0 54 68.5 86.5t186.5 15.5l-29 -78q-147 36 -147 -17q0 -21 47 -59q72 35 143 65l25 -46q-74 -32 -122 -55q75 -62 75 -109zM319 479q31 0 51 12.5t20 31.5
q0 11 -10.5 25t-21.5 23.5t-35 27.5q-46 -26 -62 -42.5t-16 -31.5q0 -21 21 -33.5t53 -12.5z" />
    <glyph glyph-name="nine.num" 
d="M216 412l-18 69q170 35 211 133q-50 -34 -101.5 -35t-83.5 28t-32 77q0 64 47 104.5t118 40.5q65 0 105.5 -36t40.5 -104q0 -91 -69.5 -166t-217.5 -111zM271 694q0 -46 44.5 -58t105.5 24q1 6 1 18q0 45 -22.5 66.5t-55.5 21.5q-35 0 -54 -20.5t-19 -51.5z" />
    <glyph glyph-name="zero.den" 
d="M55 -61q0 103 61 179t147 76q62 0 99 -42t37 -118q0 -102 -61 -178t-146 -76q-62 0 -99.5 42t-37.5 117zM315 28q0 96 -65 96q-47 0 -78.5 -55t-31.5 -124q0 -94 64 -94q48 0 79.5 54.5t31.5 122.5z" />
    <glyph glyph-name="one.den" 
d="M348 -210h-304l14 70h117l40 200l-114 -3l11 64l118 13l12 59l84 7l-68 -339h107z" />
    <glyph glyph-name="two.den" 
d="M339 -210h-293v65q131 76 187.5 120.5t56.5 85.5q0 72 -182 48l11 74q128 19 195.5 -8.5t67.5 -92.5q0 -55 -50.5 -105t-160.5 -115h183z" />
    <glyph glyph-name="three.den" 
d="M360 -94q0 -58 -76 -95t-232 -22l10 75q213 -23 213 36q0 44 -158 74l5 35l170 105h-179l14 71h268l-9 -70l-164 -104q138 -33 138 -105z" />
    <glyph glyph-name="four.den" 
d="M371 -136h-44l-15 -74h-77l14 74h-199l6 58q73 126 117 268l90 -4q-49 -143 -123 -252h123l23 118l79 6l-25 -124h51z" />
    <glyph glyph-name="five.den" 
d="M364 -80q0 -63 -77 -103t-235 -28l9 75q85 -8 133.5 -0.5t67.5 19.5t19 30q0 49 -183 73l46 199h256l-21 -71h-173l-19 -79q177 -29 177 -115z" />
    <glyph glyph-name="six.den" 
d="M208 -220q-65 0 -105.5 36t-40.5 104q0 91 69.5 166.5t217.5 111.5l18 -69q-171 -35 -212 -134q51 34 102.5 35.5t83.5 -27.5t32 -78q0 -64 -47 -104.5t-118 -40.5zM221 -156q34 0 53.5 20.5t19.5 50.5q0 46 -44.5 58.5t-105.5 -23.5q-1 -6 -1 -18q0 -45 22.5 -66.5
t55.5 -21.5z" />
    <glyph glyph-name="seven.den" 
d="M173 -215l-91 9q99 168 231 316l-1 4h-212l17 72h301l-15 -70q-125 -146 -230 -331z" />
    <glyph glyph-name="eight.den" 
d="M356 -109q0 -47 -46.5 -79t-118.5 -32q-64 0 -101 25.5t-37 66.5q0 32 24 60.5t89 66.5q-57 50 -57 89q0 54 68.5 86.5t186.5 15.5l-29 -78q-147 36 -147 -17q0 -21 47 -59q72 35 143 65l25 -46q-74 -32 -122 -55q75 -62 75 -109zM207 -156q31 0 51 12.5t20 31.5
q0 11 -10.5 25t-21.5 23.5t-35 27.5q-46 -26 -62 -42.5t-16 -31.5q0 -21 21 -33.5t53 -12.5z" />
    <glyph glyph-name="nine.den" 
d="M104 -223l-18 69q170 35 211 133q-50 -34 -101.5 -35t-83.5 28t-32 77q0 64 47 104.5t118 40.5q65 0 105.5 -36t40.5 -104q0 -91 -69.5 -166t-217.5 -111zM159 59q0 -46 44.5 -58t105.5 24q1 6 1 18q0 45 -22.5 66.5t-55.5 21.5q-35 0 -54 -20.5t-19 -51.5z" />
    <glyph glyph-name="zero.small" 
d="M90 149q0 103 61 179t147 76q62 0 99 -42t37 -118q0 -102 -61 -178t-146 -76q-62 0 -99.5 42t-37.5 117zM350 238q0 96 -65 96q-47 0 -78.5 -55t-31.5 -124q0 -94 64 -94q48 0 79.5 54.5t31.5 122.5z" />
    <glyph glyph-name="one.small" 
d="M383 0h-304l14 70h117l40 200l-114 -3l11 64l118 13l12 59l84 7l-68 -339h107z" />
    <glyph glyph-name="two.small" 
d="M374 0h-293v65q131 76 187.5 120.5t56.5 85.5q0 72 -182 48l11 74q128 19 195.5 -8.5t67.5 -92.5q0 -55 -50.5 -105t-160.5 -115h183z" />
    <glyph glyph-name="three.small" 
d="M395 116q0 -58 -76 -95t-232 -22l10 75q213 -23 213 36q0 44 -158 74l5 35l170 105h-179l14 71h268l-9 -70l-164 -104q138 -33 138 -105z" />
    <glyph glyph-name="four.small" 
d="M406 74h-44l-15 -74h-77l14 74h-199l6 58q73 126 117 268l90 -4q-49 -143 -123 -252h123l23 118l79 6l-25 -124h51z" />
    <glyph glyph-name="five.small" 
d="M399 130q0 -63 -77 -103t-235 -28l9 75q85 -8 133.5 -0.5t67.5 19.5t19 30q0 49 -183 73l46 199h256l-21 -71h-173l-19 -79q177 -29 177 -115z" />
    <glyph glyph-name="six.small" 
d="M243 -10q-65 0 -105.5 36t-40.5 104q0 91 69.5 166.5t217.5 111.5l18 -69q-171 -35 -212 -134q51 34 102.5 35.5t83.5 -27.5t32 -78q0 -64 -47 -104.5t-118 -40.5zM256 54q34 0 53.5 20.5t19.5 50.5q0 46 -44.5 58.5t-105.5 -23.5q-1 -6 -1 -18q0 -45 22.5 -66.5
t55.5 -21.5z" />
    <glyph glyph-name="seven.small" 
d="M208 -5l-91 9q99 168 231 316l-1 4h-212l17 72h301l-15 -70q-125 -146 -230 -331z" />
    <glyph glyph-name="eight.small" 
d="M391 101q0 -47 -46.5 -79t-118.5 -32q-64 0 -101 25.5t-37 66.5q0 32 24 60.5t89 66.5q-57 50 -57 89q0 54 68.5 86.5t186.5 15.5l-29 -78q-147 36 -147 -17q0 -21 47 -59q72 35 143 65l25 -46q-74 -32 -122 -55q75 -62 75 -109zM242 54q31 0 51 12.5t20 31.5
q0 11 -10.5 25t-21.5 23.5t-35 27.5q-46 -26 -62 -42.5t-16 -31.5q0 -21 21 -33.5t53 -12.5z" />
    <glyph glyph-name="nine.small" 
d="M139 -13l-18 69q170 35 211 133q-50 -34 -101.5 -35t-83.5 28t-32 77q0 64 47 104.5t118 40.5q65 0 105.5 -36t40.5 -104q0 -91 -69.5 -166t-217.5 -111zM194 269q0 -46 44.5 -58t105.5 24q1 6 1 18q0 45 -22.5 66.5t-55.5 21.5q-35 0 -54 -20.5t-19 -51.5z" />
    <glyph glyph-name="caron.alt" 
d="M281 800l118 4q-15 -138 -116 -257l-46 18q47 103 44 235z" />
    <glyph glyph-name="commaaccent.rot" 
d="M369 762q-47 -87 -35 -192l-135 -2q15 127 127 213z" />
    <glyph glyph-name="underscore.alt" 
d="M511 -51l-16 -82h-570l16 82h570z" />
    </font>
</defs>
</svg>
