<?xml version="1.0" standalone="no"?>
<!DOCTYPE svg PUBLIC "-//W3C//DTD SVG 1.1//EN" "http://www.w3.org/Graphics/SVG/1.1/DTD/svg11.dtd" >
<svg xmlns="http://www.w3.org/2000/svg" xmlns:xlink="http://www.w3.org/1999/xlink" version="1.1">
<metadata>
Created by FontForge 20190801 at Thu Jan 14 21:37:01 2016
 By www-data
Copyright (C) 2016 Hoefler &#38; Co. http://www.typography.com
</metadata>
<defs>
<font id="OperatorMonoXLightItalic" horiz-adv-x="550" >
  <font-face 
    font-family="OperatorMonoXLightItalic"
    font-weight="275"
    font-style="italic"
    font-stretch="normal"
    units-per-em="1000"
    panose-1="2 0 0 9 0 0 0 0 0 0"
    ascent="800"
    descent="-200"
    x-height="480"
    cap-height="620"
    bbox="-65 -379 692.151 1121"
    underline-thickness="35"
    underline-position="-84"
    slope="-11"
    unicode-range="U+0020-E10D"
  />
<missing-glyph 
d="M8 -200l-15 1000h540l15 -1000h-540zM70 750l199 -390l188 390h-387zM481 676l-180 -376l191 -376zM60 -76l180 376l-191 376zM271 240l-187 -390h387z" />
    <glyph glyph-name=".notdef" 
d="M8 -200l-15 1000h540l15 -1000h-540zM70 750l199 -390l188 390h-387zM481 676l-180 -376l191 -376zM60 -76l180 376l-191 376zM271 240l-187 -390h387z" />
    <glyph glyph-name=".null" horiz-adv-x="0" 
 />
    <glyph glyph-name="nonmarkingreturn" horiz-adv-x="333" 
 />
    <glyph glyph-name="space" unicode=" " 
 />
    <glyph glyph-name="exclam" unicode="!" 
d="M280 220h-28q1 4 78 455h58q-94 -391 -108 -455zM255 0h-75l18 85h75z" />
    <glyph glyph-name="quotedbl" unicode="&#x22;" 
d="M419 389h-29l48 275h61l-2 -30zM208 389h-29l48 275h61l-2 -30z" />
    <glyph glyph-name="numbersign" unicode="#" 
d="M192 220l147 23l46 172l-147 -23zM129 -13l-36 -4l52 192l-110 -17l10 40l110 17l47 172l-111 -17l9 40l112 17l52 192l36 4l-51 -190l147 22l51 190l36 4l-50 -189l109 17l-9 -40l-111 -17l-46 -172l111 17l-10 -40l-112 -17l-52 -195l-36 -4l52 194l-148 -23z" />
    <glyph glyph-name="dollar" unicode="$" 
d="M193 486q0 -29 24 -61.5t70 -77.5l63 212q-80 6 -118.5 -16t-38.5 -57zM398 137q0 48 -99 141l-66 -220q81 -4 123 19.5t42 59.5zM440 140q0 -50 -55 -85.5t-163 -34.5l-29 -108l-40 1l32 109q-67 5 -143 23l11 44q79 -23 145 -29l74 243q-39 37 -60.5 60t-41.5 56
t-20 61q0 52 52.5 87t157.5 29l34 111h42l-37 -114q59 -7 120 -23l-8 -43q-69 20 -126 28l-71 -233q41 -40 62.5 -62.5t42.5 -57t21 -62.5z" />
    <glyph glyph-name="percent" unicode="%" 
d="M298 541q0 -72 -34 -123.5t-84 -51.5q-35 0 -55.5 24t-20.5 68q0 72 34 123.5t84 51.5q35 0 55.5 -24t20.5 -68zM95 -4l-30 24l447 603l30 -24zM255 541q0 54 -38 54q-28 0 -49 -41.5t-21 -95.5t38 -54q28 0 49 41.5t21 95.5zM309 78q0 72 34 123.5t84 51.5
q35 0 55.5 -24t20.5 -68q0 -72 -34 -123.5t-84 -51.5q-35 0 -55.5 24t-20.5 68zM352 78q0 -54 38 -54q28 0 49 41.5t21 95.5t-38 54q-28 0 -49 -41.5t-21 -95.5z" />
    <glyph glyph-name="ampersand" unicode="&#x26;" 
d="M486 -18q-82 74 -133 145q-123 -137 -223 -137q-50 0 -77.5 29t-27.5 82q0 77 60 160t166 182q5 70 35.5 133.5t57.5 63.5q30 0 30 -38q0 -78 -87 -173q4 -125 74 -237q54 70 105 171l41 -14q-59 -108 -125 -189q51 -69 135 -144zM141 31q83 0 191 126q-75 118 -81 241
q-85 -86 -134 -157t-49 -133q0 -36 19.5 -56.5t53.5 -20.5z" />
    <glyph glyph-name="quotesingle" unicode="'" 
d="M316 389h-29l48 275h61l-2 -30z" />
    <glyph glyph-name="parenleft" unicode="(" 
d="M511 712l23 -34q-193 -120 -278 -231t-85 -230q0 -177 210 -390l-34 -27q-218 226 -218 417q0 126 91 245.5t291 249.5z" />
    <glyph glyph-name="parenright" unicode=")" 
d="M35 -214l-23 34q193 120 278 231t85 230q0 177 -210 390l34 27q218 -226 218 -417q0 -126 -91 -245.5t-291 -249.5z" />
    <glyph glyph-name="asterisk" unicode="*" 
d="M368 299l-70 143l-135 -84l-16 20l115 110l-124 103l15 21l139 -76l62 149l26 -7l-29 -157l160 -13v-25l-158 -20l39 -154z" />
    <glyph glyph-name="plus" unicode="+" 
d="M493 268h-193l-38 -198h-40l38 198h-192l7 37h193l38 198h40l-38 -198h193z" />
    <glyph glyph-name="comma" unicode="," 
d="M122 -183q67 64 85.5 121t4.5 148l75 3q-4 -92 -36.5 -156t-110.5 -128z" />
    <glyph glyph-name="hyphen" unicode="-" 
d="M424 306l-7 -38h-293l7 38h293z" />
    <glyph glyph-name="period" unicode="." 
d="M272 0h-75l18 87h75z" />
    <glyph glyph-name="slash" unicode="/" 
d="M570 708l33 -19l-616 -864l-39 10z" />
    <glyph glyph-name="zero" unicode="0" 
d="M69 217q0 107 35.5 201.5t99 153.5t139.5 59q77 0 121.5 -58t44.5 -169q0 -107 -35.5 -202t-99 -154t-139.5 -59q-77 0 -121.5 58.5t-44.5 169.5zM334 591q-91 0 -154 -106t-67 -246l351 182q-4 84 -38 127t-92 43zM244 29q92 0 155 106.5t66 247.5l-351 -183
q4 -85 38 -128t92 -43z" />
    <glyph glyph-name="one" unicode="1" 
d="M438 0h-378l8 39h177l94 487l-167 -11l5 33l170 22l15 76l45 3l-118 -610h159z" />
    <glyph glyph-name="two" unicode="2" 
d="M434 0h-387l-1 38q88 61 143 100.5t110.5 85.5t85.5 81.5t48.5 74t18.5 76.5q0 161 -286 116l7 43q159 26 241 -14.5t82 -134.5q0 -52 -24 -101.5t-79 -103t-118.5 -102t-166.5 -119.5h334z" />
    <glyph glyph-name="three" unicode="3" 
d="M467 165q0 -29 -12 -55t-40 -51t-74.5 -39.5t-116.5 -22t-165 2.5l6 44q111 -8 181 -4.5t110 24t54.5 42.5t14.5 51q0 50 -58 91t-198 74l4 24l297 234h-301l8 40h352l-5 -38l-297 -235q240 -60 240 -182z" />
    <glyph glyph-name="four" unicode="4" 
d="M482 143h-76l-28 -143h-42l28 143h-302l2 30q69 113 115 213.5t88 239.5l47 -3q-45 -142 -91.5 -238.5t-114.5 -201.5h263l45 230l43 5l-46 -235h82z" />
    <glyph glyph-name="five" unicode="5" 
d="M462 188q0 -41 -22 -76.5t-67 -65t-127 -42.5t-189 -4l6 44q188 -18 272.5 23.5t84.5 110.5q0 119 -280 167l69 275h315l-11 -40h-273l-51 -205q273 -54 273 -187z" />
    <glyph glyph-name="six" unicode="6" 
d="M257 -9q-80 0 -130 51.5t-50 152.5q0 62 20 122.5t63.5 121.5t122 114.5t184.5 89.5l11 -43q-156 -49 -238.5 -130t-108.5 -176q55 52 117 70.5t110.5 5t80.5 -55.5t32 -104q0 -96 -61.5 -157.5t-152.5 -61.5zM266 30q73 0 118 49t45 124q0 52 -27.5 87t-70 45t-99 -10
t-109.5 -71q-3 -24 -3 -47q0 -90 41 -133.5t105 -43.5z" />
    <glyph glyph-name="seven" unicode="7" 
d="M166 -3l-46 5q170 314 379 575v3h-342l8 40h391l-7 -35q-217 -275 -383 -588z" />
    <glyph glyph-name="eight" unicode="8" 
d="M439 141q0 -62 -59 -107t-146 -45q-76 0 -124.5 36t-48.5 94q0 47 38.5 95t147.5 119q-46 45 -71 82t-25 74q0 73 84.5 115t227.5 13l-12 -44q-94 23 -151 13.5t-81.5 -32.5t-24.5 -57q0 -51 91 -140q87 56 224 130l17 -30q-127 -68 -217 -124q43 -41 64.5 -64
t43.5 -59.5t22 -68.5zM246 28q65 0 108 31.5t43 77.5q0 27 -22 61t-39 51t-64 61q-100 -64 -133 -104t-33 -77q0 -46 39.5 -73.5t100.5 -27.5z" />
    <glyph glyph-name="nine" unicode="9" 
d="M110 -20l-11 43q157 49 239.5 130t107.5 176q-73 -69 -153.5 -80t-133 35t-52.5 129q0 95 61.5 157t151.5 62q80 0 130.5 -52t50.5 -152q0 -62 -20.5 -123t-64 -122t-122 -114t-184.5 -89zM149 420q0 -70 45 -108t117.5 -25t142.5 81q3 24 3 47q0 91 -40.5 134t-105.5 43
q-73 0 -117.5 -49t-44.5 -123z" />
    <glyph glyph-name="colon" unicode=":" 
d="M340 340h-75l18 87h75zM267 0h-75l18 87h76z" />
    <glyph glyph-name="semicolon" unicode=";" 
d="M340 340h-75l18 87h75zM117 -183q67 64 85.5 121t4.5 148l75 3q-4 -92 -36.5 -156t-110.5 -128z" />
    <glyph glyph-name="less" unicode="&#x3c;" 
d="M487 585l21 -33l-364 -263l-2 -8l262 -266l-30 -30l-277 284l7 39z" />
    <glyph glyph-name="equal" unicode="=" 
d="M503 421l-8 -37h-384l7 37h385zM460 197l-8 -37h-384l7 37h385z" />
    <glyph glyph-name="greater" unicode="&#x3e;" 
d="M91 -15l-21 33l364 263l2 8l-262 266l30 30l277 -284l-7 -39z" />
    <glyph glyph-name="question" unicode="?" 
d="M145 635l8 43q184 -21 271.5 -62t87.5 -111q0 -63 -69 -126.5t-228 -145.5l-14 26q146 75 204.5 128.5t58.5 103.5q0 60 -76.5 91.5t-242.5 52.5zM205 0h-75l18 85h75z" />
    <glyph glyph-name="at" unicode="@" 
d="M398 -138q-336 -84 -336 250q0 142 46.5 272.5t129.5 213t179 82.5q167 0 116 -240l-45 -215q-16 -78 -26 -161l-40 1l5 50q-65 -56 -116 -56q-33 0 -53 32.5t-20 94.5q0 111 58 200.5t143 89.5q25 0 59 -9q30 176 -93 176q-79 0 -149.5 -76t-111.5 -198t-41 -253
q0 -145 70 -201.5t230 -13.5zM329 99q45 0 104 53l57 274q-44 13 -72 13q-54 0 -96.5 -79t-42.5 -171q0 -90 50 -90z" />
    <glyph glyph-name="A" unicode="A" 
d="M417 -2q-14 142 -22 214h-239q-70 -142 -104 -212h-46q152 312 316 623h66q45 -345 73 -621zM345 582q-93 -178 -171 -334h217q-19 173 -39 334h-7z" />
    <glyph glyph-name="B" unicode="B" 
d="M481 183q0 -42 -22 -78t-71.5 -66t-129.5 -40t-195 1l120 619q163 23 245.5 -13.5t82.5 -109.5q0 -62 -50.5 -110t-137.5 -67q70 -10 114 -47t44 -89zM468 486q0 56 -62.5 84.5t-184.5 14.5l-50 -257q149 5 223 49t74 109zM437 176q0 61 -67 94t-205 26l-50 -258
q159 -14 240.5 27.5t81.5 110.5z" />
    <glyph glyph-name="C" unicode="C" 
d="M379 633q78 0 106.5 -54t22.5 -165l-43 -1q2 95 -16.5 137.5t-78.5 42.5q-68 0 -126.5 -53t-91.5 -137t-33 -174q0 -144 87.5 -185.5t244.5 22.5l-4 -44q-173 -65 -273 -12t-100 209q0 105 40 200.5t111 154.5t154 59z" />
    <glyph glyph-name="D" unicode="D" 
d="M515 380q0 -87 -29.5 -161.5t-85 -129.5t-145 -79.5t-200.5 -9.5l120 619q161 28 250.5 -32.5t89.5 -206.5zM470 375q0 241 -257 210l-107 -549q90 -8 160.5 16t114.5 72t66.5 112t22.5 139z" />
    <glyph glyph-name="E" unicode="E" 
d="M435 40l-10 -40h-354l120 620h356l-8 -40h-311l-48 -247h265l-7 -36h-265l-49 -257h311z" />
    <glyph glyph-name="F" unicode="F" 
d="M446 284h-275l-55 -284h-44l120 620h368l-7 -40h-325l-50 -260h275z" />
    <glyph glyph-name="G" unicode="G" 
d="M393 -110l-41 -1l27 120q-141 -47 -223.5 9t-82.5 201q0 106 40 201.5t108 154t146 58.5q76 0 106 -52.5t25 -166.5h-42q2 94 -16.5 136.5t-77.5 42.5q-67 0 -124 -53.5t-88.5 -137.5t-31.5 -173q0 -134 71 -180t199 1l42 187l44 2z" />
    <glyph glyph-name="H" unicode="H" 
d="M375 0l57 297h-278l-57 -297h-45l120 620h45l-56 -287h278l56 287h45l-120 -620h-45z" />
    <glyph glyph-name="I" unicode="I" 
d="M254 37h158l-8 -37h-358l8 37h155l106 546h-159l7 37h358l-7 -37h-154z" />
    <glyph glyph-name="J" unicode="J" 
d="M52 -12l8 42q114 -1 166.5 6t76.5 31q16 16 27.5 54.5t31.5 140.5l63 321h-216l8 37h259l-67 -351q-22 -116 -36 -159t-34 -63q-32 -32 -97.5 -45.5t-189.5 -13.5z" />
    <glyph glyph-name="K" unicode="K" 
d="M420 -4l-218 317l319 307h52l-317 -308l213 -309zM186 620h45l-121 -620h-45z" />
    <glyph glyph-name="L" unicode="L" 
d="M442 0h-370l120 620h45l-112 -580h327z" />
    <glyph glyph-name="M" unicode="M" 
d="M230 622l33 -470h2l222 468h70l-120 -620h-45l113 563h-4l-228 -473h-44l-34 473h-3l-108 -563h-42l120 618z" />
    <glyph glyph-name="N" unicode="N" 
d="M368 0l-161 565h-5l-108 -565h-42l119 619l61 2l156 -551h5l106 550h42l-120 -620h-53z" />
    <glyph glyph-name="O" unicode="O" 
d="M355 632q77 0 122 -59.5t45 -170.5q0 -102 -36 -196.5t-103 -156t-146 -61.5q-77 0 -122 59.5t-45 170.5q0 102 36 196.5t103 156t146 61.5zM246 28q97 0 164 113.5t67 256.5q0 95 -35 144.5t-96 49.5q-97 0 -164 -113.5t-67 -256.5q0 -95 35 -144.5t96 -49.5z" />
    <glyph glyph-name="P" unicode="P" 
d="M110 0h-45l120 618q178 22 265 -22.5t87 -132.5q0 -103 -101 -167.5t-284 -78.5zM492 457q0 68 -66.5 103t-202.5 21l-62 -319q160 4 245.5 55.5t85.5 139.5z" />
    <glyph glyph-name="Q" unicode="Q" 
d="M422 -126l-269 122l11 31q140 60 229 168t89 226q0 81 -38 127.5t-108 46.5q-78 0 -134.5 -63t-71.5 -172t29 -254l-38 -15q-51 156 -32.5 276.5t90 193t169.5 72.5q86 0 132.5 -56.5t46.5 -149.5q0 -126 -85.5 -236t-222.5 -177l224 -102z" />
    <glyph glyph-name="R" unicode="R" 
d="M436 -4l-198 280l1 3q124 54 177 98.5t53 102.5q0 60 -63.5 88t-186.5 15l-113 -583h-45l120 619q168 21 250.5 -16.5t82.5 -114.5q0 -67 -53.5 -118.5t-164.5 -100.5l189 -265z" />
    <glyph glyph-name="S" unicode="S" 
d="M501 466l-43 -8q-9 69 -41.5 101.5t-91.5 32.5q-61 0 -101.5 -38.5t-40.5 -90.5q0 -36 27.5 -70t66.5 -62t78.5 -56t67 -64t27.5 -74q0 -53 -41.5 -90t-134.5 -51t-244 21l10 46q99 -24 173 -28.5t114.5 9t59.5 35t19 50.5q0 32 -27.5 64.5t-67 60.5t-79 57.5t-67 67
t-27.5 77.5q0 69 58.5 122t142.5 53q140 0 162 -165z" />
    <glyph glyph-name="T" unicode="T" 
d="M364 580l-113 -580h-45l113 580h-208l7 40h461l-7 -40h-208z" />
    <glyph glyph-name="U" unicode="U" 
d="M133 210q-36 -183 117 -183q133 0 165 168l83 425h45l-83 -425q-20 -101 -75.5 -155.5t-139.5 -54.5q-94 0 -136 57.5t-23 158.5l82 419h45z" />
    <glyph glyph-name="V" unicode="V" 
d="M261 0h-67q-47 334 -73 618l43 4q21 -224 67 -581h7q175 326 298 579h45q-119 -245 -320 -620z" />
    <glyph glyph-name="W" unicode="W" 
d="M339 0l-30 363l-170 -363h-58q11 217 70 620h44q-55 -360 -72 -568h4l180 387h34l31 -387h3q67 216 149 568h43q-91 -381 -171 -620h-57z" />
    <glyph glyph-name="X" unicode="X" 
d="M410 -3l-123 282l-225 -279h-50l256 312l-136 305l44 6l124 -281l225 278h51l-257 -312l136 -305z" />
    <glyph glyph-name="Y" unicode="Y" 
d="M250 0h-45l41 213l-131 406l46 2l117 -365l257 364h49l-294 -413z" />
    <glyph glyph-name="Z" unicode="Z" 
d="M431 0h-401l6 39l454 542l-340 -1l8 40h390l-7 -39l-453 -542l350 1z" />
    <glyph glyph-name="bracketleft" unicode="[" 
d="M69 -178l169 868h302l-8 -37h-260l-154 -794h260l-7 -37h-302z" />
    <glyph glyph-name="backslash" unicode="\" 
d="M157 706l284 -873l-37 -10l-282 871z" />
    <glyph glyph-name="bracketright" unicode="]" 
d="M480 691l-169 -868h-302l8 37h260l154 794h-260l7 37h302z" />
    <glyph glyph-name="asciicircum" unicode="^" 
d="M448 170l-140 256l-226 -259l-29 26l255 292l13 2l166 -293z" />
    <glyph glyph-name="underscore" unicode="_" 
d="M458 -50l-7 -36h-479l7 36h479z" />
    <glyph glyph-name="grave" unicode="`" 
d="M359 568l-15 -20q-105 77 -184 170l39 36q73 -107 160 -186z" />
    <glyph glyph-name="a" unicode="a" 
d="M182 32q37 0 90 33t95 79l57 292q-58 15 -104 15q-89 0 -152 -89.5t-63 -209.5q0 -60 21 -90t56 -30zM510 32q-65 -38 -102 -39.5t-47.5 26t-2.5 81.5q-46 -47 -98.5 -78t-93.5 -31q-48 0 -76.5 39t-28.5 113q0 139 82.5 242.5t201.5 103.5q56 0 129 -19l-70 -351
q-6 -32 -6.5 -53t9.5 -29t32.5 -3.5t63.5 22.5z" />
    <glyph glyph-name="b" unicode="b" 
d="M203 -9q-55 0 -136 21l133 686l43 4l-62 -322q45 47 99 79t96 32q49 0 80 -41.5t31 -119.5q0 -137 -82 -238t-202 -101zM228 29q90 0 153 87.5t63 205.5q0 62 -23.5 95t-59.5 33q-40 0 -93.5 -34t-95.5 -82l-56 -288q66 -17 112 -17z" />
    <glyph glyph-name="c" unicode="c" 
d="M485 342h-41q-1 61 -22 85t-67 24q-93 0 -161 -82t-68 -192q0 -109 84 -138t233 33l10 -25q-115 -58 -197 -57t-127.5 49.5t-45.5 132.5q0 124 85 221t196 97q63 0 92.5 -36t28.5 -112z" />
    <glyph glyph-name="d" unicode="d" 
d="M186 32q39 0 90 30t90 74l59 299q-63 18 -110 18q-88 0 -149.5 -88t-61.5 -206q0 -61 23 -94t59 -33zM512 32q-48 -28 -81 -36.5t-50 2t-22.5 34.5t-0.5 61q-44 -44 -95.5 -73t-92.5 -29q-49 0 -79 41.5t-30 118.5q0 138 80.5 238.5t198.5 100.5q44 0 93 -10l43 218l45 4
l-114 -578q-10 -46 -6.5 -69t27 -23t76.5 24z" />
    <glyph glyph-name="e" unicode="e" 
d="M458 53q-89 -46 -163 -58.5t-121.5 7t-73.5 62.5t-26 105q0 76 35.5 149.5t101.5 123t145 49.5q60 0 95 -29t35 -79q0 -83 -96 -134t-273 -65v-9q0 -111 85.5 -137.5t246.5 40.5zM348 452q-91 0 -153 -71.5t-75 -166.5q151 13 237 53.5t86 109.5q0 34 -25.5 54.5
t-69.5 20.5z" />
    <glyph glyph-name="f" unicode="f" 
d="M394 -13q0 -72 -50 -119t-116 -47q-63 0 -104.5 55t-41.5 165q0 106 37 230l-30 18l6 23h37q58 164 154.5 278t191.5 114q30 0 50.5 -12t28 -34t2 -50.5t-29 -65t-63.5 -74.5l-18 15q47 50 63 91.5t2.5 63.5t-48.5 22q-76 0 -158 -101.5t-133 -246.5l313 -2l-6 -36
l-302 3q215 -153 215 -290zM243 -141q46 0 80 33t34 86q0 133 -202 277q-32 -114 -32 -212q0 -95 34 -139.5t86 -44.5z" />
    <glyph glyph-name="g" unicode="g" 
d="M200 61q46 0 93 38.5t86 109.5q20 112 59 213q-62 30 -115 30q-90 0 -152 -82.5t-62 -188.5q0 -58 25.5 -89t65.5 -31zM415 -98q-47 -94 -361 -72l5 45q261 -23 311 27q13 13 14 40.5t-4.5 87t-5.5 106.5v15q-86 -132 -188 -132q-54 0 -87 40.5t-33 114.5q0 127 81 221.5
t198 94.5q53 0 112 -25q13 24 19 24q11 0 21 -6t10 -13q0 -18 -28 -100t-61 -154q-3 -36 -3 -66q0 -53 5 -112t5 -87.5t-10 -48.5z" />
    <glyph glyph-name="h" unicode="h" 
d="M510 31q-51 -32 -87 -38t-51.5 8t-15.5 43q0 38 35.5 167.5t35.5 174.5q0 64 -58 64q-88 0 -205 -133l-61 -317h-43l135 698l44 4l-66 -339q114 127 218 127q42 0 62 -24t20 -64q0 -53 -36 -184t-36 -158q0 -18 7.5 -24.5t29 -2.5t61.5 23z" />
    <glyph glyph-name="i" unicode="i" 
d="M344 568l-42 -3l30 130l50 2zM462 39q-111 -43 -178.5 -47.5t-90 27t-5.5 97.5l83 322l-189 -36l-3 26l204 53l42 -2l-94 -358q-5 -18 -6 -32t1.5 -25t9.5 -18t19 -11t30 -4t42.5 4t56 11.5t70.5 19.5z" />
    <glyph glyph-name="j" unicode="j" 
d="M399 568l-43 -3l33 131l49 2zM12 -174l2 44q135 -1 174.5 3t55.5 20q18 18 19.5 78.5t13 192t50.5 276.5l-191 -26l-5 25l211 42l38 -1q-36 -124 -53 -241t-17.5 -182t-8 -116t-27.5 -71q-24 -24 -78 -33.5t-184 -10.5z" />
    <glyph glyph-name="k" unicode="k" 
d="M430 -4l-208 205q236 108 236 199q0 23 -15 36t-41 13q-44 0 -104.5 -34t-124.5 -100l-61 -315h-43l135 698l44 4l-66 -342q60 63 123 96.5t113 33.5q41 0 63.5 -21t22.5 -55q0 -111 -225 -214l202 -196z" />
    <glyph glyph-name="l" unicode="l" 
d="M448 66q-136 -86 -218.5 -71.5t-91.5 135.5q-10 -6 -28 -18.5t-21 -14.5l-15 25q9 6 32 22t31 21q1 129 50.5 256.5t120.5 205.5t135 78q40 0 62 -25t22 -70q0 -92 -83 -208t-264 -245q2 -75 32.5 -104.5t84.5 -18.5t138 58zM430 661q-36 0 -79 -41t-79 -105t-62 -150.5
t-29 -170.5q159 117 231 219.5t72 180.5q0 32 -14.5 49.5t-39.5 17.5z" />
    <glyph glyph-name="m" unicode="m" 
d="M530 21q-64 -35 -93.5 -30t-29.5 44q0 34 36 181.5t36 192.5q0 42 -29 42q-45 0 -117 -81l-73 -370h-43l71 358q18 93 -24 93q-45 0 -114 -78q-10 -52 -72 -373h-43q60 298 89 478l42 4q-2 -11 -6 -35.5t-5 -35.5q70 79 125 79q29 0 44 -22t12 -62q72 84 130 84
q27 0 42.5 -18.5t15.5 -51.5q0 -54 -36 -201t-36 -170q0 -9 3 -13.5t10.5 -5.5t20 3t33.5 13z" />
    <glyph glyph-name="n" unicode="n" 
d="M510 31q-51 -32 -87 -38t-51.5 8t-15.5 43q0 38 35.5 167t35.5 174q0 65 -58 65q-87 0 -202 -121q-1 -5 -64 -329h-43q66 335 89 479l42 3q-3 -15 -8.5 -54t-8.5 -57q113 119 217 119q42 0 62 -24t20 -64q0 -53 -36 -184t-36 -158q0 -18 7.5 -24.5t29 -2.5t61.5 23z" />
    <glyph glyph-name="o" unicode="o" 
d="M63 183q0 129 74.5 218.5t179.5 89.5q78 0 123.5 -50.5t45.5 -143.5q0 -130 -74.5 -218.5t-179.5 -88.5q-78 0 -123.5 49.5t-45.5 143.5zM442 289q0 77 -35 120.5t-100 43.5q-87 0 -143.5 -76.5t-56.5 -185.5q0 -78 35 -120.5t100 -42.5q87 0 143.5 75.5t56.5 185.5z" />
    <glyph glyph-name="p" unicode="p" 
d="M228 28q91 0 153.5 87.5t62.5 206.5q0 62 -23.5 95t-59.5 33q-40 0 -94.5 -34.5t-95.5 -81.5q-21 -115 -54 -288q63 -18 111 -18zM74 -172l-42 -4q96 500 122 655l42 3l-18 -105q46 49 100.5 81.5t97.5 32.5q49 0 80 -41.5t31 -119.5q0 -138 -82 -238.5t-202 -100.5
q-40 0 -95 11q-6 -32 -18 -91.5t-16 -82.5z" />
    <glyph glyph-name="q" unicode="q" 
d="M492 -138q-102 -52 -138 -37t-21 95l33 172q-45 -44 -97 -72.5t-94 -28.5q-51 0 -82 41.5t-31 118.5q0 137 81.5 238t201.5 101q59 0 139 -22l-107 -537q-11 -57 6.5 -65.5t100.5 20.5zM190 31q40 0 92.5 30t92.5 74l58 301q-62 17 -112 17q-91 0 -153.5 -87.5
t-62.5 -206.5q0 -62 24 -95t61 -33z" />
    <glyph glyph-name="r" unicode="r" 
d="M508 25q-163 -70 -187 18q-26 94 99 390q-119 -38 -197 -35q-51 -117 -147 -228l-21 17q96 120 133 216q-35 10 -35 35q0 23 23 49t47 26t24 -30q0 -17 -10 -49q106 7 220 55l20 -16q-131 -325 -116 -405q10 -52 84 -34l56 17z" />
    <glyph glyph-name="s" unicode="s" 
d="M451 114q0 -29 -14.5 -52t-51.5 -42.5t-100 -25t-161 0.5l2 42q117 -14 179.5 -3.5t82.5 28t20 47.5q0 29 -24.5 68t-58.5 87t-48 85q-75 -77 -183 -150l-15 22q133 99 188 168q-2 16 -2 24q0 37 25 75.5t52 38.5q30 0 26 -35q-5 -42 -56 -104q9 -42 74 -136t65 -138z
" />
    <glyph glyph-name="t" unicode="t" 
d="M452 51q-73 -36 -128.5 -51t-89 -9t-53 27t-20.5 57.5t8 81.5l65 287h-94l10 35h67l65 138l35 2l-32 -140h199l-7 -35h-200l-65 -285q-13 -63 -1.5 -97.5t68 -31.5t164.5 47z" />
    <glyph glyph-name="u" unicode="u" 
d="M373 116l1 3q-115 -129 -199 -129q-56 0 -78 46t0 138l38 165l-35 21l65 119l45 3l-70 -305q-34 -146 52 -146q39 0 83 31.5t107 100.5l63 317h42l-71 -361q-7 -35 -7.5 -53t8.5 -28t30.5 -5t59.5 23l8 -24q-100 -54 -130.5 -31.5t-11.5 115.5z" />
    <glyph glyph-name="v" unicode="v" 
d="M236 38q111 183 254 442h47q-163 -289 -282 -484h-62q-55 257 -92 483l44 2q40 -242 84 -443h7z" />
    <glyph glyph-name="w" unicode="w" 
d="M343 0l-51 299l-163 -299h-46q7 227 40 480h44q-26 -215 -43 -414h3l162 299h31l49 -300h4q61 196 116 415h47q-71 -259 -153 -480h-40z" />
    <glyph glyph-name="x" unicode="x" 
d="M390 -2l-125 214l-206 -212h-50l235 241l-140 237l45 4l128 -212l206 210h50l-235 -240l139 -237z" />
    <glyph glyph-name="y" unicode="y" 
d="M408 -99q-46 -92 -346 -72l7 47q247 -22 297 25q8 9 12.5 23t6 39.5t1 48l-1.5 67.5t-1 79q-46 -59 -103 -97.5t-110 -38.5q-178 0 -7 458l43 1q-36 -100 -56 -175t-24.5 -120.5t3.5 -73.5t22.5 -38.5t37.5 -10.5q41 0 95 39t101 99q9 90 40.5 188.5t48.5 98.5
q11 0 21 -5t10 -13q0 -22 -26 -109.5t-56 -152.5q-2 -36 -2 -55q0 -33 1 -86.5t1 -75.5t-3.5 -48t-11.5 -42z" />
    <glyph glyph-name="z" unicode="z" 
d="M422 0h-388l7 38l413 404l-329 -1l11 39h375l-7 -37l-414 -405l343 1z" />
    <glyph glyph-name="braceleft" unicode="{" 
d="M375 -203q-137 61 -194 103.5t-57 88.5q0 29 19 56t42 45t42 40t19 41q0 59 -146 72l5 33q180 12 180 83q0 20 -35 74t-35 87q0 118 326 196l8 -41q-294 -62 -294 -146q0 -25 35.5 -81t35.5 -80q0 -33 -33 -63t-98 -45q93 -23 93 -81q0 -24 -19 -48.5t-41 -42t-41 -42
t-19 -48.5q0 -37 52 -74t175 -90z" />
    <glyph glyph-name="bar" unicode="|" 
d="M342 698l40 2l-171 -880h-40z" />
    <glyph glyph-name="braceright" unicode="}" 
d="M7 -202l-8 41q294 62 294 146q0 25 -35.5 81t-35.5 80q0 33 33 63t98 45q-93 23 -93 81q0 24 19 48.5t41 42t41 42t19 48.5q0 37 -52 74t-175 90l20 37q137 -61 194 -103.5t57 -88.5q0 -29 -19 -56t-42 -45t-42 -40t-19 -41q0 -59 146 -72l-5 -33q-180 -12 -180 -83
q0 -20 35 -74t35 -87q0 -118 -326 -196z" />
    <glyph glyph-name="asciitilde" unicode="~" 
d="M375 205q-29 0 -55 25t-42.5 55t-38 55t-41.5 25q-55 0 -119 -150l-31 13q78 177 157 177q29 0 55 -25t42 -55t37 -55t41 -25q56 0 120 150l32 -13q-79 -177 -157 -177z" />
    <glyph glyph-name="uni00A0" unicode="&#xa0;" 
 />
    <glyph glyph-name="exclamdown" unicode="&#xa1;" 
d="M311 620h76l-19 -85h-75zM286 400h29q-16 -81 -44 -248.5t-35 -206.5h-58q94 391 108 455z" />
    <glyph glyph-name="cent" unicode="&#xa2;" 
d="M134 252q0 -106 124 -147l74 324q-104 -15 -151 -62t-47 -115zM419 37q-81 3 -135 16l-31 -139h-42l35 149q-153 50 -153 180q0 83 60.5 145.5t186.5 82.5l33 149h42l-34 -144q50 4 118 1l-8 -44q-67 5 -120 0l-78 -338q58 -14 135 -17z" />
    <glyph glyph-name="sterling" unicode="&#xa3;" 
d="M483 126q-16 -43 -33 -71.5t-38.5 -42.5t-40.5 -19.5t-48.5 -1t-53 10.5t-63 17t-69.5 17q-43 -48 -100 -48q-43 0 -45.5 26t36.5 45q36 19 91 17q32 69 45 191h-83l7 38h80q13 121 47 187q30 60 79.5 101t110.5 41q125 0 119 -179l-45 -1q0 77 -21 108t-63 31
q-43 0 -79.5 -30t-61.5 -79q-28 -56 -43 -179h208l-7 -38h-205q-15 -135 -43 -190l-3 -6q27 -5 62 -14t54.5 -14t44.5 -8.5t41 1t34 15.5t32.5 33t28.5 56z" />
    <glyph glyph-name="yen" unicode="&#xa5;" 
d="M451 119h-178l-23 -119h-44l23 119h-183l7 38h184l20 102l-5 13h-176l7 38h155l-116 309l46 2l119 -319l241 318h49l-238 -310h150l-7 -38h-172l-11 -15l-19 -100h180z" />
    <glyph glyph-name="section" unicode="&#xa7;" 
d="M121 251q0 -31 33 -55.5t97 -55.5q9 -4 13 -6q90 22 130.5 46t40.5 53q0 14 -8 26.5t-25.5 25.5t-32 21.5t-43 23t-41.5 22.5q-72 -12 -118 -37t-46 -64zM403 5q0 -42 -39 -71t-125 -38.5t-223 24.5l10 46q71 -19 129 -27t95 -5.5t62 12.5t35.5 24t10.5 31
q0 25 -28.5 48.5t-69.5 43t-82 40t-69.5 49t-28.5 61.5q0 97 172 129q-78 51 -78 113q0 59 53 102.5t132 44.5q65 1 100.5 -36t43.5 -111l-42 -8q-13 116 -115 116q-54 0 -91 -29.5t-37 -70.5q0 -32 26.5 -59.5t64.5 -48.5t76 -41.5t64.5 -47t26.5 -56.5q0 -40 -42.5 -70.5
t-132.5 -54.5q102 -53 102 -110z" />
    <glyph glyph-name="dieresis" unicode="&#xa8;" 
d="M392 569l-42 -2l30 130l50 1zM183 566l-42 -1l31 129l49 1z" />
    <glyph glyph-name="copyright" unicode="&#xa9;" 
d="M312 613q89 0 146 -68t57 -182q0 -157 -78.5 -256.5t-187.5 -99.5q-89 0 -146 68t-57 182q0 157 78.5 256.5t187.5 99.5zM306 583q-94 0 -161 -91.5t-67 -227.5q0 -103 50 -165t127 -62q94 0 161 91.5t67 227.5q0 103 -50 165t-127 62zM318 490q40 0 55 -30t12 -91
l-34 -1q1 46 -7 68t-32 22q-48 0 -81.5 -60t-33.5 -133q0 -71 40.5 -90t112.5 12l-4 -34q-86 -35 -135.5 -7t-49.5 112q0 91 46 161.5t111 70.5z" />
    <glyph glyph-name="ordfeminine" unicode="&#xaa;" 
d="M224 283q32 0 74.5 23.5t76.5 57.5l44 216q-49 11 -84 11q-73 0 -124 -64.5t-51 -152.5q0 -42 18.5 -66.5t45.5 -24.5zM491 275q-76 -38 -104.5 -23t-19.5 73q-37 -34 -80 -56.5t-77 -22.5q-40 0 -64.5 32t-24.5 89q0 103 68 180.5t165 77.5q50 0 110 -14l-53 -260
q-6 -28 -6.5 -42t6.5 -22.5t24.5 -6t48.5 15.5zM93 163h356l-7 -35h-356z" />
    <glyph glyph-name="guillemotleft" unicode="&#xab;" 
d="M194 -10l-134 228l12 48l220 226l30 -28l-227 -226l137 -224zM421 -10l-132 229l13 48l222 224l30 -28l-230 -224l135 -226z" />
    <glyph glyph-name="registered" unicode="&#xae;" 
d="M330 668q90 0 142.5 -54t52.5 -149q0 -114 -64.5 -187.5t-164.5 -73.5q-90 0 -142.5 54t-52.5 149q0 114 64.5 187.5t164.5 73.5zM330 641q-86 0 -143 -63.5t-57 -166.5q0 -85 46 -132.5t120 -47.5q86 0 143 63.5t57 166.5q0 85 -46 132.5t-120 47.5zM364 322l-84 103
q96 32 96 69q0 43 -88 33l-39 -203h-30l44 226q76 12 109 -4t33 -47q0 -48 -82 -82l76 -91z" />
    <glyph glyph-name="macron" unicode="&#xaf;" 
d="M431 653l-7 -38h-313l8 38h312z" />
    <glyph glyph-name="degree" unicode="&#xb0;" 
d="M343 667q64 0 104.5 -42t40.5 -110q0 -81 -54 -133.5t-127 -52.5q-64 0 -104 42t-40 110q0 81 54 133.5t126 52.5zM313 365q58 0 97.5 41t39.5 106q0 52 -30.5 86t-81.5 34q-57 0 -97 -41.5t-40 -106.5q0 -52 30.5 -85.5t81.5 -33.5z" />
    <glyph glyph-name="plusminus" unicode="&#xb1;" 
d="M445 78h-402l7 36h181l36 187h-184l7 36h184l37 191h40l-37 -191h185l-8 -36h-184l-36 -187h181z" />
    <glyph glyph-name="two.sup" unicode="&#xb2;" 
d="M422 335h-273l-1 32q150 95 212 149t62 107q0 97 -199 68l6 36q114 17 173.5 -9.5t59.5 -87.5q0 -62 -59.5 -118.5t-195.5 -141.5h223z" />
    <glyph glyph-name="three.sup" unicode="&#xb3;" 
d="M444 442q0 -54 -67 -87.5t-220 -19.5l5 37q98 -11 152 -0.5t73.5 26t19.5 38.5q0 65 -178 100l3 19l199 141h-205l7 34h249l-4 -34l-199 -141q165 -36 165 -113z" />
    <glyph glyph-name="acute" unicode="&#xb4;" 
d="M177 577q108 72 203 170l36 -38q-88 -74 -227 -153z" />
    <glyph glyph-name="mu" unicode="&#xb5;" 
d="M72 -172l-43 -4l127 655l44 4l-62 -318q-27 -134 54 -134q39 0 83 31.5t107 100.5l63 317h42l-71 -361q-7 -35 -7.5 -53t8.5 -28t30.5 -5t59.5 23l8 -24q-100 -54 -130.5 -31.5t-11.5 115.5l1 3q-115 -129 -197 -129q-50 0 -68 41z" />
    <glyph glyph-name="paragraph" unicode="&#xb6;" 
d="M401 149l85 430q-56 5 -102 0l-81 -410q48 -14 98 -20zM130 359q0 -57 35 -102.5t101 -73.5l76 390q-102 -19 -157 -77t-55 -137zM249 -109l-42 -6l49 255q-82 31 -126.5 86t-44.5 126q0 127 126 207.5t324 61.5l-137 -702l-43 -6l39 197q-54 4 -99 18z" />
    <glyph glyph-name="periodcentered" unicode="&#xb7;" 
d="M305 266h-75l18 87h75z" />
    <glyph glyph-name="cedilla" unicode="&#xb8;" 
d="M129 -142l-26 9q59 141 138 141q49 0 77.5 -45t22.5 -134l-42 -1q5 73 -12.5 108.5t-50.5 35.5q-53 0 -107 -114z" />
    <glyph glyph-name="one.sup" unicode="&#xb9;" 
d="M436 335h-284l7 34h130l54 279l-130 -11l4 28l133 19l12 61l39 3l-75 -379h119z" />
    <glyph glyph-name="ordmasculine" unicode="&#xba;" 
d="M484 476q0 -93 -60.5 -161.5t-144.5 -68.5q-62 0 -99 40.5t-37 110.5q0 93 60.5 161.5t144.5 68.5q62 0 99 -41t37 -110zM182 404q0 -57 28.5 -90.5t78.5 -33.5q68 0 112 54.5t44 134.5q0 57 -29 91t-78 34q-68 0 -112 -55t-44 -135zM92 163h333l-6 -35h-333z" />
    <glyph glyph-name="guillemotright" unicode="&#xbb;" 
d="M277 -11l-30 28l227 226l-137 224l38 24l134 -228l-12 -48zM45 -10l-30 28l230 224l-135 226l38 23l132 -229l-13 -48z" />
    <glyph glyph-name="onequarter" unicode="&#xbc;" 
d="M454 425h-284l7 34h130l54 279l-130 -11l4 28l133 19l12 61l39 3l-75 -379h119zM66 288l7 33h431l-7 -33h-431zM362 -121h-52l-18 -89h-35l17 89h-209l3 26q86 136 133 284l40 -2q-49 -151 -135 -275h175l27 141l37 4l-29 -145h57z" />
    <glyph glyph-name="onehalf" unicode="&#xbd;" 
d="M454 425h-284l7 34h130l54 279l-130 -11l4 28l133 19l12 61l39 3l-75 -379h119zM66 288l7 33h431l-7 -33h-431zM326 -210h-273l-1 32q150 95 212 149t62 107q0 97 -199 68l6 36q114 17 173.5 -9.5t59.5 -87.5q0 -62 -59.5 -118.5t-195.5 -141.5h223z" />
    <glyph glyph-name="threequarters" unicode="&#xbe;" 
d="M462 532q0 -54 -67 -87.5t-220 -19.5l5 37q98 -11 152 -0.5t73.5 26t19.5 38.5q0 65 -178 100l3 19l199 141h-205l7 34h249l-4 -34l-199 -141q165 -36 165 -113zM66 288l7 33h431l-7 -33h-431zM362 -121h-52l-18 -89h-35l17 89h-209l3 26q86 136 133 284l40 -2
q-49 -151 -135 -275h175l27 141l37 4l-29 -145h57z" />
    <glyph glyph-name="questiondown" unicode="&#xbf;" 
d="M372 620h75l-19 -85h-75zM431 -15l-8 -43q-183 21 -270.5 62t-87.5 111q0 63 69 126.5t228 145.5l14 -26q-146 -75 -205 -128.5t-59 -103.5q0 -60 76.5 -91.5t242.5 -52.5z" />
    <glyph glyph-name="Agrave" unicode="&#xc0;" 
d="M462 711l-15 -20q-105 77 -184 170l39 36q73 -107 160 -186zM417 -2q-14 142 -22 214h-239q-70 -142 -104 -212h-46q152 312 316 623h66q45 -345 73 -621zM345 582q-93 -178 -171 -334h217q-19 173 -39 334h-7z" />
    <glyph glyph-name="Aacute" unicode="&#xc1;" 
d="M266 720q108 72 203 170l36 -38q-88 -74 -227 -153zM417 -2q-14 142 -22 214h-239q-70 -142 -104 -212h-46q152 312 316 623h66q45 -345 73 -621zM345 582q-93 -178 -171 -334h217q-19 173 -39 334h-7z" />
    <glyph glyph-name="Acircumflex" unicode="&#xc2;" 
d="M506 701l-106 128l-166 -124l-21 26l195 147h1l128 -151zM417 -2q-14 142 -22 214h-239q-70 -142 -104 -212h-46q152 312 316 623h66q45 -345 73 -621zM345 582q-93 -178 -171 -334h217q-19 173 -39 334h-7z" />
    <glyph glyph-name="Atilde" unicode="&#xc3;" 
d="M456 746q23 0 47.5 29t58.5 85l25 -15q-39 -68 -72.5 -101.5t-68.5 -33.5q-23 0 -42 18t-29.5 39.5t-26 39.5t-32.5 18q-41 0 -106 -108l-25 15q74 129 141 129q23 0 42 -18t29.5 -39.5t26 -39.5t32.5 -18zM417 -2q-14 142 -22 214h-239q-70 -142 -104 -212h-46
q152 312 316 623h66q45 -345 73 -621zM345 582q-93 -178 -171 -334h217q-19 173 -39 334h-7z" />
    <glyph glyph-name="Adieresis" unicode="&#xc4;" 
d="M490 712l-42 -2l30 130l50 1zM281 709l-42 -1l31 129l49 1zM417 -2q-14 142 -22 214h-239q-70 -142 -104 -212h-46q152 312 316 623h66q45 -345 73 -621zM345 582q-93 -178 -171 -334h217q-19 173 -39 334h-7z" />
    <glyph glyph-name="Aring" unicode="&#xc5;" 
d="M391 892q54 0 89 -28t35 -70q0 -46 -38.5 -77.5t-96.5 -31.5q-54 0 -89 28t-35 70q0 46 38.5 77.5t96.5 31.5zM387 861q-40 0 -67.5 -21.5t-27.5 -52.5q0 -30 26 -50.5t66 -20.5q41 0 68.5 21.5t27.5 52.5q0 30 -26.5 50.5t-66.5 20.5zM417 -2q-14 142 -22 214h-239
q-70 -142 -104 -212h-46q152 312 316 623h66q45 -345 73 -621zM345 582q-93 -178 -171 -334h217q-19 173 -39 334h-7z" />
    <glyph glyph-name="AE" unicode="&#xc6;" 
d="M356 580q-28 -51 -91 -166t-96 -176h128l67 342h-8zM251 0l39 202h-140q-37 -68 -109 -202h-50q267 481 345 620h259l-7 -40h-179l-48 -247h153l-7 -36h-153l-50 -257h181l-12 -40h-222z" />
    <glyph glyph-name="Ccedilla" unicode="&#xc7;" 
d="M336 -176l-42 -1q5 73 -12.5 108.5t-50.5 35.5q-53 0 -107 -114l-26 9q47 114 107 135q-131 42 -131 222q0 105 40 200.5t111 154.5t154 59q78 0 106.5 -54t22.5 -165l-43 -1q2 95 -16.5 137.5t-78.5 42.5q-68 0 -126.5 -53t-91.5 -137t-33 -174q0 -144 87.5 -185.5
t244.5 22.5l-4 -44q-90 -34 -160 -35q58 -41 49 -163z" />
    <glyph glyph-name="Egrave" unicode="&#xc8;" 
d="M477 708l-15 -20q-105 77 -184 170l39 36q73 -107 160 -186zM435 40l-10 -40h-354l120 620h356l-8 -40h-311l-48 -247h265l-7 -36h-265l-49 -257h311z" />
    <glyph glyph-name="Eacute" unicode="&#xc9;" 
d="M281 717q108 72 203 170l36 -38q-88 -74 -227 -153zM435 40l-10 -40h-354l120 620h356l-8 -40h-311l-48 -247h265l-7 -36h-265l-49 -257h311z" />
    <glyph glyph-name="Ecircumflex" unicode="&#xca;" 
d="M521 698l-106 128l-166 -124l-21 26l195 147h1l128 -151zM435 40l-10 -40h-354l120 620h356l-8 -40h-311l-48 -247h265l-7 -36h-265l-49 -257h311z" />
    <glyph glyph-name="Edieresis" unicode="&#xcb;" 
d="M505 709l-42 -2l30 130l50 1zM296 706l-42 -1l31 129l49 1zM435 40l-10 -40h-354l120 620h356l-8 -40h-311l-48 -247h265l-7 -36h-265l-49 -257h311z" />
    <glyph glyph-name="Igrave" unicode="&#xcc;" 
d="M452 708l-15 -20q-105 77 -184 170l39 36q73 -107 160 -186zM254 37h158l-8 -37h-358l8 37h155l106 546h-159l7 37h358l-7 -37h-154z" />
    <glyph glyph-name="Iacute" unicode="&#xcd;" 
d="M256 717q108 72 203 170l36 -38q-88 -74 -227 -153zM254 37h158l-8 -37h-358l8 37h155l106 546h-159l7 37h358l-7 -37h-154z" />
    <glyph glyph-name="Icircumflex" unicode="&#xce;" 
d="M496 698l-106 128l-166 -124l-21 26l195 147h1l128 -151zM254 37h158l-8 -37h-358l8 37h155l106 546h-159l7 37h358l-7 -37h-154z" />
    <glyph glyph-name="Idieresis" unicode="&#xcf;" 
d="M480 709l-42 -2l30 130l50 1zM271 706l-42 -1l31 129l49 1zM254 37h158l-8 -37h-358l8 37h155l106 546h-159l7 37h358l-7 -37h-154z" />
    <glyph glyph-name="Eth" unicode="&#xd0;" 
d="M515 380q0 -87 -29.5 -161.5t-85 -129.5t-145 -79.5t-200.5 -9.5l58 298h-80l7 35h80l55 286q161 28 250.5 -32.5t89.5 -206.5zM312 298h-155l-51 -262q90 -8 160.5 16t114.5 72t66.5 112t22.5 139q0 241 -257 210l-49 -252h157z" />
    <glyph glyph-name="Ntilde" unicode="&#xd1;" 
d="M458 744q23 0 47.5 29t58.5 85l25 -15q-39 -68 -72.5 -101.5t-68.5 -33.5q-23 0 -42 18t-29.5 39.5t-26 39.5t-32.5 18q-41 0 -106 -108l-25 15q74 129 141 129q23 0 42 -18t29.5 -39.5t26 -39.5t32.5 -18zM368 0l-161 565h-5l-108 -565h-42l119 619l61 2l156 -551h5
l106 550h42l-120 -620h-53z" />
    <glyph glyph-name="Ograve" unicode="&#xd2;" 
d="M467 721l-15 -20q-105 77 -184 170l39 36q73 -107 160 -186zM355 632q77 0 122 -59.5t45 -170.5q0 -102 -36 -196.5t-103 -156t-146 -61.5q-77 0 -122 59.5t-45 170.5q0 102 36 196.5t103 156t146 61.5zM246 28q97 0 164 113.5t67 256.5q0 95 -35 144.5t-96 49.5
q-97 0 -164 -113.5t-67 -256.5q0 -95 35 -144.5t96 -49.5z" />
    <glyph glyph-name="Oacute" unicode="&#xd3;" 
d="M271 730q108 72 203 170l36 -38q-88 -74 -227 -153zM355 632q77 0 122 -59.5t45 -170.5q0 -102 -36 -196.5t-103 -156t-146 -61.5q-77 0 -122 59.5t-45 170.5q0 102 36 196.5t103 156t146 61.5zM246 28q97 0 164 113.5t67 256.5q0 95 -35 144.5t-96 49.5
q-97 0 -164 -113.5t-67 -256.5q0 -95 35 -144.5t96 -49.5z" />
    <glyph glyph-name="Ocircumflex" unicode="&#xd4;" 
d="M511 711l-106 128l-166 -124l-21 26l195 147h1l128 -151zM355 632q77 0 122 -59.5t45 -170.5q0 -102 -36 -196.5t-103 -156t-146 -61.5q-77 0 -122 59.5t-45 170.5q0 102 36 196.5t103 156t146 61.5zM246 28q97 0 164 113.5t67 256.5q0 95 -35 144.5t-96 49.5
q-97 0 -164 -113.5t-67 -256.5q0 -95 35 -144.5t96 -49.5z" />
    <glyph glyph-name="Otilde" unicode="&#xd5;" 
d="M461 756q23 0 47.5 29t58.5 85l25 -15q-39 -68 -72.5 -101.5t-68.5 -33.5q-23 0 -42 18t-29.5 39.5t-26 39.5t-32.5 18q-41 0 -106 -108l-25 15q74 129 141 129q23 0 42 -18t29.5 -39.5t26 -39.5t32.5 -18zM355 632q77 0 122 -59.5t45 -170.5q0 -102 -36 -196.5
t-103 -156t-146 -61.5q-77 0 -122 59.5t-45 170.5q0 102 36 196.5t103 156t146 61.5zM246 28q97 0 164 113.5t67 256.5q0 95 -35 144.5t-96 49.5q-97 0 -164 -113.5t-67 -256.5q0 -95 35 -144.5t96 -49.5z" />
    <glyph glyph-name="Odieresis" unicode="&#xd6;" 
d="M495 722l-42 -2l30 130l50 1zM286 719l-42 -1l31 129l49 1zM355 632q77 0 122 -59.5t45 -170.5q0 -102 -36 -196.5t-103 -156t-146 -61.5q-77 0 -122 59.5t-45 170.5q0 102 36 196.5t103 156t146 61.5zM246 28q97 0 164 113.5t67 256.5q0 95 -35 144.5t-96 49.5
q-97 0 -164 -113.5t-67 -256.5q0 -95 35 -144.5t96 -49.5z" />
    <glyph glyph-name="multiply" unicode="&#xd7;" 
d="M407 101l-126 157l-179 -149l-25 31l179 149l-127 157l32 27l127 -158l179 150l24 -32l-178 -149l126 -157z" />
    <glyph glyph-name="Oslash" unicode="&#xd8;" 
d="M116 231q0 -65 15 -109l313 414q-34 57 -101 57q-64 0 -117 -53.5t-81.5 -136t-28.5 -172.5zM249 27q64 0 117 53.5t81.5 136.5t28.5 173q0 65 -15 110l-314 -414q33 -59 102 -59zM240 -13q-78 0 -123 60l-57 -76l-29 21l67 88q-27 59 -27 144q0 101 35.5 194.5
t101.5 154t144 60.5t122 -60l60 76l28 -21l-68 -87q27 -59 27 -145q0 -100 -35 -193.5t-101 -154.5t-145 -61z" />
    <glyph glyph-name="Ugrave" unicode="&#xd9;" 
d="M463 708l-15 -20q-105 77 -184 170l39 36q73 -107 160 -186zM133 210q-36 -183 117 -183q133 0 165 168l83 425h45l-83 -425q-20 -101 -75.5 -155.5t-139.5 -54.5q-94 0 -136 57.5t-23 158.5l82 419h45z" />
    <glyph glyph-name="Uacute" unicode="&#xda;" 
d="M267 717q108 72 203 170l36 -38q-88 -74 -227 -153zM133 210q-36 -183 117 -183q133 0 165 168l83 425h45l-83 -425q-20 -101 -75.5 -155.5t-139.5 -54.5q-94 0 -136 57.5t-23 158.5l82 419h45z" />
    <glyph glyph-name="Ucircumflex" unicode="&#xdb;" 
d="M507 698l-106 128l-166 -124l-21 26l195 147h1l128 -151zM133 210q-36 -183 117 -183q133 0 165 168l83 425h45l-83 -425q-20 -101 -75.5 -155.5t-139.5 -54.5q-94 0 -136 57.5t-23 158.5l82 419h45z" />
    <glyph glyph-name="Udieresis" unicode="&#xdc;" 
d="M491 709l-42 -2l30 130l50 1zM282 706l-42 -1l31 129l49 1zM133 210q-36 -183 117 -183q133 0 165 168l83 425h45l-83 -425q-20 -101 -75.5 -155.5t-139.5 -54.5q-94 0 -136 57.5t-23 158.5l82 419h45z" />
    <glyph glyph-name="Yacute" unicode="&#xdd;" 
d="M261 718q108 72 203 170l36 -38q-88 -74 -227 -153zM250 0h-45l41 213l-131 406l46 2l117 -365l257 364h49l-294 -413z" />
    <glyph glyph-name="Thorn" unicode="&#xde;" 
d="M110 0h-45l121 620h45l-21 -105q155 11 230.5 -34t75.5 -126q0 -103 -101 -167.5t-284 -78.5zM471 349q0 68 -66.5 103t-202.5 21l-62 -319q159 4 245 55.5t86 139.5z" />
    <glyph glyph-name="germandbls" unicode="&#xdf;" 
d="M196 -5l7 43q124 -14 180 9t56 71q0 82 -167 208q98 86 138.5 141.5t40.5 105.5q0 38 -23 61.5t-66 23.5q-61 0 -103.5 -49t-60.5 -139l-91 -470h-43l91 466q21 108 80 169.5t140 61.5q58 0 88.5 -32t30.5 -84q0 -103 -166 -247q154 -119 154 -207q0 -66 -69.5 -105
t-216.5 -27z" />
    <glyph glyph-name="agrave" unicode="&#xe0;" 
d="M449 577l-15 -20q-105 77 -184 170l39 36q73 -107 160 -186zM182 32q37 0 90 33t95 79l57 292q-58 15 -104 15q-89 0 -152 -89.5t-63 -209.5q0 -60 21 -90t56 -30zM510 32q-65 -38 -102 -39.5t-47.5 26t-2.5 81.5q-46 -47 -98.5 -78t-93.5 -31q-48 0 -76.5 39t-28.5 113
q0 139 82.5 242.5t201.5 103.5q56 0 129 -19l-70 -351q-6 -32 -6.5 -53t9.5 -29t32.5 -3.5t63.5 22.5z" />
    <glyph glyph-name="aacute" unicode="&#xe1;" 
d="M253 586q108 72 203 170l36 -38q-88 -74 -227 -153zM182 32q37 0 90 33t95 79l57 292q-58 15 -104 15q-89 0 -152 -89.5t-63 -209.5q0 -60 21 -90t56 -30zM510 32q-65 -38 -102 -39.5t-47.5 26t-2.5 81.5q-46 -47 -98.5 -78t-93.5 -31q-48 0 -76.5 39t-28.5 113
q0 139 82.5 242.5t201.5 103.5q56 0 129 -19l-70 -351q-6 -32 -6.5 -53t9.5 -29t32.5 -3.5t63.5 22.5z" />
    <glyph glyph-name="acircumflex" unicode="&#xe2;" 
d="M493 567l-106 128l-166 -124l-21 26l195 147h1l128 -151zM182 32q37 0 90 33t95 79l57 292q-58 15 -104 15q-89 0 -152 -89.5t-63 -209.5q0 -60 21 -90t56 -30zM510 32q-65 -38 -102 -39.5t-47.5 26t-2.5 81.5q-46 -47 -98.5 -78t-93.5 -31q-48 0 -76.5 39t-28.5 113
q0 139 82.5 242.5t201.5 103.5q56 0 129 -19l-70 -351q-6 -32 -6.5 -53t9.5 -29t32.5 -3.5t63.5 22.5z" />
    <glyph glyph-name="atilde" unicode="&#xe3;" 
d="M443 612q23 0 47.5 29t58.5 85l25 -15q-39 -68 -72.5 -101.5t-68.5 -33.5q-23 0 -42 18t-29.5 39.5t-26 39.5t-32.5 18q-41 0 -106 -108l-25 15q74 129 141 129q23 0 42 -18t29.5 -39.5t26 -39.5t32.5 -18zM182 32q37 0 90 33t95 79l57 292q-58 15 -104 15
q-89 0 -152 -89.5t-63 -209.5q0 -60 21 -90t56 -30zM510 32q-65 -38 -102 -39.5t-47.5 26t-2.5 81.5q-46 -47 -98.5 -78t-93.5 -31q-48 0 -76.5 39t-28.5 113q0 139 82.5 242.5t201.5 103.5q56 0 129 -19l-70 -351q-6 -32 -6.5 -53t9.5 -29t32.5 -3.5t63.5 22.5z" />
    <glyph glyph-name="adieresis" unicode="&#xe4;" 
d="M477 578l-42 -2l30 130l50 1zM268 575l-42 -1l31 129l49 1zM182 32q37 0 90 33t95 79l57 292q-58 15 -104 15q-89 0 -152 -89.5t-63 -209.5q0 -60 21 -90t56 -30zM510 32q-65 -38 -102 -39.5t-47.5 26t-2.5 81.5q-46 -47 -98.5 -78t-93.5 -31q-48 0 -76.5 39t-28.5 113
q0 139 82.5 242.5t201.5 103.5q56 0 129 -19l-70 -351q-6 -32 -6.5 -53t9.5 -29t32.5 -3.5t63.5 22.5z" />
    <glyph glyph-name="aring" unicode="&#xe5;" 
d="M378 758q54 0 89 -28t35 -70q0 -46 -38.5 -77.5t-96.5 -31.5q-54 0 -89 28t-35 70q0 46 38.5 77.5t96.5 31.5zM374 727q-40 0 -67.5 -21.5t-27.5 -52.5q0 -30 26 -50.5t66 -20.5q41 0 68.5 21.5t27.5 52.5q0 30 -26.5 50.5t-66.5 20.5zM182 32q37 0 90 33t95 79l57 292
q-58 15 -104 15q-89 0 -152 -89.5t-63 -209.5q0 -60 21 -90t56 -30zM510 32q-65 -38 -102 -39.5t-47.5 26t-2.5 81.5q-46 -47 -98.5 -78t-93.5 -31q-48 0 -76.5 39t-28.5 113q0 139 82.5 242.5t201.5 103.5q56 0 129 -19l-70 -351q-6 -32 -6.5 -53t9.5 -29t32.5 -3.5
t63.5 22.5z" />
    <glyph glyph-name="ae" unicode="&#xe6;" 
d="M504 54q-73 -50 -126.5 -58.5t-81.5 18t-36 81.5q-77 -102 -142 -102q-33 0 -51.5 32t-18.5 94q0 140 66 254t155 114q50 0 102 -41q45 43 94 43q38 0 58.5 -23t20.5 -65q0 -80 -66 -142t-177 -75q-2 -28 -2 -42q0 -58 19 -85.5t63.5 -23t117.5 46.5zM454 450
q-50 0 -92 -71.5t-57 -164.5q87 12 142 62.5t55 115.5q0 58 -48 58zM130 34q49 0 127 106q1 73 24 147t61 126q-44 36 -88 36q-67 0 -115 -103.5t-48 -224.5q0 -87 39 -87z" />
    <glyph glyph-name="ccedilla" unicode="&#xe7;" 
d="M337 -181l-42 -1q5 73 -12.5 108.5t-50.5 35.5q-53 0 -107 -114l-26 9q49 119 113 137q-62 13 -95.5 59.5t-33.5 118.5q0 124 85 221t196 97q63 0 92.5 -36t28.5 -112h-41q-1 61 -22 85t-67 24q-93 0 -161 -82t-68 -192q0 -109 84 -138t233 33l10 -25q-100 -51 -180 -56
q73 -32 64 -172z" />
    <glyph glyph-name="egrave" unicode="&#xe8;" 
d="M445 579l-15 -20q-105 77 -184 170l39 36q73 -107 160 -186zM458 53q-89 -46 -163 -58.5t-121.5 7t-73.5 62.5t-26 105q0 76 35.5 149.5t101.5 123t145 49.5q60 0 95 -29t35 -79q0 -83 -96 -134t-273 -65v-9q0 -111 85.5 -137.5t246.5 40.5zM348 452q-91 0 -153 -71.5
t-75 -166.5q151 13 237 53.5t86 109.5q0 34 -25.5 54.5t-69.5 20.5z" />
    <glyph glyph-name="eacute" unicode="&#xe9;" 
d="M249 588q108 72 203 170l36 -38q-88 -74 -227 -153zM458 53q-89 -46 -163 -58.5t-121.5 7t-73.5 62.5t-26 105q0 76 35.5 149.5t101.5 123t145 49.5q60 0 95 -29t35 -79q0 -83 -96 -134t-273 -65v-9q0 -111 85.5 -137.5t246.5 40.5zM348 452q-91 0 -153 -71.5t-75 -166.5
q151 13 237 53.5t86 109.5q0 34 -25.5 54.5t-69.5 20.5z" />
    <glyph glyph-name="ecircumflex" unicode="&#xea;" 
d="M489 569l-106 128l-166 -124l-21 26l195 147h1l128 -151zM458 53q-89 -46 -163 -58.5t-121.5 7t-73.5 62.5t-26 105q0 76 35.5 149.5t101.5 123t145 49.5q60 0 95 -29t35 -79q0 -83 -96 -134t-273 -65v-9q0 -111 85.5 -137.5t246.5 40.5zM348 452q-91 0 -153 -71.5
t-75 -166.5q151 13 237 53.5t86 109.5q0 34 -25.5 54.5t-69.5 20.5z" />
    <glyph glyph-name="edieresis" unicode="&#xeb;" 
d="M473 580l-42 -2l30 130l50 1zM264 577l-42 -1l31 129l49 1zM458 53q-89 -46 -163 -58.5t-121.5 7t-73.5 62.5t-26 105q0 76 35.5 149.5t101.5 123t145 49.5q60 0 95 -29t35 -79q0 -83 -96 -134t-273 -65v-9q0 -111 85.5 -137.5t246.5 40.5zM348 452q-91 0 -153 -71.5
t-75 -166.5q151 13 237 53.5t86 109.5q0 34 -25.5 54.5t-69.5 20.5z" />
    <glyph glyph-name="igrave" unicode="&#xec;" 
d="M412 569l-15 -20q-105 77 -184 170l39 36q73 -107 160 -186zM462 39q-111 -43 -178.5 -47.5t-90 27t-5.5 97.5l83 322l-189 -36l-3 26l204 53l42 -2l-94 -358q-5 -18 -6 -32t1.5 -25t9.5 -18t19 -11t30 -4t42.5 4t56 11.5t70.5 19.5z" />
    <glyph glyph-name="iacute" unicode="&#xed;" 
d="M217 578q108 72 203 170l36 -38q-88 -74 -227 -153zM462 39q-111 -43 -178.5 -47.5t-90 27t-5.5 97.5l83 322l-189 -36l-3 26l204 53l42 -2l-94 -358q-5 -18 -6 -32t1.5 -25t9.5 -18t19 -11t30 -4t42.5 4t56 11.5t70.5 19.5z" />
    <glyph glyph-name="icircumflex" unicode="&#xee;" 
d="M457 559l-106 128l-166 -124l-21 26l195 147h1l128 -151zM462 39q-111 -43 -178.5 -47.5t-90 27t-5.5 97.5l83 322l-189 -36l-3 26l204 53l42 -2l-94 -358q-5 -18 -6 -32t1.5 -25t9.5 -18t19 -11t30 -4t42.5 4t56 11.5t70.5 19.5z" />
    <glyph glyph-name="idieresis" unicode="&#xef;" 
d="M441 570l-42 -2l30 130l50 1zM232 567l-42 -1l31 129l49 1zM462 39q-111 -43 -178.5 -47.5t-90 27t-5.5 97.5l83 322l-189 -36l-3 26l204 53l42 -2l-94 -358q-5 -18 -6 -32t1.5 -25t9.5 -18t19 -11t30 -4t42.5 4t56 11.5t70.5 19.5z" />
    <glyph glyph-name="eth" unicode="&#xf0;" 
d="M247 -10q-83 0 -133 53.5t-50 140.5q0 112 70.5 192t179.5 80q59 0 113 -19q-22 64 -75 128l-160 -44l-10 32l145 40q-38 40 -99 86l31 30q69 -53 113 -103l122 34l8 -33l-106 -29q98 -126 98 -271q0 -147 -68 -232t-179 -85zM258 28q88 0 140.5 75t52.5 194q0 46 -9 88
q-70 33 -142 33q-82 0 -137 -66t-55 -156q0 -75 41.5 -121.5t108.5 -46.5z" />
    <glyph glyph-name="ntilde" unicode="&#xf1;" 
d="M418 613q23 0 47.5 29t58.5 85l25 -15q-39 -68 -72.5 -101.5t-68.5 -33.5q-23 0 -42 18t-29.5 39.5t-26 39.5t-32.5 18q-41 0 -106 -108l-25 15q74 129 141 129q23 0 42 -18t29.5 -39.5t26 -39.5t32.5 -18zM510 31q-51 -32 -87 -38t-51.5 8t-15.5 43q0 38 35.5 167
t35.5 174q0 65 -58 65q-87 0 -202 -121q-1 -5 -64 -329h-43q66 335 89 479l42 3q-3 -15 -8.5 -54t-8.5 -57q113 119 217 119q42 0 62 -24t20 -64q0 -53 -36 -184t-36 -158q0 -18 7.5 -24.5t29 -2.5t61.5 23z" />
    <glyph glyph-name="ograve" unicode="&#xf2;" 
d="M431 579l-15 -20q-105 77 -184 170l39 36q73 -107 160 -186zM63 183q0 129 74.5 218.5t179.5 89.5q78 0 123.5 -50.5t45.5 -143.5q0 -130 -74.5 -218.5t-179.5 -88.5q-78 0 -123.5 49.5t-45.5 143.5zM442 289q0 77 -35 120.5t-100 43.5q-87 0 -143.5 -76.5t-56.5 -185.5
q0 -78 35 -120.5t100 -42.5q87 0 143.5 75.5t56.5 185.5z" />
    <glyph glyph-name="oacute" unicode="&#xf3;" 
d="M235 588q108 72 203 170l36 -38q-88 -74 -227 -153zM63 183q0 129 74.5 218.5t179.5 89.5q78 0 123.5 -50.5t45.5 -143.5q0 -130 -74.5 -218.5t-179.5 -88.5q-78 0 -123.5 49.5t-45.5 143.5zM442 289q0 77 -35 120.5t-100 43.5q-87 0 -143.5 -76.5t-56.5 -185.5
q0 -78 35 -120.5t100 -42.5q87 0 143.5 75.5t56.5 185.5z" />
    <glyph glyph-name="ocircumflex" unicode="&#xf4;" 
d="M475 569l-106 128l-166 -124l-21 26l195 147h1l128 -151zM63 183q0 129 74.5 218.5t179.5 89.5q78 0 123.5 -50.5t45.5 -143.5q0 -130 -74.5 -218.5t-179.5 -88.5q-78 0 -123.5 49.5t-45.5 143.5zM442 289q0 77 -35 120.5t-100 43.5q-87 0 -143.5 -76.5t-56.5 -185.5
q0 -78 35 -120.5t100 -42.5q87 0 143.5 75.5t56.5 185.5z" />
    <glyph glyph-name="otilde" unicode="&#xf5;" 
d="M425 614q23 0 47.5 29t58.5 85l25 -15q-39 -68 -72.5 -101.5t-68.5 -33.5q-23 0 -42 18t-29.5 39.5t-26 39.5t-32.5 18q-41 0 -106 -108l-25 15q74 129 141 129q23 0 42 -18t29.5 -39.5t26 -39.5t32.5 -18zM63 183q0 129 74.5 218.5t179.5 89.5q78 0 123.5 -50.5
t45.5 -143.5q0 -130 -74.5 -218.5t-179.5 -88.5q-78 0 -123.5 49.5t-45.5 143.5zM442 289q0 77 -35 120.5t-100 43.5q-87 0 -143.5 -76.5t-56.5 -185.5q0 -78 35 -120.5t100 -42.5q87 0 143.5 75.5t56.5 185.5z" />
    <glyph glyph-name="odieresis" unicode="&#xf6;" 
d="M459 580l-42 -2l30 130l50 1zM250 577l-42 -1l31 129l49 1zM63 183q0 129 74.5 218.5t179.5 89.5q78 0 123.5 -50.5t45.5 -143.5q0 -130 -74.5 -218.5t-179.5 -88.5q-78 0 -123.5 49.5t-45.5 143.5zM442 289q0 77 -35 120.5t-100 43.5q-87 0 -143.5 -76.5t-56.5 -185.5
q0 -78 35 -120.5t100 -42.5q87 0 143.5 75.5t56.5 185.5z" />
    <glyph glyph-name="divide" unicode="&#xf7;" 
d="M341 431h-61l14 72h60zM501 305l-8 -37h-425l7 37h426zM274 71h-61l14 72h60z" />
    <glyph glyph-name="oslash" unicode="&#xf8;" 
d="M107 191q0 -57 19 -95l278 316q-33 41 -97 41q-87 0 -143.5 -76.5t-56.5 -185.5zM242 28q87 0 143.5 75.5t56.5 185.5q0 53 -17 92l-278 -316q34 -37 95 -37zM232 -10q-72 0 -116 42l-55 -62l-29 22l61 68q-30 47 -30 123q0 129 74.5 218.5t179.5 89.5q75 0 118 -45
l54 61l29 -22l-61 -68q29 -46 29 -120q0 -130 -74.5 -218.5t-179.5 -88.5z" />
    <glyph glyph-name="ugrave" unicode="&#xf9;" 
d="M441 570l-15 -20q-105 77 -184 170l39 36q73 -107 160 -186zM373 116l1 3q-115 -129 -199 -129q-56 0 -78 46t0 138l38 165l-35 21l65 119l45 3l-70 -305q-34 -146 52 -146q39 0 83 31.5t107 100.5l63 317h42l-71 -361q-7 -35 -7.5 -53t8.5 -28t30.5 -5t59.5 23l8 -24
q-100 -54 -130.5 -31.5t-11.5 115.5z" />
    <glyph glyph-name="uacute" unicode="&#xfa;" 
d="M245 579q108 72 203 170l36 -38q-88 -74 -227 -153zM373 116l1 3q-115 -129 -199 -129q-56 0 -78 46t0 138l38 165l-35 21l65 119l45 3l-70 -305q-34 -146 52 -146q39 0 83 31.5t107 100.5l63 317h42l-71 -361q-7 -35 -7.5 -53t8.5 -28t30.5 -5t59.5 23l8 -24
q-100 -54 -130.5 -31.5t-11.5 115.5z" />
    <glyph glyph-name="ucircumflex" unicode="&#xfb;" 
d="M485 560l-106 128l-166 -124l-21 26l195 147h1l128 -151zM373 116l1 3q-115 -129 -199 -129q-56 0 -78 46t0 138l38 165l-35 21l65 119l45 3l-70 -305q-34 -146 52 -146q39 0 83 31.5t107 100.5l63 317h42l-71 -361q-7 -35 -7.5 -53t8.5 -28t30.5 -5t59.5 23l8 -24
q-100 -54 -130.5 -31.5t-11.5 115.5z" />
    <glyph glyph-name="udieresis" unicode="&#xfc;" 
d="M469 571l-42 -2l30 130l50 1zM260 568l-42 -1l31 129l49 1zM373 116l1 3q-115 -129 -199 -129q-56 0 -78 46t0 138l38 165l-35 21l65 119l45 3l-70 -305q-34 -146 52 -146q39 0 83 31.5t107 100.5l63 317h42l-71 -361q-7 -35 -7.5 -53t8.5 -28t30.5 -5t59.5 23l8 -24
q-100 -54 -130.5 -31.5t-11.5 115.5z" />
    <glyph glyph-name="yacute" unicode="&#xfd;" 
d="M245 585q108 72 203 170l36 -38q-88 -74 -227 -153zM408 -99q-46 -92 -346 -72l7 47q247 -22 297 25q8 9 12.5 23t6 39.5t1 48l-1.5 67.5t-1 79q-46 -59 -103 -97.5t-110 -38.5q-178 0 -7 458l43 1q-36 -100 -56 -175t-24.5 -120.5t3.5 -73.5t22.5 -38.5t37.5 -10.5
q41 0 95 39t101 99q9 90 40.5 188.5t48.5 98.5q11 0 21 -5t10 -13q0 -22 -26 -109.5t-56 -152.5q-2 -36 -2 -55q0 -33 1 -86.5t1 -75.5t-3.5 -48t-11.5 -42z" />
    <glyph glyph-name="thorn" unicode="&#xfe;" 
d="M228 28q91 0 153.5 87.5t62.5 206.5q0 62 -23.5 95t-59.5 33q-40 0 -93 -33.5t-94 -79.5l-57 -291q63 -18 111 -18zM74 -172l-42 -4l169 874l44 4l-63 -320q46 47 99 78t95 31q49 0 80 -41.5t31 -119.5q0 -138 -82 -238.5t-202 -100.5q-40 0 -95 11z" />
    <glyph glyph-name="ydieresis" unicode="&#xff;" 
d="M469 577l-42 -2l30 130l50 1zM260 574l-42 -1l31 129l49 1zM408 -99q-46 -92 -346 -72l7 47q247 -22 297 25q8 9 12.5 23t6 39.5t1 48l-1.5 67.5t-1 79q-46 -59 -103 -97.5t-110 -38.5q-178 0 -7 458l43 1q-36 -100 -56 -175t-24.5 -120.5t3.5 -73.5t22.5 -38.5
t37.5 -10.5q41 0 95 39t101 99q9 90 40.5 188.5t48.5 98.5q11 0 21 -5t10 -13q0 -22 -26 -109.5t-56 -152.5q-2 -36 -2 -55q0 -33 1 -86.5t1 -75.5t-3.5 -48t-11.5 -42z" />
    <glyph glyph-name="Amacron" unicode="&#x100;" 
d="M544 796l-7 -38h-313l8 38h312zM417 -2q-14 142 -22 214h-239q-70 -142 -104 -212h-46q152 312 316 623h66q45 -345 73 -621zM345 582q-93 -178 -171 -334h217q-19 173 -39 334h-7z" />
    <glyph glyph-name="amacron" unicode="&#x101;" 
d="M531 662l-7 -38h-313l8 38h312zM182 32q37 0 90 33t95 79l57 292q-58 15 -104 15q-89 0 -152 -89.5t-63 -209.5q0 -60 21 -90t56 -30zM510 32q-65 -38 -102 -39.5t-47.5 26t-2.5 81.5q-46 -47 -98.5 -78t-93.5 -31q-48 0 -76.5 39t-28.5 113q0 139 82.5 242.5
t201.5 103.5q56 0 129 -19l-70 -351q-6 -32 -6.5 -53t9.5 -29t32.5 -3.5t63.5 22.5z" />
    <glyph glyph-name="Abreve" unicode="&#x102;" 
d="M546 867l26 -18q-105 -141 -198 -141t-148 145l36 17q27 -68 54.5 -96t66.5 -28q40 0 77 29t86 92zM417 -2q-14 142 -22 214h-239q-70 -142 -104 -212h-46q152 312 316 623h66q45 -345 73 -621zM345 582q-93 -178 -171 -334h217q-19 173 -39 334h-7z" />
    <glyph glyph-name="abreve" unicode="&#x103;" 
d="M533 733l26 -18q-105 -141 -198 -141t-148 145l36 17q27 -68 54.5 -96t66.5 -28q40 0 77 29t86 92zM182 32q37 0 90 33t95 79l57 292q-58 15 -104 15q-89 0 -152 -89.5t-63 -209.5q0 -60 21 -90t56 -30zM510 32q-65 -38 -102 -39.5t-47.5 26t-2.5 81.5q-46 -47 -98.5 -78
t-93.5 -31q-48 0 -76.5 39t-28.5 113q0 139 82.5 242.5t201.5 103.5q56 0 129 -19l-70 -351q-6 -32 -6.5 -53t9.5 -29t32.5 -3.5t63.5 22.5z" />
    <glyph glyph-name="Aogonek" unicode="&#x104;" 
d="M433 -166q-63 -34 -111.5 -38.5t-71 12.5t-22.5 46q0 77 188 157l-21 201h-239q-70 -142 -104 -212h-46q152 312 316 623h66q45 -345 73 -621q-190 -73 -190 -137q0 -19 15 -28.5t51 -5.5t88 26zM345 582q-93 -178 -171 -334h217q-19 173 -39 334h-7z" />
    <glyph glyph-name="aogonek" unicode="&#x105;" 
d="M482 -165q-63 -34 -111.5 -38.5t-71 12.5t-22.5 46q0 69 121 144q-56 4 -40 101q-46 -47 -98.5 -78t-93.5 -31q-48 0 -76.5 39t-28.5 113q0 139 82.5 242.5t201.5 103.5q56 0 129 -19l-70 -351q-6 -32 -6.5 -53t9.5 -29t32.5 -3.5t63.5 22.5l7 -24q-100 -50 -145 -90
t-45 -76q0 -19 15 -28.5t51 -5.5t88 26zM182 32q37 0 90 33t95 79l57 292q-58 15 -104 15q-89 0 -152 -89.5t-63 -209.5q0 -60 21 -90t56 -30z" />
    <glyph glyph-name="Cacute" unicode="&#x106;" 
d="M267 730q108 72 203 170l36 -38q-88 -74 -227 -153zM379 633q78 0 106.5 -54t22.5 -165l-43 -1q2 95 -16.5 137.5t-78.5 42.5q-68 0 -126.5 -53t-91.5 -137t-33 -174q0 -144 87.5 -185.5t244.5 22.5l-4 -44q-173 -65 -273 -12t-100 209q0 105 40 200.5t111 154.5t154 59z
" />
    <glyph glyph-name="cacute" unicode="&#x107;" 
d="M257 587q108 72 203 170l36 -38q-88 -74 -227 -153zM485 342h-41q-1 61 -22 85t-67 24q-93 0 -161 -82t-68 -192q0 -109 84 -138t233 33l10 -25q-115 -58 -197 -57t-127.5 49.5t-45.5 132.5q0 124 85 221t196 97q63 0 92.5 -36t28.5 -112z" />
    <glyph glyph-name="Cdotaccent" unicode="&#x10a;" 
d="M386 720l-42 -1l31 129l50 1zM379 633q78 0 106.5 -54t22.5 -165l-43 -1q2 95 -16.5 137.5t-78.5 42.5q-68 0 -126.5 -53t-91.5 -137t-33 -174q0 -144 87.5 -185.5t244.5 22.5l-4 -44q-173 -65 -273 -12t-100 209q0 105 40 200.5t111 154.5t154 59z" />
    <glyph glyph-name="cdotaccent" unicode="&#x10b;" 
d="M376 577l-42 -1l31 129l50 1zM485 342h-41q-1 61 -22 85t-67 24q-93 0 -161 -82t-68 -192q0 -109 84 -138t233 33l10 -25q-115 -58 -197 -57t-127.5 49.5t-45.5 132.5q0 124 85 221t196 97q63 0 92.5 -36t28.5 -112z" />
    <glyph glyph-name="Ccaron" unicode="&#x10c;" 
d="M366 708h-1l-129 151l32 26l105 -128l166 124l22 -26zM379 633q78 0 106.5 -54t22.5 -165l-43 -1q2 95 -16.5 137.5t-78.5 42.5q-68 0 -126.5 -53t-91.5 -137t-33 -174q0 -144 87.5 -185.5t244.5 22.5l-4 -44q-173 -65 -273 -12t-100 209q0 105 40 200.5t111 154.5
t154 59z" />
    <glyph glyph-name="ccaron" unicode="&#x10d;" 
d="M356 565h-1l-129 151l32 26l105 -128l166 124l22 -26zM485 342h-41q-1 61 -22 85t-67 24q-93 0 -161 -82t-68 -192q0 -109 84 -138t233 33l10 -25q-115 -58 -197 -57t-127.5 49.5t-45.5 132.5q0 124 85 221t196 97q63 0 92.5 -36t28.5 -112z" />
    <glyph glyph-name="Dcaron" unicode="&#x10e;" 
d="M385 703h-1l-129 151l32 26l105 -128l166 124l22 -26zM515 380q0 -87 -29.5 -161.5t-85 -129.5t-145 -79.5t-200.5 -9.5l120 619q161 28 250.5 -32.5t89.5 -206.5zM470 375q0 241 -257 210l-107 -549q90 -8 160.5 16t114.5 72t66.5 112t22.5 139z" />
    <glyph glyph-name="dcaron" unicode="&#x10f;" 
d="M629 797l58 4q4 -132 -98 -249l-20 12q47 65 57 116.5t3 116.5zM186 32q39 0 90 30t90 74l59 299q-63 18 -110 18q-88 0 -149.5 -88t-61.5 -206q0 -61 23 -94t59 -33zM512 32q-48 -28 -81 -36.5t-50 2t-22.5 34.5t-0.5 61q-44 -44 -95.5 -73t-92.5 -29q-49 0 -79 41.5
t-30 118.5q0 138 80.5 238.5t198.5 100.5q44 0 93 -10l43 218l45 4l-114 -578q-10 -46 -6.5 -69t27 -23t76.5 24z" />
    <glyph glyph-name="Dcroat" unicode="&#x110;" 
d="M515 380q0 -87 -29.5 -161.5t-85 -129.5t-145 -79.5t-200.5 -9.5l58 298h-80l7 35h80l55 286q161 28 250.5 -32.5t89.5 -206.5zM312 298h-155l-51 -262q90 -8 160.5 16t114.5 72t66.5 112t22.5 139q0 241 -257 210l-49 -252h157z" />
    <glyph glyph-name="dcroat" unicode="&#x111;" 
d="M186 32q39 0 90 30t90 74l59 299q-63 18 -110 18q-88 0 -149.5 -88t-61.5 -206q0 -61 23 -94t59 -33zM512 32q-48 -28 -81 -36.5t-50 2t-22.5 34.5t-0.5 61q-44 -44 -95.5 -73t-92.5 -29q-49 0 -79 41.5t-30 118.5q0 138 80.5 238.5t198.5 100.5q44 0 93 -10l22 108h-145
l7 33h144l15 77l45 4l-16 -81h76l-6 -33h-76l-92 -464q-10 -46 -6.5 -69t27 -23t76.5 24z" />
    <glyph glyph-name="Emacron" unicode="&#x112;" 
d="M559 793l-7 -38h-313l8 38h312zM435 40l-10 -40h-354l120 620h356l-8 -40h-311l-48 -247h265l-7 -36h-265l-49 -257h311z" />
    <glyph glyph-name="emacron" unicode="&#x113;" 
d="M527 664l-7 -38h-313l8 38h312zM458 53q-89 -46 -163 -58.5t-121.5 7t-73.5 62.5t-26 105q0 76 35.5 149.5t101.5 123t145 49.5q60 0 95 -29t35 -79q0 -83 -96 -134t-273 -65v-9q0 -111 85.5 -137.5t246.5 40.5zM348 452q-91 0 -153 -71.5t-75 -166.5q151 13 237 53.5
t86 109.5q0 34 -25.5 54.5t-69.5 20.5z" />
    <glyph glyph-name="Ebreve" unicode="&#x114;" 
d="M561 864l26 -18q-105 -141 -198 -141t-148 145l36 17q27 -68 54.5 -96t66.5 -28q40 0 77 29t86 92zM435 40l-10 -40h-354l120 620h356l-8 -40h-311l-48 -247h265l-7 -36h-265l-49 -257h311z" />
    <glyph glyph-name="ebreve" unicode="&#x115;" 
d="M529 735l26 -18q-105 -141 -198 -141t-148 145l36 17q27 -68 54.5 -96t66.5 -28q40 0 77 29t86 92zM458 53q-89 -46 -163 -58.5t-121.5 7t-73.5 62.5t-26 105q0 76 35.5 149.5t101.5 123t145 49.5q60 0 95 -29t35 -79q0 -83 -96 -134t-273 -65v-9q0 -111 85.5 -137.5
t246.5 40.5zM348 452q-91 0 -153 -71.5t-75 -166.5q151 13 237 53.5t86 109.5q0 34 -25.5 54.5t-69.5 20.5z" />
    <glyph glyph-name="Edotaccent" unicode="&#x116;" 
d="M400 707l-42 -1l31 129l50 1zM435 40l-10 -40h-354l120 620h356l-8 -40h-311l-48 -247h265l-7 -36h-265l-49 -257h311z" />
    <glyph glyph-name="edotaccent" unicode="&#x117;" 
d="M368 578l-42 -1l31 129l50 1zM458 53q-89 -46 -163 -58.5t-121.5 7t-73.5 62.5t-26 105q0 76 35.5 149.5t101.5 123t145 49.5q60 0 95 -29t35 -79q0 -83 -96 -134t-273 -65v-9q0 -111 85.5 -137.5t246.5 40.5zM348 452q-91 0 -153 -71.5t-75 -166.5q151 13 237 53.5
t86 109.5q0 34 -25.5 54.5t-69.5 20.5z" />
    <glyph glyph-name="Eogonek" unicode="&#x118;" 
d="M397 -167q-63 -34 -111.5 -38.5t-71 12.5t-22.5 46q0 73 167 147h-288l120 620h356l-8 -40h-311l-48 -247h265l-7 -36h-265l-49 -257h311l-10 -40q-190 -74 -190 -135q0 -19 14.5 -28.5t50.5 -6t89 25.5z" />
    <glyph glyph-name="eogonek" unicode="&#x119;" 
d="M380 -166q-63 -34 -111.5 -38.5t-71 12.5t-22.5 46q0 68 110 139q-100 -14 -155.5 35t-55.5 141q0 76 35.5 149.5t101.5 123t145 49.5q60 0 95 -29t35 -79q0 -83 -96 -134t-273 -65v-9q0 -111 85.5 -137.5t246.5 40.5l9 -25q-240 -101 -240 -188q0 -19 15 -28.5t51 -5.5
t88 26zM348 452q-91 0 -153 -71.5t-75 -166.5q151 13 237 53.5t86 109.5q0 34 -25.5 54.5t-69.5 20.5z" />
    <glyph glyph-name="Ecaron" unicode="&#x11a;" 
d="M380 695h-1l-129 151l32 26l105 -128l166 124l22 -26zM435 40l-10 -40h-354l120 620h356l-8 -40h-311l-48 -247h265l-7 -36h-265l-49 -257h311z" />
    <glyph glyph-name="ecaron" unicode="&#x11b;" 
d="M348 566h-1l-129 151l32 26l105 -128l166 124l22 -26zM458 53q-89 -46 -163 -58.5t-121.5 7t-73.5 62.5t-26 105q0 76 35.5 149.5t101.5 123t145 49.5q60 0 95 -29t35 -79q0 -83 -96 -134t-273 -65v-9q0 -111 85.5 -137.5t246.5 40.5zM348 452q-91 0 -153 -71.5
t-75 -166.5q151 13 237 53.5t86 109.5q0 34 -25.5 54.5t-69.5 20.5z" />
    <glyph glyph-name="Gbreve" unicode="&#x11e;" 
d="M539 877l26 -18q-105 -141 -198 -141t-148 145l36 17q27 -68 54.5 -96t66.5 -28q40 0 77 29t86 92zM393 -110l-41 -1l27 120q-141 -47 -223.5 9t-82.5 201q0 106 40 201.5t108 154t146 58.5q76 0 106 -52.5t25 -166.5h-42q2 94 -16.5 136.5t-77.5 42.5q-67 0 -124 -53.5
t-88.5 -137.5t-31.5 -173q0 -134 71 -180t199 1l42 187l44 2z" />
    <glyph glyph-name="gbreve" unicode="&#x11f;" 
d="M519 734l26 -18q-105 -141 -198 -141t-148 145l36 17q27 -68 54.5 -96t66.5 -28q40 0 77 29t86 92zM200 61q46 0 93 38.5t86 109.5q20 112 59 213q-62 30 -115 30q-90 0 -152 -82.5t-62 -188.5q0 -58 25.5 -89t65.5 -31zM415 -98q-47 -94 -361 -72l5 45q261 -23 311 27
q13 13 14 40.5t-4.5 87t-5.5 106.5v15q-86 -132 -188 -132q-54 0 -87 40.5t-33 114.5q0 127 81 221.5t198 94.5q53 0 112 -25q13 24 19 24q11 0 21 -6t10 -13q0 -18 -28 -100t-61 -154q-3 -36 -3 -66q0 -53 5 -112t5 -87.5t-10 -48.5z" />
    <glyph glyph-name="Gdotaccent" unicode="&#x120;" 
d="M378 720l-42 -1l31 129l50 1zM393 -110l-41 -1l27 120q-141 -47 -223.5 9t-82.5 201q0 106 40 201.5t108 154t146 58.5q76 0 106 -52.5t25 -166.5h-42q2 94 -16.5 136.5t-77.5 42.5q-67 0 -124 -53.5t-88.5 -137.5t-31.5 -173q0 -134 71 -180t199 1l42 187l44 2z" />
    <glyph glyph-name="gdotaccent" unicode="&#x121;" 
d="M358 577l-42 -1l31 129l50 1zM200 61q46 0 93 38.5t86 109.5q20 112 59 213q-62 30 -115 30q-90 0 -152 -82.5t-62 -188.5q0 -58 25.5 -89t65.5 -31zM415 -98q-47 -94 -361 -72l5 45q261 -23 311 27q13 13 14 40.5t-4.5 87t-5.5 106.5v15q-86 -132 -188 -132
q-54 0 -87 40.5t-33 114.5q0 127 81 221.5t198 94.5q53 0 112 -25q13 24 19 24q11 0 21 -6t10 -13q0 -18 -28 -100t-61 -154q-3 -36 -3 -66q0 -53 5 -112t5 -87.5t-10 -48.5z" />
    <glyph glyph-name="Gcommaaccent" unicode="&#x122;" 
d="M393 -110l-41 -1l27 120q-141 -47 -223.5 9t-82.5 201q0 106 40 201.5t108 154t146 58.5q76 0 106 -52.5t25 -166.5h-42q2 94 -16.5 136.5t-77.5 42.5q-67 0 -124 -53.5t-88.5 -137.5t-31.5 -173q0 -134 71 -180t199 1l42 187l44 2zM115 -369q39 51 47.5 99t-4.5 86l61 3
q7 -100 -87 -198z" />
    <glyph glyph-name="gcommaaccent" unicode="&#x123;" 
d="M415 752q-39 -51 -47.5 -99t4.5 -86l-61 -3q-7 100 87 198zM200 61q46 0 93 38.5t86 109.5q20 112 59 213q-62 30 -115 30q-90 0 -152 -82.5t-62 -188.5q0 -58 25.5 -89t65.5 -31zM415 -98q-47 -94 -361 -72l5 45q261 -23 311 27q13 13 14 40.5t-4.5 87t-5.5 106.5v15
q-86 -132 -188 -132q-54 0 -87 40.5t-33 114.5q0 127 81 221.5t198 94.5q53 0 112 -25q13 24 19 24q11 0 21 -6t10 -13q0 -18 -28 -100t-61 -154q-3 -36 -3 -66q0 -53 5 -112t5 -87.5t-10 -48.5z" />
    <glyph glyph-name="Hbar" unicode="&#x126;" 
d="M438 323l25 131h-278l-25 -131h278zM375 0l56 287h-278l-56 -287h-45l88 453h-80l7 35h79l26 132h45l-26 -133h278l26 133h45l-26 -132h78l-6 -35h-78l-88 -453h-45z" />
    <glyph glyph-name="hbar" unicode="&#x127;" 
d="M510 31q-51 -32 -87 -38t-51.5 8t-15.5 43q0 38 35.5 167.5t35.5 174.5q0 64 -58 64q-88 0 -205 -133l-61 -317h-43l114 588h-79l6 33h79l15 77l44 4l-16 -81h143l-6 -33h-143l-44 -225q114 127 218 127q42 0 62 -24t20 -64q0 -53 -36 -184t-36 -158q0 -18 7.5 -24.5
t29 -2.5t61.5 23z" />
    <glyph glyph-name="Imacron" unicode="&#x12a;" 
d="M534 793l-7 -38h-313l8 38h312zM254 37h158l-8 -37h-358l8 37h155l106 546h-159l7 37h358l-7 -37h-154z" />
    <glyph glyph-name="imacron" unicode="&#x12b;" 
d="M495 654l-7 -38h-313l8 38h312zM462 39q-111 -43 -178.5 -47.5t-90 27t-5.5 97.5l83 322l-189 -36l-3 26l204 53l42 -2l-94 -358q-5 -18 -6 -32t1.5 -25t9.5 -18t19 -11t30 -4t42.5 4t56 11.5t70.5 19.5z" />
    <glyph glyph-name="Ibreve" unicode="&#x12c;" 
d="M536 864l26 -18q-105 -141 -198 -141t-148 145l36 17q27 -68 54.5 -96t66.5 -28q40 0 77 29t86 92zM254 37h158l-8 -37h-358l8 37h155l106 546h-159l7 37h358l-7 -37h-154z" />
    <glyph glyph-name="ibreve" unicode="&#x12d;" 
d="M497 725l26 -18q-105 -141 -198 -141t-148 145l36 17q27 -68 54.5 -96t66.5 -28q40 0 77 29t86 92zM462 39q-111 -43 -178.5 -47.5t-90 27t-5.5 97.5l83 322l-189 -36l-3 26l204 53l42 -2l-94 -358q-5 -18 -6 -32t1.5 -25t9.5 -18t19 -11t30 -4t42.5 4t56 11.5t70.5 19.5
z" />
    <glyph glyph-name="Iogonek" unicode="&#x12e;" 
d="M300 -166q-63 -34 -111.5 -38.5t-71 12.5t-22.5 46q0 72 103 146h-152l8 37h155l106 546h-159l7 37h358l-7 -37h-154l-106 -546h158l-8 -37h-155q-111 -73 -111 -135q0 -19 15 -28.5t51 -5.5t88 26z" />
    <glyph glyph-name="iogonek" unicode="&#x12f;" 
d="M344 568l-42 -3l30 130l50 2zM360 -166q-63 -34 -111.5 -38.5t-71 12.5t-22.5 46q0 72 126 137q-67 -4 -89 27t-4 98l83 322l-189 -36l-3 26l204 53l42 -2l-94 -358q-5 -18 -6 -32t1.5 -25t9.5 -18t19 -11t30 -4t42.5 4t56 11.5t70.5 19.5l8 -27q-153 -56 -208.5 -97.5
t-55.5 -76.5q0 -19 15 -28.5t51 -5.5t88 26z" />
    <glyph glyph-name="Idotaccent" unicode="&#x130;" 
d="M375 707l-42 -1l31 129l50 1zM254 37h158l-8 -37h-358l8 37h155l106 546h-159l7 37h358l-7 -37h-154z" />
    <glyph glyph-name="dotlessi" unicode="&#x131;" 
d="M462 39q-111 -43 -178.5 -47.5t-90 27t-5.5 97.5l83 322l-189 -36l-3 26l204 53l42 -2l-94 -358q-5 -18 -6 -32t1.5 -25t9.5 -18t19 -11t30 -4t42.5 4t56 11.5t70.5 19.5z" />
    <glyph glyph-name="Kcommaaccent" unicode="&#x136;" 
d="M420 -4l-218 317l319 307h52l-317 -308l213 -309zM186 620h45l-121 -620h-45zM179 -262q39 51 47.5 99t-4.5 86l61 3q7 -100 -87 -198z" />
    <glyph glyph-name="kcommaaccent" unicode="&#x137;" 
d="M430 -4l-208 205q236 108 236 199q0 23 -15 36t-41 13q-44 0 -104.5 -34t-124.5 -100l-61 -315h-43l135 698l44 4l-66 -342q60 63 123 96.5t113 33.5q41 0 63.5 -21t22.5 -55q0 -111 -225 -214l202 -196zM167 -262q39 51 47.5 99t-4.5 86l61 3q7 -100 -87 -198z" />
    <glyph glyph-name="Lacute" unicode="&#x139;" 
d="M290 717q108 72 203 170l36 -38q-88 -74 -227 -153zM442 0h-370l120 620h45l-112 -580h327z" />
    <glyph glyph-name="lacute" unicode="&#x13a;" 
d="M395 802q108 72 203 170l36 -38q-88 -74 -227 -153zM448 66q-136 -86 -218.5 -71.5t-91.5 135.5q-10 -6 -28 -18.5t-21 -14.5l-15 25q9 6 32 22t31 21q1 129 50.5 256.5t120.5 205.5t135 78q40 0 62 -25t22 -70q0 -92 -83 -208t-264 -245q2 -75 32.5 -104.5t84.5 -18.5
t138 58zM430 661q-36 0 -79 -41t-79 -105t-62 -150.5t-29 -170.5q159 117 231 219.5t72 180.5q0 32 -14.5 49.5t-39.5 17.5z" />
    <glyph glyph-name="Lcommaaccent" unicode="&#x13b;" 
d="M442 0h-370l120 620h45l-112 -580h327zM171 -258q39 51 47.5 99t-4.5 86l61 3q7 -100 -87 -198z" />
    <glyph glyph-name="lcommaaccent" unicode="&#x13c;" 
d="M448 66q-136 -86 -218.5 -71.5t-91.5 135.5q-10 -6 -28 -18.5t-21 -14.5l-15 25q9 6 32 22t31 21q1 129 50.5 256.5t120.5 205.5t135 78q40 0 62 -25t22 -70q0 -92 -83 -208t-264 -245q2 -75 32.5 -104.5t84.5 -18.5t138 58zM430 661q-36 0 -79 -41t-79 -105t-62 -150.5
t-29 -170.5q159 117 231 219.5t72 180.5q0 32 -14.5 49.5t-39.5 17.5zM202 -265q39 51 47.5 99t-4.5 86l61 3q7 -100 -87 -198z" />
    <glyph glyph-name="Lcaron" unicode="&#x13d;" 
d="M487 695l58 4q4 -132 -98 -249l-20 12q47 65 57 116.5t3 116.5zM442 0h-370l120 620h45l-112 -580h327z" />
    <glyph glyph-name="lcaron" unicode="&#x13e;" 
d="M634 797l58 4q4 -132 -98 -249l-20 12q47 65 57 116.5t3 116.5zM448 66q-136 -86 -218.5 -71.5t-91.5 135.5q-10 -6 -28 -18.5t-21 -14.5l-15 25q9 6 32 22t31 21q1 129 50.5 256.5t120.5 205.5t135 78q40 0 62 -25t22 -70q0 -92 -83 -208t-264 -245q2 -75 32.5 -104.5
t84.5 -18.5t138 58zM430 661q-36 0 -79 -41t-79 -105t-62 -150.5t-29 -170.5q159 117 231 219.5t72 180.5q0 32 -14.5 49.5t-39.5 17.5z" />
    <glyph glyph-name="Ldot" unicode="&#x13f;" 
d="M442 0h-370l120 620h45l-112 -580h327zM455 272h-69l20 85h69z" />
    <glyph glyph-name="ldot" unicode="&#x140;" 
d="M448 66q-136 -86 -218.5 -71.5t-91.5 135.5q-10 -6 -28 -18.5t-21 -14.5l-15 25q9 6 32 22t31 21q1 129 50.5 256.5t120.5 205.5t135 78q40 0 62 -25t22 -70q0 -92 -83 -208t-264 -245q2 -75 32.5 -104.5t84.5 -18.5t138 58zM430 661q-36 0 -79 -41t-79 -105t-62 -150.5
t-29 -170.5q159 117 231 219.5t72 180.5q0 32 -14.5 49.5t-39.5 17.5zM578 272h-69l20 85h69z" />
    <glyph glyph-name="Lslash" unicode="&#x141;" 
d="M452 0h-370l61 314l-87 -41l-2 34l96 46l52 267h45l-47 -243l182 87l3 -34l-192 -92l-58 -298h327z" />
    <glyph glyph-name="lslash" unicode="&#x142;" 
d="M168 723q0 45 69 75t179.5 31t248.5 -37l-15 -37q-74 22 -146 31.5t-125.5 7.5t-94.5 -10.5t-62.5 -22.5t-21.5 -30q0 -22 55 -63l-24 -30q-63 42 -63 85zM448 66q-136 -86 -218.5 -71.5t-91.5 135.5q-10 -6 -28 -18.5t-21 -14.5l-15 25q9 6 32 22t31 21
q1 129 50.5 256.5t120.5 205.5t135 78q40 0 62 -25t22 -70q0 -92 -83 -208t-264 -245q2 -75 32.5 -104.5t84.5 -18.5t138 58zM430 661q-36 0 -79 -41t-79 -105t-62 -150.5t-29 -170.5q159 117 231 219.5t72 180.5q0 32 -14.5 49.5t-39.5 17.5z" />
    <glyph glyph-name="Nacute" unicode="&#x143;" 
d="M268 718q108 72 203 170l36 -38q-88 -74 -227 -153zM368 0l-161 565h-5l-108 -565h-42l119 619l61 2l156 -551h5l106 550h42l-120 -620h-53z" />
    <glyph glyph-name="nacute" unicode="&#x144;" 
d="M228 587q108 72 203 170l36 -38q-88 -74 -227 -153zM510 31q-51 -32 -87 -38t-51.5 8t-15.5 43q0 38 35.5 167t35.5 174q0 65 -58 65q-87 0 -202 -121q-1 -5 -64 -329h-43q66 335 89 479l42 3q-3 -15 -8.5 -54t-8.5 -57q113 119 217 119q42 0 62 -24t20 -64
q0 -53 -36 -184t-36 -158q0 -18 7.5 -24.5t29 -2.5t61.5 23z" />
    <glyph glyph-name="Ncommaaccent" unicode="&#x145;" 
d="M368 0l-161 565h-5l-108 -565h-42l119 619l61 2l156 -551h5l106 550h42l-120 -620h-53zM149 -258q39 51 47.5 99t-4.5 86l61 3q7 -100 -87 -198z" />
    <glyph glyph-name="ncommaaccent" unicode="&#x146;" 
d="M510 31q-51 -32 -87 -38t-51.5 8t-15.5 43q0 38 35.5 167t35.5 174q0 65 -58 65q-87 0 -202 -121q-1 -5 -64 -329h-43q66 335 89 479l42 3q-3 -15 -8.5 -54t-8.5 -57q113 119 217 119q42 0 62 -24t20 -64q0 -53 -36 -184t-36 -158q0 -18 7.5 -24.5t29 -2.5t61.5 23z
M145 -267q39 51 47.5 99t-4.5 86l61 3q7 -100 -87 -198z" />
    <glyph glyph-name="Ncaron" unicode="&#x147;" 
d="M367 696h-1l-129 151l32 26l105 -128l166 124l22 -26zM368 0l-161 565h-5l-108 -565h-42l119 619l61 2l156 -551h5l106 550h42l-120 -620h-53z" />
    <glyph glyph-name="ncaron" unicode="&#x148;" 
d="M327 565h-1l-129 151l32 26l105 -128l166 124l22 -26zM510 31q-51 -32 -87 -38t-51.5 8t-15.5 43q0 38 35.5 167t35.5 174q0 65 -58 65q-87 0 -202 -121q-1 -5 -64 -329h-43q66 335 89 479l42 3q-3 -15 -8.5 -54t-8.5 -57q113 119 217 119q42 0 62 -24t20 -64
q0 -53 -36 -184t-36 -158q0 -18 7.5 -24.5t29 -2.5t61.5 23z" />
    <glyph glyph-name="Omacron" unicode="&#x14c;" 
d="M549 806l-7 -38h-313l8 38h312zM355 632q77 0 122 -59.5t45 -170.5q0 -102 -36 -196.5t-103 -156t-146 -61.5q-77 0 -122 59.5t-45 170.5q0 102 36 196.5t103 156t146 61.5zM246 28q97 0 164 113.5t67 256.5q0 95 -35 144.5t-96 49.5q-97 0 -164 -113.5t-67 -256.5
q0 -95 35 -144.5t96 -49.5z" />
    <glyph glyph-name="omacron" unicode="&#x14d;" 
d="M513 664l-7 -38h-313l8 38h312zM63 183q0 129 74.5 218.5t179.5 89.5q78 0 123.5 -50.5t45.5 -143.5q0 -130 -74.5 -218.5t-179.5 -88.5q-78 0 -123.5 49.5t-45.5 143.5zM442 289q0 77 -35 120.5t-100 43.5q-87 0 -143.5 -76.5t-56.5 -185.5q0 -78 35 -120.5t100 -42.5
q87 0 143.5 75.5t56.5 185.5z" />
    <glyph glyph-name="Obreve" unicode="&#x14e;" 
d="M551 877l26 -18q-105 -141 -198 -141t-148 145l36 17q27 -68 54.5 -96t66.5 -28q40 0 77 29t86 92zM355 632q77 0 122 -59.5t45 -170.5q0 -102 -36 -196.5t-103 -156t-146 -61.5q-77 0 -122 59.5t-45 170.5q0 102 36 196.5t103 156t146 61.5zM246 28q97 0 164 113.5
t67 256.5q0 95 -35 144.5t-96 49.5q-97 0 -164 -113.5t-67 -256.5q0 -95 35 -144.5t96 -49.5z" />
    <glyph glyph-name="obreve" unicode="&#x14f;" 
d="M515 735l26 -18q-105 -141 -198 -141t-148 145l36 17q27 -68 54.5 -96t66.5 -28q40 0 77 29t86 92zM63 183q0 129 74.5 218.5t179.5 89.5q78 0 123.5 -50.5t45.5 -143.5q0 -130 -74.5 -218.5t-179.5 -88.5q-78 0 -123.5 49.5t-45.5 143.5zM442 289q0 77 -35 120.5
t-100 43.5q-87 0 -143.5 -76.5t-56.5 -185.5q0 -78 35 -120.5t100 -42.5q87 0 143.5 75.5t56.5 185.5z" />
    <glyph glyph-name="Ohungarumlaut" unicode="&#x150;" 
d="M253 709l-19 16q71 77 141 190l47 -26q-72 -93 -169 -180zM459 709l-20 16q73 77 140 188l48 -24q-69 -93 -168 -180zM355 632q77 0 122 -59.5t45 -170.5q0 -102 -36 -196.5t-103 -156t-146 -61.5q-77 0 -122 59.5t-45 170.5q0 102 36 196.5t103 156t146 61.5zM246 28
q97 0 164 113.5t67 256.5q0 95 -35 144.5t-96 49.5q-97 0 -164 -113.5t-67 -256.5q0 -95 35 -144.5t96 -49.5z" />
    <glyph glyph-name="ohungarumlaut" unicode="&#x151;" 
d="M217 567l-19 16q71 77 141 190l47 -26q-72 -93 -169 -180zM423 567l-20 16q73 77 140 188l48 -24q-69 -93 -168 -180zM63 183q0 129 74.5 218.5t179.5 89.5q78 0 123.5 -50.5t45.5 -143.5q0 -130 -74.5 -218.5t-179.5 -88.5q-78 0 -123.5 49.5t-45.5 143.5zM442 289
q0 77 -35 120.5t-100 43.5q-87 0 -143.5 -76.5t-56.5 -185.5q0 -78 35 -120.5t100 -42.5q87 0 143.5 75.5t56.5 185.5z" />
    <glyph glyph-name="OE" unicode="&#x152;" 
d="M109 204q0 -91 38 -126.5t112 -37.5l105 540q-50 -1 -91.5 -21.5t-68 -55t-46 -74t-30 -83.5t-15 -78.5t-4.5 -63.5zM481 40l-12 -40h-200q-98 0 -151 44t-53 157q0 43 7.5 92t30.5 109t57.5 107t95.5 79t138 32h197l-7 -40h-175l-48 -247h149l-7 -36h-149l-50 -257h177z
" />
    <glyph glyph-name="oe" unicode="&#x153;" 
d="M511 56q-71 -54 -122.5 -62t-77 21t-31.5 88q-57 -111 -135 -111q-97 0 -97 157q0 128 58.5 234t137.5 106q78 0 89 -123q61 123 142 123q36 0 55.5 -25.5t19.5 -69.5q0 -82 -62 -139t-168 -71q0 -6 -0.5 -18t-0.5 -17q0 -185 180 -71zM294 332q0 119 -61 119
q-36 0 -69.5 -47.5t-52.5 -116.5t-19 -134q0 -60 17.5 -91.5t48.5 -31.5q54 0 95 96.5t41 205.5zM462 448q-48 0 -86.5 -70.5t-51.5 -162.5q82 13 133 58.5t51 112.5q0 30 -12.5 46t-33.5 16z" />
    <glyph glyph-name="Racute" unicode="&#x154;" 
d="M255 723q108 72 203 170l36 -38q-88 -74 -227 -153zM436 -4l-198 280l1 3q124 54 177 98.5t53 102.5q0 60 -63.5 88t-186.5 15l-113 -583h-45l120 619q168 21 250.5 -16.5t82.5 -114.5q0 -67 -53.5 -118.5t-164.5 -100.5l189 -265z" />
    <glyph glyph-name="racute" unicode="&#x155;" 
d="M270 597q108 72 203 170l36 -38q-88 -74 -227 -153zM508 25q-163 -70 -187 18q-26 94 99 390q-119 -38 -197 -35q-51 -117 -147 -228l-21 17q96 120 133 216q-35 10 -35 35q0 23 23 49t47 26t24 -30q0 -17 -10 -49q106 7 220 55l20 -16q-131 -325 -116 -405
q10 -52 84 -34l56 17z" />
    <glyph glyph-name="Rcommaaccent" unicode="&#x156;" 
d="M436 -4l-198 280l1 3q124 54 177 98.5t53 102.5q0 60 -63.5 88t-186.5 15l-113 -583h-45l120 619q168 21 250.5 -16.5t82.5 -114.5q0 -67 -53.5 -118.5t-164.5 -100.5l189 -265zM162 -262q39 51 47.5 99t-4.5 86l61 3q7 -100 -87 -198z" />
    <glyph glyph-name="rcommaaccent" unicode="&#x157;" 
d="M508 25q-163 -70 -187 18q-26 94 99 390q-119 -38 -197 -35q-51 -117 -147 -228l-21 17q96 120 133 216q-35 10 -35 35q0 23 23 49t47 26t24 -30q0 -17 -10 -49q106 7 220 55l20 -16q-131 -325 -116 -405q10 -52 84 -34l56 17zM129 -240q39 51 47.5 99t-4.5 86l61 3
q7 -100 -87 -198z" />
    <glyph glyph-name="Rcaron" unicode="&#x158;" 
d="M354 701h-1l-129 151l32 26l105 -128l166 124l22 -26zM436 -4l-198 280l1 3q124 54 177 98.5t53 102.5q0 60 -63.5 88t-186.5 15l-113 -583h-45l120 619q168 21 250.5 -16.5t82.5 -114.5q0 -67 -53.5 -118.5t-164.5 -100.5l189 -265z" />
    <glyph glyph-name="rcaron" unicode="&#x159;" 
d="M369 575h-1l-129 151l32 26l105 -128l166 124l22 -26zM508 25q-163 -70 -187 18q-26 94 99 390q-119 -38 -197 -35q-51 -117 -147 -228l-21 17q96 120 133 216q-35 10 -35 35q0 23 23 49t47 26t24 -30q0 -17 -10 -49q106 7 220 55l20 -16q-131 -325 -116 -405
q10 -52 84 -34l56 17z" />
    <glyph glyph-name="Sacute" unicode="&#x15a;" 
d="M260 728q108 72 203 170l36 -38q-88 -74 -227 -153zM501 466l-43 -8q-9 69 -41.5 101.5t-91.5 32.5q-61 0 -101.5 -38.5t-40.5 -90.5q0 -36 27.5 -70t66.5 -62t78.5 -56t67 -64t27.5 -74q0 -53 -41.5 -90t-134.5 -51t-244 21l10 46q99 -24 173 -28.5t114.5 9t59.5 35
t19 50.5q0 32 -27.5 64.5t-67 60.5t-79 57.5t-67 67t-27.5 77.5q0 69 58.5 122t142.5 53q140 0 162 -165z" />
    <glyph glyph-name="sacute" unicode="&#x15b;" 
d="M247 624q108 72 203 170l36 -38q-88 -74 -227 -153zM451 114q0 -29 -14.5 -52t-51.5 -42.5t-100 -25t-161 0.5l2 42q117 -14 179.5 -3.5t82.5 28t20 47.5q0 29 -24.5 68t-58.5 87t-48 85q-75 -77 -183 -150l-15 22q133 99 188 168q-2 16 -2 24q0 37 25 75.5t52 38.5
q30 0 26 -35q-5 -42 -56 -104q9 -42 74 -136t65 -138z" />
    <glyph glyph-name="Scedilla" unicode="&#x15e;" 
d="M268 -179q5 73 -12.5 108.5t-50.5 35.5q-53 0 -107 -114l-26 9q46 111 105 135q-68 5 -147 22l10 46q99 -24 173 -28.5t114.5 9t59.5 35t19 50.5q0 32 -27.5 64.5t-67 60.5t-79 57.5t-67 67t-27.5 77.5q0 69 58.5 122t142.5 53q140 0 162 -165l-43 -8q-9 69 -41.5 101.5
t-91.5 32.5q-61 0 -101.5 -38.5t-40.5 -90.5q0 -36 27.5 -70t66.5 -62t78.5 -56t67 -64t27.5 -74q0 -58 -50.5 -98t-153.5 -45q73 -32 64 -172z" />
    <glyph glyph-name="scedilla" unicode="&#x15f;" 
d="M286 -181q5 73 -12.5 108.5t-50.5 35.5q-53 0 -107 -114l-26 9q46 109 102 133q-47 2 -68 4l2 42q117 -14 179.5 -3.5t82.5 28t20 47.5q0 29 -24.5 68t-58.5 87t-48 85q-75 -77 -183 -150l-15 22q133 99 188 168q-2 16 -2 24q0 37 25 75.5t52 38.5q30 0 26 -35
q-5 -42 -56 -104q9 -42 74 -136t65 -138q0 -109 -189 -121q75 -30 66 -173z" />
    <glyph glyph-name="Scaron" unicode="&#x160;" 
d="M359 706h-1l-129 151l32 26l105 -128l166 124l22 -26zM501 466l-43 -8q-9 69 -41.5 101.5t-91.5 32.5q-61 0 -101.5 -38.5t-40.5 -90.5q0 -36 27.5 -70t66.5 -62t78.5 -56t67 -64t27.5 -74q0 -53 -41.5 -90t-134.5 -51t-244 21l10 46q99 -24 173 -28.5t114.5 9t59.5 35
t19 50.5q0 32 -27.5 64.5t-67 60.5t-79 57.5t-67 67t-27.5 77.5q0 69 58.5 122t142.5 53q140 0 162 -165z" />
    <glyph glyph-name="scaron" unicode="&#x161;" 
d="M346 602h-1l-129 151l32 26l105 -128l166 124l22 -26zM451 114q0 -29 -14.5 -52t-51.5 -42.5t-100 -25t-161 0.5l2 42q117 -14 179.5 -3.5t82.5 28t20 47.5q0 29 -24.5 68t-58.5 87t-48 85q-75 -77 -183 -150l-15 22q133 99 188 168q-2 16 -2 24q0 37 25 75.5t52 38.5
q30 0 26 -35q-5 -42 -56 -104q9 -42 74 -136t65 -138z" />
    <glyph glyph-name="Tcommaaccent" unicode="&#x162;" 
d="M364 580l-113 -580h-45l113 580h-208l7 40h461l-7 -40h-208zM141 -258q39 51 47.5 99t-4.5 86l61 3q7 -100 -87 -198z" />
    <glyph glyph-name="tcommaaccent" unicode="&#x163;" 
d="M452 51q-73 -36 -128.5 -51t-89 -9t-53 27t-20.5 57.5t8 81.5l65 287h-94l10 35h67l65 138l35 2l-32 -140h199l-7 -35h-200l-65 -285q-13 -63 -1.5 -97.5t68 -31.5t164.5 47zM159 -268q39 51 47.5 99t-4.5 86l61 3q7 -100 -87 -198z" />
    <glyph glyph-name="Tcaron" unicode="&#x164;" 
d="M359 695h-1l-129 151l32 26l105 -128l166 124l22 -26zM364 580l-113 -580h-45l113 580h-208l7 40h461l-7 -40h-208z" />
    <glyph glyph-name="tcaron" unicode="&#x165;" 
d="M440 825l58 4q4 -132 -98 -249l-20 12q47 65 57 116.5t3 116.5zM452 51q-73 -36 -128.5 -51t-89 -9t-53 27t-20.5 57.5t8 81.5l65 287h-94l10 35h67l65 138l35 2l-32 -140h199l-7 -35h-200l-65 -285q-13 -63 -1.5 -97.5t68 -31.5t164.5 47z" />
    <glyph glyph-name="Umacron" unicode="&#x16a;" 
d="M545 793l-7 -38h-313l8 38h312zM133 210q-36 -183 117 -183q133 0 165 168l83 425h45l-83 -425q-20 -101 -75.5 -155.5t-139.5 -54.5q-94 0 -136 57.5t-23 158.5l82 419h45z" />
    <glyph glyph-name="umacron" unicode="&#x16b;" 
d="M523 655l-7 -38h-313l8 38h312zM373 116l1 3q-115 -129 -199 -129q-56 0 -78 46t0 138l38 165l-35 21l65 119l45 3l-70 -305q-34 -146 52 -146q39 0 83 31.5t107 100.5l63 317h42l-71 -361q-7 -35 -7.5 -53t8.5 -28t30.5 -5t59.5 23l8 -24q-100 -54 -130.5 -31.5
t-11.5 115.5z" />
    <glyph glyph-name="Ubreve" unicode="&#x16c;" 
d="M547 864l26 -18q-105 -141 -198 -141t-148 145l36 17q27 -68 54.5 -96t66.5 -28q40 0 77 29t86 92zM133 210q-36 -183 117 -183q133 0 165 168l83 425h45l-83 -425q-20 -101 -75.5 -155.5t-139.5 -54.5q-94 0 -136 57.5t-23 158.5l82 419h45z" />
    <glyph glyph-name="ubreve" unicode="&#x16d;" 
d="M525 726l26 -18q-105 -141 -198 -141t-148 145l36 17q27 -68 54.5 -96t66.5 -28q40 0 77 29t86 92zM373 116l1 3q-115 -129 -199 -129q-56 0 -78 46t0 138l38 165l-35 21l65 119l45 3l-70 -305q-34 -146 52 -146q39 0 83 31.5t107 100.5l63 317h42l-71 -361
q-7 -35 -7.5 -53t8.5 -28t30.5 -5t59.5 23l8 -24q-100 -54 -130.5 -31.5t-11.5 115.5z" />
    <glyph glyph-name="Uring" unicode="&#x16e;" 
d="M392 889q54 0 89 -28t35 -70q0 -46 -38.5 -77.5t-96.5 -31.5q-54 0 -89 28t-35 70q0 46 38.5 77.5t96.5 31.5zM388 858q-40 0 -67.5 -21.5t-27.5 -52.5q0 -30 26 -50.5t66 -20.5q41 0 68.5 21.5t27.5 52.5q0 30 -26.5 50.5t-66.5 20.5zM133 210q-36 -183 117 -183
q133 0 165 168l83 425h45l-83 -425q-20 -101 -75.5 -155.5t-139.5 -54.5q-94 0 -136 57.5t-23 158.5l82 419h45z" />
    <glyph glyph-name="uring" unicode="&#x16f;" 
d="M370 751q54 0 89 -28t35 -70q0 -46 -38.5 -77.5t-96.5 -31.5q-54 0 -89 28t-35 70q0 46 38.5 77.5t96.5 31.5zM366 720q-40 0 -67.5 -21.5t-27.5 -52.5q0 -30 26 -50.5t66 -20.5q41 0 68.5 21.5t27.5 52.5q0 30 -26.5 50.5t-66.5 20.5zM373 116l1 3q-115 -129 -199 -129
q-56 0 -78 46t0 138l38 165l-35 21l65 119l45 3l-70 -305q-34 -146 52 -146q39 0 83 31.5t107 100.5l63 317h42l-71 -361q-7 -35 -7.5 -53t8.5 -28t30.5 -5t59.5 23l8 -24q-100 -54 -130.5 -31.5t-11.5 115.5z" />
    <glyph glyph-name="Uhungarumlaut" unicode="&#x170;" 
d="M249 696l-19 16q71 77 141 190l47 -26q-72 -93 -169 -180zM455 696l-20 16q73 77 140 188l48 -24q-69 -93 -168 -180zM133 210q-36 -183 117 -183q133 0 165 168l83 425h45l-83 -425q-20 -101 -75.5 -155.5t-139.5 -54.5q-94 0 -136 57.5t-23 158.5l82 419h45z" />
    <glyph glyph-name="uhungarumlaut" unicode="&#x171;" 
d="M227 558l-19 16q71 77 141 190l47 -26q-72 -93 -169 -180zM433 558l-20 16q73 77 140 188l48 -24q-69 -93 -168 -180zM373 116l1 3q-115 -129 -199 -129q-56 0 -78 46t0 138l38 165l-35 21l65 119l45 3l-70 -305q-34 -146 52 -146q39 0 83 31.5t107 100.5l63 317h42
l-71 -361q-7 -35 -7.5 -53t8.5 -28t30.5 -5t59.5 23l8 -24q-100 -54 -130.5 -31.5t-11.5 115.5z" />
    <glyph glyph-name="Uogonek" unicode="&#x172;" 
d="M320 -166q-63 -34 -111.5 -38.5t-71 12.5t-22.5 46q0 64 126 131q-92 2 -133 59t-22 157l82 419h45l-80 -410q-36 -183 117 -183q133 0 165 168l83 425h45l-83 -425q-28 -145 -135 -195q-167 -79 -167 -135q0 -19 15 -28.5t51 -5.5t88 26z" />
    <glyph glyph-name="uogonek" unicode="&#x173;" 
d="M499 -166q-63 -34 -111.5 -38.5t-71 12.5t-22.5 46q0 69 107 140q-52 8 -28 122l1 3q-115 -129 -199 -129q-56 0 -78 46t0 138l38 165l-35 21l65 119l45 3l-70 -305q-34 -146 52 -146q39 0 83 31.5t107 100.5l63 317h42l-71 -361q-7 -35 -7.5 -53t8.5 -28t30.5 -5
t59.5 23l8 -24q-178 -89 -178 -167q0 -19 15 -28.5t51 -5.5t88 26z" />
    <glyph glyph-name="Wcircumflex" unicode="&#x174;" 
d="M510 698l-106 128l-166 -124l-21 26l195 147h1l128 -151zM339 0l-30 363l-170 -363h-58q11 217 70 620h44q-55 -360 -72 -568h4l180 387h34l31 -387h3q67 216 149 568h43q-91 -381 -171 -620h-57z" />
    <glyph glyph-name="wcircumflex" unicode="&#x175;" 
d="M481 558l-106 128l-166 -124l-21 26l195 147h1l128 -151zM343 0l-51 299l-163 -299h-46q7 227 40 480h44q-26 -215 -43 -414h3l162 299h31l49 -300h4q61 196 116 415h47q-71 -259 -153 -480h-40z" />
    <glyph glyph-name="Ycircumflex" unicode="&#x176;" 
d="M501 699l-106 128l-166 -124l-21 26l195 147h1l128 -151zM250 0h-45l41 213l-131 406l46 2l117 -365l257 364h49l-294 -413z" />
    <glyph glyph-name="ycircumflex" unicode="&#x177;" 
d="M485 566l-106 128l-166 -124l-21 26l195 147h1l128 -151zM408 -99q-46 -92 -346 -72l7 47q247 -22 297 25q8 9 12.5 23t6 39.5t1 48l-1.5 67.5t-1 79q-46 -59 -103 -97.5t-110 -38.5q-178 0 -7 458l43 1q-36 -100 -56 -175t-24.5 -120.5t3.5 -73.5t22.5 -38.5t37.5 -10.5
q41 0 95 39t101 99q9 90 40.5 188.5t48.5 98.5q11 0 21 -5t10 -13q0 -22 -26 -109.5t-56 -152.5q-2 -36 -2 -55q0 -33 1 -86.5t1 -75.5t-3.5 -48t-11.5 -42z" />
    <glyph glyph-name="Ydieresis" unicode="&#x178;" 
d="M485 710l-42 -2l30 130l50 1zM276 707l-42 -1l31 129l49 1zM250 0h-45l41 213l-131 406l46 2l117 -365l257 364h49l-294 -413z" />
    <glyph glyph-name="Zacute" unicode="&#x179;" 
d="M262 717q108 72 203 170l36 -38q-88 -74 -227 -153zM431 0h-401l6 39l454 542l-340 -1l8 40h390l-7 -39l-453 -542l350 1z" />
    <glyph glyph-name="zacute" unicode="&#x17a;" 
d="M235 577q108 72 203 170l36 -38q-88 -74 -227 -153zM422 0h-388l7 38l413 404l-329 -1l11 39h375l-7 -37l-414 -405l343 1z" />
    <glyph glyph-name="Zdotaccent" unicode="&#x17b;" 
d="M381 707l-42 -1l31 129l50 1zM431 0h-401l6 39l454 542l-340 -1l8 40h390l-7 -39l-453 -542l350 1z" />
    <glyph glyph-name="zdotaccent" unicode="&#x17c;" 
d="M354 567l-42 -1l31 129l50 1zM422 0h-388l7 38l413 404l-329 -1l11 39h375l-7 -37l-414 -405l343 1z" />
    <glyph glyph-name="Zcaron" unicode="&#x17d;" 
d="M361 695h-1l-129 151l32 26l105 -128l166 124l22 -26zM431 0h-401l6 39l454 542l-340 -1l8 40h390l-7 -39l-453 -542l350 1z" />
    <glyph glyph-name="zcaron" unicode="&#x17e;" 
d="M334 555h-1l-129 151l32 26l105 -128l166 124l22 -26zM422 0h-388l7 38l413 404l-329 -1l11 39h375l-7 -37l-414 -405l343 1z" />
    <glyph glyph-name="Aringacute" unicode="&#x1fa;" 
d="M333 951q108 72 203 170l36 -38q-88 -74 -227 -153zM391 892q54 0 89 -28t35 -70q0 -46 -38.5 -77.5t-96.5 -31.5q-54 0 -89 28t-35 70q0 46 38.5 77.5t96.5 31.5zM387 861q-40 0 -67.5 -21.5t-27.5 -52.5q0 -30 26 -50.5t66 -20.5q41 0 68.5 21.5t27.5 52.5
q0 30 -26.5 50.5t-66.5 20.5zM417 -2q-14 142 -22 214h-239q-70 -142 -104 -212h-46q152 312 316 623h66q45 -345 73 -621zM345 582q-93 -178 -171 -334h217q-19 173 -39 334h-7z" />
    <glyph glyph-name="aringacute" unicode="&#x1fb;" 
d="M320 821q108 72 203 170l36 -38q-88 -74 -227 -153zM378 758q54 0 89 -28t35 -70q0 -46 -38.5 -77.5t-96.5 -31.5q-54 0 -89 28t-35 70q0 46 38.5 77.5t96.5 31.5zM374 727q-40 0 -67.5 -21.5t-27.5 -52.5q0 -30 26 -50.5t66 -20.5q41 0 68.5 21.5t27.5 52.5
q0 30 -26.5 50.5t-66.5 20.5zM182 32q37 0 90 33t95 79l57 292q-58 15 -104 15q-89 0 -152 -89.5t-63 -209.5q0 -60 21 -90t56 -30zM510 32q-65 -38 -102 -39.5t-47.5 26t-2.5 81.5q-46 -47 -98.5 -78t-93.5 -31q-48 0 -76.5 39t-28.5 113q0 139 82.5 242.5t201.5 103.5
q56 0 129 -19l-70 -351q-6 -32 -6.5 -53t9.5 -29t32.5 -3.5t63.5 22.5z" />
    <glyph glyph-name="AEacute" unicode="&#x1fc;" 
d="M382 717q108 72 203 170l36 -38q-88 -74 -227 -153zM356 580q-28 -51 -91 -166t-96 -176h128l67 342h-8zM251 0l39 202h-140q-37 -68 -109 -202h-50q267 481 345 620h259l-7 -40h-179l-48 -247h153l-7 -36h-153l-50 -257h181l-12 -40h-222z" />
    <glyph glyph-name="aeacute" unicode="&#x1fd;" 
d="M265 577q108 72 203 170l36 -38q-88 -74 -227 -153zM504 54q-73 -50 -126.5 -58.5t-81.5 18t-36 81.5q-77 -102 -142 -102q-33 0 -51.5 32t-18.5 94q0 140 66 254t155 114q50 0 102 -41q45 43 94 43q38 0 58.5 -23t20.5 -65q0 -80 -66 -142t-177 -75q-2 -28 -2 -42
q0 -58 19 -85.5t63.5 -23t117.5 46.5zM454 450q-50 0 -92 -71.5t-57 -164.5q87 12 142 62.5t55 115.5q0 58 -48 58zM130 34q49 0 127 106q1 73 24 147t61 126q-44 36 -88 36q-67 0 -115 -103.5t-48 -224.5q0 -87 39 -87z" />
    <glyph glyph-name="Oslashacute" unicode="&#x1fe;" 
d="M271 730q108 72 203 170l36 -38q-88 -74 -227 -153zM116 231q0 -65 15 -109l313 414q-34 57 -101 57q-64 0 -117 -53.5t-81.5 -136t-28.5 -172.5zM249 27q64 0 117 53.5t81.5 136.5t28.5 173q0 65 -15 110l-314 -414q33 -59 102 -59zM240 -13q-78 0 -123 60l-57 -76
l-29 21l67 88q-27 59 -27 144q0 101 35.5 194.5t101.5 154t144 60.5t122 -60l60 76l28 -21l-68 -87q27 -59 27 -145q0 -100 -35 -193.5t-101 -154.5t-145 -61z" />
    <glyph glyph-name="oslashacute" unicode="&#x1ff;" 
d="M235 588q108 72 203 170l36 -38q-88 -74 -227 -153zM107 191q0 -57 19 -95l278 316q-33 41 -97 41q-87 0 -143.5 -76.5t-56.5 -185.5zM242 28q87 0 143.5 75.5t56.5 185.5q0 53 -17 92l-278 -316q34 -37 95 -37zM232 -10q-72 0 -116 42l-55 -62l-29 22l61 68
q-30 47 -30 123q0 129 74.5 218.5t179.5 89.5q75 0 118 -45l54 61l29 -22l-61 -68q29 -46 29 -120q0 -130 -74.5 -218.5t-179.5 -88.5z" />
    <glyph glyph-name="Scommaaccent" unicode="&#x218;" 
d="M501 466l-43 -8q-9 69 -41.5 101.5t-91.5 32.5q-61 0 -101.5 -38.5t-40.5 -90.5q0 -36 27.5 -70t66.5 -62t78.5 -56t67 -64t27.5 -74q0 -53 -41.5 -90t-134.5 -51t-244 21l10 46q99 -24 173 -28.5t114.5 9t59.5 35t19 50.5q0 32 -27.5 64.5t-67 60.5t-79 57.5t-67 67
t-27.5 77.5q0 69 58.5 122t142.5 53q140 0 162 -165zM122 -265q39 51 47.5 99t-4.5 86l61 3q7 -100 -87 -198z" />
    <glyph glyph-name="scommaaccent" unicode="&#x219;" 
d="M451 114q0 -29 -14.5 -52t-51.5 -42.5t-100 -25t-161 0.5l2 42q117 -14 179.5 -3.5t82.5 28t20 47.5q0 29 -24.5 68t-58.5 87t-48 85q-75 -77 -183 -150l-15 22q133 99 188 168q-2 16 -2 24q0 37 25 75.5t52 38.5q30 0 26 -35q-5 -42 -56 -104q9 -42 74 -136t65 -138z
M136 -267q39 51 47.5 99t-4.5 86l61 3q7 -100 -87 -198z" />
    <glyph glyph-name="schwa" unicode="&#x259;" 
d="M194 -11q-60 0 -95 29t-35 79q0 83 96 134t273 65v9q0 111 -85.5 137.5t-246.5 -40.5l-9 25q89 46 163 58.5t121.5 -7t73.5 -62.5t26 -105q0 -76 -35.5 -149.5t-101.5 -123t-145 -49.5zM202 28q91 0 153 71.5t75 166.5q-151 -13 -237 -53.5t-86 -109.5q0 -34 25.5 -54.5
t69.5 -20.5z" />
    <glyph glyph-name="circumflex" unicode="&#x2c6;" 
d="M399 558l-106 128l-166 -124l-21 26l195 147h1l128 -151z" />
    <glyph glyph-name="caron" unicode="&#x2c7;" 
d="M261 555h-1l-129 151l32 26l105 -128l166 124l22 -26z" />
    <glyph glyph-name="breve" unicode="&#x2d8;" 
d="M429 724l26 -18q-105 -141 -198 -141t-148 145l36 17q27 -68 54.5 -96t66.5 -28q40 0 77 29t86 92z" />
    <glyph glyph-name="dotaccent" unicode="&#x2d9;" 
d="M279 567l-42 -1l31 129l50 1z" />
    <glyph glyph-name="ring" unicode="&#x2da;" 
d="M372 749q54 0 89 -28t35 -70q0 -46 -38.5 -77.5t-96.5 -31.5q-54 0 -89 28t-35 70q0 46 38.5 77.5t96.5 31.5zM368 718q-40 0 -67.5 -21.5t-27.5 -52.5q0 -30 26 -50.5t66 -20.5q41 0 68.5 21.5t27.5 52.5q0 30 -26.5 50.5t-66.5 20.5z" />
    <glyph glyph-name="ogonek" unicode="&#x2db;" 
d="M382 22l16 -21q-190 -74 -190 -135q0 -19 14.5 -28.5t50.5 -6t89 25.5l8 -23q-63 -34 -111.5 -38.5t-71 12.5t-22.5 46q0 83 217 168z" />
    <glyph glyph-name="tilde" unicode="&#x2dc;" 
d="M345 603q23 0 47.5 29t58.5 85l25 -15q-39 -68 -72.5 -101.5t-68.5 -33.5q-23 0 -42 18t-29.5 39.5t-26 39.5t-32.5 18q-41 0 -106 -108l-25 15q74 129 141 129q23 0 42 -18t29.5 -39.5t26 -39.5t32.5 -18z" />
    <glyph glyph-name="hungarumlaut" unicode="&#x2dd;" 
d="M150 556l-19 16q71 77 141 190l47 -26q-72 -93 -169 -180zM356 556l-20 16q73 77 140 188l48 -24q-69 -93 -168 -180z" />
    <glyph glyph-name="commaaccent" unicode="&#x326;" 
d="M200 -258q39 51 47.5 99t-4.5 86l61 3q7 -100 -87 -198z" />
    <glyph glyph-name="Wgrave" unicode="&#x1e80;" 
d="M466 708l-15 -20q-105 77 -184 170l39 36q73 -107 160 -186zM339 0l-30 363l-170 -363h-58q11 217 70 620h44q-55 -360 -72 -568h4l180 387h34l31 -387h3q67 216 149 568h43q-91 -381 -171 -620h-57z" />
    <glyph glyph-name="wgrave" unicode="&#x1e81;" 
d="M437 568l-15 -20q-105 77 -184 170l39 36q73 -107 160 -186zM343 0l-51 299l-163 -299h-46q7 227 40 480h44q-26 -215 -43 -414h3l162 299h31l49 -300h4q61 196 116 415h47q-71 -259 -153 -480h-40z" />
    <glyph glyph-name="Wacute" unicode="&#x1e82;" 
d="M270 717q108 72 203 170l36 -38q-88 -74 -227 -153zM339 0l-30 363l-170 -363h-58q11 217 70 620h44q-55 -360 -72 -568h4l180 387h34l31 -387h3q67 216 149 568h43q-91 -381 -171 -620h-57z" />
    <glyph glyph-name="wacute" unicode="&#x1e83;" 
d="M241 577q108 72 203 170l36 -38q-88 -74 -227 -153zM343 0l-51 299l-163 -299h-46q7 227 40 480h44q-26 -215 -43 -414h3l162 299h31l49 -300h4q61 196 116 415h47q-71 -259 -153 -480h-40z" />
    <glyph glyph-name="Wdieresis" unicode="&#x1e84;" 
d="M494 709l-42 -2l30 130l50 1zM285 706l-42 -1l31 129l49 1zM339 0l-30 363l-170 -363h-58q11 217 70 620h44q-55 -360 -72 -568h4l180 387h34l31 -387h3q67 216 149 568h43q-91 -381 -171 -620h-57z" />
    <glyph glyph-name="wdieresis" unicode="&#x1e85;" 
d="M465 569l-42 -2l30 130l50 1zM256 566l-42 -1l31 129l49 1zM343 0l-51 299l-163 -299h-46q7 227 40 480h44q-26 -215 -43 -414h3l162 299h31l49 -300h4q61 196 116 415h47q-71 -259 -153 -480h-40z" />
    <glyph glyph-name="Ygrave" unicode="&#x1ef2;" 
d="M457 709l-15 -20q-105 77 -184 170l39 36q73 -107 160 -186zM250 0h-45l41 213l-131 406l46 2l117 -365l257 364h49l-294 -413z" />
    <glyph glyph-name="ygrave" unicode="&#x1ef3;" 
d="M440 576l-15 -20q-105 77 -184 170l39 36q73 -107 160 -186zM408 -99q-46 -92 -346 -72l7 47q247 -22 297 25q8 9 12.5 23t6 39.5t1 48l-1.5 67.5t-1 79q-46 -59 -103 -97.5t-110 -38.5q-178 0 -7 458l43 1q-36 -100 -56 -175t-24.5 -120.5t3.5 -73.5t22.5 -38.5
t37.5 -10.5q41 0 95 39t101 99q9 90 40.5 188.5t48.5 98.5q11 0 21 -5t10 -13q0 -22 -26 -109.5t-56 -152.5q-2 -36 -2 -55q0 -33 1 -86.5t1 -75.5t-3.5 -48t-11.5 -42z" />
    <glyph glyph-name="endash" unicode="&#x2013;" 
d="M484 305l-6 -35h-397l7 35h396z" />
    <glyph glyph-name="emdash" unicode="&#x2014;" 
d="M519 305l-6 -35h-440l6 35h440z" />
    <glyph glyph-name="quoteleft" unicode="&#x2018;" 
d="M425 675q-67 -64 -85.5 -121t-4.5 -148l-75 -3q4 92 36.5 156t110.5 128z" />
    <glyph glyph-name="quoteright" unicode="&#x2019;" 
d="M230 389q67 64 85.5 121t4.5 148l75 3q-4 -92 -36.5 -156t-110.5 -128z" />
    <glyph glyph-name="quotesinglbase" unicode="&#x201a;" 
d="M119 -183q67 64 85.5 121t4.5 148l75 3q-4 -92 -36.5 -156t-110.5 -128z" />
    <glyph glyph-name="quotedblleft" unicode="&#x201c;" 
d="M525 675q-67 -64 -85.5 -121t-4.5 -148l-75 -3q4 92 36.5 156t110.5 128zM326 675q-67 -64 -85.5 -121t-4.5 -148l-75 -3q4 92 36.5 156t110.5 128z" />
    <glyph glyph-name="quotedblright" unicode="&#x201d;" 
d="M132 389q67 64 85.5 121t4.5 148l75 3q-4 -92 -36.5 -156t-110.5 -128zM331 389q67 64 85.5 121t4.5 148l75 3q-4 -92 -36.5 -156t-110.5 -128z" />
    <glyph glyph-name="quotedblbase" unicode="&#x201e;" 
d="M20 -183q67 64 85.5 121t4.5 148l75 3q-4 -92 -36.5 -156t-110.5 -128zM219 -183q67 64 85.5 121t4.5 148l75 3q-4 -92 -36.5 -156t-110.5 -128z" />
    <glyph glyph-name="dagger" unicode="&#x2020;" 
d="M256 118l-28 -13l-6 6l71 377l-164 17l7 37l164 -18l32 170l43 -5l-32 -169l166 -18l-7 -36l-166 17z" />
    <glyph glyph-name="daggerdbl" unicode="&#x2021;" 
d="M247 68l-29 -13l-5 6l43 227l-168 18l7 37l168 -18l30 163l-164 17l7 37l164 -18l32 170l43 -5l-32 -169l166 -18l-7 -36l-166 17l-35 -162l167 -18l-7 -36l-168 18z" />
    <glyph glyph-name="bullet" unicode="&#x2022;" 
d="M385 309q0 -51 -33.5 -85.5t-78.5 -34.5q-39 0 -65 27.5t-26 70.5q0 51 33 85.5t77 34.5q41 0 67 -27.5t26 -70.5z" />
    <glyph glyph-name="ellipsis" unicode="&#x2026;" 
d="M486 0h-75l18 87h75zM303 0h-75l18 87h75zM120 0h-75l18 87h75z" />
    <glyph glyph-name="guilsinglleft" unicode="&#x2039;" 
d="M326 -14l-196 233l13 48l288 227l26 -33l-287 -222l189 -223z" />
    <glyph glyph-name="guilsinglright" unicode="&#x203a;" 
d="M112 -13l-26 33l287 222l-189 223l33 30l196 -233l-13 -48z" />
    <glyph glyph-name="fraction" unicode="&#x2044;" 
d="M4 -160l-34 20l583 890l33 -20z" />
    <glyph glyph-name="zero.sup" unicode="&#x2070;" 
d="M169 479q0 104 55 181.5t135 77.5q56 0 89 -40.5t33 -113.5q0 -104 -55 -181.5t-135 -77.5q-56 0 -89 40.5t-33 113.5zM443 580q0 60 -24 92t-67 32q-63 0 -104 -66.5t-41 -154.5q0 -60 24 -92t67 -32q63 0 104 66.5t41 154.5z" />
    <glyph glyph-name="four.sup" unicode="&#x2074;" 
d="M458 424h-52l-18 -89h-35l17 89h-209l3 26q86 136 133 284l40 -2q-49 -151 -135 -275h175l27 141l37 4l-29 -145h57z" />
    <glyph glyph-name="five.sup" unicode="&#x2075;" 
d="M444 456q0 -58 -70 -95.5t-216 -25.5l5 37q71 -5 117.5 -1.5t75 17t40 28.5t11.5 34q0 70 -197 100l46 180h226l-10 -34h-190l-30 -120q192 -33 192 -120z" />
    <glyph glyph-name="six.sup" unicode="&#x2076;" 
d="M310 326q-59 0 -97.5 36t-38.5 104q0 85 64 160t204 115l9 -34q-197 -51 -233 -182q51 42 107.5 47t93.5 -25.5t37 -83.5q0 -61 -42 -99t-104 -38zM316 359q47 0 76 27.5t29 70.5t-31.5 67t-81 18t-96.5 -46q-1 -8 -1 -23q0 -58 29.5 -86t75.5 -28z" />
    <glyph glyph-name="seven.sup" unicode="&#x2077;" 
d="M242 332l-41 5q116 198 255 357v2h-236l7 34h277l-7 -31q-143 -169 -255 -367z" />
    <glyph glyph-name="eight.sup" unicode="&#x2078;" 
d="M432 427q0 -42 -41 -72t-103 -30q-55 0 -90 24t-35 63q0 30 26 60.5t100 74.5q-68 57 -68 99q0 47 60 74.5t163 9.5l-12 -38q-64 15 -103 10t-55 -18.5t-16 -33.5q0 -29 63 -85q57 33 153 80l14 -23q-82 -40 -146 -75q28 -24 44.5 -39.5t31 -38t14.5 -42.5zM295 358
q44 0 72.5 19t28.5 46q0 16 -14.5 36t-28 32t-43.5 37q-64 -38 -86.5 -61.5t-22.5 -44.5q0 -29 26.5 -46.5t67.5 -17.5z" />
    <glyph glyph-name="nine.sup" unicode="&#x2079;" 
d="M207 325l-9 34q197 51 233 182q-51 -42 -107.5 -47t-93.5 25.5t-37 83.5q0 61 42 99t104 38q59 0 97.5 -36t38.5 -104q0 -85 -64 -160t-204 -115zM228 609q0 -43 31.5 -67t81 -18t96.5 46q1 8 1 23q0 58 -29.5 86t-75.5 28q-47 0 -76 -27.5t-29 -70.5z" />
    <glyph glyph-name="zero.inf" unicode="&#x2080;" 
d="M85 -6q0 104 55 181.5t135 77.5q56 0 89 -40.5t33 -113.5q0 -104 -55 -181.5t-135 -77.5q-56 0 -89 40.5t-33 113.5zM359 95q0 60 -24 92t-67 32q-63 0 -104 -66.5t-41 -154.5q0 -60 24 -92t67 -32q63 0 104 66.5t41 154.5z" />
    <glyph glyph-name="one.inf" unicode="&#x2081;" 
d="M352 -150h-284l7 34h130l54 279l-130 -11l4 28l133 19l12 61l39 3l-75 -379h119z" />
    <glyph glyph-name="two.inf" unicode="&#x2082;" 
d="M338 -150h-273l-1 32q150 95 212 149t62 107q0 97 -199 68l6 36q114 17 173.5 -9.5t59.5 -87.5q0 -62 -59.5 -118.5t-195.5 -141.5h223z" />
    <glyph glyph-name="three.inf" unicode="&#x2083;" 
d="M360 -43q0 -54 -67 -87.5t-220 -19.5l5 37q98 -11 152 -0.5t73.5 26t19.5 38.5q0 65 -178 100l3 19l199 141h-205l7 34h249l-4 -34l-199 -141q165 -36 165 -113z" />
    <glyph glyph-name="four.inf" unicode="&#x2084;" 
d="M374 -61h-52l-18 -89h-35l17 89h-209l3 26q86 136 133 284l40 -2q-49 -151 -135 -275h175l27 141l37 4l-29 -145h57z" />
    <glyph glyph-name="five.inf" unicode="&#x2085;" 
d="M360 -29q0 -58 -70 -95.5t-216 -25.5l5 37q71 -5 117.5 -1.5t75 17t40 28.5t11.5 34q0 70 -197 100l46 180h226l-10 -34h-190l-30 -120q192 -33 192 -120z" />
    <glyph glyph-name="six.inf" unicode="&#x2086;" 
d="M226 -159q-59 0 -97.5 36t-38.5 104q0 85 64 160t204 115l9 -34q-197 -51 -233 -182q51 42 107.5 47t93.5 -25.5t37 -83.5q0 -61 -42 -99t-104 -38zM232 -126q47 0 76 27.5t29 70.5t-31.5 67t-81 18t-96.5 -46q-1 -8 -1 -23q0 -58 29.5 -86t75.5 -28z" />
    <glyph glyph-name="seven.inf" unicode="&#x2087;" 
d="M158 -153l-41 5q116 198 255 357v2h-236l7 34h277l-7 -31q-143 -169 -255 -367z" />
    <glyph glyph-name="eight.inf" unicode="&#x2088;" 
d="M348 -58q0 -42 -41 -72t-103 -30q-55 0 -90 24t-35 63q0 30 26 60.5t100 74.5q-68 57 -68 99q0 47 60 74.5t163 9.5l-12 -38q-64 15 -103 10t-55 -18.5t-16 -33.5q0 -29 63 -85q57 33 153 80l14 -23q-82 -40 -146 -75q28 -24 44.5 -39.5t31 -38t14.5 -42.5zM211 -127
q44 0 72.5 19t28.5 46q0 16 -14.5 36t-28 32t-43.5 37q-64 -38 -86.5 -61.5t-22.5 -44.5q0 -29 26.5 -46.5t67.5 -17.5z" />
    <glyph glyph-name="nine.inf" unicode="&#x2089;" 
d="M123 -160l-9 34q197 51 233 182q-51 -42 -107.5 -47t-93.5 25.5t-37 83.5q0 61 42 99t104 38q59 0 97.5 -36t38.5 -104q0 -85 -64 -160t-204 -115zM144 124q0 -43 31.5 -67t81 -18t96.5 46q1 8 1 23q0 58 -29.5 86t-75.5 28q-47 0 -76 -27.5t-29 -70.5z" />
    <glyph glyph-name="colonmonetary" unicode="&#x20a1;" 
d="M314 84l128 460q-50 -7 -95 -20l-114 -410q35 -16 81 -30zM126 281q0 -98 78 -150l105 381q-183 -68 -183 -231zM268 -74l34 118q-41 10 -81 29l-41 -147h-38l47 164q-104 65 -104 186q0 92 57 164.5t175 112.5l39 140h38l-35 -127q37 11 94 19l29 108h38l-28 -103
q38 5 79 6l-3 -41q-33 -1 -91 -7l-131 -471q48 -10 96 -14l-15 -39q-48 4 -91 12l-30 -110h-38z" />
    <glyph glyph-name="naira" unicode="&#x20a6;" 
d="M198 545l-22 -116h59l-32 116h-5zM332 223h78l33 173l-158 -1zM136 222l156 1l-48 172h-75zM374 68h6l23 121h-62zM354 0l-52 189l-173 -1l-36 -188h-38l36 187h-76l7 37l77 1l32 167l-77 -1l8 38h76l37 190l48 2l52 -192l175 1l36 190h38l-37 -190l76 1l-7 -38h-76
l-33 -167h76l-7 -38h-76l-37 -188h-49z" />
    <glyph glyph-name="rupee" unicode="&#x20a8;" 
d="M232 -5l-65 282v3q71 67 101.5 117t30.5 101q0 91 -94 87l-114 -585h-44l120 619q88 12 131.5 -18t43.5 -95q0 -58 -29.5 -108t-101.5 -123l66 -270zM512 109q0 -61 -43.5 -94.5t-146.5 -20.5l2 43q39 -6 66.5 -6t42.5 5t23.5 16t11 22.5t2.5 28.5q0 36 -25.5 114.5
t-28.5 90.5q-35 -46 -80 -91l-16 17q58 72 86 123q0 5 -0.5 13t-0.5 13q0 53 24.5 98.5t49.5 45.5q16 0 21.5 -20t-6.5 -60.5t-44 -90.5q5 -29 33.5 -116.5t28.5 -130.5z" />
    <glyph glyph-name="Euro" unicode="&#x20ac;" 
d="M460 31q-165 -72 -257.5 -23.5t-97.5 195.5h-77l8 39h70q3 59 20 120h-68l8 38h73q40 103 111.5 168t155.5 65q71 0 101.5 -44t31.5 -133l-44 -5q-1 73 -21.5 108t-76.5 35q-68 0 -125 -55t-91 -141h234l-9 -36h-237q-18 -58 -21 -119h236l-9 -37h-227q12 -255 305 -145z
" />
    <glyph glyph-name="peso" unicode="&#x20b1;" 
d="M456 434q0 75 -59.5 117t-180.5 31l-30 -153h270v5zM150 243q129 1 206.5 41t94.5 110h-272zM564 391h-70q-21 -82 -112.5 -132t-240.5 -61l-38 -198h-44l75 391h-84l7 38h85l36 189q162 21 242 -31.5t80 -147.5v-10h71z" />
    <glyph glyph-name="rupeeindia" unicode="&#x20b9;" 
d="M432 11l-40 -23q-107 106 -166 149t-147 69l14 35q126 10 195 49.5t81 97.5h-255l7 37h251q-5 59 -60.5 102.5t-162.5 54.5l10 38h406l-11 -39h-276q63 -20 98.5 -62t39.5 -94h106l-6 -37h-103q-12 -66 -82.5 -111.5t-179.5 -58.5q64 -19 124.5 -65t156.5 -142z" />
    <glyph glyph-name="ruble" unicode="&#x20bd;" 
d="M493 462q0 140 -237 120l-52 -265q144 1 216.5 35t72.5 110zM400 133h-231l-26 -133h-45l26 133h-98l7 37h98l21 110q-32 -1 -97 -1l7 38h98l58 301q164 19 242 -23t78 -127q0 -176 -341 -187l-21 -112h234z" />
    <glyph glyph-name="numero" unicode="&#x2116;" 
d="M515 623q34 0 53 -31t19 -89q0 -106 -45.5 -185.5t-102.5 -79.5q-34 0 -53 31t-19 89q0 106 45.5 185.5t102.5 79.5zM207 0l-35 526h-2l-101 -526h-39l121 620h47l35 -503h2l97 503l38 -1l-120 -620zM408 365q0 -41 11.5 -64.5t29.5 -23.5q36 0 66.5 69t30.5 150
q0 41 -11.5 64.5t-29.5 23.5q-36 0 -66.5 -69t-30.5 -150zM515 140h-188l8 38h188z" />
    <glyph glyph-name="published" unicode="&#x2117;" 
d="M515 363q0 -157 -78.5 -256.5t-187.5 -99.5q-89 0 -146 68t-57 182q0 157 78.5 256.5t187.5 99.5q89 0 146 -68t57 -182zM306 583q-94 0 -161 -91.5t-67 -227.5q0 -103 50 -165t127 -62q94 0 161 91.5t67 227.5q0 103 -50 165t-127 62zM203 140h-35l65 341
q89 12 133 -12.5t44 -73.5q0 -53 -50 -88.5t-133 -44.5zM374 388q0 32 -27.5 51t-81.5 15l-31 -157q68 1 104 25t36 66z" />
    <glyph glyph-name="servicemark" unicode="&#x2120;" 
d="M395 346l-17 239h-3l-55 -288h-34l63 322l56 2l16 -227h2l100 226h57l-63 -323h-36l57 288h-3l-108 -239h-32zM280 539l-33 -4q-7 60 -44 60q-21 0 -35 -15.5t-14 -40.5q0 -21 14 -43.5t30.5 -39t30.5 -40t14 -46.5q0 -29 -17.5 -48.5t-57 -26.5t-104.5 12l6 34
q140 -41 140 25q0 19 -14 40.5t-30.5 38t-30.5 41t-14 48.5q0 38 26 64.5t64 26.5q61 0 69 -86z" />
    <glyph glyph-name="trademark" unicode="&#x2122;" 
d="M296 620l-7 -34h-73l-56 -287h-35l56 287h-75l7 34h183zM405 621l16 -227h2l100 226h57l-63 -323h-36l57 288h-3l-108 -239h-32l-17 239h-3l-55 -288h-34l63 322z" />
    <glyph glyph-name="Omega" unicode="&#x2126;" 
d="M179 4l-2 -4h-170l7 37h123q-42 148 -42 259q0 155 62.5 245t170.5 90q81 0 125.5 -50.5t44.5 -140.5q0 -174 -147 -403h114l-7 -37h-168l-1 4q166 259 166 424q0 78 -35 119.5t-98 41.5q-86 0 -135.5 -80.5t-49.5 -222.5q0 -117 42 -282z" />
    <glyph glyph-name="onethird" unicode="&#x2153;" 
d="M454 425h-284l7 34h130l54 279l-130 -11l4 28l133 19l12 61l39 3l-75 -379h119zM66 288l7 33h431l-7 -33h-431zM348 -103q0 -54 -67 -87.5t-220 -19.5l5 37q98 -11 152 -0.5t73.5 26t19.5 38.5q0 65 -178 100l3 19l199 141h-205l7 34h249l-4 -34l-199 -141
q165 -36 165 -113z" />
    <glyph glyph-name="twothirds" unicode="&#x2154;" 
d="M440 425h-273l-1 32q150 95 212 149t62 107q0 97 -199 68l6 36q114 17 173.5 -9.5t59.5 -87.5q0 -62 -59.5 -118.5t-195.5 -141.5h223zM66 288l7 33h431l-7 -33h-431zM348 -103q0 -54 -67 -87.5t-220 -19.5l5 37q98 -11 152 -0.5t73.5 26t19.5 38.5q0 65 -178 100l3 19
l199 141h-205l7 34h249l-4 -34l-199 -141q165 -36 165 -113z" />
    <glyph glyph-name="onefifth" unicode="&#x2155;" 
d="M454 425h-284l7 34h130l54 279l-130 -11l4 28l133 19l12 61l39 3l-75 -379h119zM66 288l7 33h431l-7 -33h-431zM348 -89q0 -58 -70 -95.5t-216 -25.5l5 37q71 -5 117.5 -1.5t75 17t40 28.5t11.5 34q0 70 -197 100l46 180h226l-10 -34h-190l-30 -120q192 -33 192 -120z
" />
    <glyph glyph-name="twofifths" unicode="&#x2156;" 
d="M440 425h-273l-1 32q150 95 212 149t62 107q0 97 -199 68l6 36q114 17 173.5 -9.5t59.5 -87.5q0 -62 -59.5 -118.5t-195.5 -141.5h223zM66 288l7 33h431l-7 -33h-431zM348 -89q0 -58 -70 -95.5t-216 -25.5l5 37q71 -5 117.5 -1.5t75 17t40 28.5t11.5 34q0 70 -197 100
l46 180h226l-10 -34h-190l-30 -120q192 -33 192 -120z" />
    <glyph glyph-name="threefifths" unicode="&#x2157;" 
d="M462 532q0 -54 -67 -87.5t-220 -19.5l5 37q98 -11 152 -0.5t73.5 26t19.5 38.5q0 65 -178 100l3 19l199 141h-205l7 34h249l-4 -34l-199 -141q165 -36 165 -113zM66 288l7 33h431l-7 -33h-431zM348 -89q0 -58 -70 -95.5t-216 -25.5l5 37q71 -5 117.5 -1.5t75 17t40 28.5
t11.5 34q0 70 -197 100l46 180h226l-10 -34h-190l-30 -120q192 -33 192 -120z" />
    <glyph glyph-name="fourfifths" unicode="&#x2158;" 
d="M476 514h-52l-18 -89h-35l17 89h-209l3 26q86 136 133 284l40 -2q-49 -151 -135 -275h175l27 141l37 4l-29 -145h57zM66 288l7 33h431l-7 -33h-431zM348 -89q0 -58 -70 -95.5t-216 -25.5l5 37q71 -5 117.5 -1.5t75 17t40 28.5t11.5 34q0 70 -197 100l46 180h226l-10 -34
h-190l-30 -120q192 -33 192 -120z" />
    <glyph glyph-name="onesixth" unicode="&#x2159;" 
d="M454 425h-284l7 34h130l54 279l-130 -11l4 28l133 19l12 61l39 3l-75 -379h119zM66 288l7 33h431l-7 -33h-431zM214 -219q-59 0 -97.5 36t-38.5 104q0 85 64 160t204 115l9 -34q-197 -51 -233 -182q51 42 107.5 47t93.5 -25.5t37 -83.5q0 -61 -42 -99t-104 -38zM220 -186
q47 0 76 27.5t29 70.5t-31.5 67t-81 18t-96.5 -46q-1 -8 -1 -23q0 -58 29.5 -86t75.5 -28z" />
    <glyph glyph-name="fivesixths" unicode="&#x215a;" 
d="M462 546q0 -58 -70 -95.5t-216 -25.5l5 37q71 -5 117.5 -1.5t75 17t40 28.5t11.5 34q0 70 -197 100l46 180h226l-10 -34h-190l-30 -120q192 -33 192 -120zM66 288l7 33h431l-7 -33h-431zM214 -219q-59 0 -97.5 36t-38.5 104q0 85 64 160t204 115l9 -34
q-197 -51 -233 -182q51 42 107.5 47t93.5 -25.5t37 -83.5q0 -61 -42 -99t-104 -38zM220 -186q47 0 76 27.5t29 70.5t-31.5 67t-81 18t-96.5 -46q-1 -8 -1 -23q0 -58 29.5 -86t75.5 -28z" />
    <glyph glyph-name="oneeighth" unicode="&#x215b;" 
d="M454 425h-284l7 34h130l54 279l-130 -11l4 28l133 19l12 61l39 3l-75 -379h119zM66 288l7 33h431l-7 -33h-431zM336 -118q0 -42 -41 -72t-103 -30q-55 0 -90 24t-35 63q0 30 26 60.5t100 74.5q-68 57 -68 99q0 47 60 74.5t163 9.5l-12 -38q-64 15 -103 10t-55 -18.5
t-16 -33.5q0 -29 63 -85q57 33 153 80l14 -23q-82 -40 -146 -75q28 -24 44.5 -39.5t31 -38t14.5 -42.5zM199 -187q44 0 72.5 19t28.5 46q0 16 -14.5 36t-28 32t-43.5 37q-64 -38 -86.5 -61.5t-22.5 -44.5q0 -29 26.5 -46.5t67.5 -17.5z" />
    <glyph glyph-name="threeeighths" unicode="&#x215c;" 
d="M462 532q0 -54 -67 -87.5t-220 -19.5l5 37q98 -11 152 -0.5t73.5 26t19.5 38.5q0 65 -178 100l3 19l199 141h-205l7 34h249l-4 -34l-199 -141q165 -36 165 -113zM66 288l7 33h431l-7 -33h-431zM336 -118q0 -42 -41 -72t-103 -30q-55 0 -90 24t-35 63q0 30 26 60.5
t100 74.5q-68 57 -68 99q0 47 60 74.5t163 9.5l-12 -38q-64 15 -103 10t-55 -18.5t-16 -33.5q0 -29 63 -85q57 33 153 80l14 -23q-82 -40 -146 -75q28 -24 44.5 -39.5t31 -38t14.5 -42.5zM199 -187q44 0 72.5 19t28.5 46q0 16 -14.5 36t-28 32t-43.5 37q-64 -38 -86.5 -61.5
t-22.5 -44.5q0 -29 26.5 -46.5t67.5 -17.5z" />
    <glyph glyph-name="fiveeighths" unicode="&#x215d;" 
d="M462 546q0 -58 -70 -95.5t-216 -25.5l5 37q71 -5 117.5 -1.5t75 17t40 28.5t11.5 34q0 70 -197 100l46 180h226l-10 -34h-190l-30 -120q192 -33 192 -120zM66 288l7 33h431l-7 -33h-431zM336 -118q0 -42 -41 -72t-103 -30q-55 0 -90 24t-35 63q0 30 26 60.5t100 74.5
q-68 57 -68 99q0 47 60 74.5t163 9.5l-12 -38q-64 15 -103 10t-55 -18.5t-16 -33.5q0 -29 63 -85q57 33 153 80l14 -23q-82 -40 -146 -75q28 -24 44.5 -39.5t31 -38t14.5 -42.5zM199 -187q44 0 72.5 19t28.5 46q0 16 -14.5 36t-28 32t-43.5 37q-64 -38 -86.5 -61.5
t-22.5 -44.5q0 -29 26.5 -46.5t67.5 -17.5z" />
    <glyph glyph-name="seveneighths" unicode="&#x215e;" 
d="M260 422l-41 5q116 198 255 357v2h-236l7 34h277l-7 -31q-143 -169 -255 -367zM66 288l7 33h431l-7 -33h-431zM336 -118q0 -42 -41 -72t-103 -30q-55 0 -90 24t-35 63q0 30 26 60.5t100 74.5q-68 57 -68 99q0 47 60 74.5t163 9.5l-12 -38q-64 15 -103 10t-55 -18.5
t-16 -33.5q0 -29 63 -85q57 33 153 80l14 -23q-82 -40 -146 -75q28 -24 44.5 -39.5t31 -38t14.5 -42.5zM199 -187q44 0 72.5 19t28.5 46q0 16 -14.5 36t-28 32t-43.5 37q-64 -38 -86.5 -61.5t-22.5 -44.5q0 -29 26.5 -46.5t67.5 -17.5z" />
    <glyph glyph-name="minus" unicode="&#x2212;" 
d="M480 305l-8 -37h-384l8 37h384z" />
    <glyph glyph-name="approxequal" unicode="&#x2248;" 
d="M382 310q-27 0 -50.5 19t-38 42t-34 42t-38.5 19q-24 0 -49.5 -29.5t-62.5 -88.5l-26 15q44 75 76.5 107.5t68.5 32.5q27 0 50.5 -19t38 -42t33.5 -42t37 -19q24 0 50 29.5t61 86.5l26 -15q-44 -75 -75 -106.5t-67 -31.5zM343 106q-27 0 -51 19t-38.5 42t-34 42t-38.5 19
q-24 0 -49.5 -29.5t-62.5 -88.5l-25 15q43 74 76 107t69 33q27 0 50.5 -19t38 -42t33.5 -42t37 -19q24 0 50 29.5t60 86.5l26 -15q-43 -75 -74 -106.5t-67 -31.5z" />
    <glyph glyph-name="notequal" unicode="&#x2260;" 
d="M452 160h-221l-83 -146l-32 12l76 134h-124l7 37h138l106 187h-208l7 37h222l82 145l32 -12l-75 -133h124l-8 -37h-137l-106 -187h208z" />
    <glyph glyph-name="lessequal" unicode="&#x2264;" 
d="M159 343l-2 -8l275 -177l-22 -31l-301 194l9 40l371 213l15 -34zM432 61l-6 -37h-384l6 37h384z" />
    <glyph glyph-name="greaterequal" unicode="&#x2265;" 
d="M433 343l-265 201l23 31l289 -221l-7 -37l-375 -194l-13 35l346 177zM432 61l-6 -37h-384l6 37h384z" />
    <glyph glyph-name="hcoslug" unicode="&#xe10b;" 
d="M500 700v-800h-450v800h450zM200 296q0 22 20 22q22 0 22 -29q0 -17 -14 -37q-28 26 -28 44zM249 232q17 11 31 25q22 -22 -1 -60q-23 28 -30 35zM210 139q-16 0 -27.5 12t-11.5 29q0 18 12 30q28 -26 56 -62q-12 -9 -29 -9zM301 173q15 20 35 32q10 -19 32 -19
q16 0 26.5 11.5t10.5 28.5q0 18 -10.5 28.5t-26.5 10.5q-26 0 -45 -28q-3 28 -37 28q7 10 7 25q0 21 -19.5 38.5t-51.5 17.5q-37 0 -59.5 -19.5t-22.5 -44.5q0 -28 23 -52q-61 -20 -61 -68q0 -30 23.5 -50t57.5 -20q47 0 78 34q33 -34 64 -34q25 0 42 19.5t18 51.5l-5 1
q-14 -22 -32 -22q-20 0 -47 31zM229 68l-9 -1v-7h-5v-5h5v-15q0 -10 9 -10q8 0 11 10l-4 1q-1 -5 -4 -5t-3 4v15h10v5h-10v8zM145 46q0 -16 16 -16t16 16q0 15 -16 15t-16 -15zM167 46q0 -12 -6 -12t-6 12q0 11 6 11t6 -11zM299 45q0 -10 -5 -10q-6 0 -6 10t6 10q5 0 5 -10z
M179 36v-5h16v5h-3v11q0 8 6 8q4 0 4 -6v-13h-3v-5h17v5h-5v14q0 11 -9 11q-6 0 -10 -7v6h-13v-5h4v-19h-4zM108 36v-5h23v5h-7v12h3q4 0 5 -6h5v17h-5q-1 -6 -5 -6h-3v14h8q6 0 9 -10h5v15h-38v-5h6v-31h-6zM241 41v-10h5l1 3q4 -4 10 -4q10 0 10 9q0 6 -9 9t-9 5q0 3 4 3
t8 -5h5v10h-5l-1 -4q-3 4 -8 4q-11 0 -11 -9q0 -7 9 -9.5t9 -5.5t-4 -3t-9 7h-5zM279 69v-39h4l3 6q3 -6 11 -6q12 0 12 16q0 15 -12 15q-7 0 -9 -7v20h-14v-5h5zM318 24q2 2 0.5 4.5t-4.5 2.5q-5 0 -5 -5q0 -7 9 -7q8 0 13 12l10 24h4v5h-13v-5h4l-6 -15l-7 15h4v5h-18v-5
h3q9 -18 12 -25q0 -6 -6 -6zM363 0h-14v-6h5q-2 -4 -5 -7q-2 2 -5 5.5t-4 4.5q8 5 8 10q0 9 -10 9q-13 0 -13 -11q0 -5 5 -10q-10 -3 -10 -11q0 -10 12 -10q8 0 13 5q5 -5 9 -5q7 0 9 9l-3 1q-1 -4 -3 -4q-1 0 -5 4q4 4 7 10h4v6zM235 4v4q0 8 4 8l3 -1q-1 -1 -1 -3
q0 -4 5 -4v-4h-11zM367 -5q0 -21 21 -21q16 0 18 17h-6q-2 -12 -10 -12q-12 0 -12 17t10 17q7 0 11 -12h6v16h-6v-4q-5 5 -12 5q-20 0 -20 -23zM338 -1q-5 5 -5 8q0 4 4 4q5 0 5 -5t-4 -7zM270 -12h19q2 17 -14 17q-15 0 -15 -16q0 -15 16 -15q11 0 13 11h-5q-2 -6 -7 -6
q-7 0 -7 9zM200 -12h19q2 17 -14 17q-15 0 -15 -16q0 -15 16 -15q11 0 13 11h-5q-2 -6 -7 -6q-7 0 -7 9zM156 -10q0 -16 16 -16t16 16q0 15 -16 15t-16 -15zM408 -10q0 -16 16 -16t16 16q0 15 -16 15t-16 -15zM270 -8q0 9 5 9t5 -9h-10zM200 -8q0 9 5 9t5 -9h-10zM178 -10
q0 -12 -6 -12t-6 12q0 11 6 11t6 -11zM430 -10q0 -12 -6 -12t-6 12q0 11 6 11t6 -11zM222 -20v-5h17v5h-4v19h11v-19h-4v-5h17v5h-4v39l-8 -2q-4 2 -8 2q-13 0 -13 -14v-1h-5v-5h5v-19h-4zM291 -20v-5h19v5h-6v12q2 7 5 7v-1q0 -4 5 -4t5 5q0 6 -6 6t-9 -7v6h-13v-5h4v-19
h-4zM108 -20v-5h21v5h-5v14h16v-14h-5v-5h21v5h-6v31h6v5h-21v-5h5v-12h-16v12h5v5h-21v-5h6v-31h-6zM342 -18q-3 -3 -6 -3q-7 0 -7 7q0 4 3 7q2 -2 5.5 -6t4.5 -5zM453 -20q0 6 -6 6t-6 -6t6 -6t6 6z" />
    <glyph glyph-name="check.1" unicode="&#xe10c;" 
d="M571 640q-210 -303 -359 -662h-39l-79 358l41 13l64 -312h3q136 341 327 627z" />
    <glyph glyph-name="check.2" unicode="&#xe10d;" 
d="M318 -3l-75 238l-172 -232l-27 15l185 258l-67 202l42 13l57 -179l249 354l41 -24l-276 -371l86 -268z" />
    <glyph glyph-name="NUL" horiz-adv-x="0" 
 />
    <glyph glyph-name="zero.alt" 
d="M69 217q0 107 35.5 201.5t99 153.5t139.5 59q77 0 121.5 -58t44.5 -169q0 -107 -35.5 -202t-99 -154t-139.5 -59q-77 0 -121.5 58.5t-44.5 169.5zM113 224q0 -96 34.5 -145.5t96.5 -49.5q94 0 157.5 111.5t63.5 255.5q0 97 -34 146t-97 49q-62 0 -113.5 -53.5t-79.5 -137
t-28 -176.5z" />
    <glyph glyph-name="colon.alt" 
d="M360 437h-75l18 87h75zM287 97h-75l18 87h76z" />
    <glyph glyph-name="guillemotleft.cap" 
d="M208 60l-134 228l12 48l220 226l30 -28l-227 -226l137 -224zM435 60l-132 229l13 48l222 224l30 -28l-230 -224l135 -226z" />
    <glyph glyph-name="guillemotright.cap" 
d="M291 59l-30 28l227 226l-137 224l38 24l134 -228l-12 -48zM59 60l-30 28l230 224l-135 226l38 23l132 -229l-13 -48z" />
    <glyph glyph-name="guilsinglleft.cap" 
d="M340 56l-196 233l13 48l288 227l26 -33l-287 -222l189 -223z" />
    <glyph glyph-name="guilsinglright.cap" 
d="M126 57l-26 33l287 222l-189 223l33 30l196 -233l-13 -48z" />
    <glyph glyph-name="parenleft.cap" 
d="M521 761l23 -34q-193 -120 -278 -231t-85 -230q0 -177 210 -390l-34 -27q-218 226 -218 417q0 126 91 245.5t291 249.5z" />
    <glyph glyph-name="parenright.cap" 
d="M45 -165l-23 34q193 120 278 231t85 230q0 177 -210 390l34 27q218 -226 218 -417q0 -126 -91 -245.5t-291 -249.5z" />
    <glyph glyph-name="bracketleft.cap" 
d="M79 -129l169 868h302l-8 -37h-260l-154 -794h260l-7 -37h-302z" />
    <glyph glyph-name="bracketright.cap" 
d="M490 740l-169 -868h-302l8 37h260l154 794h-260l7 37h302z" />
    <glyph glyph-name="braceleft.cap" 
d="M385 -154q-137 61 -194 103.5t-57 88.5q0 29 19 56t42 45t42 40t19 41q0 59 -146 72l5 33q180 12 180 83q0 20 -35 74t-35 87q0 118 326 196l8 -41q-294 -62 -294 -146q0 -25 35.5 -81t35.5 -80q0 -33 -33 -63t-98 -45q93 -23 93 -81q0 -24 -19 -48.5t-41 -42t-41 -42
t-19 -48.5q0 -37 52 -74t175 -90z" />
    <glyph glyph-name="braceright.cap" 
d="M17 -153l-8 41q294 62 294 146q0 25 -35.5 81t-35.5 80q0 33 33 63t98 45q-93 23 -93 81q0 24 19 48.5t41 42t41 42t19 48.5q0 37 -52 74t-175 90l20 37q137 -61 194 -103.5t57 -88.5q0 -29 -19 -56t-42 -45t-42 -40t-19 -41q0 -59 146 -72l-5 -33q-180 -12 -180 -83
q0 -20 35 -74t35 -87q0 -118 -326 -196z" />
    <glyph glyph-name="registered.alt" 
d="M46 257q0 157 78.5 256.5t187.5 99.5q89 0 146 -68t57 -182q0 -157 -78.5 -256.5t-187.5 -99.5q-89 0 -146 68t-57 182zM78 264q0 -103 50 -165t127 -62q94 0 161 91.5t67 227.5q0 103 -50 165t-127 62q-94 0 -161 -91.5t-67 -227.5zM339 141l-92 159q61 28 87.5 52
t26.5 54q0 28 -25.5 42t-74.5 10l-61 -315h-36l67 341q83 12 124 -8.5t41 -63.5q0 -37 -25 -65.5t-77 -55.5l86 -146z" />
    <glyph glyph-name="asterisk.alt" 
d="M341 557l-21 5l23 127l46 -13zM271 551l-16 -17l-98 83l34 34zM383 498l-7 23l121 43l13 -46zM241 486l7 -23l-121 -43l-13 46zM354 433l15 17l98 -83l-33 -34zM283 426l21 -5l-22 -126l-46 12z" />
    <glyph glyph-name="bullet.alt" 
d="M356 204h-177l36 184h177z" />
    <glyph glyph-name="R_p" 
d="M216 -5l-65 282v3q71 67 101.5 117t30.5 101q0 91 -94 87l-114 -585h-44l120 619q88 12 131.5 -18t43.5 -95q0 -58 -29.5 -108t-101.5 -123l66 -270zM383 34q45 0 86 112t41 224q0 80 -33 80q-27 0 -72 -48q-23 -128 -68 -358q27 -10 46 -10zM295 -172l-42 -4
q96 500 122 655l42 3l-7 -45q49 54 86 54q55 0 55 -112q0 -89 -24 -177t-67 -147t-92 -59q-18 0 -39 7q-7 -34 -19 -96t-15 -79z" />
    <glyph glyph-name="f.lig" 
d="M394 0q0 -65 -50 -108t-116 -43q-63 0 -104 51.5t-41 158.5q0 98 35 213l-29 17l6 23h36q57 162 154.5 277t192.5 115q30 0 50.5 -12t28 -34t2 -50.5t-29 -65t-63.5 -74.5l-18 15q47 50 63 91.5t2.5 63.5t-48.5 22q-76 0 -158 -102t-134 -246l314 -2l-6 -36l-301 3
q214 -146 214 -277zM243 -113q47 0 81 29.5t34 79.5q0 121 -203 260q-29 -106 -29 -193q0 -93 32.5 -134.5t84.5 -41.5z" />
    <glyph glyph-name="l.ultra" 
d="M443 66q-144 -91 -227.5 -67t-83.5 161q0 128 49.5 257.5t121 208.5t135.5 79q40 0 62 -25t22 -70q0 -93 -83 -211t-262 -249q5 -101 70 -114t183 56zM425 661q-37 0 -80 -41.5t-79.5 -106.5t-62 -153t-27.5 -173q159 119 231 223t72 184q0 32 -14.5 49.5t-39.5 17.5z
" />
    <glyph glyph-name="fraction.afrc" 
d="M66 288l7 33h431l-7 -33h-431z" />
    <glyph glyph-name="zero.num" 
d="M187 569q0 104 55 181.5t135 77.5q56 0 89 -40.5t33 -113.5q0 -104 -55 -181.5t-135 -77.5q-56 0 -89 40.5t-33 113.5zM461 670q0 60 -24 92t-67 32q-63 0 -104 -66.5t-41 -154.5q0 -60 24 -92t67 -32q63 0 104 66.5t41 154.5z" />
    <glyph glyph-name="one.num" 
d="M454 425h-284l7 34h130l54 279l-130 -11l4 28l133 19l12 61l39 3l-75 -379h119z" />
    <glyph glyph-name="two.num" 
d="M440 425h-273l-1 32q150 95 212 149t62 107q0 97 -199 68l6 36q114 17 173.5 -9.5t59.5 -87.5q0 -62 -59.5 -118.5t-195.5 -141.5h223z" />
    <glyph glyph-name="three.num" 
d="M462 532q0 -54 -67 -87.5t-220 -19.5l5 37q98 -11 152 -0.5t73.5 26t19.5 38.5q0 65 -178 100l3 19l199 141h-205l7 34h249l-4 -34l-199 -141q165 -36 165 -113z" />
    <glyph glyph-name="four.num" 
d="M476 514h-52l-18 -89h-35l17 89h-209l3 26q86 136 133 284l40 -2q-49 -151 -135 -275h175l27 141l37 4l-29 -145h57z" />
    <glyph glyph-name="five.num" 
d="M462 546q0 -58 -70 -95.5t-216 -25.5l5 37q71 -5 117.5 -1.5t75 17t40 28.5t11.5 34q0 70 -197 100l46 180h226l-10 -34h-190l-30 -120q192 -33 192 -120z" />
    <glyph glyph-name="six.num" 
d="M328 416q-59 0 -97.5 36t-38.5 104q0 85 64 160t204 115l9 -34q-197 -51 -233 -182q51 42 107.5 47t93.5 -25.5t37 -83.5q0 -61 -42 -99t-104 -38zM334 449q47 0 76 27.5t29 70.5t-31.5 67t-81 18t-96.5 -46q-1 -8 -1 -23q0 -58 29.5 -86t75.5 -28z" />
    <glyph glyph-name="seven.num" 
d="M260 422l-41 5q116 198 255 357v2h-236l7 34h277l-7 -31q-143 -169 -255 -367z" />
    <glyph glyph-name="eight.num" 
d="M450 517q0 -42 -41 -72t-103 -30q-55 0 -90 24t-35 63q0 30 26 60.5t100 74.5q-68 57 -68 99q0 47 60 74.5t163 9.5l-12 -38q-64 15 -103 10t-55 -18.5t-16 -33.5q0 -29 63 -85q57 33 153 80l14 -23q-82 -40 -146 -75q28 -24 44.5 -39.5t31 -38t14.5 -42.5zM313 448
q44 0 72.5 19t28.5 46q0 16 -14.5 36t-28 32t-43.5 37q-64 -38 -86.5 -61.5t-22.5 -44.5q0 -29 26.5 -46.5t67.5 -17.5z" />
    <glyph glyph-name="nine.num" 
d="M225 415l-9 34q197 51 233 182q-51 -42 -107.5 -47t-93.5 25.5t-37 83.5q0 61 42 99t104 38q59 0 97.5 -36t38.5 -104q0 -85 -64 -160t-204 -115zM246 699q0 -43 31.5 -67t81 -18t96.5 46q1 8 1 23q0 58 -29.5 86t-75.5 28q-47 0 -76 -27.5t-29 -70.5z" />
    <glyph glyph-name="zero.den" 
d="M73 -66q0 104 55 181.5t135 77.5q56 0 89 -40.5t33 -113.5q0 -104 -55 -181.5t-135 -77.5q-56 0 -89 40.5t-33 113.5zM347 35q0 60 -24 92t-67 32q-63 0 -104 -66.5t-41 -154.5q0 -60 24 -92t67 -32q63 0 104 66.5t41 154.5z" />
    <glyph glyph-name="one.den" 
d="M340 -210h-284l7 34h130l54 279l-130 -11l4 28l133 19l12 61l39 3l-75 -379h119z" />
    <glyph glyph-name="two.den" 
d="M326 -210h-273l-1 32q150 95 212 149t62 107q0 97 -199 68l6 36q114 17 173.5 -9.5t59.5 -87.5q0 -62 -59.5 -118.5t-195.5 -141.5h223z" />
    <glyph glyph-name="three.den" 
d="M348 -103q0 -54 -67 -87.5t-220 -19.5l5 37q98 -11 152 -0.5t73.5 26t19.5 38.5q0 65 -178 100l3 19l199 141h-205l7 34h249l-4 -34l-199 -141q165 -36 165 -113z" />
    <glyph glyph-name="four.den" 
d="M362 -121h-52l-18 -89h-35l17 89h-209l3 26q86 136 133 284l40 -2q-49 -151 -135 -275h175l27 141l37 4l-29 -145h57z" />
    <glyph glyph-name="five.den" 
d="M348 -89q0 -58 -70 -95.5t-216 -25.5l5 37q71 -5 117.5 -1.5t75 17t40 28.5t11.5 34q0 70 -197 100l46 180h226l-10 -34h-190l-30 -120q192 -33 192 -120z" />
    <glyph glyph-name="six.den" 
d="M214 -219q-59 0 -97.5 36t-38.5 104q0 85 64 160t204 115l9 -34q-197 -51 -233 -182q51 42 107.5 47t93.5 -25.5t37 -83.5q0 -61 -42 -99t-104 -38zM220 -186q47 0 76 27.5t29 70.5t-31.5 67t-81 18t-96.5 -46q-1 -8 -1 -23q0 -58 29.5 -86t75.5 -28z" />
    <glyph glyph-name="seven.den" 
d="M146 -213l-41 5q116 198 255 357v2h-236l7 34h277l-7 -31q-143 -169 -255 -367z" />
    <glyph glyph-name="eight.den" 
d="M336 -118q0 -42 -41 -72t-103 -30q-55 0 -90 24t-35 63q0 30 26 60.5t100 74.5q-68 57 -68 99q0 47 60 74.5t163 9.5l-12 -38q-64 15 -103 10t-55 -18.5t-16 -33.5q0 -29 63 -85q57 33 153 80l14 -23q-82 -40 -146 -75q28 -24 44.5 -39.5t31 -38t14.5 -42.5zM199 -187
q44 0 72.5 19t28.5 46q0 16 -14.5 36t-28 32t-43.5 37q-64 -38 -86.5 -61.5t-22.5 -44.5q0 -29 26.5 -46.5t67.5 -17.5z" />
    <glyph glyph-name="nine.den" 
d="M111 -220l-9 34q197 51 233 182q-51 -42 -107.5 -47t-93.5 25.5t-37 83.5q0 61 42 99t104 38q59 0 97.5 -36t38.5 -104q0 -85 -64 -160t-204 -115zM132 64q0 -43 31.5 -67t81 -18t96.5 46q1 8 1 23q0 58 -29.5 86t-75.5 28q-47 0 -76 -27.5t-29 -70.5z" />
    <glyph glyph-name="zero.small" 
d="M109 144q0 104 55 181.5t135 77.5q56 0 89 -40.5t33 -113.5q0 -104 -55 -181.5t-135 -77.5q-56 0 -89 40.5t-33 113.5zM383 245q0 60 -24 92t-67 32q-63 0 -104 -66.5t-41 -154.5q0 -60 24 -92t67 -32q63 0 104 66.5t41 154.5z" />
    <glyph glyph-name="one.small" 
d="M376 0h-284l7 34h130l54 279l-130 -11l4 28l133 19l12 61l39 3l-75 -379h119z" />
    <glyph glyph-name="two.small" 
d="M362 0h-273l-1 32q150 95 212 149t62 107q0 97 -199 68l6 36q114 17 173.5 -9.5t59.5 -87.5q0 -62 -59.5 -118.5t-195.5 -141.5h223z" />
    <glyph glyph-name="three.small" 
d="M384 107q0 -54 -67 -87.5t-220 -19.5l5 37q98 -11 152 -0.5t73.5 26t19.5 38.5q0 65 -178 100l3 19l199 141h-205l7 34h249l-4 -34l-199 -141q165 -36 165 -113z" />
    <glyph glyph-name="four.small" 
d="M398 89h-52l-18 -89h-35l17 89h-209l3 26q86 136 133 284l40 -2q-49 -151 -135 -275h175l27 141l37 4l-29 -145h57z" />
    <glyph glyph-name="five.small" 
d="M384 121q0 -58 -70 -95.5t-216 -25.5l5 37q71 -5 117.5 -1.5t75 17t40 28.5t11.5 34q0 70 -197 100l46 180h226l-10 -34h-190l-30 -120q192 -33 192 -120z" />
    <glyph glyph-name="six.small" 
d="M250 -9q-59 0 -97.5 36t-38.5 104q0 85 64 160t204 115l9 -34q-197 -51 -233 -182q51 42 107.5 47t93.5 -25.5t37 -83.5q0 -61 -42 -99t-104 -38zM256 24q47 0 76 27.5t29 70.5t-31.5 67t-81 18t-96.5 -46q-1 -8 -1 -23q0 -58 29.5 -86t75.5 -28z" />
    <glyph glyph-name="seven.small" 
d="M182 -3l-41 5q116 198 255 357v2h-236l7 34h277l-7 -31q-143 -169 -255 -367z" />
    <glyph glyph-name="eight.small" 
d="M372 92q0 -42 -41 -72t-103 -30q-55 0 -90 24t-35 63q0 30 26 60.5t100 74.5q-68 57 -68 99q0 47 60 74.5t163 9.5l-12 -38q-64 15 -103 10t-55 -18.5t-16 -33.5q0 -29 63 -85q57 33 153 80l14 -23q-82 -40 -146 -75q28 -24 44.5 -39.5t31 -38t14.5 -42.5zM235 23
q44 0 72.5 19t28.5 46q0 16 -14.5 36t-28 32t-43.5 37q-64 -38 -86.5 -61.5t-22.5 -44.5q0 -29 26.5 -46.5t67.5 -17.5z" />
    <glyph glyph-name="nine.small" 
d="M147 -10l-9 34q197 51 233 182q-51 -42 -107.5 -47t-93.5 25.5t-37 83.5q0 61 42 99t104 38q59 0 97.5 -36t38.5 -104q0 -85 -64 -160t-204 -115zM168 274q0 -43 31.5 -67t81 -18t96.5 46q1 8 1 23q0 58 -29.5 86t-75.5 28q-47 0 -76 -27.5t-29 -70.5z" />
    <glyph glyph-name="caron.alt" 
d="M282 797l58 4q4 -132 -98 -249l-20 12q47 65 57 116.5t3 116.5z" />
    <glyph glyph-name="commaaccent.rot" 
d="M342 742q-39 -51 -47.5 -99t4.5 -86l-61 -3q-7 100 87 198z" />
    <glyph glyph-name="underscore.alt" 
d="M511 -50l-7 -36h-569l7 36h569z" />
    </font>
</defs>
</svg>
