<?xml version="1.0" standalone="no"?>
<!DOCTYPE svg PUBLIC "-//W3C//DTD SVG 1.1//EN" "http://www.w3.org/Graphics/SVG/1.1/DTD/svg11.dtd" >
<svg xmlns="http://www.w3.org/2000/svg">
<metadata>Generated by IcoMoon</metadata>
<defs>
<font id="icomoon" horiz-adv-x="1024">
<font-face units-per-em="1024" ascent="960" descent="-64" />
<missing-glyph horiz-adv-x="1024" />
<glyph unicode="&#x20;" horiz-adv-x="512" d="" />
<glyph unicode="&#xe900;" d="M774.687 813.714c16.505 0 29.884-11.022 29.884-24.619v-292.7l-268.19-48.396v365.714h238.306zM487.619 813.714v-367.333l-268.19-47.143v390.495c0 13.245 13.38 23.982 29.884 23.982h238.306zM219.429 106.697v234.687l585.143 106.616v-341.303c0-13.482-13.133-24.411-29.332-24.411h-526.478c-16.2 0-29.332 10.929-29.332 24.411z" />
<glyph unicode="&#xe901;" d="M219.429 911.238h577.016c53.861 0 97.524-43.663 97.524-97.524v-731.429c0-53.861-43.663-97.524-97.524-97.524h-577.016c-53.861 0-97.524 43.663-97.524 97.524v731.429c0 53.861 43.663 97.524 97.524 97.524zM219.429 886.857c-40.396 0-73.143-32.747-73.143-73.143v-731.429c0-40.396 32.747-73.143 73.143-73.143h577.016c40.396 0 73.143 32.747 73.143 73.143v731.429c0 40.396-32.747 73.143-73.143 73.143h-577.016zM414.476 569.905h-96.762v20.952l44.571 46.857c5.905 6.73 10.127 12.492 12.667 17.286s3.81 8.968 3.81 12.524c0 5.968-1.302 10.508-3.905 13.619s-6.381 4.667-11.333 4.667c-2.476 0-4.73-0.556-6.762-1.667s-3.762-2.651-5.19-4.619c-1.429-1.968-2.54-4.27-3.333-6.905s-1.19-5.508-1.19-8.619h-32.19c0 6.349 1.19 12.349 3.571 18s5.746 10.603 10.095 14.857c4.349 4.254 9.556 7.603 15.619 10.048s12.778 3.667 20.143 3.667c7.683 0 14.429-0.905 20.238-2.714s10.683-4.429 14.619-7.857c3.937-3.429 6.905-7.635 8.905-12.619s3-10.651 3-17c0-4.825-0.762-9.444-2.286-13.857s-3.714-8.81-6.571-13.19c-2.857-4.381-6.349-8.857-10.476-13.429s-8.762-9.429-13.905-14.571l-17.905-20.667h54.571v-24.762zM505.524 262.571h15.619c5.968 0 10.381 1.571 13.238 4.714s4.286 7.444 4.286 12.905c0 2.095-0.333 4.079-1 5.952s-1.667 3.524-3 4.952c-1.333 1.429-3.032 2.556-5.095 3.381s-4.492 1.238-7.286 1.238c-1.968 0-3.889-0.302-5.762-0.905s-3.556-1.46-5.048-2.571c-1.492-1.111-2.698-2.46-3.619-4.048s-1.381-3.397-1.381-5.429h-32.095c0 5.905 1.27 11.19 3.81 15.857s5.968 8.619 10.286 11.857c4.317 3.238 9.286 5.714 14.905 7.429s11.54 2.571 17.762 2.571c7.365 0 14.095-0.857 20.19-2.571s11.317-4.238 15.667-7.571c4.349-3.333 7.73-7.46 10.143-12.381s3.619-10.619 3.619-17.095c0-3.175-0.508-6.222-1.524-9.143s-2.444-5.667-4.286-8.238c-1.841-2.571-4.095-4.905-6.762-7s-5.619-3.905-8.857-5.429c7.365-2.667 13.143-6.714 17.333-12.143s6.286-12.143 6.286-20.143c0-6.476-1.317-12.254-3.952-17.333s-6.27-9.365-10.905-12.857c-4.635-3.492-10.111-6.143-16.429-7.952s-13.159-2.714-20.524-2.714c-3.873 0-7.762 0.349-11.667 1.048s-7.667 1.746-11.286 3.143c-3.619 1.397-7.016 3.19-10.19 5.381s-5.921 4.794-8.238 7.81c-2.317 3.016-4.159 6.429-5.524 10.238s-2.048 8.095-2.048 12.857h32.286c0-2.222 0.476-4.286 1.429-6.19s2.238-3.571 3.857-5c1.619-1.429 3.508-2.54 5.667-3.333s4.444-1.19 6.857-1.19c2.921 0 5.54 0.429 7.857 1.286s4.27 2.048 5.857 3.571c1.587 1.524 2.794 3.302 3.619 5.333s1.238 4.222 1.238 6.571c0 6.984-1.746 11.936-5.238 14.857s-8.317 4.381-14.476 4.381h-15.619v23.905zM681.429 569.905h-32.19v102.476l-31.619-9.238v24.381l60.857 21.048h2.952v-138.667z" />
<glyph unicode="&#xe902;" d="M774.687 813.714c16.505 0 29.884-11.022 29.884-24.619v-292.7l-268.19-48.396v365.714h238.306zM487.619 813.714v-367.333l-268.19-47.143v390.495c0 13.245 13.38 23.982 29.884 23.982h238.306zM219.429 106.697v234.687l585.143 106.616v-341.303c0-13.482-13.133-24.411-29.332-24.411h-526.478c-16.2 0-29.332 10.929-29.332 24.411z" />
<glyph unicode="&#xe903;" d="M219.429 911.238h577.016c53.861 0 97.524-43.663 97.524-97.524v-731.429c0-53.861-43.663-97.524-97.524-97.524h-577.016c-53.861 0-97.524 43.663-97.524 97.524v731.429c0 53.861 43.663 97.524 97.524 97.524zM219.429 886.857c-40.396 0-73.143-32.747-73.143-73.143v-731.429c0-40.396 32.747-73.143 73.143-73.143h577.016c40.396 0 73.143 32.747 73.143 73.143v731.429c0 40.396-32.747 73.143-73.143 73.143h-577.016zM388.857 569.905h-32.19v102.476l-31.619-9.238v24.381l60.857 21.048h2.952v-138.667zM505.524 262.571h15.619c5.968 0 10.381 1.571 13.238 4.714s4.286 7.444 4.286 12.905c0 2.095-0.333 4.079-1 5.952s-1.667 3.524-3 4.952c-1.333 1.429-3.032 2.556-5.095 3.381s-4.492 1.238-7.286 1.238c-1.968 0-3.889-0.302-5.762-0.905s-3.556-1.46-5.048-2.571c-1.492-1.111-2.698-2.46-3.619-4.048s-1.381-3.397-1.381-5.429h-32.095c0 5.905 1.27 11.19 3.81 15.857s5.968 8.619 10.286 11.857c4.317 3.238 9.286 5.714 14.905 7.429s11.54 2.571 17.762 2.571c7.365 0 14.095-0.857 20.19-2.571s11.317-4.238 15.667-7.571c4.349-3.333 7.73-7.46 10.143-12.381s3.619-10.619 3.619-17.095c0-3.175-0.508-6.222-1.524-9.143s-2.444-5.667-4.286-8.238c-1.841-2.571-4.095-4.905-6.762-7s-5.619-3.905-8.857-5.429c7.365-2.667 13.143-6.714 17.333-12.143s6.286-12.143 6.286-20.143c0-6.476-1.317-12.254-3.952-17.333s-6.27-9.365-10.905-12.857c-4.635-3.492-10.111-6.143-16.429-7.952s-13.159-2.714-20.524-2.714c-3.873 0-7.762 0.349-11.667 1.048s-7.667 1.746-11.286 3.143c-3.619 1.397-7.016 3.19-10.19 5.381s-5.921 4.794-8.238 7.81c-2.317 3.016-4.159 6.429-5.524 10.238s-2.048 8.095-2.048 12.857h32.286c0-2.222 0.476-4.286 1.429-6.19s2.238-3.571 3.857-5c1.619-1.429 3.508-2.54 5.667-3.333s4.444-1.19 6.857-1.19c2.921 0 5.54 0.429 7.857 1.286s4.27 2.048 5.857 3.571c1.587 1.524 2.794 3.302 3.619 5.333s1.238 4.222 1.238 6.571c0 6.984-1.746 11.936-5.238 14.857s-8.317 4.381-14.476 4.381h-15.619v23.905zM707.048 569.905h-96.762v20.952l44.571 46.857c5.905 6.73 10.127 12.492 12.667 17.286s3.81 8.968 3.81 12.524c0 5.968-1.302 10.508-3.905 13.619s-6.381 4.667-11.333 4.667c-2.476 0-4.73-0.556-6.762-1.667s-3.762-2.651-5.19-4.619c-1.429-1.968-2.54-4.27-3.333-6.905s-1.19-5.508-1.19-8.619h-32.19c0 6.349 1.19 12.349 3.571 18s5.746 10.603 10.095 14.857c4.349 4.254 9.556 7.603 15.619 10.048s12.778 3.667 20.143 3.667c7.683 0 14.429-0.905 20.238-2.714s10.683-4.429 14.619-7.857c3.937-3.429 6.905-7.635 8.905-12.619s3-10.651 3-17c0-4.825-0.762-9.444-2.286-13.857s-3.714-8.81-6.571-13.19c-2.857-4.381-6.349-8.857-10.476-13.429s-8.762-9.429-13.905-14.571l-17.905-20.667h54.571v-24.762z" />
<glyph unicode="&#xe904;" glyph-name="ic_episode" d="M197.12 722.651v-98.743l65.463-27.429 65.463 27.429v98.743l-65.463 27.429-65.463-27.429zM424.229 707.291h402.651v-68.023h-402.651v68.023zM197.12 497.371v-98.743l65.463-27.429 65.463 27.429v98.743l-65.463 27.429-65.463-27.429zM424.229 482.011h402.651v-68.023h-402.651v68.023zM197.12 272.091v-98.743l65.463-27.429 65.463 27.429v98.743l-65.463 27.429-65.463-27.429zM424.229 256.731h402.651v-68.023h-402.651v68.023z" />
<glyph unicode="&#xe905;" glyph-name="ic_bf-slide" d="M404.48 236.251l1.463 73.143h69.486v-73.143c-0.19-27.804-11.519-54.37-31.453-73.754s-46.807-29.966-74.605-29.378h-228.571c-57.22-0.203-103.826 45.912-104.229 103.131v423.497c0.403 57.219 47.009 103.334 104.229 103.131h228.571c27.798 0.588 54.671-9.994 74.605-29.378s31.263-45.95 31.453-73.754v-73.143h-69.486v73.143c-1.162 19.336-17.2 34.412-36.571 34.377h-228.571c-19.371 0.035-35.409-15.041-36.571-34.377v-423.497c1.162-19.336 17.2-34.412 36.571-34.377h227.109c19.371-0.035 35.409 15.041 36.571 34.377zM883.2 762.88c57.22 0.203 103.826-45.912 104.229-103.131v-423.497c-0.191-27.739-11.47-54.249-31.324-73.622s-46.632-29.999-74.367-29.51h-228.571c-27.546-0.195-54.042 10.562-73.657 29.903s-30.744 45.682-30.937 73.229v73.143h69.486v-73.143c1.162-19.336 17.2-34.412 36.571-34.377h228.571c19.371-0.035 35.409 15.041 36.571 34.377v423.497c-1.162 19.336-17.2 34.412-36.571 34.377h-228.571c-19.371 0.035-35.409-15.041-36.571-34.377v-73.143h-69.486v73.143c0.19 27.804 11.519 54.37 31.453 73.754s46.807 29.966 74.605 29.378h228.571zM270.263 541.257c41.042-0.214 77.12-27.235 88.869-66.56h407.771l-76.8 76.8 36.571 36.571 140.069-140.069-138.971-139.703-36.571 36.571 76.8 76.8h-408.869c-13.593-46.179-60.101-74.424-107.346-65.193s-79.7 52.906-74.91 100.805c4.79 47.9 45.25 84.283 93.388 83.976z" />
<glyph unicode="&#xe906;" glyph-name="ic_bf-scroll" d="M314.368 548.352l68.267-1.365v-64.853h-68.267c-25.95 0.177-50.745 10.751-68.837 29.356s-27.968 43.686-27.419 69.631v213.333c-0.189 53.405 42.852 96.904 96.256 97.28h395.264c53.404-0.376 96.445-43.875 96.256-97.28v-213.333c0.549-25.945-9.328-51.026-27.419-69.631s-42.887-29.179-68.837-29.356h-68.267v64.853h68.267c18.047 1.085 32.118 16.054 32.085 34.133v213.333c0.033 18.080-14.038 33.049-32.085 34.133h-395.264c-18.047-1.085-32.118-16.054-32.085-34.133v-211.968c-0.033-18.080 14.038-33.049 32.085-34.133zM805.888 101.547c0.189-53.405-42.852-96.904-96.256-97.28h-395.264c-25.89 0.178-50.632 10.706-68.713 29.236s-27.999 43.523-27.543 69.41v213.333c-0.182 25.71 9.858 50.439 27.909 68.747s42.637 28.694 68.347 28.875h68.267v-64.853h-68.267c-18.047-1.085-32.118-16.054-32.085-34.133v-213.333c-0.033-18.080 14.038-33.049 32.085-34.133h395.264c18.047 1.085 32.118 16.054 32.085 34.133v213.333c0.033 18.080-14.038 33.049-32.085 34.133h-68.267v64.853h68.267c25.95-0.177 50.745-10.751 68.837-29.356s27.968-43.686 27.419-69.631v-213.333zM599.040 673.621c-0.2-38.306-25.419-71.978-62.123-82.944v-380.587l71.68 71.68 34.133-34.133-130.731-130.731-130.389 129.707 34.133 34.133 71.68-71.68v381.611c-43.101 12.687-69.463 56.094-60.847 100.19s49.379 74.387 94.085 69.916c44.706-4.47 78.664-42.234 78.378-87.162z" />
<glyph unicode="&#xe907;" d="M819.2 268.8c0.259 0.002 0.565 0.003 0.871 0.003 8.757 0 17.296-0.933 25.522-2.706l-0.793 0.143v386.56c-0.168 22.203-6.032 43-16.2 61.050l0.328-0.634-243.712-100.864 96.256-39.936v-249.344l-446.976-185.088c20.188-14.255 45.305-22.784 72.413-22.784 0.102 0 0.204 0 0.307 0h386.544c-1.63 7.434-2.563 15.972-2.563 24.729 0 0.306 0.001 0.612 0.003 0.918v-0.047c0 70.692 57.308 128 128 128v0z" />
<glyph unicode="&#xe908;" d="M438.528 283.136l186.88 76.8v175.36l-113.408 47.104-113.408-47.104v-174.592l40.192-16.64v-60.672l-96.256 39.936v249.344l446.976 185.344c-20.188 14.255-45.305 22.784-72.413 22.784-0.102 0-0.204 0-0.307 0h-409.584c-70.692 0-128-57.308-128-128v0-409.6c0.193-22.289 6.052-43.168 16.205-61.32l-0.333 0.648 167.424 69.12z" />
<glyph unicode="&#xe909;" glyph-name="ic_logo-ciayo" horiz-adv-x="3706" d="M0 951.086h1014.124l-765.24-314.067v-376.768l146.674-60.164v91.514l-61.334 25.112v263.782l0.049 0.049 172.845 70.9 172.77-70.9v-263.831l-679.888-279.040v913.412zM618.542 697.281l395.582 162.304v-913.461h-1014.124l765.216 314.128v376.768l-146.674 60.262zM1593.802 546.684c-52.725-51.536-116.681-72.040-187.29-72.040-183.221 0-254.524 114.249-255.191 239.748-0.668 118.832 79.985 244.957 255.191 244.957 67.32 0 127.923-23.2 180.55-73.951l-81.296-79.258c-33.283 31.73-67.926 40.236-99.254 40.236-89.904 0-125.252-72.603-124.596-132.657 0.631-60.115 32.677-128.11 124.596-128.11 31.328 0 76.621 13.187 109.94 46.903l77.35-85.827zM1647.718 486.562v462.215h131.263v-462.215h-131.263zM2091.473 819.364l-59.998-147.266h119.303l-59.305 147.266zM2195.39 562.531h-208.551l-30.673-75.961h-139.908l209.219 462.215h133.291l208.489-462.215h-141.256l-30.611 75.961zM2544.577 790.341l100.578 158.443h148.578v-5.956l-185.225-271.993v-184.266h-131.918v184.266l-177.223 272.667v5.282h148.529l96.682-158.443zM3034.881 848.423c-75.285 0-127.194-54.183-127.194-130.733 0-77.261 52.639-130.708 127.194-130.708 77.338 0 127.317 54.036 127.317 130.708 0 79.197-49.98 130.733-127.317 130.733zM3034.881 475.394c-152.524 0-259.112 87.813-259.112 242.297 0 151.849 106.588 242.309 259.112 242.309 153.315 0 259.285-88.548 259.285-242.309 0-154.484-105.97-242.297-259.285-242.297zM1555.332 3.205c-45.985-45.028-105.451-65.875-168.132-65.875-162.406 0-235.304 110.841-235.947 227.48-0.631 116.491 76.101 232.456 235.947 232.456 60.084 0 118.276-22.122 163.68-67.064l-47.939-45.653c-31.947 31.044-74.147 45.653-115.741 45.653-113.861 0-165.646-83.058-165.003-164.755 0.656-81.17 49.25-161.629 165.003-161.629 41.594 0 87.591 17.048 118.932 48.153l49.2-48.766zM1818.203 1.912c111.239 0 157.953 77.947 157.953 162.892 0 81.685-47.32 166.605-156.692 168.456-103.558 0-159.215-71.549-159.215-168.456 1.237-78.572 47.345-162.892 157.953-162.892zM2047.125 166.029c0-119.727-73.566-229.392-228.922-229.392-155.381 0-228.996 112.19-228.996 228.816 0 134.912 95.346 232.443 230.257 232.443 152.833-0.625 227.66-112.177 227.66-231.867zM2521.568 285.722l-152.153-209.66h-15.398l-150.26 209.66v-340.221h-71.587v443.562h83.114l147.712-207.895 147.082 207.895h83.139v-443.562h-71.649v340.221zM2705.725-53.82v443.537h70.956v-443.537h-70.956zM3265.853 3.205c-46.034-45.028-105.451-65.875-168.182-65.875-162.406 0-235.279 110.841-235.897 227.48-0.631 116.491 76.101 232.456 235.897 232.456 60.183 0 118.375-22.122 163.754-67.064l-47.964-45.653c-32.021 31.044-74.196 45.653-115.79 45.653-113.787 0-165.547-83.058-164.978-164.755 0.705-81.17 49.299-161.629 164.978-161.629 41.594 0 87.641 17.048 118.932 48.153l49.25-48.766zM3602.232 291.479c-21.112 30.443-63.943 48.815-110.633 49.477-60.097 0-103.571-24.695-103.571-67.248 0-43.079 49.905-55.102 108.728-63.375 92.044-12.623 179.635-38.017 179.635-137.437-0.656-99.542-92.068-136.897-185.46-136.897-85.649 0-151.497 26.007-192.46 100.755l53.789 35.517c31.91-53.913 87.591-72.947 139.339-72.947 53.739 0 113.205 17.82 113.205 73.572 0 48.153-51.822 64.613-114.455 72.922-88.89 11.998-173.314 34.169-173.314 129.176-0.594 91.906 92.13 127.399 172.684 127.399 64.549 0 129.111-15.283 166.858-74.834l-54.346-36.081z" />
<glyph unicode="&#xe90a;" glyph-name="ic_plus" horiz-adv-x="4736" d="M3856.091 688.989l-14.341-80.416c-58.603-1.376-119.339-21.666-119.339-71.484 0-46.958 52.22-53.992 125.801-61.058 147.147-16.429 293.11-81.004 293.11-238.307 0-213.671-199.367-301.725-416.525-301.725-144.777 0-256.311 31.686-345.329 144.391l155.474 146.767c67.625-78.659 156.628-92.743 226.654-92.743 83.046 0 144.762 30.513 144.762 79.816 0 36.391-43.925 59.885-126.97 68.092-160.214 15.272-294.279 57.541-294.279 220.721 0 207.965 199.888 292.862 390.36 294.597l-0.003 0.006h204.028l-33.686-189.020h-204.044l14.329 80.362zM348.789 377.433h168.509c138.836 8.207 167.324 210.138 35.598 210.138h-168.493l-35.614-210.138zM313.192 181.363l-39.153-221.878h-234.965l145.962 821.795h403.458c195.796 0 285.984-113.862 285.984-251.234 0-186.675-138.836-346.338-392.777-348.683h-168.509zM1559.157 781.279l-110.349-624.553h397.533l-35.614-197.242h-632.482l145.947 821.795h234.965zM3110.123 780.119l-81.877-459.043c-41.539-243.028-188.686-376.867-447.367-376.867-243.26 0-379.727 127.978-334.633 379.212l80.692 456.699h233.78l-80.707-456.699c-23.732-129.134 29.657-183.142 124.6-183.142 94.928 0 168.509 56.353 189.855 180.797l81.892 459.043h233.764zM4359.729 797.429l28.63 162.571h205.403l-28.646-162.571h170.548l-33.623-188.426h-170.532l-28.63-163.79h-205.387l28.63 163.79h-169.299l33.591 188.426h169.315z" />
<glyph unicode="&#xe90b;" glyph-name="ic_redeem-filed" d="M420.571 685.714h-66.194c-0.086 1.149-0.135 2.489-0.135 3.84s0.049 2.691 0.146 4.018l-0.010-0.178c2.495 30.853 28.148 54.946 59.429 54.946s56.934-24.093 59.415-54.734l0.014-0.212c0-2.56 0-5.12 0-7.68h80.457c0 2.56 0 5.12 0 7.68 2.495 30.853 28.148 54.946 59.429 54.946s56.934-24.093 59.415-54.734l0.014-0.212c0.086-1.149 0.135-2.489 0.135-3.84s-0.049-2.691-0.146-4.018l0.010 0.178h-69.12v-164.571h256v73.143c0 50.495-40.934 91.429-91.429 91.429v0h-19.017c0 2.56 0 5.12 0 7.68 0.001 0.165 0.001 0.359 0.001 0.554 0 76.348-61.892 138.24-138.24 138.24-39.039 0-74.299-16.183-99.437-42.206l-0.038-0.040c-25.176 26.063-60.436 42.246-99.475 42.246-76.348 0-138.24-61.892-138.24-138.24 0-0.195 0-0.39 0.001-0.584v0.030c0-2.56 0-5.12 0-7.68h-17.554c-50.495 0-91.429-40.934-91.429-91.429v0-73.143h256zM603.429 484.571v-205.897c0-11.703-17.554-17.554-28.16-9.509l-63.269 50.834-63.269-50.834c-10.606-8.046-28.16-2.194-28.16 9.509v205.897h-256v-329.143c0-50.495 40.934-91.429 91.429-91.429v0h512c50.495 0 91.429 40.934 91.429 91.429v0 329.143z" />
<glyph unicode="&#xe90c;" glyph-name="ic_redeem-outline" d="M768 685.714h-19.017c0 2.56 0 5.12 0 7.68-0.113 76.262-61.962 138.041-138.24 138.041-38.67 0-73.631-15.878-98.721-41.47l-0.022-0.023c-25.176 26.063-60.436 42.246-99.475 42.246-76.348 0-138.24-61.892-138.24-138.24 0-0.195 0-0.39 0.001-0.584v0.030c0-2.56 0-5.12 0-7.68h-18.286c-50.495 0-91.429-40.934-91.429-91.429v0-438.857c0-50.495 40.934-91.429 91.429-91.429v0h512c50.495 0 91.429 40.934 91.429 91.429v0 438.857c0 50.495-40.934 91.429-91.429 91.429v0zM768 100.571h-512c-30.297 0-54.857 24.56-54.857 54.857v0 329.143h219.429v-205.897c0-11.703 17.554-17.554 28.16-9.509l63.269 50.834 63.269-50.834c10.606-8.046 28.16-2.194 28.16 9.509v205.897h219.429v-329.143c0-30.297-24.56-54.857-54.857-54.857v0zM201.143 594.286c0 30.297 24.56 54.857 54.857 54.857v0h164.571v-128h-219.429zM822.857 521.143h-219.429v128h164.571c30.297 0 54.857-24.56 54.857-54.857v0zM611.109 752.64c32.637-0.206 59.040-26.608 59.246-59.226v-0.020c0.086-1.149 0.135-2.489 0.135-3.84s-0.049-2.691-0.146-4.018l0.010 0.178h-118.126c0 2.56 0 5.12 0 7.68 0.203 32.51 26.4 58.835 58.841 59.245h0.039zM355.109 693.394c2.495 30.853 28.148 54.946 59.429 54.946s56.934-24.093 59.415-54.734l0.014-0.212c0-2.56 0-5.12 0-7.68h-119.589c-0.4 2.264-0.663 4.913-0.73 7.612l-0.001 0.068z" />
<glyph unicode="&#xe90d;" glyph-name="home" d="M841.143 87.406v356.937l-329.143 177.371-329.143-177.737v-356.571c0-20.198 16.374-36.571 36.571-36.571v0h182.857v256c0 20.198 16.374 36.571 36.571 36.571v0h146.286c20.198 0 36.571-16.374 36.571-36.571v0-256h182.857c20.198 0 36.571 16.374 36.571 36.571v0zM841.143 486.034v148.48c0.005 0.303 0.007 0.66 0.007 1.018 0 26.933-14.557 50.467-36.233 63.161l-0.345 0.187-256 137.874c-10.054 5.54-22.037 8.799-34.781 8.799-0.629 0-1.257-0.008-1.883-0.024l0.093 0.002c-0.001 0-0.001 0-0.002 0-12.728 0-24.697-3.251-35.121-8.968l0.38 0.191-256-138.24c-23.039-12.619-38.4-36.698-38.4-64.365 0 0 0-0.001 0-0.001v0-148.48l329.143 177.737z" />
<glyph unicode="&#xe90e;" glyph-name="home-outline" d="M841.143 485.669v0 148.48c0.005 0.303 0.007 0.66 0.007 1.018 0 26.933-14.557 50.467-36.233 63.161l-0.345 0.187-256 137.874c-10.054 5.54-22.037 8.799-34.781 8.799-0.629 0-1.257-0.008-1.883-0.024l0.093 0.002c-0.001 0-0.001 0-0.002 0-12.728 0-24.697-3.251-35.121-8.968l0.38 0.191-256-138.24c-23.039-12.619-38.4-36.698-38.4-64.365 0 0 0-0.001 0-0.001v0-546.743c0-20.198 16.374-36.571 36.571-36.571v0h585.143c20.198 0 36.571 16.374 36.571 36.571v0 398.263zM219.429 634.149c0.038 13.869 7.79 25.918 19.19 32.087l0.193 0.096 256 138.24c4.97 2.734 10.886 4.356 17.179 4.389h0.010c0.054 0 0.119 0 0.183 0 6.364 0 12.349-1.626 17.561-4.485l-0.19 0.095 256-137.874c11.418-6.337 19.017-18.323 19.017-32.083 0-0.035 0-0.070 0-0.105v0.005-128.731l-292.571 157.623-292.571-157.989v128.731zM804.571 85.577h-182.857v219.429c0 20.198-16.374 36.571-36.571 36.571v0h-146.286c-20.198 0-36.571-16.374-36.571-36.571v0-219.429h-182.857v378.149l292.571 157.989 292.571-157.623v-376.32z" />
<glyph unicode="&#xe90f;" glyph-name="comics" d="M768 840.777h-512c-40.396 0-73.143-32.747-73.143-73.143v0-638.903c0-40.396 32.747-73.143 73.143-73.143v0h512c40.396 0 73.143 32.747 73.143 73.143v0 638.903c0 40.396-32.747 73.143-73.143 73.143v0zM484.937 163.474h-192v243.2l192 42.057v-285.257zM731.794 163.474h-192v297.326l192 42.057v-339.383zM731.794 558.811l-438.857-96.183v264.411h438.857v-168.594z" />
<glyph unicode="&#xe910;" glyph-name="comics-outline" d="M731.429 559.543v168.594h-438.857v-264.411l438.857 95.817zM484.571 449.463l-192-42.057v-243.2h192v285.257zM539.429 461.531v-297.326h192v339.383l-192-42.057zM768 804.937c20.198 0 36.571-16.374 36.571-36.571v0-640c0-20.198-16.374-36.571-36.571-36.571v0h-512c-20.198 0-36.571 16.374-36.571 36.571v0 640c0 20.198 16.374 36.571 36.571 36.571v0h512zM768 841.509h-512c-40.396 0-73.143-32.747-73.143-73.143v0-640c0-40.396 32.747-73.143 73.143-73.143v0h512c40.396 0 73.143 32.747 73.143 73.143v0 640c0 40.396-32.747 73.143-73.143 73.143v0 0z" />
<glyph unicode="&#xe911;" glyph-name="challenge" d="M739.474 802.011h-574.903v-208.823c0-53.12 43.063-96.183 96.183-96.183v0h32.549c31.811-85.314 106.758-147.592 197.609-160.755l1.34-0.159v-91.429h-80.091c-25.449 0-46.080-20.631-46.080-46.080v0-28.16h-55.223v-125.074h402.286v125.074h-55.223v28.16c0 25.449-20.631 46.080-46.080 46.080v0h-78.629v91.429c91.685 13.372 166.142 75.524 196.932 158.838l0.553 1.71h32.549c53.12 0 96.183 43.063 96.183 96.183v0 208.823h-119.954zM260.389 533.943c-32.839 0.206-59.405 26.772-59.611 59.592v172.271h83.383v-206.629c-0.222-3.77-0.348-8.179-0.348-12.617s0.126-8.847 0.376-13.223l-0.028 0.606h-25.234zM822.857 593.189c-0.206-32.839-26.772-59.405-59.592-59.611h-25.254c0.228 3.825 0.359 8.297 0.359 12.8s-0.13 8.975-0.387 13.414l0.028-0.614v206.263h84.846v-172.251z" />
<glyph unicode="&#xe912;" glyph-name="challenge-outline" d="M390.949 802.377h-226.377v-208.823c0-53.12 43.063-96.183 96.183-96.183v0h32.549c31.811-85.314 106.758-147.592 197.609-160.755l1.34-0.159v-91.429h-80.091c-25.449 0-46.080-20.631-46.080-46.080v0-28.16h-55.223v-125.074h402.286v125.074h-55.223v28.16c0 25.449-20.631 46.080-46.080 46.080v0h-78.629v91.429c91.685 13.372 166.142 75.524 196.932 158.838l0.553 1.71h32.549c53.12 0 96.183 43.063 96.183 96.183v0 208.823h-468.48zM676.937 133.851v-51.931h-329.143v51.931h329.143zM612.206 206.994c5.251 0 9.509-4.257 9.509-9.509v0-28.16h-219.429v28.16c0 5.251 4.257 9.509 9.509 9.509v0h198.583zM691.931 495.543c-26.978-74.563-97.159-126.889-179.564-126.903h-0.002c-82.576 0.129-152.824 52.767-179.15 126.304l-0.415 1.33c-3.828 10.499-6.898 22.842-8.667 35.602l-0.11 0.969c-1.343 7.39-2.263 16.085-2.552 24.94l-0.008 0.295v206.629h382.171v-206.994c-0.278-9.261-1.198-18.086-2.721-26.702l0.161 1.102c-2.264-13.309-5.566-25.107-9.94-36.371l0.431 1.262zM261.12 532.114c-32.839 0.206-59.405 26.772-59.611 59.592v172.271h83.383v-206.629c-0.222-3.77-0.348-8.179-0.348-12.617s0.126-8.847 0.376-13.223l-0.028 0.606h-25.234zM823.589 591.36c-0.206-32.839-26.772-59.405-59.592-59.611h-25.254c0.228 3.825 0.359 8.297 0.359 12.8s-0.13 8.975-0.387 13.414l0.028-0.614v206.263h83.383v-172.251z" />
<glyph unicode="&#xe913;" glyph-name="subscribed" d="M810.789 656.457l-207.726 149.211c-21.692 14.45-48.062 23.547-76.465 24.856l-0.335 0.012h-296.229c-30.297 0-54.857-24.56-54.857-54.857v0-534.309c0-30.297 24.56-54.857 54.857-54.857v0h62.171v-66.194c0-30.297 24.56-54.857 54.857-54.857v0h445.44c30.297 0 54.857 24.56 54.857 54.857v0 463.36c-1.076 29.453-15.038 55.44-36.383 72.631l-0.188 0.147zM311.223 546.743h106.057v106.057h73.143v-106.057h106.057v-73.143h-106.057v-106.057h-73.143v106.057h-106.057v73.143zM811.52 121.783c0-10.099-8.187-18.286-18.286-18.286v0h-445.44c-10.099 0-18.286 8.187-18.286 18.286v0 66.194h346.697c30.297 0 54.857 24.56 54.857 54.857v0s0 427.154 0 427.154 47.177-36.571 65.463-51.2c9.424-8.033 15.362-19.915 15.362-33.183 0-0.163-0.001-0.325-0.003-0.487v0.025-463.36z" />
<glyph unicode="&#xe914;" glyph-name="subscribed-outline-menu" d="M810.789 656.457l-115.931 84.114-91.063 65.097c-21.809 14.461-48.305 23.559-76.833 24.857l-0.333 0.012h-294.766c-30.297 0-54.857-24.56-54.857-54.857v0-534.309c0-30.297 24.56-54.857 54.857-54.857v0h60.709v-67.657c0-30.297 24.56-54.857 54.857-54.857v0h445.44c30.297 0 54.857 24.56 54.857 54.857v0 464.823c-1.223 29.494-15.301 55.469-36.742 72.626l-0.195 0.151zM212.48 241.371v535.771c0 10.099 8.187 18.286 18.286 18.286v0h294.766c20.895-1.227 40.046-7.737 56.427-18.202l-0.472 0.282 91.063-65.463c12.933-10.822 21.367-26.65 22.302-44.464l0.006-0.153v-426.057c0-10.099-8.187-18.286-18.286-18.286v0h-445.806c-10.099 0-18.286 8.187-18.286 18.286v0zM797.623 617.326c9.422-7.968 15.365-19.798 15.365-33.016 0-0.222-0.002-0.443-0.005-0.664v0.033-464.823c0-10.099-8.187-18.286-18.286-18.286v0h-446.903c-10.099 0-18.286 8.187-18.286 18.286v0 67.657h346.697c30.297 0 54.857 24.56 54.857 54.857v0 426.057s47.177-36.571 65.097-50.103zM490.057 650.971h-73.143v-106.057h-105.691v-73.143h105.691v-105.691h73.143v105.691h106.057v73.143h-106.057v106.057z" />
<glyph unicode="&#xe915;" glyph-name="subscribed-outline" d="M821.029 671.086l-207.726 149.211c-24.756 16.582-54.941 26.922-87.458 28.151l-0.314 0.009h-294.766c-40.396 0-73.143-32.747-73.143-73.143v0-534.309c0-40.396 32.747-73.143 73.143-73.143v0h43.886v-47.909c0-40.396 32.747-73.143 73.143-73.143v0h445.074c40.396 0 73.143 32.747 73.143 73.143v0 463.726c-1.375 35.574-18.577 66.869-44.722 87.21l-0.261 0.195zM230.4 775.314h294.766c16.808-1.239 32.162-6.521 45.389-14.868l-0.406 0.239 91.429-65.463c7.734-7.17 12.953-16.958 14.243-27.947l0.020-0.213v-426.423h-445.44v535.040zM792.869 120.32h-445.44v47.909h329.143c40.396 0 73.143 32.747 73.143 73.143v0 391.314l29.257-21.211c7.872-7.125 13.217-16.915 14.606-27.937l0.023-0.223v-463.36zM490.057 650.971h-73.143v-106.057h-105.691v-73.143h105.691v-105.691h73.143v105.691h106.057v73.143h-106.057v106.057z" />
<glyph unicode="&#xe916;" glyph-name="schedule" d="M289.28 464.091h112.274v-112.274h-112.274v112.274zM289.28 292.937h112.274v-112.274h-112.274v112.274zM456.777 464.091h112.274v-112.274h-112.274v112.274zM456.777 292.937h112.274v-112.274h-112.274v112.274zM622.811 464.091h112.274v-112.274h-112.274v112.274zM796.16 759.223h-64.731v36.571c0 28.479-23.087 51.566-51.566 51.566s-51.566-23.087-51.566-51.566v0-36.571h-230.4v36.571c0.003 0.218 0.005 0.474 0.005 0.731 0 29.088-23.58 52.668-52.668 52.668-28.831 0-52.251-23.165-52.662-51.898v-36.61h-64.731c-0.011 0-0.023 0-0.036 0-50.091 0-90.697-40.606-90.697-90.697 0-0.9 0.013-1.797 0.039-2.691l-0.003 0.131v-508.343c0-60.594 49.121-109.714 109.714-109.714v0l228.571-3.657h73.143l229.669 2.926c60.594 0 109.714 49.121 109.714 109.714v0 509.074c0.004 0.328 0.007 0.716 0.007 1.104 0 50.091-40.606 90.697-90.697 90.697-0.388 0-0.776-0.002-1.163-0.007l0.059 0.001zM778.24 86.674l-229.669-4.389h-73.143l-230.034 2.926c-40.396 0-73.143 32.747-73.143 73.143v0 399.36h676.571v-398.629c-0.38-39.202-31.542-71.003-70.454-72.408l-0.129-0.004z" />
<glyph unicode="&#xe917;" glyph-name="schedule-outline" d="M289.28 464.091h112.274v-112.274h-112.274v112.274zM289.28 292.937h112.274v-112.274h-112.274v112.274zM456.777 464.091h112.274v-112.274h-112.274v112.274zM456.777 292.937h112.274v-112.274h-112.274v112.274zM622.811 464.091h112.274v-112.274h-112.274v112.274zM796.16 759.223h-64.731v36.571c0 28.479-23.087 51.566-51.566 51.566s-51.566-23.087-51.566-51.566v0-36.571h-230.4v36.571c0.003 0.218 0.005 0.474 0.005 0.731 0 29.088-23.58 52.668-52.668 52.668-28.831 0-52.251-23.165-52.662-51.898v-36.61h-64.731c-0.011 0-0.023 0-0.036 0-50.091 0-90.697-40.606-90.697-90.697 0-0.9 0.013-1.797 0.039-2.691l-0.003 0.131v-508.343c0-60.594 49.121-109.714 109.714-109.714v0l228.571-3.657h73.143l229.669 2.56c60.594 0 109.714 49.121 109.714 109.714v0 509.44c0.004 0.328 0.007 0.716 0.007 1.104 0 50.091-40.606 90.697-90.697 90.697-0.388 0-0.776-0.002-1.163-0.007l0.059 0.001zM230.4 722.651h62.171v-21.943c0-28.479 23.087-51.566 51.566-51.566s51.566 23.087 51.566 51.566v0 21.943h230.4v-21.943c0-28.479 23.087-51.566 51.566-51.566s51.566 23.087 51.566 51.566v0 21.943h64.366c31.52-1.016 56.686-26.812 56.686-58.486 0-0.010 0-0.020 0-0.030v0.002-88.869h-676.571v88.869c0 0.008 0 0.019 0 0.029 0 31.674 25.166 57.469 56.593 58.483l0.093 0.002zM852.114 159.086c0-40.396-32.747-73.143-73.143-73.143v0l-230.4-3.657h-73.143l-230.034 2.56c-40.396 0-73.143 32.747-73.143 73.143v0 380.709h676.571z" />
<glyph unicode="&#xe918;" glyph-name="blog" d="M792.137 737.28l-256 107.154c-6.809 2.891-14.728 4.572-23.040 4.572s-16.231-1.68-23.436-4.72l0.396 0.148-256-107.154c-21.664-9.25-36.572-30.374-36.572-54.979 0-0.086 0-0.171 0.001-0.257v0.013-395.703c0-0.072 0-0.158 0-0.244 0-24.605 14.907-45.729 36.183-54.831l0.389-0.148 99.474-41.326v-124.709c-0.001-0.062-0.001-0.136-0.001-0.21 0-6.278 3.164-11.817 7.984-15.11l0.063-0.041c2.803-1.836 6.237-2.928 9.926-2.928 0.11 0 0.221 0.001 0.331 0.003h-0.017c1.045-0.216 2.245-0.34 3.474-0.34s2.43 0.124 3.589 0.36l-0.115-0.020 435.566 182.857c21.664 9.25 36.572 30.374 36.572 54.979 0 0.086 0 0.171-0.001 0.257v-0.013 397.531c-0.431 25.038-16.233 46.278-38.357 54.72l-0.409 0.137zM792.137 286.354c-0.039-9.522-5.849-17.678-14.111-21.155l-0.152-0.057-410.331-172.251v109.714c-0.039 7.557-4.656 14.025-11.217 16.778l-0.121 0.045-109.714 46.080 268.069 116.297v430.811c1.319 0.268 2.836 0.422 4.389 0.422s3.069-0.154 4.536-0.446l-0.147 0.024 256-107.154c8.414-3.533 14.224-11.689 14.263-21.206v-395.708z" />
<glyph unicode="&#xe919;" glyph-name="share" d="M601.6 300.251l-160.549 94.354c6.879 15.748 10.909 34.092 10.971 53.371v0.024c-0.196 16.867-3.399 32.928-9.095 47.753l0.318-0.941 162.743 95.817c25.264-29.563 62.562-48.204 104.216-48.274h0.012c76.264 0.207 138.033 61.976 138.24 138.22v0.020c-0.207 76.264-61.976 138.033-138.22 138.24h-0.020c-76.348 0-138.24-61.892-138.24-138.24v0c0.021-19.014 3.919-37.113 10.945-53.555l-0.339 0.892-160.914-94.72c-25.398 32.405-64.541 53.034-108.502 53.034-0.426 0-0.852-0.002-1.278-0.006h0.065c-76.264-0.207-138.033-61.976-138.24-138.22v-0.020c0.207-76.264 61.976-138.033 138.22-138.24h0.020c41.467 0.139 78.592 18.612 103.713 47.731l0.15 0.177 163.109-95.817c-5.195-13.683-8.267-29.501-8.411-46.018v-0.062c0-76.348 61.892-138.24 138.24-138.24v0c76.264 0.207 138.033 61.976 138.24 138.22v0.020c-0.207 76.264-61.976 138.033-138.22 138.24h-0.020c-43.567-0.627-82.152-21.421-106.919-53.443l-0.236-0.317z" />
<glyph unicode="&#xe91a;" glyph-name="search" d="M840.411 171.154l-186.514 186.514c34.021 44.425 54.515 100.776 54.515 161.913 0 73.863-29.915 140.74-78.289 189.175l0.003-0.003c-48.411 48.574-115.377 78.629-189.363 78.629-0.156 0-0.311 0-0.467 0h0.024c-0.131 0-0.287 0-0.442 0-73.804 0-140.623-29.907-188.998-78.264l0.001 0.001c-48.553-48.518-78.585-115.563-78.585-189.623s30.033-141.105 78.584-189.621l0.002-0.002c48.411-48.574 115.377-78.629 189.363-78.629 0.156 0 0.311 0 0.467 0h-0.024c61.043 0.027 117.298 20.508 162.286 54.962l-0.64-0.471 186.514-186.514c6.607-6.555 15.708-10.606 25.754-10.606 0.074 0 0.149 0 0.223 0.001h-0.011c0.063 0 0.137-0.001 0.211-0.001 10.046 0 19.147 4.051 25.757 10.609l-0.002-0.002c6.573 6.61 10.636 15.723 10.636 25.784 0 10.243-4.211 19.502-10.995 26.141l-0.007 0.006zM440.686 324.389c-0.204-0.001-0.446-0.001-0.688-0.001-53.616 0-102.138 21.811-137.178 57.044l-0.009 0.009c-35.211 35.319-56.982 84.054-56.982 137.874s21.771 102.555 56.987 137.879l-0.005-0.005c35.104 35.244 83.674 57.052 137.338 57.052 0.189 0 0.377 0 0.565-0.001h-0.029c0.204 0.001 0.446 0.001 0.688 0.001 53.616 0 102.138-21.811 137.178-57.044l0.009-0.009c35.242-35.048 57.053-83.57 57.053-137.186 0-0.242 0-0.484-0.001-0.725v0.037c0.001-0.204 0.001-0.446 0.001-0.688 0-53.616-21.811-102.138-57.044-137.178l-0.009-0.009c-35.048-35.242-83.57-57.053-137.186-57.053-0.242 0-0.484 0-0.725 0.001h0.037z" />
<glyph unicode="&#xe91b;" glyph-name="hamburger" d="M182.857 751.909h658.286v-109.714h-658.286v109.714zM182.857 502.857h658.286v-109.714h-658.286v109.714zM182.857 253.806h658.286v-109.714h-658.286v109.714z" />
<glyph unicode="&#xe91c;" glyph-name="more-vertical" d="M429.349 794.331v-124.709l82.651-34.377 82.651 34.377v124.709l-82.651 34.377-82.651-34.377zM429.349 510.537v-125.074l82.651-34.377 82.651 34.377v125.074l-82.651 34.377-82.651-34.377zM429.349 226.377v-124.709l82.651-34.377 82.651 34.377v124.709l-82.651 34.377-82.651-34.377z" />
<glyph unicode="&#xe91d;" glyph-name="more" d="M788.48 563.566l-13.897-5.486-50.103-20.846-22.674-9.143v-160.183l22.674-9.143 50.103-20.846 13.897-5.486 13.897 5.486 50.469 20.846 22.674 9.143v160.183l-22.674 9.143-50.469 20.846-13.897 5.486zM512 563.566l-13.897-5.486-72.777-29.989v-160.183l22.309-9.143 50.469-20.846 13.897-5.486 13.897 5.486 50.469 20.846 22.674 9.143v160.183l-22.674 9.143-50.469 20.846-13.897 5.486zM235.52 563.566l-13.897-5.486-50.469-20.846-22.674-9.143v-160.183l22.674-9.143 50.469-20.846 13.897-5.486 13.897 5.486 50.103 20.846 22.674 9.143v160.183l-22.674 9.143-50.103 20.846-13.897 5.486z" />
<glyph unicode="&#xe91e;" glyph-name="more-outline" d="M788.48 524.069l50.103-20.846v-109.714l-50.103-20.846-50.103 20.846v109.714l50.103 20.846zM788.48 563.566l-13.897-5.851-50.103-20.846-22.674-9.143v-159.817l22.674-9.143 50.103-20.846 13.897-5.851 13.897 5.851 50.103 20.846 22.674 9.143v159.817l-22.674 9.143-50.103 20.846-13.897 5.851zM512 524.069l50.103-20.846v-109.714l-50.103-20.846-50.103 20.846v109.714l50.103 20.846zM512 563.566l-13.897-5.851-50.103-20.846-22.674-9.143v-159.817l22.674-9.143 50.103-20.846 13.897-5.851 13.897 5.851 50.103 20.846 22.674 9.143v159.817l-22.674 9.143-50.103 20.846-13.897 5.851zM235.154 524.069l50.103-20.846v-109.714l-50.103-20.846-50.103 20.846v109.714l50.103 20.846zM235.154 563.566l-13.897-5.851-50.103-20.846-22.674-9.143v-159.817l22.674-9.143 50.103-20.846 13.897-5.851 13.897 5.851 50.103 20.846 22.674 9.143v159.817l-22.674 9.143-50.103 20.846-13.897 5.851z" />
<glyph unicode="&#xe91f;" glyph-name="like" d="M200.411 602.331h116.663v-350.354h-116.663v350.354zM758.857 631.589h-189.806v133.851c0 29.691-24.069 53.76-53.76 53.76v0 0c-19.717-0.002-36.955-10.619-46.309-26.447l-0.137-0.25-84.846-146.286c-5.517-9.327-8.777-20.556-8.777-32.547 0-0.001 0-0.001 0-0.002v0-296.594c0-35.75 28.981-64.731 64.731-64.731v0h256c0.060 0 0.132 0 0.203 0 30.033 0 55.288 20.453 62.598 48.189l0.101 0.451 64 249.783c1.293 4.833 2.035 10.382 2.035 16.105 0 35.75-28.981 64.731-64.731 64.731-0.459 0-0.916-0.005-1.372-0.014l0.068 0.001z" />
<glyph unicode="&#xe920;" glyph-name="dislike" d="M706.926 644.023h116.663v-350.354h-116.663v350.354zM583.68 644.023h-256c-0.060 0-0.132 0-0.203 0-30.033 0-55.288-20.453-62.598-48.189l-0.101-0.451-64-249.783c-1.291-4.829-2.032-10.374-2.032-16.092 0-35.75 28.981-64.731 64.731-64.731 0.072 0 0.143 0 0.215 0h189.795v-133.851c0-29.691 24.069-53.76 53.76-53.76v0 0c0.061 0 0.133 0 0.205 0 19.659 0 36.837 10.625 46.105 26.446l0.136 0.252 84.846 146.286c5.517 9.327 8.777 20.556 8.777 32.547 0 0.001 0 0.001 0 0.002v0 297.326c-0.404 35.055-28.61 63.39-63.577 63.999l-0.057 0.001z" />
<glyph unicode="&#xe921;" glyph-name="reply" d="M646.583 525.897h-179.931v133.12c0 24.503-14.629 30.72-32.549 14.263l-209.92-194.56c-8.145-7.45-13.234-18.125-13.234-29.989s5.089-22.538 13.203-29.961l0.031-0.028 209.92-194.56c17.92-16.457 32.549-10.24 32.549 14.263v130.926h179.931c5.453 0 9.874-4.421 9.874-9.874v0-146.286h156.891v146.286c-0.415 91.861-74.875 166.193-166.746 166.4h-0.020z" />
<glyph unicode="&#xe922;" glyph-name="close" d="M882.834 744.594l-74.24 74.24-296.594-296.594-296.594 296.594-74.24-74.24 296.594-296.594-296.594-296.594 74.24-74.24 296.594 296.594 296.594-296.594 74.24 74.24-296.594 296.594 296.594 296.594z" />
<glyph unicode="&#xe923;" glyph-name="arrow-left" d="M879.909 502.857h-565.029l261.486 261.851-77.531 77.531-329.143-329.143c-16.398-16.575-26.528-39.379-26.528-64.549s10.13-47.974 26.536-64.557l329.135-329.135 77.531 77.531-261.486 261.851h565.029v109.714z" />
<glyph unicode="&#xe924;" glyph-name="arrow_left_2" d="M650.971 53.76l-329.143 329.143c-16.398 16.575-26.528 39.379-26.528 64.549s10.13 47.974 26.536 64.557l329.135 329.135 77.531-77.531-315.977-316.709 315.977-316.709z" />
<glyph unicode="&#xe925;" glyph-name="arrow_right_2" d="M372.663 53.76l-77.531 77.531 315.977 316.709-315.977 316.709 77.531 77.531 329.143-329.143c16.398-16.575 26.528-39.379 26.528-64.549s-10.13-47.974-26.536-64.557l0.008 0.008z" />
<glyph unicode="&#xe926;" glyph-name="chevron-down" d="M512 231.497c-0.093 0-0.204-0.001-0.314-0.001-25.159 0-47.936 10.203-64.417 26.697l-329.143 329.143 77.531 77.531 316.709-315.977 316.709 315.977 77.531-77.531-329.143-329.143c-16.482-16.498-39.261-26.703-64.423-26.703-0.366 0-0.731 0.002-1.096 0.006l0.056-0.001z" />
<glyph unicode="&#xe927;" glyph-name="chevron-up" d="M512 664.503c0.093 0 0.204 0.001 0.314 0.001 25.159 0 47.936-10.203 64.417-26.697l329.143-329.143-77.531-77.531-316.343 316.343-316.709-315.977-77.531 77.531 329.143 329.143c16.445 16.279 39.075 26.337 64.055 26.337 0.366 0 0.732-0.002 1.098-0.006l-0.056 0.001z" />
<glyph unicode="&#xe928;" glyph-name="caret-left" d="M618.423 139.703l-256 256c-13.253 13.239-21.452 31.536-21.452 51.749s8.198 38.509 21.451 51.748l256.001 256.001c6.629 6.682 15.814 10.818 25.966 10.818 20.198 0 36.571-16.374 36.571-36.571 0-0.075 0-0.15-0.001-0.224v0.011-565.029c-0.682-19.662-16.785-35.341-36.551-35.341-10.162 0-19.356 4.145-25.984 10.836l-0.003 0.003z" />
<glyph unicode="&#xe929;" glyph-name="caret-right" d="M404.114 139.703l256 256c13.253 13.239 21.452 31.536 21.452 51.749s-8.198 38.509-21.451 51.748l-256.001 256.001c-6.629 6.682-15.814 10.818-25.966 10.818-20.198 0-36.571-16.374-36.571-36.571 0-0.075 0-0.15 0.001-0.224v0.011-565.029c0.682-19.662 16.785-35.341 36.551-35.341 10.162 0 19.356 4.145 25.984 10.836l0.003 0.003z" />
<glyph unicode="&#xe92a;" glyph-name="ic_descending" d="M435.2 755.2c15.36 0 25.6-10.24 25.6-25.6v-51.2c0-15.36-10.24-25.6-25.6-25.6h-256c-15.36 0-25.6 10.24-25.6 25.6v51.2c0 15.36 10.24 25.6 25.6 25.6h256zM435.2 499.2c15.36 0 25.6-10.24 25.6-25.6v-51.2c0-15.36-10.24-25.6-25.6-25.6h-256c-15.36 0-25.6 10.24-25.6 25.6v51.2c0 15.36 10.24 25.6 25.6 25.6h256zM435.2 243.2c15.36 0 25.6-10.24 25.6-25.6v-51.2c0-15.36-10.24-25.6-25.6-25.6h-256c-15.36 0-25.6 10.24-25.6 25.6v51.2c0 15.36 10.24 25.6 25.6 25.6h256zM861.184 379.307c6.144-5.973 9.216-11.947 9.216-20.907s-3.072-14.933-9.216-20.907l-245.76-238.933c-6.144-5.973-12.288-8.96-21.504-8.96-6.144 0-15.36 2.987-21.504 8.96s-9.216 11.947-9.216 20.907v657.067c0 14.933 15.36 29.867 30.72 29.867h61.44c15.36 0 30.72-14.933 30.72-29.867v-403.2c0-14.933 18.432-20.907 27.648-11.947l61.44 59.733c6.144 5.973 12.288 8.96 21.504 8.96 6.144 0 15.36-2.987 21.504-8.96l43.008-41.813z" />
<glyph unicode="&#xe92b;" glyph-name="ic_ascending" d="M435.2 755.2h-256c-15.36 0-25.6-10.24-25.6-25.6v-51.2c0-15.36 10.24-25.6 25.6-25.6h256c15.36 0 25.6 10.24 25.6 25.6v51.2c0 15.36-10.24 25.6-25.6 25.6zM435.2 499.2h-256c-15.36 0-25.6-10.24-25.6-25.6v-51.2c0-15.36 10.24-25.6 25.6-25.6h256c15.36 0 25.6 10.24 25.6 25.6v51.2c0 15.36-10.24 25.6-25.6 25.6zM435.2 243.2h-256c-15.36 0-25.6-10.24-25.6-25.6v-51.2c0-15.36 10.24-25.6 25.6-25.6h256c15.36 0 25.6 10.24 25.6 25.6v51.2c0 15.36-10.24 25.6-25.6 25.6zM861.184 516.693l-43.008-41.813c-6.144-5.973-15.36-8.96-21.504-8.96-9.216 0-15.36 2.987-21.504 8.96l-61.44 59.733c-9.216 8.96-27.648 2.987-27.648-11.947v-403.2c0-14.933-15.36-29.867-30.72-29.867h-61.44c-15.36 0-30.72 14.933-30.72 29.867v657.067c0 8.96 3.072 14.933 9.216 20.907s15.36 8.96 21.504 8.96c9.216 0 15.36-2.987 21.504-8.96l245.76-238.933c6.144-5.973 9.216-11.947 9.216-20.907s-3.072-14.933-9.216-20.907z" />
<glyph unicode="&#xe92c;" glyph-name="up" d="M460.434 780.8l-256-256c-6.682-6.629-10.818-15.814-10.818-25.966 0-20.198 16.374-36.571 36.571-36.571 0.075 0 0.15 0 0.224 0.001h106.046v-370.834h352.914v371.931h106.057c0.063 0 0.138-0.001 0.213-0.001 20.198 0 36.571 16.374 36.571 36.571 0 10.152-4.136 19.338-10.816 25.964l-256.002 256.002c-13.259 13.373-31.636 21.652-51.947 21.652-20.849 0-39.66-8.723-52.984-22.719l-0.029-0.030z" />
<glyph unicode="&#xe92d;" glyph-name="bullet" d="M512 77.166c204.806 0 370.834 166.028 370.834 370.834v0c0 204.806-166.028 370.834-370.834 370.834v0c-204.018-1.038-369.006-166.667-369.006-370.83 0-0.002 0-0.003 0-0.005v0c0-204.806 166.028-370.834 370.834-370.834v0z" />
<glyph unicode="&#xe92e;" glyph-name="radio-filled" d="M512 585.143c75.742 0 137.143-61.401 137.143-137.143v0c0-75.742-61.401-137.143-137.143-137.143v0c-75.742 0-137.143 61.401-137.143 137.143v0c0 75.742 61.401 137.143 137.143 137.143v0zM512 813.714c-201.978 0-365.714-163.736-365.714-365.714v0c0-201.978 163.736-365.714 365.714-365.714v0c201.978 0 365.714 163.736 365.714 365.714v0c0 201.978-163.736 365.714-365.714 365.714v0 0z" />
<glyph unicode="&#xe92f;" glyph-name="bullet-outline" d="M512 696.32c136.454-0.208 247.015-110.769 247.223-247.203v-0.020c-0.208-136.454-110.769-247.015-247.203-247.223h-0.020c-136.454 0.208-247.015 110.769-247.223 247.203v0.020c0.208 136.454 110.769 247.015 247.203 247.223h0.020zM512 819.931c-204.806 0-370.834-166.028-370.834-370.834v0c0-204.806 166.028-370.834 370.834-370.834v0c204.806 0 370.834 166.028 370.834 370.834v0c0 204.806-166.028 370.834-370.834 370.834v0z" />
<glyph unicode="&#xe930;" glyph-name="radio" d="M512 724.114c151.4-0.208 274.078-122.885 274.286-274.265v-0.020c-0.208-151.4-122.885-274.078-274.265-274.286h-0.020c-151.4 0.208-274.078 122.885-274.286 274.265v0.020c0.208 151.4 122.885 274.078 274.265 274.286h0.020zM512 815.543c-201.978 0-365.714-163.736-365.714-365.714v0c0-201.978 163.736-365.714 365.714-365.714v0c201.978 0 365.714 163.736 365.714 365.714v0c0 201.978-163.736 365.714-365.714 365.714v0 0z" />
<glyph unicode="&#xe931;" glyph-name="checked" d="M411.429 196.023c-0.049 0-0.106 0-0.163 0-25.207 0-48.031 10.201-64.57 26.699l-199.678 198.947 77.531 77.897 186.88-185.783 387.291 386.56 77.531-77.531-400.091-399.36c-16.479-16.803-39.367-27.267-64.701-27.428h-0.030z" />
<glyph unicode="&#xe932;" glyph-name="edit" d="M194.194 281.6l-43.154-149.211c-1.165-3.418-1.838-7.355-1.838-11.449 0-20.198 16.374-36.571 36.571-36.571 3.787 0 7.439 0.576 10.874 1.644l152.244 40.891 375.954 380.709-154.331 154.331zM862.354 702.537l-96.549 96.549c-7.423 7.479-17.708 12.109-29.074 12.109s-21.651-4.63-29.072-12.106l-0.002-0.003-75.337-75.337 154.331-154.331 75.337 75.337c7.479 7.423 12.109 17.709 12.109 29.075 0 11.184-4.483 21.322-11.749 28.713l0.006-0.006z" />
<glyph unicode="&#xe933;" glyph-name="check-square" d="M693.394 722.286c50.495 0 91.429-40.934 91.429-91.429v0-365.714c0-50.495-40.934-91.429-91.429-91.429v0h-365.714c-50.495 0-91.429 40.934-91.429 91.429v0 365.714c0 50.495 40.934 91.429 91.429 91.429v0h365.714zM693.394 813.714h-365.714c-100.989 0-182.857-81.868-182.857-182.857v0-365.714c0-100.989 81.868-182.857 182.857-182.857v0h365.714c100.989 0 182.857 81.868 182.857 182.857v0 365.714c0 100.989-81.868 182.857-182.857 182.857v0 0z" />
<glyph unicode="&#xe934;" glyph-name="checked-square" d="M694.857 813.714h-365.714c-100.989 0-182.857-81.868-182.857-182.857v0-365.714c0-100.989 81.868-182.857 182.857-182.857v0h365.714c100.989 0 182.857 81.868 182.857 182.857v0 365.714c0 100.989-81.868 182.857-182.857 182.857v0zM531.383 313.417c-16.482-16.495-39.258-26.698-64.417-26.698-0.111 0-0.221 0-0.331 0.001h0.017c-0.093 0-0.204-0.001-0.314-0.001-25.159 0-47.936 10.203-64.417 26.697v0l-140.8 140.434 64.731 64.731 140.8-140.434 235.154 234.423 64.731-64.731z" />
<glyph unicode="&#xe935;" glyph-name="setting" d="M763.246 529.92l109.714 99.84-64.731 92.526-109.714-57.417-112.64 46.811-17.92 135.68h-111.909l-17.92-136.411-109.714-45.714-109.714 57.417-64.731-92.526 109.714-99.84v-163.109l-109.714-99.84 64.731-92.526 109.714 57.417 112.64-46.811 17.92-135.68h113.006l17.92 136.411 109.714 45.714 109.714-57.417 64.731 92.526-109.714 99.84v164.206zM648.777 344.503l-136.777-57.051-136.777 57.051v205.531l136.777 57.051 136.777-57.051v-206.629z" />
<glyph unicode="&#xe936;" glyph-name="my-account" d="M791.771 722.286l-232.229 96.914c-14.23 5.502-30.697 8.69-47.909 8.69s-33.678-3.188-48.843-9.005l0.934 0.315-232.229-96.914c-32.607-15.088-55.084-47.017-56.316-84.324l-0.004-0.156v-379.246c1.236-37.463 23.713-69.392 55.726-84.233l0.594-0.247 232.229-96.914c13.772-5.56 29.742-8.785 46.465-8.785 0.508 0 1.014 0.003 1.521 0.009l-0.077-0.001c0.429-0.005 0.936-0.008 1.443-0.008 16.724 0 32.694 3.226 47.322 9.089l-0.857-0.303 232.229 96.914c32.607 15.088 55.084 47.017 56.316 84.324l0.004 0.156v379.246c-1.236 37.463-23.713 69.392-55.726 84.233l-0.594 0.247zM774.949 258.56c-1.183-7.172-5.385-13.178-11.232-16.763l-0.105-0.060-125.074-52.297v67.291l-128.366 53.394-128.366-53.394v-66.194l-122.149 50.834c-5.952 3.645-10.155 9.651-11.318 16.683l-0.019 0.14v379.611c1.183 7.172 5.385 13.178 11.232 16.763l0.105 0.060 232.229 96.914c5.334 1.874 11.485 2.957 17.888 2.957 0.654 0 1.306-0.011 1.954-0.034l-0.094 0.003c0.555 0.020 1.206 0.031 1.86 0.031 6.403 0 12.554-1.083 18.278-3.075l-0.39 0.118 232.229-96.914c5.952-3.645 10.155-9.651 11.318-16.683l0.019-0.14v-379.246zM382.171 595.017v-193.463l128.366-53.394 128.366 53.394v193.463l-128.366 53.394-128.366-53.394z" />
<glyph unicode="&#xe937;" glyph-name="envelope" d="M790.674 664.503l-232.229 96.914c-14.228 5.518-30.695 8.715-47.909 8.715s-33.68-3.197-48.839-9.029l0.931 0.315-232.229-96.914c-32.607-15.088-55.084-47.017-56.316-84.324l-0.004-0.156v-378.514c0-40.396 32.747-73.143 73.143-73.143v0h526.629c40.396 0 73.143 32.747 73.143 73.143v0 378.514c-1.236 37.463-23.713 69.392-55.726 84.233l-0.594 0.247zM258.56 596.846l232.229 96.914c5.351 1.873 11.521 2.955 17.943 2.955 0.635 0 1.268-0.011 1.897-0.032l-0.092 0.002c0.538 0.019 1.171 0.029 1.806 0.029 6.422 0 12.591-1.082 18.336-3.073l-0.393 0.119 232.229-96.914c5.952-3.645 10.155-9.651 11.318-16.683l0.019-0.14v-25.234l-240.274-100.206c-5.904-1.912-12.698-3.015-19.749-3.015s-13.844 1.102-20.217 3.144l0.469-0.13-246.857 102.766v22.309c1.411 7.554 6.18 13.768 12.665 17.125l0.135 0.063zM546.743 198.949h-299.886v277.943l219.429-91.063c13.772-5.56 29.742-8.785 46.465-8.785 0.508 0 1.014 0.003 1.521 0.009l-0.077-0.001c0.429-0.005 0.936-0.008 1.443-0.008 16.724 0 32.694 3.226 47.322 9.089l-0.857-0.303 212.114 88.503v-272.823z" />
<glyph unicode="&#xe938;" glyph-name="information" d="M792.869 721.92l-232.229 96.914c-14.23 5.502-30.697 8.69-47.909 8.69s-33.678-3.188-48.843-9.005l0.934 0.315-232.229-96.914c-32.607-15.088-55.084-47.017-56.316-84.324l-0.004-0.156v-379.246c1.236-37.463 23.713-69.392 55.726-84.233l0.594-0.247 232.229-96.914c13.772-5.56 29.742-8.785 46.465-8.785 0.508 0 1.014 0.003 1.521 0.009l-0.077-0.001c0.429-0.005 0.936-0.008 1.443-0.008 16.724 0 32.694 3.226 47.322 9.089l-0.857-0.303 232.229 96.914c32.607 15.088 55.084 47.017 56.316 84.324l0.004 0.156v379.246c-1.236 37.463-23.713 69.392-55.726 84.233l-0.594 0.247zM776.046 258.194c-1.183-7.172-5.385-13.178-11.232-16.763l-0.105-0.060-232.229-96.914c-5.904-1.912-12.698-3.015-19.749-3.015s-13.844 1.102-20.217 3.144l0.469-0.13-232.229 96.914c-5.952 3.645-10.155 9.651-11.318 16.683l-0.019 0.14v379.246c1.183 7.172 5.385 13.178 11.232 16.763l0.105 0.060 232.229 96.914c5.334 1.874 11.485 2.957 17.888 2.957 0.654 0 1.306-0.011 1.954-0.034l-0.094 0.003c0.538 0.019 1.171 0.029 1.806 0.029 6.422 0 12.591-1.082 18.336-3.073l-0.393 0.119 232.229-96.914c5.952-3.645 10.155-9.651 11.318-16.683l0.019-0.14v-379.246zM464.457 633.783v-76.434l50.469-20.846 50.469 20.846v76.434l-50.469 20.846-50.469-20.846zM464.457 463.726v-201.509l50.469-20.846 50.469 20.846v201.509l-50.469 20.846-50.469-20.846z" />
<glyph unicode="&#xe939;" glyph-name="language" d="M635.611 398.263h103.863l14.629-34.743h49.006l-90.697 201.509h-49.006l-90.697-201.509h48.64zM687.543 519.68l34.743-81.92h-69.851zM875.154 772.389c-10.256 7.381-23.070 11.804-36.918 11.804-7.338 0-14.387-1.242-20.946-3.528l0.447 0.135-282.331-88.137c-9.226-2.979-17.239-7.21-24.341-12.582l0.204 0.148c-6.9 5.217-14.912 9.448-23.56 12.271l-0.577 0.163-282.331 88.137c-6.042 2.097-13.005 3.309-20.252 3.309-13.797 0-26.568-4.391-36.992-11.851l0.192 0.131c-15.404-11.739-25.245-30.095-25.245-50.75 0-0.415 0.004-0.83 0.012-1.243l-0.001 0.062v-544.183c-0.007-0.351-0.011-0.766-0.011-1.181 0-20.655 9.841-39.012 25.090-50.637l0.155-0.113c9.947-7.315 22.439-11.706 35.956-11.706 0.216 0 0.432 0.001 0.648 0.003h-0.033c7.461 0.050 14.624 1.25 21.345 3.432l-0.499-0.14 282.331 88.137c9.226 2.979 17.239 7.21 24.341 12.582l-0.204-0.148c6.898-5.224 14.912-9.455 23.563-12.272l0.574-0.162 282.331-88.137c6.223-2.058 13.389-3.259 20.83-3.291h0.016c0.183-0.002 0.399-0.003 0.615-0.003 13.517 0 26.009 4.391 36.126 11.825l-0.17-0.119c15.404 11.739 25.245 30.095 25.245 50.75 0 0.415-0.004 0.83-0.012 1.243l0.001-0.062v544.183c0.004 0.271 0.007 0.59 0.007 0.91 0 20.814-9.993 39.294-25.443 50.904l-0.164 0.118zM461.897 495.909h-36.571c-21.762-38.118-45.982-71.075-73.492-100.956l0.349 0.384c24.661-22.309 51.929-42.712 80.999-60.454l2.384-1.352-23.040-36.571c-34.349 20.869-64.13 43.203-91.551 68.093l0.488-0.436c-22.936-22.101-47.766-42.638-74.083-61.208l-1.985-1.329-25.6 36.571c25.969 18.367 48.771 37.339 69.999 57.926l-0.148-0.143c-16.285 16.921-30.997 35.586-43.76 55.613l-0.857 1.438 38.766 22.309c11.341-17.724 23.392-33.146 36.728-47.346l-0.157 0.169c18.392 20.47 35.61 42.919 51.018 66.653l1.279 2.102h-174.446v44.617h109.714v40.96h43.886v-42.423h109.714v-44.617zM827.611 189.074l-269.531 84.114c-4.733 2.511-8.134 6.995-9.126 12.326l-0.017 0.108v324.754c1.009 5.439 4.41 9.923 9.048 12.388l0.095 0.046 269.531 84.114v-518.217zM827.611 720.457v0z" />
<glyph unicode="&#xe93a;" glyph-name="lock" d="M724.846 52.297h-425.326c-40.396 0-73.143 32.747-73.143 73.143v0 303.543c1.236 37.463 23.713 69.392 55.726 84.233l0.594 0.247 182.857 75.703c14.23 5.502 30.697 8.69 47.909 8.69s33.678-3.188 48.843-9.005l-0.934 0.315 182.857-75.703c32.607-15.088 55.084-47.017 56.316-84.324l0.004-0.156v-303.543c0-0.013 0-0.029 0-0.045 0-40.396-32.747-73.143-73.143-73.143-0.9 0-1.797 0.016-2.689 0.049l0.129-0.004zM512 524.434c-0.538 0.019-1.171 0.029-1.806 0.029-6.422 0-12.591-1.082-18.336-3.073l0.393 0.119-182.857-75.703c-5.952-3.645-10.155-9.651-11.318-16.683l-0.019-0.14v-303.543h425.691v303.543c-1.183 7.172-5.385 13.178-11.232 16.763l-0.105 0.060-182.857 75.703c-5.203 1.935-11.214 3.128-17.482 3.29l-0.072 0.001zM512 392.411l-72.411-29.989v-109.714l72.411-29.989 72.411 29.989v109.714l-72.411 29.989zM738.377 476.526h-73.143v140.434c0 84.831-68.769 153.6-153.6 153.6v0c-84.831 0-153.6-68.769-153.6-153.6v0-132.754h-73.143v132.754c0.208 125.143 101.6 226.535 226.723 226.743h0.020c125.143-0.208 226.535-101.6 226.743-226.723v-140.454z" />
<glyph unicode="&#xe93b;" glyph-name="logout" d="M359.863 184.686c-8.503 1.183-15.747 5.783-20.418 12.342l-0.062 0.092-118.491 234.423c-1.807 4.785-2.853 10.316-2.853 16.091s1.046 11.307 2.959 16.414l-0.106-0.323 118.491 234.423c4.702 6.763 11.941 11.48 20.31 12.778l0.17 0.022h280.137v73.143h-280.137c-36.766-1.472-68.397-22.114-85.311-52.15l-0.266-0.513-118.491-234.423c-6.82-14.428-10.802-31.343-10.802-49.189s3.982-34.76 11.105-49.906l-0.303 0.717 118.491-234.423c17.127-30.598 48.789-51.266 85.389-52.657l0.189-0.006h280.137v73.143h-280.137zM868.571 481.28l-173.349 160.549c-14.629 13.531-26.697 8.411-26.697-11.703v-99.474h-245.029v-146.286h245.029v-100.571c0-20.114 12.069-25.234 26.697-11.703l173.349 160.549c6.507 6.090 10.562 14.732 10.562 24.32s-4.055 18.23-10.544 24.303l-0.019 0.017z" />
<glyph unicode="&#xe93c;" glyph-name="question-mark" d="M710.949 735.086l-186.514 77.166c-4.159 1.783-8.998 2.819-14.080 2.819s-9.921-1.036-14.319-2.91l0.239 0.090-185.051-77.166c-13.213-5.701-22.296-18.611-22.309-33.644v-151.773h91.794v114.469l129.463 54.126 129.463-54.126v-99.84l-175.543-73.143v-208.823h91.794v146.286l153.234 64c13.213 5.701 22.296 18.611 22.309 33.644v174.082c0.031 0.561 0.048 1.218 0.048 1.878 0 14.358-8.275 26.784-20.316 32.769l-0.213 0.096zM462.629 188.343v-87.040l49.371-20.48 49.371 20.48v87.040l-49.371 20.48-49.371-20.48z" />
<glyph unicode="&#xe93d;" glyph-name="terms-condition" d="M197.12 722.651v-98.743l65.463-27.429 65.463 27.429v98.743l-65.463 27.429-65.463-27.429zM424.229 707.291h402.651v-68.023h-402.651v68.023zM197.12 497.371v-98.743l65.463-27.429 65.463 27.429v98.743l-65.463 27.429-65.463-27.429zM424.229 482.011h402.651v-68.023h-402.651v68.023zM197.12 272.091v-98.743l65.463-27.429 65.463 27.429v98.743l-65.463 27.429-65.463-27.429zM424.229 256.731h402.651v-68.023h-402.651v68.023z" />
<glyph unicode="&#xe93e;" glyph-name="ic_show" d="M871.863 467.017c-73.288 125.887-206.443 209.863-359.444 212.839l-0.418 0.006c-153.42-2.983-286.575-86.959-358.777-210.828l-1.086-2.018c-3.080-5.245-4.9-11.553-4.9-18.286s1.819-13.040 4.993-18.458l-0.093 0.173c73.236-125.937 206.422-209.94 359.454-212.84l0.408-0.006c153.441 2.906 286.627 86.909 358.777 210.826l1.086 2.020c3.080 5.245 4.9 11.553 4.9 18.286s-1.819 13.040-4.993 18.458l0.093-0.173zM512 279.771c-92.91 0-168.229 75.318-168.229 168.229v0c0 92.91 75.318 168.229 168.229 168.229v0c92.91 0 168.229-75.318 168.229-168.229v0c0-92.91-75.318-168.229-168.229-168.229v0zM596.114 448c0-46.455-37.659-84.114-84.114-84.114s-84.114 37.659-84.114 84.114c0 46.455 37.659 84.114 84.114 84.114s84.114-37.659 84.114-84.114z" />
<glyph unicode="&#xe93f;" glyph-name="send" d="M853.943 791.040c-16.271 16.571-38.911 26.841-63.949 26.841-12.285 0-23.993-2.472-34.653-6.947l0.59 0.22-563.931-226.011c-28.026-11.247-47.653-37.773-48.637-69.001l-0.003-0.119c-0.056-1.011-0.088-2.195-0.088-3.386 0-25.668 14.773-47.885 36.28-58.614l0.379-0.171 195.657-91.794 235.52 234.789 48.64-49.006-235.52-234.789 93.257-197.486c10.914-21.845 33.11-36.583 58.748-36.583 0.432 0 0.863 0.004 1.294 0.013l-0.064-0.001h2.194c31.28 1.202 57.665 20.937 68.573 48.486l0.181 0.52 224.183 565.76c4.389 10.212 6.942 22.098 6.942 34.58 0 24.417-9.767 46.554-25.608 62.715l0.015-0.015z" />
<glyph unicode="&#xe940;" glyph-name="register" d="M329.143 611.474h365.714v-73.143h-365.714v73.143zM964.754 555.154l-36.571 39.497c-6.639 6.751-15.872 10.935-26.081 10.935-8.877 0-17.016-3.163-23.35-8.423l0.060 0.048-241.737-215.771-34.743-67.657-29.989-58.514c-0.626-1.568-0.989-3.386-0.989-5.288 0-8.079 6.549-14.629 14.629-14.629 1.393 0 2.741 0.195 4.018 0.559l-0.103-0.025 62.903 24.869 67.291 28.891 241.371 215.406c7.195 6.697 11.681 16.222 11.681 26.795 0 8.886-3.169 17.031-8.438 23.368l0.048-0.060zM531.749 144.457c-5.904-1.912-12.698-3.015-19.749-3.015s-13.844 1.102-20.217 3.144l0.469-0.13-232.229 96.914c-5.952 3.645-10.155 9.651-11.318 16.683l-0.019 0.14v379.246c1.183 7.172 5.385 13.178 11.232 16.763l0.105 0.060 232.229 96.914c5.351 1.873 11.521 2.955 17.943 2.955 0.635 0 1.268-0.011 1.897-0.032l-0.092 0.002c0.538 0.019 1.171 0.029 1.806 0.029 6.422 0 12.591-1.082 18.336-3.073l-0.393 0.119 232.229-96.914c5.952-3.645 10.155-9.651 11.318-16.683l0.019-0.14v-49.737l73.143 64c-6.050 31.424-26.598 57.037-54.262 69.967l-0.595 0.25-232.229 96.914c-14.23 5.502-30.697 8.69-47.909 8.69s-33.678-3.188-48.843-9.005l0.934 0.315-232.229-96.914c-32.607-15.088-55.084-47.017-56.316-84.324l-0.004-0.156v-379.246c1.236-37.463 23.713-69.392 55.726-84.233l0.594-0.247 232.229-96.914c13.75-5.56 29.697-8.786 46.398-8.786 0.531 0 1.062 0.003 1.591 0.010l-0.081-0.001c0.429-0.005 0.936-0.008 1.443-0.008 16.724 0 32.694 3.226 47.322 9.089l-0.857-0.303 232.229 96.914c32.607 15.088 55.084 47.017 56.316 84.324l0.004 0.156v23.040l-84.48-39.863zM583.314 416.549l76.069 68.023h-330.24v-73.143h248.686l5.486 5.12zM329.143 284.526h187.246v3.657l28.891 55.954 6.217 12.434h-224.183v-73.143z" />
<glyph unicode="&#xe941;" glyph-name="goto-top" d="M189.074 298.057h65.097v-171.886h47.543v171.886h65.463v42.789h-178.103v-42.789zM499.931 345.966c-2.677 0.238-5.791 0.373-8.937 0.373-59.18 0-107.154-47.975-107.154-107.154 0-2.061 0.058-4.109 0.173-6.141l-0.013 0.282c-0.102-1.751-0.16-3.798-0.16-5.859 0-59.18 47.975-107.154 107.154-107.154 3.146 0 6.26 0.136 9.338 0.401l-0.4-0.028c2.677-0.238 5.791-0.373 8.937-0.373 59.18 0 107.154 47.975 107.154 107.154 0 2.061-0.058 4.109-0.173 6.141l0.013-0.282c0.102 1.751 0.16 3.798 0.16 5.859 0 59.18-47.975 107.154-107.154 107.154-3.146 0-6.26-0.136-9.338-0.401l0.4 0.028zM499.931 163.109c-0.779-0.033-1.693-0.051-2.611-0.051-36.76 0-66.56 29.8-66.56 66.56 0 0.918 0.019 1.832 0.055 2.742l-0.004-0.13c-0.023 0.662-0.037 1.439-0.037 2.22 0 37.164 30.127 67.291 67.291 67.291 0.656 0 1.31-0.009 1.961-0.028l-0.096 0.002c0.784 0.033 1.703 0.052 2.627 0.052 36.76 0 66.56-29.8 66.56-66.56 0-1.047-0.024-2.089-0.072-3.124l0.005 0.147c0.017-0.564 0.027-1.228 0.027-1.894 0-36.558-29.636-66.194-66.194-66.194-1.039 0-2.071 0.024-3.098 0.071l0.145-0.005zM752.64 341.943h-101.303v-214.674h47.909v60.709h53.394c2.783-0.375 5.999-0.589 9.266-0.589 40.396 0 73.143 32.747 73.143 73.143 0 1.494-0.045 2.977-0.133 4.449l0.010-0.203c0.093 1.38 0.146 2.991 0.146 4.615 0 40.396-32.747 73.143-73.143 73.143-3.275 0-6.499-0.215-9.66-0.632l0.371 0.040zM752.64 232.229h-53.394v64.731h53.394c0.77 0.066 1.666 0.104 2.571 0.104 17.572 0 31.817-14.245 31.817-31.817 0-0.294-0.004-0.587-0.012-0.879l0.001 0.043c0.008-0.259 0.012-0.563 0.012-0.869 0-17.37-14.081-31.451-31.451-31.451-1.034 0-2.057 0.050-3.066 0.148l0.128-0.010zM230.4 434.834h565.029c0.063 0 0.138-0.001 0.213-0.001 20.198 0 36.571 16.374 36.571 36.571 0 10.152-4.136 19.338-10.816 25.964l-256.002 256.002c-13.239 13.253-31.536 21.452-51.749 21.452s-38.509-8.198-51.748-21.451l-256.001-256.001c-6.694-6.63-10.839-15.824-10.839-25.986 0-19.765 15.68-35.868 35.279-36.549l0.062-0.002z" />
<glyph unicode="&#xe942;" glyph-name="facebook-square" d="M768 119.223h-130.926v256h85.577l12.8 99.474h-98.377v63.269c-0.484 2.375-0.762 5.104-0.762 7.898 0 22.824 18.502 41.326 41.326 41.326 3.121 0 6.16-0.346 9.083-1.001l-0.276 0.052h52.663v88.869c-22.552 2.563-48.691 4.025-75.171 4.025-0.573 0-1.146-0.001-1.718-0.002h0.089c-2.589 0.2-5.607 0.313-8.651 0.313-66.047 0-119.589-53.542-119.589-119.589 0-4.232 0.22-8.413 0.649-12.531l-0.043 0.515v-73.143h-85.577v-99.474h85.577v-256h-278.309c-40.396 0-73.143 32.747-73.143 73.143v0 512c0 40.396 32.747 73.143 73.143 73.143v0h512c40.396 0 73.143-32.747 73.143-73.143v0-512c0 0 0-0.001 0-0.001 0-40.396-32.747-73.143-73.143-73.143-0.129 0-0.257 0-0.386 0.001h0.020z" />
<glyph unicode="&#xe943;" glyph-name="facebook" d="M679.497 678.766h-53.029c-1.223 0.093-2.649 0.146-4.087 0.146-31.711 0-57.417-25.707-57.417-57.417 0-0.952 0.023-1.898 0.069-2.838l-0.005 0.133v-77.897h104.594v-109.714h-104.594v-314.514h-116.663v314.514h-103.497v109.714h103.497v117.76c1.899 63.5 52.274 114.639 115.282 117.749l0.284 0.011h115.931v-98.377z" />
<glyph unicode="&#xe944;" glyph-name="twitter" d="M773.851 565.029c0.007-0.873 0.011-1.904 0.011-2.937 0-210.663-170.777-381.44-381.44-381.44-1.032 0-2.064 0.004-3.095 0.012l0.158-0.001c-0.093 0-0.204 0-0.314 0-76.778 0-148.268 22.641-208.157 61.61l1.477-0.901c9.566-1.164 20.642-1.829 31.873-1.829 0.109 0 0.218 0 0.327 0h-0.017c0.139 0 0.303 0 0.467 0 63.425 0 121.767 21.759 167.97 58.22l-0.574-0.437c-58.923 1.089-108.527 39.779-125.902 93.034l-0.269 0.954c7.68-1.593 16.52-2.523 25.571-2.56h0.029c0.228-0.001 0.497-0.002 0.766-0.002 12.736 0 25.067 1.736 36.769 4.985l-0.964-0.228c-62.764 12.414-109.473 66.911-109.714 132.362v0.026c17.616-9.937 38.551-16.084 60.856-16.817l0.219-0.006c-36.37 24.476-59.979 65.487-59.979 112.012 0 0.221 0.001 0.441 0.002 0.662v-0.034c0 0.086 0 0.189 0 0.291 0 24.955 6.792 48.324 18.628 68.358l-0.342-0.626c66.836-81.904 165.798-135.401 277.383-141.128l0.926-0.038c-2.093 9.109-3.292 19.569-3.292 30.309 0 0.145 0 0.289 0.001 0.434v-0.022c0 74.53 60.419 134.949 134.949 134.949v0c0.096 0 0.21 0 0.323 0 38.812 0 73.786-16.429 98.348-42.712l0.071-0.077c32.415 6.509 61.209 17.929 87.153 33.592l-1.21-0.678c-10.802-31.166-31.666-56.531-58.635-72.801l-0.611-0.342c28.764 3.479 54.954 10.948 79.236 21.899l-1.705-0.688c-18.415-27.429-40.752-50.581-66.511-69.311l-0.78-0.541c0-5.12 0-11.703 0-17.554z" />
<glyph unicode="&#xe945;" glyph-name="android" d="M243.931 576.731h-1.829c-24.282-0.207-43.886-19.939-43.886-44.25 0-0.001 0-0.001 0-0.002v0-192c-0.001-0.109-0.002-0.237-0.002-0.366 0-24.237 19.648-43.886 43.886-43.886 0.001 0 0.001 0 0.002 0h1.828c24.282 0.207 43.886 19.939 43.886 44.25 0 0.001 0 0.001 0 0.002v0 192c0 0 0 0.001 0 0.002 0 24.311-19.604 44.043-43.866 44.25h-0.020zM309.029 266.606c0-0.001 0-0.001 0-0.002 0-22.291 17.967-40.386 40.209-40.592h43.174v-103.863c0 0 0-0.001 0-0.002 0-24.311 19.604-44.043 43.866-44.25h1.849c24.282 0.207 43.886 19.939 43.886 44.25 0 0.001 0 0.001 0 0.002v0 103.863h59.977v-103.863c0 0 0-0.001 0-0.002 0-24.311 19.604-44.043 43.866-44.25h1.849c24.282 0.207 43.886 19.939 43.886 44.25 0 0.001 0 0.001 0 0.002v0 103.863h43.154c22.262 0.207 40.229 18.302 40.229 40.593 0 0.001 0 0.001 0 0.002v0 303.177h-405.943v-303.177zM612.937 753.737l34.011 53.029c0.767 1.139 1.224 2.541 1.224 4.050 0 2.595-1.351 4.874-3.388 6.172l-0.030 0.018c-1.081 0.665-2.39 1.059-3.791 1.059-2.526 0-4.753-1.28-6.067-3.227l-0.017-0.026-36.571-54.857c-25.774 10.872-55.739 17.189-87.179 17.189-0.208 0-0.416 0-0.624-0.001h0.032c-0.155 0-0.338 0.001-0.52 0.001-31.465 0-61.454-6.317-88.769-17.753l1.518 0.564-36.571 54.857c-1.316 2.067-3.595 3.418-6.19 3.418-1.509 0-2.911-0.457-4.076-1.24l0.026 0.017c-2.067-1.316-3.418-3.595-3.418-6.19 0-1.509 0.457-2.911 1.24-4.076l-0.017 0.026 34.377-53.029c-59.649-27.155-100.852-85.303-103.124-153.314l-0.008-0.286c0-4.023 0-8.046 0-12.069h407.406c0 4.023 0 8.046 0 12.069-1.572 67.558-41.315 125.471-98.435 153.146l-1.039 0.454zM417.28 658.651c-10.907 0-19.749 8.842-19.749 19.749v0c0 10.907 8.842 19.749 19.749 19.749v0c10.907 0 19.749-8.842 19.749-19.749v0c0-10.907-8.842-19.749-19.749-19.749v0zM606.354 658.651c-10.907 0-19.749 8.842-19.749 19.749v0c0 10.907 8.842 19.749 19.749 19.749v0c10.907 0 19.749-8.842 19.749-19.749v0c0-10.907-8.842-19.749-19.749-19.749v0zM781.531 576.731v0c-24.282-0.207-43.886-19.939-43.886-44.25 0-0.001 0-0.001 0-0.002v0-192c0 0 0-0.001 0-0.002 0-24.311 19.604-44.043 43.866-44.25h1.849c24.282 0.207 43.886 19.939 43.886 44.25 0 0.001 0 0.001 0 0.002v0 192c0 0.007 0 0.016 0 0.024 0 24.439-19.812 44.251-44.251 44.251-0.514 0-1.027-0.009-1.537-0.026l0.074 0.002z" />
<glyph unicode="&#xe946;" glyph-name="ios" d="M788.846 296.229v0c-51.246 22.366-86.459 72.507-86.674 130.898v0.028c0.595 51.74 27.96 96.96 68.87 122.521l0.616 0.359c1.311 0.797 2.249 2.095 2.554 3.622l0.006 0.035c0.289 0.646 0.458 1.401 0.458 2.194s-0.169 1.548-0.472 2.229l0.014-0.035c-28.699 40.686-74.876 67.387-127.372 69.113l-0.262 0.007h-10.971c-29.352-1.675-56.648-8.78-81.464-20.322l1.373 0.573c-10.602-5.249-22.903-9.21-35.844-11.243l-0.727-0.094c-14.685 1.858-28.020 5.98-40.229 12.031l0.732-0.328c-20.424 9.716-44.224 16.028-69.32 17.529l-0.531 0.025c-61.662-1.938-114.921-36.135-143.649-86.204l-0.442-0.836c-57.783-100.206-21.211-252.343 42.789-344.503 31.817-46.080 64.366-87.406 109.714-87.406h2.56c18.589 1.273 35.769 6.13 51.245 13.884l-0.777-0.352c17.384 8.77 37.857 14.009 59.528 14.262l0.083 0.001c20.805-0.123 40.418-5.108 57.798-13.873l-0.746 0.341c15.846-8.25 34.595-13.111 54.474-13.166h0.017c50.103 0 80.457 45.714 107.52 84.846 19.154 27.766 35.163 59.747 46.418 93.889l0.759 2.66c0.608 0.871 0.971 1.951 0.971 3.116 0 3.030-2.456 5.486-5.486 5.486-1.349 0-2.584-0.487-3.539-1.294l0.008 0.007zM510.903 623.909h7.314c39.568 1.812 74.381 20.729 97.444 49.477l0.202 0.26c22.924 26.722 36.879 61.722 36.879 99.981 0 3.424-0.112 6.823-0.332 10.192l0.024-0.458c-0.191 2.874-2.569 5.133-5.474 5.133-0.133 0-0.264-0.005-0.395-0.014l0.018 0.001c-41.313-3.971-77.438-23.461-102.981-52.489l-0.15-0.174c-23.022-25.736-37.095-59.899-37.095-97.349 0-4.353 0.19-8.661 0.562-12.917l-0.039 0.552c0.937-1.248 2.373-2.078 4.005-2.193l0.017-0.001z" />
<glyph unicode="&#xe947;" glyph-name="exclamation" d="M512.731 818.834c-204.556-0.622-370.213-166.279-370.834-370.775v-0.059c0.622-204.556 166.279-370.213 370.775-370.834h0.059c204.556 0.622 370.213 166.279 370.834 370.775v0.059c-0.622 204.556-166.279 370.213-370.775 370.834h-0.059zM512.731 151.406c-163.637 0.415-296.179 132.957-296.594 296.554v0.040c0.415 163.637 132.957 296.179 296.554 296.594h0.040c163.637-0.415 296.179-132.957 296.594-296.554v-0.040c-1.035-163.166-133.34-295.086-296.555-295.497h-0.040zM461.531 338.651v-76.434l50.469-20.846 50.469 20.846v76.434l-50.469 20.846-50.469-20.846zM461.531 633.783v-201.509l50.469-20.846 50.469 20.846v201.509l-50.469 20.846-50.469-20.846z" />
<glyph unicode="&#xe948;" glyph-name="bubble-text" d="M739.84 824.32h-456.411c-80.791 0-146.286-65.494-146.286-146.286v0-319.634c0-80.791 65.494-146.286 146.286-146.286v0h22.309v-89.6c-0.023-0.566-0.036-1.229-0.036-1.896 0-27.267 22.104-49.371 49.371-49.371 13.75 0 26.188 5.621 35.14 14.691l124.714 124.714h224.914c80.791 0 146.286 65.494 146.286 146.286v0 320.366c0.001 0.217 0.002 0.474 0.002 0.731 0 80.791-65.494 146.286-146.286 146.286-0.001 0-0.001 0-0.002 0v0zM717.531 392.046h-413.623v54.857h413.623v-54.857zM717.531 578.926h-413.623v54.857h413.623v-54.857z" />
<glyph unicode="&#xe949;" glyph-name="submission-step-1" d="M775.314 258.194c-1.183-7.172-5.385-13.178-11.232-16.763l-0.105-0.060-231.863-97.28c-5.904-1.912-12.698-3.015-19.749-3.015s-13.844 1.102-20.217 3.144l0.469-0.13-232.229 96.914c-5.952 3.645-10.155 9.651-11.318 16.683l-0.019 0.14v379.246c1.183 7.172 5.385 13.178 11.232 16.763l0.105 0.060 232.229 96.914c5.334 1.874 11.485 2.957 17.888 2.957 0.654 0 1.306-0.011 1.954-0.034l-0.094 0.003c0.538 0.019 1.171 0.029 1.806 0.029 6.422 0 12.591-1.082 18.336-3.073l-0.393 0.119 73.143-31.086 61.074 53.76-107.52 44.983c-14.23 5.502-30.697 8.69-47.909 8.69s-33.678-3.188-48.843-9.005l0.934 0.315-232.229-96.914c-32.607-15.088-55.084-47.017-56.316-84.324l-0.004-0.156v-379.246c1.236-37.463 23.713-69.392 55.726-84.233l0.594-0.247 232.229-96.914c13.772-5.56 29.742-8.785 46.465-8.785 0.508 0 1.014 0.003 1.521 0.009l-0.077-0.001c0.429-0.005 0.936-0.008 1.443-0.008 16.724 0 32.694 3.226 47.322 9.089l-0.857-0.303 232.229 96.914c32.607 15.088 55.084 47.017 56.316 84.324l0.004 0.156v275.383l-73.143-64.366v-211.383zM861.257 701.44l-47.177 51.931c-8.529 9.366-20.773 15.222-34.384 15.222-11.971 0-22.884-4.529-31.119-11.966l0.041 0.036-279.771-249.783 109.714-119.954 278.309 248.32c9.943 8.568 16.2 21.177 16.2 35.248 0 11.908-4.482 22.77-11.85 30.99l0.039-0.044zM358.4 316.343c-0.699-1.919-1.103-4.135-1.103-6.445 0-10.705 8.678-19.383 19.383-19.383 1.691 0 3.331 0.217 4.895 0.623l-0.135-0.030 83.383 32.914 88.869 36.571 2.194 2.194-109.714 119.954-45.714-89.234z" />
<glyph unicode="&#xe94a;" glyph-name="submission-step-2" d="M792.137 721.92l-232.229 96.914c-14.228 5.518-30.695 8.715-47.909 8.715s-33.68-3.197-48.839-9.029l0.931 0.315-232.229-96.914c-32.607-15.088-55.084-47.017-56.316-84.324l-0.004-0.156v-379.246c1.236-37.463 23.713-69.392 55.726-84.233l0.594-0.247 232.229-96.914c13.772-5.56 29.742-8.785 46.465-8.785 0.508 0 1.014 0.003 1.521 0.009l-0.077-0.001c0.449-0.006 0.979-0.009 1.511-0.009 16.701 0 32.648 3.226 47.252 9.089l-0.854-0.303 232.229 96.914c32.607 15.088 55.084 47.017 56.316 84.324l0.004 0.156v379.246c-1.236 37.463-23.713 69.392-55.726 84.233l-0.594 0.247zM775.314 258.194c-1.183-7.172-5.385-13.178-11.232-16.763l-0.105-0.060-232.594-96.549c-5.904-1.912-12.698-3.015-19.749-3.015s-13.844 1.102-20.217 3.144l0.469-0.13-232.229 96.914c-5.952 3.645-10.155 9.651-11.318 16.683l-0.019 0.14v379.246c1.183 7.172 5.385 13.178 11.232 16.763l0.105 0.060 232.229 96.914c5.334 1.874 11.485 2.957 17.888 2.957 0.654 0 1.306-0.011 1.954-0.034l-0.094 0.003c0.571 0.021 1.241 0.033 1.915 0.033 6.385 0 12.516-1.084 18.221-3.077l-0.387 0.118 232.229-96.914c5.952-3.645 10.155-9.651 11.318-16.683l0.019-0.14v-379.246zM329.143 596.48h77.531v-66.194h-77.531v66.194zM329.143 481.28h77.531v-66.194h-77.531v66.194zM329.143 366.080h77.531v-66.194h-77.531v66.194zM452.389 596.48h242.469v-66.194h-242.469v66.194zM452.389 481.28h242.469v-66.194h-242.469v66.194zM452.389 366.080h242.469v-66.194h-242.469v66.194z" />
<glyph unicode="&#xe94b;" glyph-name="submission-step-3" d="M792.137 721.92l-232.229 96.914c-14.228 5.518-30.695 8.715-47.909 8.715s-33.68-3.197-48.839-9.029l0.931 0.315-232.229-96.549c-32.607-15.088-55.084-47.017-56.316-84.324l-0.004-0.156v-379.246c1.236-37.463 23.713-69.392 55.726-84.233l0.594-0.247 232.229-96.914c13.772-5.56 29.742-8.785 46.465-8.785 0.508 0 1.014 0.003 1.521 0.009l-0.077-0.001c0.449-0.006 0.979-0.009 1.511-0.009 16.701 0 32.648 3.226 47.252 9.089l-0.854-0.303 232.229 96.914c32.607 15.088 55.084 47.017 56.316 84.324l0.004 0.156v379.246c-1.38 37.318-23.818 69.080-55.725 83.867l-0.595 0.247zM260.023 654.263l232.229 96.914c5.317 1.875 11.449 2.959 17.834 2.959 0.673 0 1.344-0.012 2.011-0.036l-0.097 0.003c0.555 0.020 1.206 0.031 1.86 0.031 6.403 0 12.554-1.083 18.278-3.075l-0.39 0.118 232.229-96.914c5.952-3.645 10.155-9.651 11.318-16.683l0.019-0.14v-292.571l-141.897 163.474-146.286-170.423-100.937 96.183-135.68-140.8v343.040c0.409 7.323 4.023 13.726 9.45 17.877l0.058 0.043zM445.806 529.189c0-34.336-27.835-62.171-62.171-62.171s-62.171 27.835-62.171 62.171c0 34.336 27.835 62.171 62.171 62.171s62.171-27.835 62.171-62.171z" />
<glyph unicode="&#xe94c;" glyph-name="submission-step-4" d="M792.137 722.286l-232.229 96.914c-14.228 5.518-30.695 8.715-47.909 8.715s-33.68-3.197-48.839-9.029l0.931 0.315-232.229-96.549c-32.607-15.088-55.084-47.017-56.316-84.324l-0.004-0.156v-379.246c1.236-37.463 23.713-69.392 55.726-84.233l0.594-0.247 232.229-96.914c13.772-5.56 29.742-8.785 46.465-8.785 0.508 0 1.014 0.003 1.521 0.009l-0.077-0.001c0.449-0.006 0.979-0.009 1.511-0.009 16.701 0 32.648 3.226 47.252 9.089l-0.854-0.303 232.229 96.914c32.607 15.088 55.084 47.017 56.316 84.324l0.004 0.156v379.246c-1.38 37.318-23.818 69.080-55.725 83.867l-0.595 0.247zM763.977 241.737l-232.229-96.914c-5.902-1.934-12.695-3.050-19.749-3.050s-13.846 1.116-20.212 3.18l0.463-0.13-232.229 96.914c-5.952 3.645-10.155 9.651-11.318 16.683l-0.019 0.14v379.246c1.353 7.287 5.824 13.32 11.947 16.76l0.121 0.063 232.229 96.914c5.334 1.874 11.485 2.957 17.888 2.957 0.654 0 1.306-0.011 1.954-0.034l-0.094 0.003c0.555 0.020 1.206 0.031 1.86 0.031 6.403 0 12.554-1.083 18.278-3.075l-0.39 0.118 230.4-96.183-246.126-245.76-138.971 138.606-77.531-77.897 151.771-151.406c16.482-16.495 39.258-26.698 64.417-26.698 0.111 0 0.221 0 0.331 0.001h-0.017c0.049 0 0.106 0 0.163 0 25.207 0 48.031 10.201 64.57 26.699l194.558 194.192v-256c-1.747-6.703-6.126-12.158-11.941-15.297l-0.128-0.063z" />
<glyph unicode="&#xe94d;" glyph-name="ic_manage-subs" d="M856.618 372.236c-35.505 24.707-78.655 39.192-125.189 39.192-121.187 0-219.429-98.242-219.429-219.429 0-39.968 10.686-77.439 29.356-109.714h-241.472l38.723 232.724h-228.892l45.429 267.718h228.918l38.697 230.987h277.713l-38.697-230.987h230.562l-35.718-210.491zM731.429 6.33c-102.543 0-185.67 83.127-185.67 185.67s83.127 185.67 185.67 185.67c102.543 0 185.67-83.127 185.67-185.67s-83.127-185.67-185.67-185.67zM695.51 102.008c8.704 0.054 17.026 3.58 23.118 9.796l142.89 142.629-27.69 27.69-138.318-138.057-66.743 66.351-27.69-27.82 71.314-71.053c6.136-6.12 14.452-9.55 23.118-9.535z" />
<glyph unicode="&#xe94e;" glyph-name="ic_go-plus" d="M384.061 582.727l38.697 230.987h277.713l-38.697-230.987h230.562l-45.429-267.718h-230.588l-38.723-232.724h-277.713l38.723 232.724h-228.892l45.429 267.718z" />
<glyph unicode="&#xe94f;" glyph-name="plus" d="M564.297 919.771h-104.594v-419.474h-419.474v-104.594h419.474v-419.474h104.594v419.474h419.474v104.594h-419.474v419.474z" />
<glyph unicode="&#xe950;" glyph-name="loader" d="M786.286 445.074c-1.654-150.22-123.815-271.36-274.27-271.36-151.484 0-274.286 122.802-274.286 274.286 0 151.478 122.793 274.277 274.27 274.286h0.001v91.429c-201.973-0.007-365.703-163.74-365.703-365.714 0-201.978 163.736-365.714 365.714-365.714 200.95 0 364.045 162.072 365.702 362.631l0.001 0.158z" />
<glyph unicode="&#xe951;" glyph-name="move" d="M491.154 810.057l-106.057-106.057 24.869-25.234 84.48 84.114v-182.857h36.571v182.857l84.48-84.114 23.406 25.234-106.057 106.057c-5.31 5.389-12.688 8.728-20.846 8.728s-15.536-3.339-20.842-8.725l-0.004-0.004zM529.554 132.754v182.857h-36.571v-182.857l-84.48 84.114-24.869-25.234 106.057-105.691c5.31-5.389 12.688-8.728 20.846-8.728s15.536 3.339 20.842 8.725l0.004 0.004 107.52 106.057-24.869 25.234zM874.057 468.846l-106.057 106.057-25.234-24.869 84.114-84.48h-182.857v-36.571h182.857l-84.114-84.48 25.234-24.869 105.691 106.057c5.956 5.377 9.683 13.126 9.683 21.745 0 8.445-3.578 16.054-9.3 21.394l-0.017 0.016zM280.869 550.034l-24.869 24.869-106.057-106.057c-5.389-5.31-8.728-12.688-8.728-20.846s3.339-15.536 8.725-20.842l106.061-106.061 25.234 24.869-84.114 84.48h182.857v36.571h-182.857z" />
<glyph unicode="&#xe952;" glyph-name="person" d="M512 382.537l-264.046-110.080v-190.171h528.091v190.171l-264.046 110.080zM677.669 494.446v250.149l-165.669 69.12-165.669-69.12v-250.149l165.669-69.12 165.669 69.12z" />
<glyph unicode="&#xe953;" glyph-name="notification" d="M585.15 164.754h-0.037c1.719 0 3.401-0.256 5.047-0.768 8.521-2.743 13.202-11.849 10.459-20.334-8.046-23.918-26.843-42.715-50.761-50.761-42.24-14.19-87.991 8.521-102.181 50.761-3.511 10.386 4.498 21.102 15.47 21.102h122.002zM828.46 258.962v0.037c18.103-22.089 0.585-53.321-29.879-53.321h-541.915c-29.513 0-47.25 29.477-31.159 51.749l74.971 70.034h0.366v194.779c0 104.594 73.289 192.951 171.008 216.247v23.406c0 28.489 23.333 51.822 51.858 51.822 28.489 0 51.822-23.296 51.822-51.822v-23.552c97.317-23.698 170.13-111.799 170.13-216.137v-195.511l82.798-67.73z" />
<glyph unicode="&#xe954;" glyph-name="notif_comment" d="M465.384 83.575c-5.831 0-11.653 1.783-16.621 5.357-9.984 7.196-14.213 19.996-10.477 31.725l26.103 81.948h-180.736c-47.057 0-85.333 38.277-85.333 85.324v399.531c0 11.833 7.32 22.424 18.385 26.615l280.5 106.003c6.485 2.437 13.634 2.437 20.12 0l280.491-106.003c11.065-4.191 18.385-14.782 18.385-26.615v-399.531c0-47.047-38.277-85.324-85.333-85.324h-93.402l-155.297-113.55c-4.987-3.65-10.885-5.48-16.782-5.48zM255.208 667.804v-379.876c0-15.682 12.762-28.435 28.444-28.435h219.657c9.083 0 17.607-4.333 22.964-11.662s6.893-16.773 4.134-25.429l-11.463-35.982 92.435 67.584c4.873 3.565 10.752 5.49 16.792 5.49h102.694c15.682 0 28.444 12.753 28.444 28.435v379.876l-252.046 95.251-252.056-95.251zM659.098 531.036h-303.673c-15.654 0-28.444 12.8-28.444 28.444s12.791 28.444 28.444 28.444h303.673c15.644 0 28.444-12.8 28.444-28.444s-12.8-28.444-28.444-28.444zM659.098 395.138h-303.673c-15.654 0-28.444 12.8-28.444 28.444 0 15.635 12.791 28.444 28.444 28.444h303.673c15.644 0 28.444-12.809 28.444-28.444 0-15.644-12.8-28.444-28.444-28.444z" />
<glyph unicode="&#xe955;" glyph-name="notif_comic" d="M507.285 747.824c-0.787 0-1.593-0.085-2.067-0.247l-257.972-107.492 0.275-394.050 257.764-107.122c0.218-0.076 3.631-0.104 4.030 0.038l257.953 107.482-0.265 394.041-257.745 107.122c-0.436 0.152-1.195 0.228-1.972 0.228zM507.256 81.807c-8.363 0-16.593 1.583-23.817 4.57l-258.057 107.529c-20.793 8.676-34.75 29.62-34.75 52.129v394.439c0 22.49 13.947 43.435 34.702 52.11l258.048 107.529c14.706 6.125 32.996 6.125 47.739 0l258.020-107.501c20.783-8.685 34.75-29.63 34.75-52.139v-394.439c0-22.509-13.966-43.454-34.731-52.11l-258.029-107.52c-7.253-3.006-15.502-4.599-23.874-4.599zM399.224 634.589l208.588-282.026v282.243l72.695-17.806v-340.499l-72.695-26.641-208.588 277.807v-277.876l-72.695 26.709v340.499l72.695 17.806v-0.217z" />
<glyph unicode="&#xe956;" glyph-name="notif_achievement" d="M497.691 557.17l-0.041-0.020c0.021 0.010 0.031 0.020 0.041 0.020zM295.777 172.452l200.416-82.478 200.436 82.478v301.632l-200.426 82.468-200.426-82.478v-301.622zM567.362 593.187l158.085-65.047c19.609-8.082 32.781-27.611 32.781-48.59v-312.573c0-20.979-13.162-40.499-32.761-48.57l-207.038-85.206c-6.797-2.778-14.476-4.259-22.238-4.259-7.721 0-15.379 1.47-22.135 4.228l-207.089 85.226c-19.62 8.071-32.792 27.591-32.792 48.58v312.573c0 20.969 13.162 40.489 32.761 48.57l158.108 65.069-249.503 246.423 130.305 7.017 190.358-197.515 190.358 197.515 130.305-7.017-249.505-246.425zM575.012 201.193c1.489 0 2.957 0.456 4.22 1.359 2.423 1.734 3.501 4.766 2.69 7.625l-25.102 89.069 73.325 57.483c2.351 1.845 3.296 4.928 2.372 7.747-0.934 2.819-3.542 4.756-6.519 4.887l-93.54 3.944-32.689 86.625c-2.094 5.536-11.355 5.536-13.449 0l-32.689-86.625-93.54-3.944c-2.977-0.132-5.585-2.069-6.509-4.887s0.010-5.901 2.372-7.747l73.314-57.483-25.102-89.069c-0.811-2.859 0.267-5.891 2.69-7.625 2.433-1.744 5.688-1.815 8.183-0.183l78.006 51.115 78.006-51.115c1.201-0.791 2.577-1.176 3.963-1.176z" />
<glyph unicode="&#xe957;" glyph-name="notif_announcement" d="M503.447 633.047l-141.215-113.013c-1.925-1.536-4.826-4.157-7.32-6.566l-19.143-47.866c0.017-0.058 0.033-0.116 0.049-0.174l0.212 0.091 92.463-221.098-0.592-0.254c1.025-1.521 1.93-3.134 2.702-4.827 0.123-0.192 0.275-0.403 0.446-0.653l46.81-19.19c3.47 0.134 7.386 0.403 9.861 0.739l176.398 23.164-160.67 389.648zM552.018 671.917c2.453-2.53 4.478-5.56 5.903-9.019l168.012-407.453c0.512-1.24 0.93-2.497 1.259-3.763l66.695 8.758-189.582 453.322-52.286-41.844zM294.734 416.538l-81.721-35.033-16.128-106.022 86.424-62.035 81.712 35.023-70.286 168.067zM282.265 154.436c-9.51 0-19.096 2.842-26.662 8.285l-98.219 70.522c-12.99 9.331-20.376 26.976-17.958 42.912l18.337 120.518c2.313 15.158 13.236 29.357 27.174 35.347l93.8 40.214c0.161 3.216 0.853 6.374 2.039 9.35l23.552 58.867c1.308 3.254 3.186 6.24 5.547 8.813 4.542 4.944 11.88 11.808 17.076 15.955l263.917 211.21c8.941 7.171 20.262 9.706 31.014 6.922 10.761-2.784 19.494-10.502 23.96-21.178l211.342-505.354c4.466-10.656 3.859-22.387-1.669-32.15-5.528-9.773-15.218-16.224-26.596-17.712l-333.9-43.853c-6.618-0.864-16.574-1.478-23.154-1.258-3.451 0.067-6.865 0.787-10.069 2.093l-58.14 23.846c-3.224 1.315-6.172 3.226-8.713 5.626-1.147 1.075-2.399 2.342-3.688 3.754l-91.639-39.293c-5.414-2.304-11.368-3.437-17.351-3.437zM877.562 392.675c-2.494-1.018-5.205-1.594-8.050-1.642-12.392-0.182-22.575 9.83-22.765 22.358l-2.095 142.195-98.892 110.755c-8.306 9.302-7.585 23.654 1.602 32.064 9.15 8.4 23.353 7.68 31.659-1.622l104.552-117.091c3.65-4.070 5.708-9.37 5.793-14.87l2.228-150.749c0.142-9.648-5.689-17.99-14.033-21.398z" />
<glyph unicode="&#xe958;" glyph-name="notif_event" d="M701.525 741.863h55.836c49.531 0 89.837-40.8 89.837-90.96v-426.96c0-17.376-11.217-33.802-27.269-39.936l-284.966-109.037c-5.66-2.16-12.297-3.245-18.925-3.245-6.637 0-13.265 1.085-18.916 3.245l-284.975 109.037c-16.043 6.134-27.259 22.56-27.259 39.936v426.96c0 50.16 40.296 90.96 89.837 90.96h55.836v80.547h87.713v-80.547h195.537v80.547h87.713v-80.547zM241.778 543.538v-309.294l274.261-104.938 274.271 104.938v307.725h-539.295c-3.229 0-6.337 0.553-9.237 1.569zM241.778 598.001c2.899 1.016 6.008 1.568 9.237 1.568h539.295v51.334c0 18.394-14.782 33.36-32.948 33.36h-482.636c-18.167 0-32.948-14.966-32.948-33.36v-52.902zM670.667 412.369h-303.673c-15.644 0-28.444 12.97-28.444 28.8 0 15.84 12.8 28.8 28.444 28.8h303.673c15.644 0 28.444-12.96 28.444-28.8 0-15.83-12.8-28.8-28.444-28.8zM670.667 274.772h-303.673c-15.644 0-28.444 12.96-28.444 28.8s12.8 28.8 28.444 28.8h303.673c15.644 0 28.444-12.96 28.444-28.8s-12.8-28.8-28.444-28.8z" />
<glyph unicode="&#xe959;" glyph-name="notif_chapter" d="M524.052 302.914c-4.994 1.527-10.339 1.527-15.325 0l-225.669-68.655v176.535c0.974-0.105 1.949-0.219 2.932-0.219 3.011 0 6.065 0.527 9.058 1.624l224.028 68.374 224.072-68.216c2.159-0.843 4.362-1.273 6.565-1.51v-176.587l-225.66 68.655zM516.39 726.315l233.323-88.175v-172.839l-220.903 67.97c-5.96 2.291-12.56 2.352-18.555 0.158l-227.196-69.901v174.612l233.332 88.175zM785.357 680.972l-259.663 98.128c-5.995 2.265-12.613 2.265-18.616 0l-259.654-98.128c-10.243-3.871-17.028-13.675-17.028-24.629v-457.623c0-8.347 3.958-16.203 10.655-21.153 6.706-4.977 15.386-6.486 23.347-4.046l251.992 76.677 251.992-76.677c2.51-0.755 5.091-1.132 7.662-1.132 5.573 0 11.086 1.764 15.676 5.179 6.706 4.95 10.655 12.806 10.655 21.153v457.623c0 10.954-6.785 20.758-17.019 24.629z" />
<glyph unicode="&#xe95a;" glyph-name="ic_premium-comics" d="M522.484 512.254c2.186 0.475 4.456 0.726 6.785 0.726 1.633 0 3.238-0.123 4.804-0.361l297.43 90.388c9.598 2.928 20.065 1.12 28.139-4.862 8.085-5.982 12.847-15.431 12.847-25.482v-413.653c0-13.19-8.17-24.996-20.52-29.667l-313.074-118.162c-7.238-2.716-15.207-2.716-22.446 0l-313.063 118.162c-12.35 4.672-20.53 16.477-20.53 29.667v413.653c0 10.051 4.773 19.5 12.847 25.482 5.535 4.090 12.181 6.225 18.9 6.225 3.101 0 6.212-0.454 9.249-1.363l298.631-90.753zM561.017 87.325l247.978 93.594v348.96l-247.978-75.358v-367.196zM497.522 86.124v367.427l-251.169 76.328v-348.96l251.169-94.795zM526.624 564.506c-3.228 0-6.445 0.486-9.545 1.459l-197.1 62.093c-13.218 4.175-22.202 16.403-22.202 30.249v191.565c0 11.351 6.085 21.846 15.948 27.49 9.852 5.654 22.001 5.623 31.822-0.116l84.904-49.558 82.777 54.008c10.699 6.976 24.552 6.88 35.145-0.275l80.163-54.093 74.85 50.182c9.747 6.542 22.297 7.145 32.626 1.659 10.35-5.506 16.816-16.266 16.816-27.976v-196.849c0-14.004-9.207-26.359-22.647-30.376l-194.454-58.13c-2.963-0.888-6.032-1.332-9.101-1.332zM361.271 681.548l165.596-52.169 162.463 48.565v113.766l-43.156-28.928c-10.731-7.208-24.763-7.176-35.473 0.042l-80.406 54.262-81.549-53.215c-10.075-6.585-22.996-6.902-33.388-0.824l-54.087 31.57v-113.068z" />
<glyph unicode="&#xe95b;" glyph-name="ic_no-ads" d="M851.551 639.57l-56.877-41.473c2.68-7.496 4.133-15.519 4.133-23.856v-215.85c0-41.259-35.584-74.828-79.319-74.828h-168.304v-192.728l300.675 118.19-0.307 430.545zM816.379 701.229l-296.586 116.285c-0.561 0.184-1.538 0.276-2.538 0.276-1.013 0-2.050-0.104-2.66-0.299l-332.017-130.511 0.331-447.654 84.885 61.895c-17.235 13.737-28.198 34.269-28.198 57.17v215.85c0 41.259 35.584 74.828 79.319 74.828h400.573c7.455 0 14.674-0.975 21.519-2.798l75.372 54.958zM233.328 188.784l249.938-97.988v192.768h-119.954l-129.983-94.779zM665.905 591.509h-346.99c-9.921 0-18.304-7.909-18.304-17.268v-215.85c0-9.359 8.383-17.268 18.304-17.268h3.602l343.388 250.386zM737.792 556.621l-295.541-215.498h277.237c9.921 0 18.304 7.909 18.304 17.268v198.23zM517.218 9.143c-10.763 0-21.355 1.923-30.654 5.549l-332.127 130.557c-26.761 10.533-44.724 35.963-44.724 63.293v478.91c0 27.306 17.95 52.736 44.663 63.27l332.115 130.557c18.927 7.437 42.466 7.437 61.442 0l332.078-130.523c26.749-10.545 44.724-35.975 44.724-63.304v-478.91c0-27.329-17.975-52.759-44.699-63.27l-332.090-130.546c-9.335-3.649-19.952-5.583-30.727-5.583z" />
<glyph unicode="&#xe95c;" glyph-name="ic_premium-border" d="M652.65 276.652l58.934 23.466-0.205 292.992-197.743 78.535-197.972-78.823 0.217-292.992 60.35-23.969v80.266c0 9.382 6.083 18.131 15.142 21.735l112.647 44.862c6.421 2.556 14.408 2.556 20.84 0l112.622-44.839c9.083-3.626 15.167-12.364 15.167-21.758v-79.475zM511.994 9.143c-10.625 0-21.081 1.923-30.261 5.549l-327.869 130.557c-26.418 10.533-44.15 35.963-44.15 63.293v478.91c0 27.306 17.72 52.736 44.090 63.27l327.857 130.557c18.684 7.437 41.922 7.437 60.654 0l327.82-130.523c26.406-10.545 44.15-35.975 44.15-63.304v-478.91c0-27.329-17.744-52.759-44.126-63.27l-327.833-130.546c-9.216-3.649-19.696-5.583-30.333-5.583zM512.030 817.791c-1 0-2.024-0.104-2.626-0.299l-327.76-130.511 0.349-478.438 327.495-130.062c0.277-0.092 4.614-0.127 5.12 0.046l327.736 130.5-0.337 478.427-327.471 130.062c-0.554 0.184-1.518 0.276-2.506 0.276zM513.287 150.001c-4.794 0-9.481 0.691-13.468 2.026-0.614 0.219-1.229 0.437-1.843 0.679l-232.087 92.176c-13.48 5.342-22.262 17.913-22.274 31.865l-0.253 339.063c-0.012 13.953 8.77 26.535 22.25 31.911l232.28 92.487c0.53 0.207 1.072 0.414 1.626 0.599 8.698 2.993 19.527 3.028 28.261-0.012 0.506-0.184 1.012-0.38 1.518-0.564l232.075-92.176c13.48-5.353 22.262-17.936 22.274-31.877l0.241-339.051c0.012-13.953-8.77-26.524-22.25-31.9l-232.256-92.476c-4.879-1.842-10.553-2.751-16.094-2.751zM575.821 591.519c4.879-1.946 8.143-6.642 8.143-11.685v-88.389c0-5.054-3.265-9.739-8.143-11.685l-60.497-24.095c-1.711-0.668-3.65-1.036-5.614-1.036-1.952 0-3.891 0.368-5.578 1.025l-60.521 24.106c-4.867 1.946-8.143 6.631-8.143 11.685v88.389c0 5.042 3.265 9.739 8.131 11.685l60.521 24.095c3.445 1.37 7.734 1.37 11.191 0l60.509-24.095z" />
<glyph unicode="&#xe95d;" glyph-name="ic_premium-early" d="M583.169 574.792v105.244c0 114.039 97.995 206.821 218.442 206.821s218.442-92.782 218.442-206.821v-89.048c0-19.039-16.298-34.47-36.407-34.47s-36.407 15.431-36.407 34.47v89.048c0 76.030-65.326 137.88-145.628 137.88s-145.628-61.851-145.628-137.88v-105.241c36.158 0.001 57.798 0.002 64.919 0.002 34.478 0 49.502-31.287 49.502-55.060v-354.192c0-23.761-15.675-45.88-39.017-55.037l-246.571-96.539c-8.094-3.16-17.24-4.826-26.484-4.826-9.195 0-18.316 1.655-26.362 4.791l-246.633 96.562c-23.366 9.158-39.053 31.276-39.053 55.049v354.192c0 23.761 13.578 55.037 51.923 55.037 169.188 0.008 297.508 0.014 384.96 0.018zM208.698 170.591l249.635-93.46 249.66 93.46v341.794l-499.295-0.011v-341.783zM520.757 357.491c0-21.061-10.824-39.618-27.3-50.648v-91.070c0-19.039-15.716-34.47-35.106-34.47s-35.106 15.431-35.106 34.47v91.070c-16.476 11.030-27.312 29.587-27.312 50.648 0 33.838 27.944 61.276 62.418 61.276 34.462 0 62.406-27.438 62.406-61.276z" />
<glyph unicode="&#xe95e;" glyph-name="ic_premium-sticker" d="M182.857 448c0-120.686 67.438-229.998 171.52-287.305-5.376 24.539-8.594 49.92-8.594 76.069 0 201.143 164.571 365.714 365.714 365.714 33.463 0 65.755-4.937 96.585-13.568-54.345 113.664-168.997 188.233-296.082 188.233-181.467 0-329.143-147.639-329.143-329.143zM890.953 581.413l7.717-21.723-498.359-498.359-21.76 7.717c-160.805 57.015-268.837 209.335-268.837 378.953 0 221.806 180.48 402.286 402.286 402.286 169.655 0 321.938-108.032 378.953-268.873zM494.804 119.322c20.187-1.024 40.96-0.256 61.111 2.45l9.728-72.485c-17.701-2.341-35.767-3.584-53.65-3.584-7.022 0-14.007 0.183-20.919 0.549l3.73 73.070zM615.303 135.607c19.2 6.4 37.998 14.665 55.845 24.649l35.621-63.927c-21.87-12.142-44.837-22.309-68.352-30.135l-23.113 69.413zM721.624 194.787c15.689 12.983 30.208 27.538 43.227 43.191l56.247-46.738c-15.872-19.127-33.646-36.864-52.809-52.736l-46.665 56.283zM913.733 468.465c0.366-6.802 0.549-13.605 0.549-20.48 0-18.139-1.28-36.389-3.694-54.235l-72.448 9.874c1.975 14.629 2.999 29.55 2.999 44.398 0 5.486-0.146 10.935-0.439 16.457l73.033 3.986zM799.554 288.391c9.947 17.774 18.286 36.571 24.722 55.808l69.339-23.186c-7.863-23.589-18.030-46.592-30.245-68.352l-63.817 35.73z" />
<glyph unicode="&#xe95f;" glyph-name="ic_point" d="M543.415 125.945c-15.713 11.284-36.892 11.284-52.586 0l-125.869-90.569c-35.168-25.32-82.325 8.828-69.040 49.994l47.527 147.285c5.911 18.376-0.63 38.469-16.269 49.883l-125.313 91.307c-35.020 25.523-17.010 80.78 26.367 80.91l155.256 0.462c19.363 0.055 36.503 12.466 42.543 30.805l48.398 147.008c13.545 41.092 71.838 41.092 85.364 0l48.417-147.008c6.022-18.339 23.18-30.75 42.543-30.805l155.238-0.462c43.377-0.129 61.387-55.386 26.386-80.91l-125.332-91.307c-15.639-11.413-22.179-31.507-16.25-49.883l47.546-147.285c13.267-41.166-33.908-75.314-69.058-49.994l-125.869 90.569zM512 757.195c-12.288 0-22.25 10.719-22.25 23.941v118.352c0 13.199 9.962 23.941 22.25 23.941s22.25-10.741 22.25-23.941v-118.352c0-13.222-9.962-23.941-22.25-23.941zM255.067 624.208c-6.201 0-12.402 2.351-17.126 7.075l-84.554 84.613c-9.469 9.449-9.469 24.764 0 34.212 9.447 9.449 24.737 9.449 34.207 0l84.576-84.568c9.469-9.471 9.469-24.786 0-34.257-4.724-4.724-10.925-7.075-17.103-7.075zM768.937 624.208c-6.201 0-12.402 2.351-17.125 7.075-9.447 9.471-9.447 24.786 0 34.257l84.595 84.568c9.469 9.449 24.758 9.449 34.205 0 9.469-9.449 9.469-24.764 0-34.212l-84.573-84.613c-4.723-4.724-10.924-7.075-17.103-7.075z" />
<glyph unicode="&#xe960;" glyph-name="ic_lock-episode" d="M213.333 448v-426.667h597.333v426.667h-597.333zM469.333 203.416v-54.083c0-23.564 19.103-42.667 42.667-42.667s42.667 19.103 42.667 42.667v54.083c25.506 14.755 42.667 42.332 42.667 73.917 0 47.128-38.205 85.333-85.333 85.333s-85.333-38.205-85.333-85.333c0-31.585 17.16-59.163 42.667-73.917zM682.667 533.333v170.667c0 94.257-76.41 170.667-170.667 170.667s-170.667-76.41-170.667-170.667v-170.667h341.333zM256 533.333v170.667c0 141.385 114.615 256 256 256s256-114.615 256-256v-170.667h42.667c47.128 0 85.333-38.205 85.333-85.333v-426.667c0-47.128-38.205-85.333-85.333-85.333h-597.333c-47.128 0-85.333 38.205-85.333 85.333v426.667c0 47.128 38.205 85.333 85.333 85.333h42.667z" />
<glyph unicode="&#xe961;" glyph-name="ic_unlocked-episode" d="M585.143 521.143v146.286c0 120.686 98.743 219.429 219.429 219.429s219.429-98.743 219.429-219.429v-43.886h-73.143v43.886c0 80.457-65.829 146.286-146.286 146.286s-146.286-65.829-146.286-146.286v-146.286h73.143c40.229 0 73.143-32.914 73.143-73.143v-365.714c0-40.229-32.914-73.143-73.143-73.143h-512c-40.229 0-73.143 32.914-73.143 73.143v365.714c0 40.229 32.914 73.143 73.143 73.143h365.714zM219.429 448v-365.714h512v365.714h-512zM438.857 239.543c-21.943 10.971-36.571 36.571-36.571 62.171 0 40.229 32.914 73.143 73.143 73.143s73.143-32.914 73.143-73.143c0-25.6-14.629-51.2-36.571-62.171v-47.543c0-21.943-14.629-36.571-36.571-36.571s-36.571 14.629-36.571 36.571v47.543z" />
<glyph unicode="&#xe962;" glyph-name="ic_expired" d="M939.886 714.971l-197.486 164.571-54.857-65.829 197.486-164.571zM336.457 813.714l-54.857 65.829-197.486-164.571 54.857-62.171zM512 788.114c-212.114 0-384-171.886-384-384s171.886-384 384-384c212.114 0 384 171.886 384 384s-171.886 384-384 384zM512 107.886c-164.571 0-299.886 135.314-299.886 299.886 0 160.914 135.314 296.229 299.886 296.229s299.886-135.314 299.886-299.886c0-164.571-135.314-296.229-299.886-296.229zM533.943 619.886h-65.829v-256l204.8-124.343 29.257 54.857-168.229 98.743z" />
<glyph unicode="&#xe963;" d="M844.8 266.24c-7.434 1.63-15.972 2.563-24.729 2.563-0.306 0-0.612-0.001-0.918-0.003h0.047c-70.692 0-128-57.308-128-128v0c-0.002-0.259-0.003-0.565-0.003-0.871 0-8.757 0.933-17.296 2.706-25.522l-0.143 0.793c12.339-58.827 63.788-102.367 125.407-102.367 70.692 0 128 57.308 128 128 0 61.619-43.54 113.068-101.533 125.26l-0.834 0.147zM833.024 101.376c-6.621-6.397-15.65-10.339-25.6-10.339s-18.979 3.942-25.611 10.349l0.011-0.010-36.608 36.352 22.272 22.272 36.608-36.352c0.963-0.921 2.271-1.487 3.712-1.487s2.749 0.567 3.714 1.489l-0.002-0.002 71.936 71.68 22.272-22.272z" />
<glyph unicode="&#xe964;" d="M810.752 123.648c-0.963-0.921-2.271-1.487-3.712-1.487s-2.749 0.567-3.714 1.489l0.002-0.002-35.328 36.352-22.272-22.272 36.608-36.352c6.621-6.397 15.65-10.339 25.6-10.339s18.979 3.942 25.611 10.349l-0.011-0.010 71.936 71.68-22.272 22.272z" />
<glyph unicode="&#xe965;" d="M819.2 268.8c0.259 0.002 0.565 0.003 0.871 0.003 8.757 0 17.296-0.933 25.522-2.706l-0.793 0.143v386.56c-0.168 22.203-6.032 43-16.2 61.050l0.328-0.634-243.712-100.864 96.256-39.936v-249.344l-446.976-185.088c20.188-14.255 45.305-22.784 72.413-22.784 0.102 0 0.204 0 0.307 0h386.544c-1.63 7.434-2.563 15.972-2.563 24.729 0 0.306 0.001 0.612 0.003 0.918v-0.047c0 70.692 57.308 128 128 128v0z" />
<glyph unicode="&#xe966;" d="M438.528 283.136l186.88 76.8v175.36l-113.408 47.104-113.408-47.104v-174.592l40.192-16.64v-60.672l-96.256 39.936v249.344l446.976 185.344c-20.188 14.255-45.305 22.784-72.413 22.784-0.102 0-0.204 0-0.307 0h-409.584c-70.692 0-128-57.308-128-128v0-409.6c0.193-22.289 6.052-43.168 16.205-61.32l-0.333 0.648 167.424 69.12z" />
<glyph unicode="&#xe967;" d="M844.8 266.24c-7.434 1.63-15.972 2.563-24.729 2.563-0.306 0-0.612-0.001-0.918-0.003h0.047c-70.692 0-128-57.308-128-128v0c-0.002-0.259-0.003-0.565-0.003-0.871 0-8.757 0.933-17.296 2.706-25.522l-0.143 0.793c12.339-58.827 63.788-102.367 125.407-102.367 70.692 0 128 57.308 128 128 0 61.619-43.54 113.068-101.533 125.26l-0.834 0.147zM833.024 101.376c-6.621-6.397-15.65-10.339-25.6-10.339s-18.979 3.942-25.611 10.349l0.011-0.010-36.608 36.352 22.272 22.272 36.608-36.352c0.963-0.921 2.271-1.487 3.712-1.487s2.749 0.567 3.714 1.489l-0.002-0.002 71.936 71.68 22.272-22.272z" />
<glyph unicode="&#xe968;" d="M810.752 123.648c-0.963-0.921-2.271-1.487-3.712-1.487s-2.749 0.567-3.714 1.489l0.002-0.002-35.328 36.352-22.272-22.272 36.608-36.352c6.621-6.397 15.65-10.339 25.6-10.339s18.979 3.942 25.611 10.349l-0.011-0.010 71.936 71.68-22.272 22.272z" />
<glyph unicode="&#xe969;" d="M716.8 834.816c-0.076 0-0.167 0-0.257 0-86.103 0-155.904-69.801-155.904-155.904 0-0.18 0-0.36 0.001-0.54v0.028c0-0.046 0-0.101 0-0.155 0-16.283 2.432-31.999 6.954-46.802l-0.298 1.133-139.52-80.384c-28.854 34.894-72.152 56.96-120.604 56.96-86.245 0-156.16-69.915-156.16-156.16s69.915-156.16 156.16-156.16c48.452 0 91.75 22.066 120.393 56.698l0.211 0.262 98.048-56.576c7.040 16.913 15.632 31.507 25.921 44.716l-0.321-0.428-98.304 56.832c6.364 16.223 10.053 35.009 10.053 54.656s-3.689 38.433-10.412 55.703l0.359-1.047 136.96 79.104c28.696-38.834 74.312-63.741 125.746-63.741 86.103 0 155.904 69.801 155.904 155.904 0 85.761-69.246 155.348-154.877 155.901h-0.053z" />
<glyph unicode="&#xe96a;" d="M716.8 373.248c-86.245 0-156.16-69.915-156.16-156.16s69.915-156.16 156.16-156.16c86.245 0 156.16 69.915 156.16 156.16v0c0 86.245-69.915 156.16-156.16 156.16v0zM733.952 168.448c-8.142-8.085-19.359-13.082-31.744-13.082s-23.602 4.997-31.747 13.084l0.003-0.003-44.544 44.288 25.6 27.392 44.8-44.544c1.166-1.208 2.799-1.959 4.608-1.959s3.442 0.75 4.606 1.957l88.066 88.066 27.136-27.392z" />
<glyph unicode="&#xe96b;" d="M716.8 834.816c-0.076 0-0.167 0-0.257 0-86.103 0-155.904-69.801-155.904-155.904 0-0.18 0-0.36 0.001-0.54v0.028c0-0.046 0-0.101 0-0.155 0-16.283 2.432-31.999 6.954-46.802l-0.298 1.133-139.52-80.384c-28.854 34.894-72.152 56.96-120.604 56.96-86.245 0-156.16-69.915-156.16-156.16s69.915-156.16 156.16-156.16c48.452 0 91.75 22.066 120.393 56.698l0.211 0.262 98.048-56.576c7.040 16.913 15.632 31.507 25.921 44.716l-0.321-0.428-98.304 56.832c6.364 16.223 10.053 35.009 10.053 54.656s-3.689 38.433-10.412 55.703l0.359-1.047 136.96 79.104c28.696-38.834 74.312-63.741 125.746-63.741 86.103 0 155.904 69.801 155.904 155.904 0 85.761-69.246 155.348-154.877 155.901h-0.053z" />
<glyph unicode="&#xe96c;" d="M716.8 373.248c-86.245 0-156.16-69.915-156.16-156.16s69.915-156.16 156.16-156.16c86.245 0 156.16 69.915 156.16 156.16v0c0 86.245-69.915 156.16-156.16 156.16v0zM733.952 168.448c-8.142-8.085-19.359-13.082-31.744-13.082s-23.602 4.997-31.747 13.084l0.003-0.003-44.544 44.288 25.6 27.392 44.8-44.544c1.166-1.208 2.799-1.959 4.608-1.959s3.442 0.75 4.606 1.957l88.066 88.066 27.136-27.392z" />
<glyph unicode="&#xe96d;" d="M870.4 137.984h-232.96c1.644-7.696 2.586-16.538 2.586-25.6s-0.942-17.904-2.733-26.433l0.146 0.833h232.96z" />
<glyph unicode="&#xe96e;" d="M386.56 137.984h-232.96v-51.2h232.96c-1.644 7.696-2.586 16.538-2.586 25.6s0.942 17.904 2.733 26.433l-0.146-0.833z" />
<glyph unicode="&#xe96f;" d="M588.8 112.384c0-42.415-34.385-76.8-76.8-76.8s-76.8 34.385-76.8 76.8c0 42.415 34.385 76.8 76.8 76.8s76.8-34.385 76.8-76.8z" />
<glyph unicode="&#xe970;" d="M811.776 715.776l-94.976-74.752v-167.424l94.976-74.752c6.116-4.918 13.975-7.894 22.529-7.894 19.83 0 35.926 15.991 36.095 35.782v260.624c0 0.063 0.001 0.138 0.001 0.213 0 19.935-16.161 36.096-36.096 36.096-8.554 0-16.413-2.976-22.599-7.948l0.070 0.055z" />
<glyph unicode="&#xe971;" d="M563.2 813.056h-307.2c-56.554 0-102.4-45.846-102.4-102.4v0-307.2c0-56.554 45.846-102.4 102.4-102.4v0h307.2c56.554 0 102.4 45.846 102.4 102.4v0 307.2c0 56.554-45.846 102.4-102.4 102.4v0zM336.384 442.88v228.352l197.632-114.176z" />
<glyph unicode="&#xe972;" d="M870.4 137.984h-232.96c1.644-7.696 2.586-16.538 2.586-25.6s-0.942-17.904-2.733-26.433l0.146 0.833h232.96z" />
<glyph unicode="&#xe973;" d="M386.56 137.984h-232.96v-51.2h232.96c-1.644 7.696-2.586 16.538-2.586 25.6s0.942 17.904 2.733 26.433l-0.146-0.833z" />
<glyph unicode="&#xe974;" d="M588.8 112.384c0-42.415-34.385-76.8-76.8-76.8s-76.8 34.385-76.8 76.8c0 42.415 34.385 76.8 76.8 76.8s76.8-34.385 76.8-76.8z" />
<glyph unicode="&#xe975;" d="M811.776 715.776l-94.976-74.752v-167.424l94.976-74.752c6.116-4.918 13.975-7.894 22.529-7.894 19.83 0 35.926 15.991 36.095 35.782v260.624c0 0.063 0.001 0.138 0.001 0.213 0 19.935-16.161 36.096-36.096 36.096-8.554 0-16.413-2.976-22.599-7.948l0.070 0.055z" />
<glyph unicode="&#xe976;" d="M563.2 813.056h-307.2c-56.554 0-102.4-45.846-102.4-102.4v0-307.2c0-56.554 45.846-102.4 102.4-102.4v0h307.2c56.554 0 102.4 45.846 102.4 102.4v0 307.2c0 56.554-45.846 102.4-102.4 102.4v0zM336.384 442.88v228.352l197.632-114.176z" />
<glyph unicode="&#xe977;" glyph-name="switch-sword" d="M194.176 887.936l597.184-590.016 58.048 57.408c8.804 8.704 20.914 14.081 34.28 14.081 0.098 0 0.197 0 0.295-0.001h-0.015c12.992 0 25.216-4.992 34.432-14.080 8.801-8.685 14.252-20.746 14.252-34.080s-5.451-25.395-14.247-34.075l-0.005-0.005-97.152-96 153.92-152c4.483-4.395 7.261-10.513 7.261-17.28s-2.779-12.885-7.257-17.276l-0.004-0.004-21.44-21.184c-4.554-4.314-10.719-6.967-17.504-6.967s-12.95 2.653-17.516 6.978l0.012-0.011-153.856 152.064-113.664-112.256-5.376-4.544c-8.093-5.731-18.169-9.162-29.046-9.162-13.38 0-25.547 5.19-34.598 13.668l0.028-0.026c-8.881 8.648-14.39 20.721-14.39 34.080s5.509 25.432 14.379 34.070l0.010 0.010 67.52 66.752-597.12 589.952 5.824 134.144 135.68 5.76zM317.696 399.552l141.568-139.904-84.032-83.072 69.76-68.928c8.881-8.648 14.39-20.721 14.39-34.080s-5.509-25.432-14.379-34.070l-0.010-0.010c-8.882-8.711-21.061-14.087-34.496-14.087s-25.614 5.376-34.504 14.095l0.008-0.008-101.504 100.288-158.272-156.352c-4.55-4.296-10.702-6.937-17.472-6.937s-12.922 2.641-17.484 6.948l0.012-0.012-21.504 21.184c-4.499 4.387-7.289 10.508-7.289 17.28s2.79 12.893 7.284 17.275l0.005 0.005 158.336 156.352-47.744 47.104-61.568 60.864c-8.817 8.678-14.28 20.741-14.28 34.080s5.463 25.402 14.273 34.074l0.006 0.006c8.785 8.703 20.878 14.081 34.228 14.081 0.117 0 0.234 0 0.35-0.001h-0.018c0.061 0 0.133 0 0.205 0 13.349 0 25.442-5.377 34.231-14.084l55.804-55.164 84.096 83.072zM812.032 887.936l135.744-5.76 5.888-134.144-265.088-261.888-141.632 139.904 265.088 261.888z" />
<glyph unicode="&#xe978;" glyph-name="switch-love" d="M939.072 749.44c-113.28 110.080-296.832 110.080-410.112 0l-16.96-16.512-16.96 16.512c-113.28 110.080-296.832 110.080-410.112 0-52.379-50.387-84.916-121.074-84.916-199.36s32.537-148.973 84.826-199.274l0.090-0.086 426.56-414.72 0.512 0.512 0.512-0.512 426.56 414.72c52.379 50.387 84.916 121.074 84.916 199.36s-32.537 148.973-84.826 199.274l-0.090 0.086z" />
</font>
</defs>
</svg>
